<?xml version="1.0" encoding="UTF-8"?>
<svg width="276px" height="170px" viewBox="0 0 276 170" version="1.1" xmlns="http://www.w3.org/2000/svg" xmlns:xlink="http://www.w3.org/1999/xlink">
    <!-- Generator: Sketch 53.2 (72643) - https://sketchapp.com -->
    <title>编组 25</title>
    <desc>Created with Sketch.</desc>
    <defs>
        <path d="M3.81878157,3.79993687 L6.91237373,0.706344699 L8.1498106,1.94378157 L5.05621843,5.03737373 L3.81878157,6.2748106 L0.725189399,3.18121843 L1.96262627,1.94378157 L3.81878157,3.79993687 Z" id="path-1"></path>
        <path d="M3.81878157,3.79993687 L6.91237373,0.706344699 L8.1498106,1.94378157 L5.05621843,5.03737373 L3.81878157,6.2748106 L0.725189399,3.18121843 L1.96262627,1.94378157 L3.81878157,3.79993687 Z" id="path-3"></path>
    </defs>
    <g id="页面1" stroke="none" stroke-width="1" fill="none" fill-rule="evenodd">
        <g id="医疗" transform="translate(-909.000000, -2665.000000)">
            <g id="编组-25" transform="translate(910.000000, 2665.000000)">
                <g id="编组-21复制-2">
                    <polyline id="路径-18" stroke="#2161FD" stroke-width="2" points="38.0169986 118 58.5 102.006853 64 108.36174"></polyline>
                    <polyline id="路径-19" stroke="#2161FD" stroke-width="2" points="29 104.72348 53 87.9437816 64 96.3336309"></polyline>
                    <path d="M58.5,91 L71,80.9198685" id="路径-20" stroke="#2161FD" stroke-width="2"></path>
                    <g id="编组-17" transform="translate(260.000000, 67.000000)" fill="#2161FD">
                        <ellipse id="椭圆形" cx="7.92403877" cy="2" rx="1" ry="2"></ellipse>
                        <g id="编组-12" transform="translate(0.000000, 0.169778)">
                            <ellipse id="椭圆形" transform="translate(11.137977, 3.000000) rotate(40.000000) translate(-11.137977, -3.000000) " cx="11.1379768" cy="3" rx="1" ry="2"></ellipse>
                            <ellipse id="椭圆形" transform="translate(12.848078, 5.961981) rotate(80.000000) translate(-12.848078, -5.961981) " cx="12.8480775" cy="5.96198133" rx="1" ry="2"></ellipse>
                            <ellipse id="椭圆形" transform="translate(12.254166, 9.330222) rotate(120.000000) translate(-12.254166, -9.330222) " cx="12.2541658" cy="9.33022222" rx="1" ry="2"></ellipse>
                            <ellipse id="椭圆形" transform="translate(9.634139, 11.528685) rotate(160.000000) translate(-9.634139, -11.528685) " cx="9.63413948" cy="11.5286853" rx="1" ry="2"></ellipse>
                            <ellipse id="椭圆形" transform="translate(6.213938, 11.528685) rotate(200.000000) translate(-6.213938, -11.528685) " cx="6.21393805" cy="11.5286853" rx="1" ry="2"></ellipse>
                            <ellipse id="椭圆形" transform="translate(3.593912, 9.330222) rotate(240.000000) translate(-3.593912, -9.330222) " cx="3.59391175" cy="9.33022222" rx="1" ry="2"></ellipse>
                            <ellipse id="椭圆形" transform="translate(3.000000, 5.961981) rotate(280.000000) translate(-3.000000, -5.961981) " cx="3" cy="5.96198133" rx="1" ry="2"></ellipse>
                            <ellipse id="椭圆形" transform="translate(4.710101, 3.000000) rotate(320.000000) translate(-4.710101, -3.000000) " cx="4.71010072" cy="3" rx="1" ry="2"></ellipse>
                        </g>
                    </g>
                    <path d="M220,16 L220,11 L232,11 C234.761424,11 237,8.76142375 237,6 C237,3.23857625 234.761424,1 232,1 L193,1 C190.238576,1 188,3.23857625 188,6 C188,8.76142375 190.238576,11 193,11 L207,11 L207,16 L204,16 C201.238576,16 199,18.2385763 199,21 C199,23.7614237 201.238576,26 204,26 L243,26 C245.761424,26 248,23.7614237 248,21 C248,18.2385763 245.761424,16 243,16 L220,16 Z" id="形状结合" stroke="#2161FD" stroke-width="2"></path>
                    <path d="M33,27 L33,23 L39.1290323,23 C40.714624,23 42,21.714624 42,20.1290323 L42,17.8709677 C42,16.285376 40.714624,15 39.1290323,15 L18.8709677,15 C17.285376,15 16,16.285376 16,17.8709677 L16,20.1290323 C16,21.714624 17.285376,23 18.8709677,23 L27,23 L27,27 L24.8709677,27 C23.285376,27 22,28.285376 22,29.8709677 L22,32.1290323 C22,33.714624 23.285376,35 24.8709677,35 L45.1290323,35 C46.714624,35 48,33.714624 48,32.1290323 L48,29.8709677 C48,28.285376 46.714624,27 45.1290323,27 L33,27 Z" id="形状结合复制" stroke="#2161FD" stroke-width="2"></path>
                    <path d="M8.9905429,169 C5.74377433,158.070166 4,146.489572 4,134.5 C4,67.9496876 57.72583,14 124,14 C190.27417,14 244,67.9496876 244,134.5 C244,146.489572 242.256226,158.070166 239.009457,169 L8.9905429,169 Z" id="形状结合" fill-opacity="0.06" fill="#2161FD"></path>
                    <path d="M32.4348038,169.000001 C28.2774996,158.130403 26,146.331171 26,134 C26,79.8760945 69.8760945,36 124,36 C178.123905,36 222,79.8760945 222,134 C222,146.33117 219.7225,158.130402 215.565197,169 L32.4347969,169 Z" id="形状结合" fill-opacity="0.06" fill="#2161FD"></path>
                    <g id="编组-20" transform="translate(0.000000, 166.000000)" fill="#2161FD">
                        <g id="编组-16">
                            <path d="M2,0 L21.2594305,0 L49,0 C50.1045695,-2.02906125e-16 51,0.8954305 51,2 L51,2 C51,3.1045695 50.1045695,4 49,4 L21.6710143,4 L2,4 C0.8954305,4 1.3527075e-16,3.1045695 0,2 L0,2 C-1.3527075e-16,0.8954305 0.8954305,2.02906125e-16 2,0 Z" id="矩形"></path>
                            <rect id="矩形复制-32" x="186" y="0" width="61" height="4" rx="2"></rect>
                            <rect id="矩形复制-30" x="113" y="0" width="53" height="4" rx="2"></rect>
                            <rect id="矩形复制-31" x="170" y="0" width="5" height="4" rx="2"></rect>
                        </g>
                        <g id="编组-16复制" transform="translate(53.000000, 0.000000)">
                            <path d="M2,0 L4.58536737,0 L9,0 C10.1045695,-2.02906125e-16 11,0.8954305 11,2 L11,2 C11,3.1045695 10.1045695,4 9,4 L4.67414033,4 L2,4 C0.8954305,4 5.7935996e-16,3.1045695 4.4408921e-16,2 L0,2 C-1.3527075e-16,0.8954305 0.8954305,2.02906125e-16 2,0 Z" id="矩形"></path>
                            <path d="M20,0 L35.5077663,0 L58,0 C59.1045695,-2.02906125e-16 60,0.8954305 60,2 L60,2 C60,3.1045695 59.1045695,4 58,4 L35.8467176,4 L20,4 C18.8954305,4 18,3.1045695 18,2 L18,2 C18,0.8954305 18.8954305,2.02906125e-16 20,0 Z" id="矩形复制-37"></path>
                            <rect id="矩形复制-31" x="165" y="0" width="4" height="4" rx="2"></rect>
                        </g>
                    </g>
                    <g id="编组-9" transform="translate(9.000000, 92.000000)" fill="#2161FD">
                        <rect id="矩形" transform="translate(6.000000, 6.000000) rotate(90.000000) translate(-6.000000, -6.000000) " x="0" y="5" width="12" height="2"></rect>
                        <rect id="矩形" x="0" y="5" width="12" height="2"></rect>
                    </g>
                </g>
                <path d="M201.356507,167 C201.124742,166.209578 201,165.370055 201,164.5 C201,159.80558 204.631483,156 209.111145,156 C210.261989,156 211.356854,156.251168 212.348546,156.704048 C213.679099,153.915097 216.430093,152 219.60792,152 C220.430025,152 221.223564,152.12817 221.971333,152.366481 C222.51665,151.573762 223.164898,150.863972 223.895558,150.258614 C224.395244,149.844621 224.933474,149.47947 225.503685,149.170039 C226.881495,148.422356 228.446028,148 230.104695,148 C231.206492,148 232.266752,148.186364 233.258337,148.530653 C237.246764,149.915478 240.124118,153.855317 240.124344,158.499451 C241.862677,159.86776 242.987101,162.046273 242.987101,164.5 C242.987101,165.376589 242.843596,166.218053 242.579861,167 L201.356507,167 Z" id="形状结合" stroke="#2161FD" stroke-width="2" fill="#FFFFFF"></path>
                <path d="M20.4541913,149.716754 C18.3461105,152.329061 15.1181896,154 11.5,154 C5.14872538,154 0,148.851275 0,142.5 C0,138.064098 2.51154957,134.214801 6.19021466,132.296541 C6.06560556,131.717418 6,131.116371 6,130.5 C6,126.775817 8.39507402,123.611033 11.7289426,122.461928 C13.3639996,118.102628 17.5696709,115 22.5,115 C27.3431764,115 31.4870879,117.993908 33.1819499,122.23194 C36.0589918,123.864631 38,126.955642 38,130.5 C38,130.514098 37.9999693,130.52819 37.9999079,130.542274 C42.639788,132.023 46,136.36909 46,141.5 C46,147.851275 40.8512746,153 34.5,153 C33.4621497,153 32.4564102,152.862518 31.5,152.604771 C30.5435898,152.862518 29.5378503,153 28.5,153 C25.3678391,153 22.52814,151.747822 20.4541913,149.716754 Z" id="形状结合" stroke="#2161FD" stroke-width="2" fill="#FFFFFF"></path>
                <rect id="矩形" fill="#FFFFFF" x="19" y="145" width="7" height="9"></rect>
                <rect id="矩形" fill="#2161FD" x="23" y="142" width="2" height="25"></rect>
                <path d="M65,43 L65,117 L182,117 L182,43 L65,43 Z" id="路径" stroke="#2161FD" stroke-width="2" fill="#FFFFFF"></path>
                <g id="Icon/48复制" transform="translate(160.000000, 65.000000)">
                    <mask id="mask-2" fill="white">
                        <use xlink:href="#path-1"></use>
                    </mask>
                    <use id="Mask" fill="#2161FD" fill-rule="nonzero" xlink:href="#path-1"></use>
                    <g id="Colors/#Blue" mask="url(#mask-2)" fill="#2161FD">
                        <g transform="translate(-3.875000, -4.875000)">
                            <rect x="0" y="0" width="16.1538462" height="16.1538462"></rect>
                        </g>
                    </g>
                </g>
                <rect id="矩形" fill="#2161FD" x="137" y="68" width="17" height="2"></rect>
                <path d="M164.5,62 C160.910149,62 158,64.9101491 158,68.5 C158,72.0898509 160.910149,75 164.5,75 M168.239384,73.8173369 C169.909174,72.6409081 171,70.697842 171,68.5 C171,66.6772588 170.249739,65.0297504 169.041186,63.8494447" id="形状" stroke="#2161FD" stroke-width="2"></path>
                <g id="Icon/48复制" transform="translate(160.000000, 86.000000)">
                    <mask id="mask-4" fill="white">
                        <use xlink:href="#path-3"></use>
                    </mask>
                    <use id="Mask" fill="#2161FD" fill-rule="nonzero" xlink:href="#path-3"></use>
                    <g id="Colors/#Blue" mask="url(#mask-4)" fill="#2161FD">
                        <g transform="translate(-3.875000, -4.875000)">
                            <rect x="0" y="0" width="16.1538462" height="16.1538462"></rect>
                        </g>
                    </g>
                </g>
                <rect id="矩形" fill="#2161FD" x="137" y="89" width="17" height="2"></rect>
                <path d="M164.5,83 C160.910149,83 158,85.9101491 158,89.5 C158,93.0898509 160.910149,96 164.5,96 M168.239384,94.8173369 C169.909174,93.6409081 171,91.697842 171,89.5 C171,87.6772588 170.249739,86.0297504 169.041186,84.8494447" id="形状" stroke="#2161FD" stroke-width="2"></path>
                <path d="M103.589539,58.0037523 C91.6286793,58.2226036 82,67.9868525 82,80 C82,92.1502645 91.8497355,102 104,102 C116.013147,102 125.777396,92.3713207 125.996248,80.4104612 L103.589539,58.0037523 Z" id="路径" stroke="#2161FD" stroke-width="2" fill="#FFFFFF"></path>
                <rect id="矩形" stroke="#2161FD" fill="#D8D8D8" x="104.5" y="57.5" width="1" height="22"></rect>
                <rect id="矩形复制-38" stroke="#2161FD" fill="#D8D8D8" transform="translate(115.500000, 79.000000) rotate(90.000000) translate(-115.500000, -79.000000) " x="115" y="68" width="1" height="22"></rect>
                <path d="M64,122.25615 L83.538237,122.336224 M94.2744825,122.380225 L103.86914,122.419548 M109.246872,122.441588 L146.916641,122.595972 M153.224628,122.621824 L182.999001,122.74385" id="形状" stroke="#2161FD" stroke-width="2" stroke-linecap="square"></path>
                <path d="M70,112 L70,96.9166311 L70,94.115973 M70,86.1537237 L70,81.9383476 M70,59.031197 L70,55.0022692 L70,48 L83.0602076,48 M177,48 L177,62.0655311 M177,90.2724064 L177,102.006853 M177,104.72348 L177,112 L161.022795,112" id="形状" stroke="#2161FD" stroke-width="2" fill="#FFFFFF"></path>
                <path d="M112,71.2727273 C114.450827,71.2727273 122.589742,72.3783472 125.858059,71.2727273 C127.745263,70.6343162 125.858059,68.411786 125.858059,66.9966203 C125.858059,63.130627 114.865993,56 111,56" id="路径" fill="#C8D8FF"></path>
                <g id="编组-23" transform="translate(110.000000, 55.000000)">
                    <path d="M17.2727273,18.1363636 C17.2727273,9.07387297 9.92612703,1.72727273 0.863636364,1.72727273" id="路径" stroke="#2161FD" stroke-width="2"></path>
                    <polygon id="矩形" fill="#2161FD" points="0 0.663707147 2 0.806955258 2 17.2727273 0 17.2727273"></polygon>
                    <polygon id="矩形复制-39" fill="#2161FD" transform="translate(9.136364, 17.272727) rotate(90.000000) translate(-9.136364, -17.272727) " points="8.13636364 8.23150456 10.1363636 8.13636364 10.1363636 26.4090909 8.13636364 26.4090909"></polygon>
                </g>
                <path d="M105,79 L108.89794,85.7328061 L111.151535,89.6253793 M112.785708,92.4480414 L116,98" id="形状" stroke="#2161FD" stroke-width="2"></path>
                <g id="编组-24" transform="translate(76.530104, 123.182837)" stroke="#2161FD" stroke-width="2">
                    <path d="M22.5417077,0 L9.09494702e-13,42.8171626" id="路径-16"></path>
                    <path d="M28.5417077,-3.55271368e-15 L6,42.8171626" id="路径-16"></path>
                </g>
                <g id="编组-24" transform="translate(161.030104, 144.682837) scale(-1, 1) translate(-161.030104, -144.682837) translate(146.530104, 123.182837)" stroke="#2161FD" stroke-width="2">
                    <path d="M22.5417077,0 L9.09494702e-13,42.8171626" id="路径-16"></path>
                    <path d="M28.5417077,-3.55271368e-15 L6,42.8171626" id="路径-16"></path>
                </g>
            </g>
        </g>
    </g>
</svg>