<svg xmlns="http://www.w3.org/2000/svg" xmlns:xlink="http://www.w3.org/1999/xlink" width="179" height="133" viewBox="0 0 179 133">
  <defs>
    <path id="icon-pc-a" d="M31,31.5 C31,15.7598846 18.2401154,3 2.5,3"/>
    <mask id="icon-pc-b" width="28.5" height="28.5" x="0" y="0" fill="#fff">
      <use xlink:href="#icon-pc-a"/>
    </mask>
  </defs>
  <g fill="none" fill-rule="evenodd">
    <path fill="#ECFBFF" fill-rule="nonzero" d="M92.4098412,118.207666 C84.1980513,129.821695 70.3355264,140.703071 46.7559963,121.577603 C23.1764663,102.452135 8.77032974,91.5453562 2.15143761,66.7414805 C-4.46745452,41.9376047 5.58705928,48.5609832 13.3848635,32.934079 C21.1826678,17.3071749 13.5019351,-2.67110059 31.7406136,0.295506488 C49.979292,3.26211357 56.5797999,11.4418925 98.2852556,10.361659 C139.990711,9.28142557 194.751091,29.4998285 174.745258,63.5322484 C169.367831,72.6799227 155.749592,72.8637512 152.920004,77.2478373 C145.222577,89.1740234 154.212182,94.1811155 145.969095,106.341179 C134.695836,122.971301 100.621631,106.593636 92.4098412,118.207666 Z M98.450806,118 C102.882177,114.943357 116.119455,116.651768 121.323216,118 C125.305681,119.031809 127.242942,120.809636 127.289931,123.5 C127.304341,124.325049 120.383481,130.990581 114.859274,132 C107.21086,133.397568 98.5663789,132.802896 95.4674483,132 C90.130258,130.617198 94.0194353,121.056643 98.450806,118 Z"/>
    <g transform="translate(30 19)">
      <path fill="#FFF" stroke="#0069FF" d="M0.5,8.5 L0.5,82 C0.5,82.8284271 1.17157288,83.5 2,83.5 L110,83.5 C110.828427,83.5 111.5,82.8284271 111.5,82 L111.5,8.5 L0.5,8.5 Z"/>
      <rect width="104" height="67" x="4" y="12" fill="#F1F7FF"/>
      <path fill="#FFF" stroke="#0069FF" d="M0.5,8.5 L111.5,8.5 L111.5,2 C111.5,1.17157288 110.828427,0.5 110,0.5 L2,0.5 C1.17157288,0.5 0.5,1.17157288 0.5,2 L0.5,8.5 Z"/>
      <path fill="#0069FF" d="M5.5,6 C4.67157288,6 4,5.32842712 4,4.5 C4,3.67157288 4.67157288,3 5.5,3 C6.32842712,3 7,3.67157288 7,4.5 C7,5.32842712 6.32842712,6 5.5,6 Z M10.5,6 C9.67157288,6 9,5.32842712 9,4.5 C9,3.67157288 9.67157288,3 10.5,3 C11.3284271,3 12,3.67157288 12,4.5 C12,5.32842712 11.3284271,6 10.5,6 Z M15.5,6 C14.6715729,6 14,5.32842712 14,4.5 C14,3.67157288 14.6715729,3 15.5,3 C16.3284271,3 17,3.67157288 17,4.5 C17,5.32842712 16.3284271,6 15.5,6 Z"/>
    </g>
    <g fill-rule="nonzero" transform="translate(44 38)">
      <rect width="24" height="4" x="44" y="1" fill="#0069FF"/>
      <rect width="36" height="23" fill="#CDE1FE"/>
      <path fill="#FFF" d="M16.5,16.25 L22,8 L28,17 L17,17 L9,17 L13,11 L16.5,16.25 Z M14.5,10 C13.6715729,10 13,9.32842712 13,8.5 C13,7.67157288 13.6715729,7 14.5,7 C15.3284271,7 16,7.67157288 16,8.5 C16,9.32842712 15.3284271,10 14.5,10 Z"/>
      <rect width="40" height="4" x="44" y="10" fill="#CDE1FE"/>
      <rect width="40" height="4" x="44" y="19" fill="#CDE1FE"/>
      <rect width="84" height="8" y="31" fill="#CDE1FE"/>
      <rect width="62" height="8" y="46" fill="#CDE1FE"/>
    </g>
    <g fill-rule="nonzero" transform="translate(112 10)">
      <path fill="#FFF" d="M2,1 C1.44771525,1 1,1.44771525 1,2 L1,24 C1,24.5522847 1.44771525,25 2,25 L50,25 C50.5522847,25 51,24.5522847 51,24 L51,2 C51,1.44771525 50.5522847,1 50,1 L2,1 Z"/>
      <path fill="#0069FF" d="M2,1 C1.44771525,1 1,1.44771525 1,2 L1,24 C1,24.5522847 1.44771525,25 2,25 L50,25 C50.5522847,25 51,24.5522847 51,24 L51,2 C51,1.44771525 50.5522847,1 50,1 L2,1 Z M2,0 L50,0 C51.1045695,-2.02906125e-16 52,0.8954305 52,2 L52,24 C52,25.1045695 51.1045695,26 50,26 L2,26 C0.8954305,26 1.3527075e-16,25.1045695 0,24 L0,2 C-1.3527075e-16,0.8954305 0.8954305,2.02906125e-16 2,0 Z"/>
      <polygon fill="#0069FF" points="13 1 13 0 14 0 22 6 31 6 31 7 21.667 7 13.667 1"/>
      <polygon fill="#0069FF" points="34 19 19 19 14 21 0 21 0 12 17 12 17 13 1 13 1 20 13.807 20 18.807 18 34 18"/>
      <circle cx="30.5" cy="6.5" r="1.5" fill="#0069FF"/>
      <circle cx="34.5" cy="18.5" r="1.5" fill="#0069FF"/>
      <circle cx="40.5" cy="12.5" r="1.5" fill="#0069FF"/>
      <rect width="10" height="1" x="41.5" y="12.5" fill="#0069FF" stroke="#0069FF"/>
      <circle cx="17.5" cy="12.5" r="1.5" fill="#0069FF"/>
      <path fill="#0069FF" d="M24,11 L32,11 C33.1045695,11 34,11.8954305 34,13 L34,13 C34,14.1045695 33.1045695,15 32,15 L24,15 C22.8954305,15 22,14.1045695 22,13 L22,13 C22,11.8954305 22.8954305,11 24,11 Z"/>
    </g>
    <g fill-rule="nonzero" transform="translate(16 77)">
      <rect width="29" height="29" x="2.5" y="2.5" fill="#FFF" stroke="#0069FF"/>
      <path fill="#CDE1FE" d="M26.9811303,31.0196345 L3.00000371,31.0196345 L3,7.01963449 C16.0183657,7.53175092 26.4790246,17.9987 26.98113,31.0196277 Z"/>
      <use stroke="#0069FF" stroke-dasharray="3 2" stroke-width="2" mask="url(#icon-pc-b)" xlink:href="#icon-pc-a"/>
      <rect width="4" height="4" x=".5" y=".5" fill="#FFF" stroke="#0069FF"/>
      <rect width="4" height="4" x=".5" y="29.5" fill="#FFF" stroke="#0069FF"/>
      <rect width="4" height="4" x="29.5" y=".5" fill="#FFF" stroke="#0069FF"/>
      <rect width="4" height="4" x="29.5" y="29.5" fill="#FFF" stroke="#0069FF"/>
    </g>
  </g>
</svg>
