<?xml version="1.0" encoding="UTF-8"?>
<svg width="276px" height="170px" viewBox="0 0 276 170" version="1.1" xmlns="http://www.w3.org/2000/svg" xmlns:xlink="http://www.w3.org/1999/xlink">
    <!-- Generator: Sketch 53.2 (72643) - https://sketchapp.com -->
    <title>编组 19</title>
    <desc>Created with Sketch.</desc>
    <g id="页面1" stroke="none" stroke-width="1" fill="none" fill-rule="evenodd">
        <g id="医疗" transform="translate(-254.000000, -1665.000000)">
            <g id="编组-19" transform="translate(254.000000, 1665.000000)">
                <g id="编组-18">
                    <g id="编组-17" transform="translate(261.000000, 67.000000)" fill="#2161FD">
                        <ellipse id="椭圆形" cx="7.92403877" cy="2" rx="1" ry="2"></ellipse>
                        <g id="编组-12" transform="translate(0.000000, 0.169778)">
                            <ellipse id="椭圆形" transform="translate(11.137977, 3.000000) rotate(40.000000) translate(-11.137977, -3.000000) " cx="11.1379768" cy="3" rx="1" ry="2"></ellipse>
                            <ellipse id="椭圆形" transform="translate(12.848078, 5.961981) rotate(80.000000) translate(-12.848078, -5.961981) " cx="12.8480775" cy="5.96198133" rx="1" ry="2"></ellipse>
                            <ellipse id="椭圆形" transform="translate(12.254166, 9.330222) rotate(120.000000) translate(-12.254166, -9.330222) " cx="12.2541658" cy="9.33022222" rx="1" ry="2"></ellipse>
                            <ellipse id="椭圆形" transform="translate(9.634139, 11.528685) rotate(160.000000) translate(-9.634139, -11.528685) " cx="9.63413948" cy="11.5286853" rx="1" ry="2"></ellipse>
                            <ellipse id="椭圆形" transform="translate(6.213938, 11.528685) rotate(200.000000) translate(-6.213938, -11.528685) " cx="6.21393805" cy="11.5286853" rx="1" ry="2"></ellipse>
                            <ellipse id="椭圆形" transform="translate(3.593912, 9.330222) rotate(240.000000) translate(-3.593912, -9.330222) " cx="3.59391175" cy="9.33022222" rx="1" ry="2"></ellipse>
                            <ellipse id="椭圆形" transform="translate(3.000000, 5.961981) rotate(280.000000) translate(-3.000000, -5.961981) " cx="3" cy="5.96198133" rx="1" ry="2"></ellipse>
                            <ellipse id="椭圆形" transform="translate(4.710101, 3.000000) rotate(320.000000) translate(-4.710101, -3.000000) " cx="4.71010072" cy="3" rx="1" ry="2"></ellipse>
                        </g>
                    </g>
                    <path d="M33,16 L33,11 L45,11 C47.7614237,11 50,8.76142375 50,6 C50,3.23857625 47.7614237,1 45,1 L6,1 C3.23857625,1 1,3.23857625 1,6 C1,8.76142375 3.23857625,11 6,11 L20,11 L20,16 L17,16 C14.2385763,16 12,18.2385763 12,21 C12,23.7614237 14.2385763,26 17,26 L56,26 C58.7614237,26 61,23.7614237 61,21 C61,18.2385763 58.7614237,16 56,16 L33,16 Z" id="形状结合" stroke="#2161FD" stroke-width="2"></path>
                    <rect id="矩形复制-36" stroke="#2161FD" stroke-width="2" x="70" y="8" width="11" height="5" rx="2.5"></rect>
                    <circle id="椭圆形" stroke="#2161FD" stroke-width="2" cx="39" cy="111" r="3"></circle>
                    <g id="编组-9" transform="translate(206.000000, 19.000000)" fill="#2161FD">
                        <rect id="矩形" transform="translate(6.000000, 6.000000) rotate(90.000000) translate(-6.000000, -6.000000) " x="0" y="5" width="12" height="2"></rect>
                        <rect id="矩形" x="0" y="5" width="12" height="2"></rect>
                    </g>
                    <g id="编组-9复制" transform="translate(10.000000, 137.000000) rotate(43.000000) translate(-10.000000, -137.000000) translate(5.000000, 132.000000)" fill="#2161FD">
                        <rect id="矩形" transform="translate(5.000000, 5.000000) rotate(90.000000) translate(-5.000000, -5.000000) " x="0" y="4.16666667" width="10" height="1.66666667"></rect>
                        <rect id="矩形" x="0" y="4.16666667" width="10" height="1.66666667"></rect>
                    </g>
                    <path d="M10.9905429,169 C7.74377433,158.070166 6,146.489572 6,134.5 C6,67.9496876 59.72583,14 126,14 C192.27417,14 246,67.9496876 246,134.5 C246,146.489572 244.256226,158.070166 241.009457,169 L10.9905429,169 Z" id="形状结合" fill-opacity="0.06" fill="#2161FD"></path>
                    <path d="M34.4348038,169.000001 C30.2774996,158.130403 28,146.331171 28,134 C28,79.8760945 71.8760945,36 126,36 C180.123905,36 224,79.8760945 224,134 C224,146.33117 221.7225,158.130402 217.565197,169 L34.4347969,169 Z" id="形状结合" fill-opacity="0.06" fill="#2161FD"></path>
                    <g id="编组-16" transform="translate(3.000000, 166.000000)" fill="#2161FD">
                        <rect id="矩形" x="0" y="0" width="114" height="4" rx="2"></rect>
                        <rect id="矩形复制-32" x="177" y="0" width="69" height="4" rx="2"></rect>
                        <rect id="矩形复制-30" x="125" y="0" width="33" height="4" rx="2"></rect>
                        <rect id="矩形复制-31" x="162" y="0" width="4" height="4" rx="2"></rect>
                    </g>
                    <g id="树" transform="translate(15.000000, 118.000000)">
                        <rect id="矩形" fill="#2161FD" x="17" y="35" width="2" height="13"></rect>
                        <path d="M24,21 L36,35 L0,35 L12,21 L5,21 L18,0 L31,21 L24,21 Z" id="形状结合" stroke="#2161FD" stroke-width="2" fill="#FFFFFF"></path>
                    </g>
                    <g id="官网" transform="translate(144.000000, 84.000000)">
                        <g id="wangzhan-2">
                            <rect id="矩形" fill="#FFFFFF" x="40" y="67" width="19" height="16"></rect>
                            <rect id="矩形" fill="#FFFFFF" x="29" y="77" width="14" height="6" rx="3"></rect>
                            <rect id="矩形" fill="#FFFFFF" x="57" y="77" width="14" height="6" rx="3"></rect>
                            <rect id="矩形" fill="#FFFFFF" x="0" y="0" width="101" height="68" rx="8"></rect>
                            <path d="M78.7740319,1 C62.538163,1 38.1843596,1 5.71262171,1 C2.55925455,1 0,2.86446395 0,6.00222046 L0,62.2544631 C0,64.7555733 2.55925455,67.2112088 5.07280812,67.2112088 L41.0394744,67.2112088 L40.079754,77.2156497 L33.087505,77.2156497 C30.5282505,77.2156497 28.6545106,80.3534062 28.6545105,82.8545164 L71.2478181,82.8545164 C71.8876317,80.9900524 70.0138918,77.2156497 67.4546373,77.2156497 L60.4623883,77.2156497 L59.5026678,67.2112088 L95.4693342,67.2112088 C97.9828878,67.2112088 100.542142,64.7555733 100.542142,62.2544631 C100.542142,38.4235628 100.542142,22.8507587 100.542142,15.536051 M100.542142,12.4968985 C100.542142,11.0536367 100.542142,8.88874404 100.542142,6.00222046 C100.542142,2.86446403 97.9828878,1 95.4693342,1 L95.4693342,1 C91.3826768,1 88.494752,1 86.8055598,1" id="形状" stroke="#2161FD" stroke-width="2" fill-rule="nonzero"></path>
                        </g>
                        <path d="M0,57.25 L62.7663997,57.25" id="路径" stroke="#2161FD" stroke-width="2" stroke-linecap="square"></path>
                        <path d="M69.9545708,57.25 L79.6234473,57.25" id="路径" stroke="#2161FD" stroke-width="2" stroke-linecap="square"></path>
                        <path d="M86.8042755,57.25 L100.542142,57.25" id="路径" stroke="#2161FD" stroke-width="2" stroke-linecap="square"></path>
                        <circle id="椭圆形" fill="#2161FD" cx="83" cy="57" r="1"></circle>
                        <g id="编组" transform="translate(9.312057, 13.121739)">
                            <rect id="矩形" fill="#A6BFFE" x="0" y="0.713043478" width="43.6950355" height="4.99130435" rx="2.49565217"></rect>
                            <rect id="矩形复制-33" fill="#A6BFFE" x="0" y="14.973913" width="43.6950355" height="4.99130435" rx="2.49565217"></rect>
                            <rect id="矩形复制-34" fill="#A6BFFE" x="0" y="29.2347826" width="43.6950355" height="4.99130435" rx="2.49565217"></rect>
                            <rect id="矩形" fill="#A6BFFE" x="47.9929078" y="0" width="34.3829787" height="34.226087"></rect>
                            <rect id="矩形" fill-opacity="0.535046984" fill="#4D80FD" x="47.9929078" y="0" width="14.3262411" height="34.226087"></rect>
                        </g>
                    </g>
                    <g id="pinpai" transform="translate(43.000000, 40.000000)" stroke="#2161FD">
                        <path d="M98.0247265,0 L28.7368576,0 C24.5308993,6.48730484e-05 20.7019011,2.43815693 18.9038539,6.26110721 L1.04346454,44.254272 C-0.745436098,48.0592485 -0.204020368,52.5587509 2.43574814,55.825017 L54.9400721,120.787423 C57.0055659,123.342465 60.1060401,124.825887 63.380792,124.825887 C66.6555439,124.825887 69.7560182,123.342465 71.821512,120.787423 L124.325836,55.8195489 C126.965604,52.5532828 127.50702,48.0537804 125.71812,44.2488038 L107.85773,6.26110721 C106.059683,2.43815693 102.230685,6.48730484e-05 98.0247265,0 Z" id="路径" stroke-width="2" fill="#FFFFFF" fill-rule="nonzero"></path>
                        <path d="M20.5591159,68.3867841 C23.9151193,72.5310175 27.9902079,77.5632289 32.7843819,83.4834184 C33.8951142,84.8550303 35.044445,86.2743064 36.2323745,87.7412469 M40.8900524,93.4928812 C45.3871839,99.0462615 50.3571689,105.183555 55.8000073,111.904762 M104.681629,69.4486253 C107.066162,66.5037856 110.642961,62.086526 115.412027,56.1968466 C117.679955,53.3961258 118.145106,49.5379435 116.608192,46.2752954 M104.851292,21.3178785 C104.054035,19.6254691 102.858149,17.0868551 101.263634,13.7020365 C99.7188612,10.4239765 96.4292194,8.33338896 92.8157164,8.33333333 C90.4641057,8.33333333 88.3588711,8.33333333 86.5000126,8.33333333 M79.4183211,8.33333333 C73.2002973,8.33333333 67.6412104,8.33333333 62.7410602,8.33333333 M55.932406,8.33333333 C53.6923394,8.33333333 51.6356655,8.33333333 49.7623842,8.33333333" id="形状" stroke-width="2" fill-rule="nonzero"></path>
                        <path d="M53.7552274,25.7764979 C47.7913149,28.0370054 42.8183302,32.312023 39.6669447,37.770879 M36,51.5 C36,66.6878306 48.3121694,79 63.5,79 C78.6878306,79 91,66.6878306 91,51.5 C91,36.3121694 78.6878306,24 63.5,24" id="形状" stroke-width="2" fill-opacity="0.234129152" fill="#A6BFFE"></path>
                        <g id="baozhuang" transform="translate(46.000000, 35.000000)" fill-rule="nonzero" stroke-width="1.89189189">
                            <path d="M20.913509,2.43574531 L21.6317287,0.68548381 L28.4741431,3.49326832 L27.7559234,5.24352982 C24.8608721,4.05554564 24.8608721,4.05554564 23.0774431,3.32371559 C21.9203557,2.84890484 21.9203557,2.84890484 20.913509,2.43574531 Z M2.50448143,7.1571083 L17.380546,13.4812697 C17.4954688,13.4493827 17.6068666,13.4271288 17.727896,13.4152207 L32.4362384,7.16409691 C31.9164649,6.95080786 31.7400805,6.87842856 31.1737884,6.6460506 L17.6462407,1.09261154 C17.1668558,0.933365563 17.1862573,0.933365563 16.9156065,1.066177 L2.50448143,7.1571083 Z M17.2507096,13.519988 C17.2504833,13.5200439 17.2502571,13.5201 17.250031,13.5201563 C17.2505668,13.5200228 17.2512957,13.5198204 17.2555407,13.5185373 Z M33.5028758,6.97031478 L33.5856472,7.16506849 L33.5096311,7.35031532 L33.316906,7.15692573 L33.5028758,6.97031478 Z M33.316906,7.15692573 L33.1117136,6.95102586 C32.9736302,7.08863481 32.9736302,7.2252167 33.1117136,7.36282561 L33.316906,7.15692573 Z" id="形状"></path>
                            <path d="M19.3561308,31.7207306 L33.7618929,24.2112988 C33.9933886,24.0540337 33.9978384,23.9962672 33.9978384,23.169584 L33.9978384,10.148923 L19.4069965,16.4090672 C19.2626286,16.4570245 19.2573754,16.4603207 19.3079116,16.3763831 C19.3570629,16.2947458 19.3561308,16.3024865 19.3561308,16.4396262 L19.3561308,31.7207306 Z" id="路径"></path>
                            <path d="M0.71224738,9.93243549 L0.71224738,9.95941181 C0.650749549,9.95941181 0.62779407,9.96093692 0.690263286,9.9401854 C0.697629971,9.93773827 0.704959064,9.93515393 0.71224738,9.93243549 Z M0.956782952,9.77705353 C0.957720901,9.77615738 0.958656761,9.77525874 0.959590518,9.77435761 L0.959590518,9.8703784 L0.914244923,9.9155682 C0.932400276,9.89747522 0.950091116,9.85226548 0.956782952,9.77705353 Z M0.959590518,10.1490738 L0.959590518,24.8074282 C0.974910128,24.8126785 0.991841323,24.8184319 1.01045629,24.8246155 L1.11831022,24.8679691 C4.59855731,26.5220765 4.59855731,26.5220765 6.81326001,27.5746903 C9.38731599,28.7980991 9.38731599,28.7980991 13.0771941,30.5518408 C14.1153056,31.0452391 14.2435533,31.1061932 15.6012981,31.7515082 L15.6012981,16.4396262 C15.6012981,16.3024866 15.600366,16.2947458 15.6495172,16.3763831 C15.7000534,16.4603207 15.6948003,16.4570245 15.5504323,16.4090672 L15.4754879,16.3805916 L0.959590518,10.1490738 Z" id="路径"></path>
                        </g>
                    </g>
                </g>
            </g>
        </g>
    </g>
</svg>