<svg xmlns="http://www.w3.org/2000/svg" width="200" height="136" viewBox="0 0 200 136">
  <g fill="none">
    <path fill="#ECFBFF" d="M100,136 C155.228475,136 200,105.555363 200,68 C200,44.8473721 162.991944,40.2802718 137,28 C120.83099,20.360716 121.180493,0 100,0 C44.771525,0 0,30.444637 0,68 C0,90.8273744 38.9371185,100.66699 64.3137085,113 C80.686425,120.957132 78.3411933,136 100,136 Z"/>
    <g transform="translate(32 5)">
      <rect width="52" height="93" fill="#FFF" rx="4"/>
      <path fill="#0069FF" d="M1,7 L51,7 L51,4 C51,2.34314575 49.6568542,1 48,1 L4,1 C2.34314575,1 1,2.34314575 1,4 L1,7 Z M1,8 L1,89 C1,90.6568542 2.34314575,92 4,92 L48,92 C49.6568542,92 51,90.6568542 51,89 L51,8 L1,8 Z M4,0 L48,0 C50.209139,-4.05812251e-16 52,1.790861 52,4 L52,89 C52,91.209139 50.209139,93 48,93 L4,93 C1.790861,93 2.705415e-16,91.209139 0,89 L0,4 C-2.705415e-16,1.790861 1.790861,4.05812251e-16 4,0 Z"/>
      <path fill="#CDE1FE" d="M7,13 L45,13 C46.1045695,13 47,13.8954305 47,15 L47,38 C47,39.1045695 46.1045695,40 45,40 L7,40 C5.8954305,40 5,39.1045695 5,38 L5,15 C5,13.8954305 5.8954305,13 7,13 Z M30,27 L22,22 L22,32 L30,27 Z"/>
      <rect width="42" height="4" x="5" y="44" fill="#0069FF"/>
      <rect width="24" height="4" x="5" y="52" fill="#CDE1FE"/>
    </g>
    <g transform="translate(117 33)">
      <rect width="52" height="93" fill="#FFF" rx="4"/>
      <path fill="#0069FF" d="M1,7 L51,7 L51,4 C51,2.34314575 49.6568542,1 48,1 L4,1 C2.34314575,1 1,2.34314575 1,4 L1,7 Z M1,8 L1,89 C1,90.6568542 2.34314575,92 4,92 L48,92 C49.6568542,92 51,90.6568542 51,89 L51,8 L1,8 Z M4,0 L48,0 C50.209139,-4.05812251e-16 52,1.790861 52,4 L52,89 C52,91.209139 50.209139,93 48,93 L4,93 C1.790861,93 2.705415e-16,91.209139 0,89 L0,4 C-2.705415e-16,1.790861 1.790861,4.05812251e-16 4,0 Z"/>
      <path fill="#CDE1FE" d="M7,13 L45,13 C46.1045695,13 47,13.8954305 47,15 L47,38 C47,39.1045695 46.1045695,40 45,40 L7,40 C5.8954305,40 5,39.1045695 5,38 L5,15 C5,13.8954305 5.8954305,13 7,13 Z M30,27 L22,22 L22,32 L30,27 Z"/>
      <rect width="42" height="4" x="5" y="44" fill="#0069FF"/>
      <rect width="24" height="4" x="5" y="52" fill="#CDE1FE"/>
    </g>
    <g transform="translate(70 29)">
      <polygon fill="#FFF" points="34 0 68 20 68 58 34 78 .314 58 0 19"/>
      <path fill="#0069FF" d="M33.9872441,1.15267785 L1.0047306,19.5840824 L1.0047306,57.4280539 L34.002358,76.8384316 L67,57.4280539 L67,20.5719461 L33.9872441,1.15267785 Z M34,0 L68,20 L68,58 L34,78 L0,58 L5.95704042e-15,19 L34,0 Z"/>
      <polygon fill="#0069FF" points="24 34 45 34 45 52.7 32.983 57.07 22 52.677 22 46 24 46 24 51.323 33.017 54.93 43 51.3 43 36 22 36 22 21 44 21 44 23 24 23"/>
    </g>
    <g fill="#0069FF" transform="translate(45 73)">
      <path d="M18.9667405,5.50110742 L19.0332595,6.49889258 C8.85130267,7.1776897 2.67152547,5.46108492 0.552786405,1.2236068 L1.4472136,0.776393202 C3.32847453,4.53891508 9.14869733,6.15564363 18.9667405,5.50110742 Z"/>
      <path d="M83.0424763,27.8897183 L83.4896899,26.9952911 C91.3031961,30.9020442 97.5521656,30.247122 102.369522,25.0616681 L103.102154,25.742293 C97.9598371,31.2775379 91.2289702,31.9829652 83.0424763,27.8897183 Z" transform="rotate(15 93.072 27.784)"/>
      <polygon points="99 27.5 99 26.5 103.5 26.5 103.5 31 102.5 31 102.5 27.5" transform="rotate(15 101.25 28.75)"/>
      <polygon points="1.5 1.5 1.5 5 .5 5 .5 .5 5 .5 5 1.5"/>
    </g>
  </g>
</svg>
