<svg xmlns="http://www.w3.org/2000/svg" width="164" height="140" viewBox="0 0 164 140">
  <g fill="none">
    <path fill="#ECFBFF" d="M78.1683179,140 C57.7087541,140 55.3276699,128.18304 43.5257263,117.620818 C24.4282432,100.529407 4.65916241,111.841243 1.42535667,79.6282528 C-3.90380404,26.5427509 3.81809282,0 57.3845911,0 C88.663523,0 116.388522,10.3396859 134.124505,32.7881041 C146.762147,48.7835548 171.42863,48.7835548 161.836141,68.6988848 C146.70202,100.119406 134.124505,75.464684 113.337732,96.2825279 C101.551709,108.086167 96.7456534,140 78.1683179,140 Z M110.032273,114.73903 C110.722886,105.192078 115.955155,99.9907967 122.042453,95.9960557 C128.129752,92.0013148 142.929723,92.0013148 147.107177,95.9960557 C151.28463,99.9907967 139.76157,99.797997 134.052633,106.127393 C128.343697,112.456789 128.343697,115.752163 124.13118,119.298131 C119.918664,122.844099 109.34166,124.285981 110.032273,114.73903 Z"/>
    <g transform="translate(87 30)">
      <polygon fill="#FFF" points="0 0 50 0 50 32 0 32"/>
      <path fill="#0069FF" d="M1,1 L1,31 L49,31 L49,1 L1,1 Z M0,0 L50,0 L50,32 L0,32 L0,0 Z M1,3 L49,3 L49,4 L1,4 L1,3 Z"/>
      <path fill="#CDE1FE" stroke="#CDE1FE" d="M8.5,7.5 L13,7.5 L12.5,7 L12.5,8 L13,7.5 L8.5,7.5 Z M8.5,7.5 L4,7.5 L4.5,8 L4.5,7 L4,7.5 L8.5,7.5 Z M18,7.5 L21,7.5 L20.5,7 L20.5,8 L21,7.5 L18,7.5 Z M18,7.5 L15,7.5 L15.5,8 L15.5,7 L15,7.5 L18,7.5 Z M27.5,7.5 L32,7.5 L31.5,7 L31.5,8 L32,7.5 L27.5,7.5 Z M27.5,7.5 L23,7.5 L23.5,8 L23.5,7 L23,7.5 L27.5,7.5 Z M8.5,19.5 L13,19.5 L12.5,19 L12.5,20 L13,19.5 L8.5,19.5 Z M8.5,19.5 L4,19.5 L4.5,20 L4.5,19 L4,19.5 L8.5,19.5 Z M18,19.5 L21,19.5 L20.5,19 L20.5,20 L21,19.5 L18,19.5 Z M18,19.5 L15,19.5 L15.5,20 L15.5,19 L15,19.5 L18,19.5 Z M27.5,19.5 L32,19.5 L31.5,19 L31.5,20 L32,19.5 L27.5,19.5 Z M27.5,19.5 L23,19.5 L23.5,20 L23.5,19 L23,19.5 L27.5,19.5 Z M10,27.5 L16,27.5 L15.5,27 L15.5,28 L16,27.5 L10,27.5 Z M10,27.5 L4,27.5 L4.5,28 L4.5,27 L4,27.5 L10,27.5 Z M23,27.5 L27,27.5 L26.5,27 L26.5,28 L27,27.5 L23,27.5 Z M23,27.5 L19,27.5 L19.5,28 L19.5,27 L19,27.5 L23,27.5 Z M36,27.5 L42,27.5 L41.5,27 L41.5,28 L42,27.5 L36,27.5 Z M36,27.5 L30,27.5 L30.5,28 L30.5,27 L30,27.5 L36,27.5 Z M20.5,11.5 L37,11.5 L36.5,11 L36.5,12 L37,11.5 L20.5,11.5 Z M20.5,11.5 L4,11.5 L4.5,12 L4.5,11 L4,11.5 L20.5,11.5 Z M15,15.5 L18,15.5 L17.5,15 L17.5,16 L18,15.5 L15,15.5 Z M15,15.5 L12,15.5 L12.5,16 L12.5,15 L12,15.5 L15,15.5 Z M24.5,15.5 L29,15.5 L28.5,15 L28.5,16 L29,15.5 L24.5,15.5 Z M24.5,15.5 L20,15.5 L20.5,16 L20.5,15 L20,15.5 L24.5,15.5 Z M7,15.5 L10,15.5 L9.5,15 L9.5,16 L10,15.5 L7,15.5 Z M7,15.5 L4,15.5 L4.5,16 L4.5,15 L4,15.5 L7,15.5 Z M19,23.5 L23,23.5 L22.5,23 L22.5,24 L23,23.5 L19,23.5 Z M19,23.5 L15,23.5 L15.5,24 L15.5,23 L15,23.5 L19,23.5 Z M32.5,23.5 L39,23.5 L38.5,23 L38.5,24 L39,23.5 L32.5,23.5 Z M32.5,23.5 L26,23.5 L26.5,24 L26.5,23 L26,23.5 L32.5,23.5 Z M8,23.5 L12,23.5 L11.5,23 L11.5,24 L12,23.5 L8,23.5 Z M8,23.5 L4,23.5 L4.5,24 L4.5,23 L4,23.5 L8,23.5 Z"/>
    </g>
    <g transform="translate(42 11)">
      <path fill="#FFF" d="M4,1 C2.34314575,1 1,2.34314575 1,4 L1,98 C1,99.6568542 2.34314575,101 4,101 L54,101 C55.6568542,101 57,99.6568542 57,98 L57,4 C57,2.34314575 55.6568542,1 54,1 L4,1 Z"/>
      <path fill="#0069FF" d="M1,88 L57,88 L57,8 L1,8 L1,88 Z M1,89 L1,98 C1,99.6568542 2.34314575,101 4,101 L54,101 C55.6568542,101 57,99.6568542 57,98 L57,89 L1,89 Z M1,7 L57,7 L57,4 C57,2.34314575 55.6568542,1 54,1 L4,1 C2.34314575,1 1,2.34314575 1,4 L1,7 Z M4,0 L54,0 C56.209139,-4.05812251e-16 58,1.790861 58,4 L58,98 C58,100.209139 56.209139,102 54,102 L4,102 C1.790861,102 2.705415e-16,100.209139 0,98 L0,4 C-2.705415e-16,1.790861 1.790861,4.05812251e-16 4,0 Z M29,98 C30.6568542,98 32,96.6568542 32,95 C32,93.3431458 30.6568542,92 29,92 C27.3431458,92 26,93.3431458 26,95 C26,96.6568542 27.3431458,98 29,98 Z M29,99 C26.790861,99 25,97.209139 25,95 C25,92.790861 26.790861,91 29,91 C31.209139,91 33,92.790861 33,95 C33,97.209139 31.209139,99 29,99 Z M23,3 L35,3 C35.5522847,3 36,3.44771525 36,4 C36,4.55228475 35.5522847,5 35,5 L23,5 C22.4477153,5 22,4.55228475 22,4 C22,3.44771525 22.4477153,3 23,3 Z"/>
    </g>
    <g transform="translate(46 22)">
      <path fill="#CDE1FE" d="M2,0 L48,0 C49.1045695,-2.02906125e-16 50,0.8954305 50,2 L50,28 C50,29.1045695 49.1045695,30 48,30 L2,30 C0.8954305,30 1.3527075e-16,29.1045695 0,28 L0,2 C-1.3527075e-16,0.8954305 0.8954305,2.02906125e-16 2,0 Z M19.8530578,17.4202137 L17.6503008,13.8958025 L12.6503008,21.8958025 L16.5762874,21.8958025 L16.5,22 L37,22 L26.75,8 L19.8530578,17.4202137 Z"/>
      <rect width="34" height="4" x="16" y="34" fill="#0069FF" rx="1"/>
      <rect width="19" height="4" x="16" y="42" fill="#CDE1FE" rx="1"/>
      <rect width="43" height="4" y="50" fill="#CDE1FE" rx="1"/>
      <rect width="50" height="4" y="58" fill="#CDE1FE" rx="1"/>
      <rect width="32" height="4" y="66" fill="#CDE1FE" rx="1"/>
      <rect width="12" height="12" y="34" fill="#CDE1FE" rx="6"/>
    </g>
    <g transform="translate(13 57)">
      <circle cx="23.5" cy="23.5" r="23.5" fill="#FFF"/>
      <path fill="#0069FF" d="M23.5,46 C35.9264069,46 46,35.9264069 46,23.5 C46,11.0735931 35.9264069,1 23.5,1 C11.0735931,1 1,11.0735931 1,23.5 C1,35.9264069 11.0735931,46 23.5,46 Z M23.5,47 C10.5213084,47 0,36.4786916 0,23.5 C0,10.5213084 10.5213084,0 23.5,0 C36.4786916,0 47,10.5213084 47,23.5 C47,36.4786916 36.4786916,47 23.5,47 Z"/>
      <path fill="#CDE1FE" d="M24,1.00544583 C36.1955053,1.27134542 46,11.2406915 46,23.5 C46,23.6670984 45.9981785,23.8337713 45.9945542,24 L24,24 L24,1.00544583 Z"/>
      <path fill="#FFF" d="M23.5,27 C21.5670034,27 20,25.4329966 20,23.5 C20,21.5670034 21.5670034,20 23.5,20 C25.4329966,20 27,21.5670034 27,23.5 C27,25.4329966 25.4329966,27 23.5,27 Z"/>
      <path fill="#0069FF" d="M26.9645556,24 C26.7219407,25.6961471 25.263236,27 23.5,27 C21.5670034,27 20,25.4329966 20,23.5 C20,21.736764 21.3038529,20.2780593 23,20.0354444 L23,1 L24,1 L24,20.0354444 C25.5328456,20.2547008 26.7452992,21.4671544 26.9645556,23 L46,23 L46,24 L26.9645556,24 Z M23.5,26 C24.8807119,26 26,24.8807119 26,23.5 C26,22.1192881 24.8807119,21 23.5,21 C22.1192881,21 21,22.1192881 21,23.5 C21,24.8807119 22.1192881,26 23.5,26 Z"/>
      <path fill="#0069FF" stroke="#0069FF" d="M23.5,35 L23.5,40 L24,39.5 L23,39.5 L23.5,40 L23.5,35 Z M23.5,35 L23.5,30 L23,30.5 L24,30.5 L23.5,30 L23.5,35 Z M15.368272,31.631728 L11.8327381,35.1672619 L12.5398449,35.1672619 L11.8327381,34.4601551 L11.8327381,35.1672619 L15.368272,31.631728 Z M15.368272,31.631728 L18.9038059,28.0961941 L18.1966991,28.0961941 L18.9038059,28.8033009 L18.9038059,28.0961941 L15.368272,31.631728 Z M12,23.5 L7,23.5 L7.5,24 L7.5,23 L7,23.5 L12,23.5 Z M12,23.5 L17,23.5 L16.5,23 L16.5,24 L17,23.5 L12,23.5 Z M18.9038059,18.1966991 L18.1966991,18.9038059 L18.9038059,18.9038059 L11.8327381,11.8327381 L11.8327381,12.5398449 L12.5398449,11.8327381 L11.8327381,11.8327381 L18.9038059,18.9038059 L18.9038059,18.1966991 Z M31.631728,31.631728 L35.1672619,35.1672619 L35.1672619,34.4601551 L34.4601551,35.1672619 L35.1672619,35.1672619 L31.631728,31.631728 Z M31.631728,31.631728 L28.0961941,28.0961941 L28.0961941,28.8033009 L28.8033009,28.0961941 L28.0961941,28.0961941 L31.631728,31.631728 Z"/>
      <path fill="#D8D8D8" stroke="#0069FF" d="M34.1568542,15.1568542 L38.6568542,15.1568542 L38.1568542,14.6568542 L38.1568542,15.6568542 L38.6568542,15.1568542 L34.1568542,15.1568542 Z M29.4068542,15.1568542 L28.6568542,15.1568542 L29.1568542,15.6568542 L29.1568542,14.9068542 L29.1568542,15.1568542 L29.4068542,15.1568542 Z M29.1568542,12.1568542 L29.1568542,9.65685425 L28.6568542,10.1568542 L29.6568542,10.1568542 L29.1568542,9.65685425 L29.1568542,12.1568542 Z" transform="rotate(-45 33.657 12.657)"/>
    </g>
  </g>
</svg>
