<svg xmlns="http://www.w3.org/2000/svg" width="175" height="122" viewBox="0 0 175 122">
  <g fill="none">
    <path fill="#ECFBFF" d="M137.427432,115.237067 C117.152911,132.696223 113.42715,108.86708 82.1617103,108.97985 C50.8962704,109.092621 27.7482909,124.497673 8.00201674,105.851242 C-9.55887709,89.2684691 11.4801489,83.2824364 10.5215378,59.7776798 C9.56292665,36.2729232 -10.9393561,34.5478639 8.00201674,17.7287795 C28.3515563,-0.34069345 34.3633922,0.521434691 66.2987249,0.521434691 C97.2931272,0.521434691 90.7116212,11.0360168 115.306908,27.1146039 C139.902195,43.193191 167.275657,37.6255447 173.6113,59.7776798 C179.946943,81.9298149 157.072773,98.3197208 137.427432,115.237067 Z M149.102739,32.2934399 C146.386701,34.9963834 132.849898,29.5904964 123.5956,24.9933543 C117.426067,21.9285928 111.993991,18.27855 107.299371,14.0432258 C98.6824738,8.60982963 96.4208943,4.50263906 100.514633,1.72165404 C106.655241,-2.44982348 118.424739,1.20021935 135.823127,10.0646091 C153.221516,18.9289988 151.818777,29.5904964 149.102739,32.2934399 Z"/>
    <g transform="translate(37 5)">
      <rect width="100" height="78" fill="#FFF" rx="4"/>
      <path fill="#0069FF" d="M4,1 C2.34314575,1 1,2.34314575 1,4 L1,74 C1,75.6568542 2.34314575,77 4,77 L96,77 C97.6568542,77 99,75.6568542 99,74 L99,4 C99,2.34314575 97.6568542,1 96,1 L4,1 Z M4,0 L96,0 C98.209139,-4.05812251e-16 100,1.790861 100,4 L100,74 C100,76.209139 98.209139,78 96,78 L4,78 C1.790861,78 2.705415e-16,76.209139 0,74 L0,4 C-2.705415e-16,1.790861 1.790861,4.05812251e-16 4,0 Z"/>
      <path fill="#FFF" d="M0,64 L100,64 L100,74 C100,76.209139 98.209139,78 96,78 L4,78 C1.790861,78 2.705415e-16,76.209139 0,74 L0,64 Z"/>
      <path fill="#0069FF" d="M1,65 L1,74 C1,75.6568542 2.34314575,77 4,77 L96,77 C97.6568542,77 99,75.6568542 99,74 L99,65 L1,65 Z M0,64 L100,64 L100,74 C100,76.209139 98.209139,78 96,78 L4,78 C1.790861,78 2.705415e-16,76.209139 0,74 L0,64 Z"/>
      <polygon fill="#FFF" points="42 77 58 77 58 95 42 95"/>
      <path fill="#0069FF" d="M43,94 L57,94 L57,78 L43,78 L43,94 Z M42,77 L58,77 L58,95 L42,95 L42,77 Z"/>
      <g transform="translate(8 8)">
        <rect width="34" height="22" fill="#CDE1FE"/>
        <path fill="#FFF" d="M13.2523742,10.0104653 C13.8671643,8.25721219 15.5367633,7 17.5,7 C19.4632367,7 21.1328357,8.25721219 21.7476258,10.0104653 C21.8308323,10.0035347 21.9150033,10 22,10 C23.6568542,10 25,11.3431458 25,13 C25,14.6568542 23.6568542,16 22,16 L13,16 C11.3431458,16 10,14.6568542 10,13 C10,11.3431458 11.3431458,10 13,10 C13.0849967,10 13.1691677,10.0035347 13.2523742,10.0104653 Z"/>
        <rect width="44" height="4" x="40" y="1" fill="#0069FF"/>
        <rect width="29" height="4" x="40" y="17" fill="#CDE1FE"/>
        <rect width="86" height="4" y="28" fill="#CDE1FE"/>
        <rect width="57" height="4" x="28" y="36" fill="#CDE1FE"/>
        <rect width="57" height="4" x="28" y="44" fill="#CDE1FE"/>
        <rect width="18" height="4" x="40" y="9" fill="#CDE1FE"/>
      </g>
      <polygon fill="#FFF" points="33 90 67 90 67 95 33 95"/>
      <path fill="#0069FF" d="M34,94 L66,94 L66,91 L34,91 L34,94 Z M33,90 L67,90 L67,95 L33,95 L33,90 Z"/>
    </g>
    <g transform="translate(28 44)">
      <rect width="44" height="56" fill="#FFF" rx="2"/>
      <path fill="#0069FF" d="M1,5 L1,51 L43,51 L43,5 L1,5 Z M1,4 L43,4 L43,2 C43,1.44771525 42.5522847,1 42,1 L2,1 C1.44771525,1 1,1.44771525 1,2 L1,4 Z M1,52 L1,54 C1,54.5522847 1.44771525,55 2,55 L42,55 C42.5522847,55 43,54.5522847 43,54 L43,52 L1,52 Z M2,0 L42,0 C43.1045695,-2.02906125e-16 44,0.8954305 44,2 L44,54 C44,55.1045695 43.1045695,56 42,56 L2,56 C0.8954305,56 1.3527075e-16,55.1045695 0,54 L0,2 C-1.3527075e-16,0.8954305 0.8954305,2.02906125e-16 2,0 Z"/>
      <g transform="translate(4 8)">
        <rect width="36" height="14" fill="#CDE1FE"/>
        <path fill="#FFF" d="M15.1682495,6.00697684 C15.5781095,4.83814146 16.6911756,4 18,4 C19.3088244,4 20.4218905,4.83814146 20.8317505,6.00697684 C20.8872215,6.0023565 20.9433356,6 21,6 C22.1045695,6 23,6.8954305 23,8 C23,9.1045695 22.1045695,10 21,10 L15,10 C13.8954305,10 13,9.1045695 13,8 C13,6.8954305 13.8954305,6 15,6 C15.0566644,6 15.1127785,6.0023565 15.1682495,6.00697684 Z"/>
        <rect width="36" height="3" y="17" fill="#0069FF"/>
        <rect width="36" height="3" y="29" fill="#CDE1FE"/>
        <rect width="26" height="3" y="23" fill="#CDE1FE"/>
        <rect width="26" height="3" y="35" fill="#CDE1FE"/>
      </g>
    </g>
    <g transform="translate(118 56)">
      <rect width="24" height="44" fill="#FFF" rx="2"/>
      <path fill="#0069FF" d="M1,5 L1,37 L23,37 L23,5 L1,5 Z M1,4 L23,4 L23,2 C23,1.44771525 22.5522847,1 22,1 L2,1 C1.44771525,1 1,1.44771525 1,2 L1,4 Z M1,38 L1,42 C1,42.5522847 1.44771525,43 2,43 L22,43 C22.5522847,43 23,42.5522847 23,42 L23,38 L1,38 Z M2,0 L22,0 C23.1045695,-2.02906125e-16 24,0.8954305 24,2 L24,42 C24,43.1045695 23.1045695,44 22,44 L2,44 C0.8954305,44 1.3527075e-16,43.1045695 0,42 L0,2 C-1.3527075e-16,0.8954305 0.8954305,2.02906125e-16 2,0 Z M9.5,2 L14.5,2 C14.7761424,2 15,2.22385763 15,2.5 C15,2.77614237 14.7761424,3 14.5,3 L9.5,3 C9.22385763,3 9,2.77614237 9,2.5 C9,2.22385763 9.22385763,2 9.5,2 Z"/>
      <circle cx="12" cy="40.5" r="1" fill="#0069FF" stroke="#0069FF"/>
      <g transform="translate(3 7)">
        <rect width="18" height="14" fill="#CDE1FE"/>
        <rect width="18" height="3" y="17" fill="#0069FF"/>
        <rect width="13" height="3" y="23" fill="#CDE1FE"/>
        <path fill="#FFF" d="M6.16824949,6.00697684 C6.57810954,4.83814146 7.69117556,4 9,4 C10.3088244,4 11.4218905,4.83814146 11.8317505,6.00697684 C11.8872215,6.0023565 11.9433356,6 12,6 C13.1045695,6 14,6.8954305 14,8 C14,9.1045695 13.1045695,10 12,10 L6,10 C4.8954305,10 4,9.1045695 4,8 C4,6.8954305 4.8954305,6 6,6 C6.05666444,6 6.11277849,6.0023565 6.16824949,6.00697684 Z"/>
      </g>
    </g>
  </g>
</svg>
