<?xml version="1.0" encoding="UTF-8"?>
<svg width="277px" height="170px" viewBox="0 0 277 170" version="1.1" xmlns="http://www.w3.org/2000/svg" xmlns:xlink="http://www.w3.org/1999/xlink">
    <!-- Generator: Sketch 53.2 (72643) - https://sketchapp.com -->
    <title>编组 21</title>
    <desc>Created with Sketch.</desc>
    <g id="页面1" stroke="none" stroke-width="1" fill="none" fill-rule="evenodd">
        <g id="医疗" transform="translate(-910.000000, -2020.000000)">
            <g id="编组-21" transform="translate(910.000000, 2020.000000)">
                <g id="编组-17" transform="translate(262.000000, 67.000000)" fill="#2161FD">
                    <ellipse id="椭圆形" cx="7.92403877" cy="2" rx="1" ry="2"></ellipse>
                    <g id="编组-12" transform="translate(0.000000, 0.169778)">
                        <ellipse id="椭圆形" transform="translate(11.137977, 3.000000) rotate(40.000000) translate(-11.137977, -3.000000) " cx="11.1379768" cy="3" rx="1" ry="2"></ellipse>
                        <ellipse id="椭圆形" transform="translate(12.848078, 5.961981) rotate(80.000000) translate(-12.848078, -5.961981) " cx="12.8480775" cy="5.96198133" rx="1" ry="2"></ellipse>
                        <ellipse id="椭圆形" transform="translate(12.254166, 9.330222) rotate(120.000000) translate(-12.254166, -9.330222) " cx="12.2541658" cy="9.33022222" rx="1" ry="2"></ellipse>
                        <ellipse id="椭圆形" transform="translate(9.634139, 11.528685) rotate(160.000000) translate(-9.634139, -11.528685) " cx="9.63413948" cy="11.5286853" rx="1" ry="2"></ellipse>
                        <ellipse id="椭圆形" transform="translate(6.213938, 11.528685) rotate(200.000000) translate(-6.213938, -11.528685) " cx="6.21393805" cy="11.5286853" rx="1" ry="2"></ellipse>
                        <ellipse id="椭圆形" transform="translate(3.593912, 9.330222) rotate(240.000000) translate(-3.593912, -9.330222) " cx="3.59391175" cy="9.33022222" rx="1" ry="2"></ellipse>
                        <ellipse id="椭圆形" transform="translate(3.000000, 5.961981) rotate(280.000000) translate(-3.000000, -5.961981) " cx="3" cy="5.96198133" rx="1" ry="2"></ellipse>
                        <ellipse id="椭圆形" transform="translate(4.710101, 3.000000) rotate(320.000000) translate(-4.710101, -3.000000) " cx="4.71010072" cy="3" rx="1" ry="2"></ellipse>
                    </g>
                </g>
                <path d="M220,16 L220,11 L232,11 C234.761424,11 237,8.76142375 237,6 C237,3.23857625 234.761424,1 232,1 L193,1 C190.238576,1 188,3.23857625 188,6 C188,8.76142375 190.238576,11 193,11 L207,11 L207,16 L204,16 C201.238576,16 199,18.2385763 199,21 C199,23.7614237 201.238576,26 204,26 L243,26 C245.761424,26 248,23.7614237 248,21 C248,18.2385763 245.761424,16 243,16 L220,16 Z" id="形状结合" stroke="#2161FD" stroke-width="2"></path>
                <g id="编组-9" transform="translate(233.000000, 109.000000)" fill="#2161FD">
                    <rect id="矩形" transform="translate(6.000000, 6.000000) rotate(90.000000) translate(-6.000000, -6.000000) " x="0" y="5" width="12" height="2"></rect>
                    <rect id="矩形" x="0" y="5" width="12" height="2"></rect>
                </g>
                <path d="M8.9905429,169 C5.74377433,158.070166 4,146.489572 4,134.5 C4,67.9496876 57.72583,14 124,14 C190.27417,14 244,67.9496876 244,134.5 C244,146.489572 242.256226,158.070166 239.009457,169 L8.9905429,169 Z" id="形状结合" fill-opacity="0.06" fill="#2161FD"></path>
                <path d="M32.4348038,169.000001 C28.2774996,158.130403 26,146.331171 26,134 C26,79.8760945 69.8760945,36 124,36 C178.123905,36 222,79.8760945 222,134 C222,146.33117 219.7225,158.130402 215.565197,169 L32.4347969,169 Z" id="形状结合" fill-opacity="0.06" fill="#2161FD"></path>
                <path d="M235,158 L243,158 C244.656854,158 246,156.656854 246,155 L246,146 C246,144.343146 244.656854,143 243,143 L235,143 C233.343146,143 232,144.343146 232,146 L232,155 C232,156.656854 233.343146,158 235,158 Z" id="路径" stroke="#2161FD" stroke-width="2"></path>
                <path d="M206,154.735016 L206,135 L206,135 L236,135 L236,154.688499 L236,168 L206,168 L206,164.776439 M206,162.227233 L206,156.116924" id="形状" stroke="#2161FD" stroke-width="2" fill="#FFFFFF"></path>
                <rect id="矩形" fill-opacity="0.617433348" fill="#A6BFFE" x="207" y="151" width="28" height="15"></rect>
                <g id="编组-20" transform="translate(0.000000, 166.000000)" fill="#2161FD">
                    <g id="编组-16">
                        <path d="M2,0 L21.2594305,0 L49,0 C50.1045695,-2.02906125e-16 51,0.8954305 51,2 L51,2 C51,3.1045695 50.1045695,4 49,4 L21.6710143,4 L2,4 C0.8954305,4 1.3527075e-16,3.1045695 0,2 L0,2 C-1.3527075e-16,0.8954305 0.8954305,2.02906125e-16 2,0 Z" id="矩形"></path>
                        <rect id="矩形复制-32" x="186" y="0" width="61" height="4" rx="2"></rect>
                        <rect id="矩形复制-30" x="113" y="0" width="53" height="4" rx="2"></rect>
                        <rect id="矩形复制-31" x="170" y="0" width="5" height="4" rx="2"></rect>
                    </g>
                    <g id="编组-16复制" transform="translate(53.000000, 0.000000)">
                        <path d="M2,0 L4.58536737,0 L9,0 C10.1045695,-2.02906125e-16 11,0.8954305 11,2 L11,2 C11,3.1045695 10.1045695,4 9,4 L4.67414033,4 L2,4 C0.8954305,4 5.7935996e-16,3.1045695 4.4408921e-16,2 L0,2 C-1.3527075e-16,0.8954305 0.8954305,2.02906125e-16 2,0 Z" id="矩形"></path>
                        <path d="M20,0 L35.5077663,0 L58,0 C59.1045695,-2.02906125e-16 60,0.8954305 60,2 L60,2 C60,3.1045695 59.1045695,4 58,4 L35.8467176,4 L20,4 C18.8954305,4 18,3.1045695 18,2 L18,2 C18,0.8954305 18.8954305,2.02906125e-16 20,0 Z" id="矩形复制-37"></path>
                        <rect id="矩形复制-31" x="165" y="0" width="4" height="4" rx="2"></rect>
                    </g>
                </g>
                <g id="官网" transform="translate(54.000000, 51.000000)">
                    <g id="wangzhan-2">
                        <rect id="矩形" fill="#FFFFFF" x="56.2376238" y="93.6385542" width="26.7128713" height="22.3614458"></rect>
                        <rect id="矩形" fill="#FFFFFF" x="40.7722772" y="107.614458" width="19.6831683" height="8.38554217" rx="4.19277108"></rect>
                        <rect id="矩形" fill="#FFFFFF" x="80.1386139" y="107.614458" width="19.6831683" height="8.38554217" rx="4.19277108"></rect>
                        <rect id="矩形" fill="#FFFFFF" x="0" y="0" width="142" height="95.0361446" rx="11.2475248"></rect>
                        <path d="M110.751609,1.39759036 C87.924942,1.39759036 53.6849412,1.39759036 8.03160676,1.39759036 C3.59815986,1.39759036 0,4.00334721 0,8.38864547 L0,87.0062375 C0,90.5017651 3.59815986,93.9337376 7.13206686,93.9337376 L57.6990631,93.9337376 L56.3497532,107.915848 L46.5190665,107.915848 C42.9209066,107.915848 40.2865397,112.301146 40.2865396,115.796674 L100.1702,115.796674 C101.06974,113.190917 98.4353727,107.915848 94.8372128,107.915848 L85.0065261,107.915848 L83.6572161,93.9337376 L134.224212,93.9337376 C137.758119,93.9337376 141.356279,90.5017651 141.356279,87.0062375 C141.356279,53.700401 141.356279,31.9360002 141.356279,21.7130351 M141.356279,17.4655449 C141.356279,15.4484561 141.356279,12.422823 141.356279,8.38864547 C141.356279,4.00334732 137.758119,1.39759036 134.224212,1.39759036 L134.224212,1.39759036 C128.478615,1.39759036 124.418364,1.39759036 122.04346,1.39759036" id="形状" stroke="#2161FD" stroke-width="2" fill-rule="nonzero"></path>
                    </g>
                    <g id="编组" transform="translate(22.129870, 26.698413)">
                        <rect id="矩形" fill="#A6BFFE" x="0" y="0.843915344" width="51.8448334" height="5.90740741" rx="2.9537037"></rect>
                        <rect id="矩形复制-33" fill="#A6BFFE" x="0" y="17.7222222" width="51.8448334" height="5.90740741" rx="2.9537037"></rect>
                        <rect id="矩形复制-34" fill="#A6BFFE" x="0" y="34.6005291" width="51.8448334" height="5.90740741" rx="2.9537037"></rect>
                        <rect id="矩形" fill="#A6BFFE" x="56.9443252" y="0" width="40.7959345" height="40.5079365"></rect>
                        <rect id="矩形" fill-opacity="0.535046984" fill="#4D80FD" x="56.9443252" y="0" width="16.998306" height="40.5079365"></rect>
                    </g>
                    <path d="M40.4320125,8.28571429 L85.420778,8.28571429 M92.0720537,8.28571429 L112.674463,8.28571429 M120.909139,8.28571429 L127.246753,8.28571429 C130.8115,8.28571429 133.701299,11.1709903 133.701299,14.7301587 L133.701299,45.876828 L133.701299,64.9486706 M133.701299,71.0377838 L133.701299,78.2436199 L133.701299,79.1746032 C133.701299,82.7337716 130.8115,85.6190476 127.246753,85.6190476 L66.1320785,85.6190476 M55.4900374,85.6190476 L34.4177371,85.6190476 M26.7886246,85.6190476 L14.7532468,85.6190476 C11.1884997,85.6190476 8.2987013,82.7337716 8.2987013,79.1746032 L8.2987013,62.9193565 M8.2987013,50.5528548 L8.2987013,40.2882578 M8.2987013,30.2840067 L8.2987013,14.7301587 C8.2987013,11.1709903 11.1884997,8.28571429 14.7532468,8.28571429 L14.7532468,8.28571429 L27.1724793,8.28571429" id="形状" stroke="#2161FD" stroke-width="2"></path>
                </g>
                <path d="M32.5758755,85.1019 L33.596346,85.1019 C37.7384817,85.1019 41.096346,88.4597644 41.096346,92.6019 L41.096346,92.6019 C41.096346,96.7440356 37.7384817,100.1019 33.596346,100.1019 L32.7056873,100.1019 L31.8307019,100.1019 L30.596346,100.1019 C26.4542104,100.1019 23.096346,96.7440356 23.096346,92.6019 L23.096346,92.6019 C23.096346,88.4597644 26.4542104,85.1019 30.596346,85.1019 L30.596346,85.1019 L31.191901,85.1019" id="路径" stroke="#2161FD" stroke-width="2" fill="#FFFFFF" transform="translate(32.096346, 92.601900) rotate(27.000000) translate(-32.096346, -92.601900) "></path>
                <rect id="矩形" fill="#2161FD" x="212" y="124" width="2" height="8"></rect>
                <rect id="矩形" fill="#2161FD" x="220" y="124" width="2" height="8"></rect>
                <path d="M229.5,130.002622 L228.5,130.012412 L228.5,131.5 L229.5,131.5 L229.5,130.002622 Z M228.5,127.178336 L229.5,127.15475 L229.5,124.5 L228.5,124.5 L228.5,127.178336 Z" id="形状" stroke="#2161FD"></path>
                <path d="M16.0262436,167 C16.4379125,162.532553 21.6414058,159 28,159 C34.3585942,159 39.5620875,162.532553 39.9737564,167 L16.0262436,167 Z" id="形状结合" stroke="#2161FD" stroke-width="2" fill="#FFFFFF"></path>
                <path d="M29,99.5180723 L17,130.328416 L20.1861324,139.622869 M21.491501,143.430836 L27,159.5" id="形状" stroke="#2161FD" stroke-width="2"></path>
                <path d="M18.8966056,127.477347 C18.3322054,127.172833 17.6862863,127 17,127 C14.790861,127 13,128.790861 13,131 C13,133.209139 14.790861,135 17,135 L17,135 C19.209139,135 21,133.209139 21,131 C21,130.256231 20.7970019,129.559875 20.4433879,128.963313" id="路径" stroke="#2161FD" stroke-width="2" fill="#FFFFFF" transform="translate(17.000000, 131.000000) rotate(34.000000) translate(-17.000000, -131.000000) "></path>
                <path d="M41.0461809,104.160278 L43.6662702,98.6831313 M45.6799409,94.4736682 L48.681706,88.1986503 L38.0841392,88.1986503 L38.0841392,88.1986503 L30.7846604,101.328042 L38.0841392,110.352256 L40.0738438,106.192893" id="形状" stroke="#2161FD" stroke-width="2" fill="#FFFFFF"></path>
            </g>
        </g>
    </g>
</svg>