<?xml version="1.0" encoding="UTF-8"?>
<svg width="277px" height="170px" viewBox="0 0 277 170" version="1.1" xmlns="http://www.w3.org/2000/svg" xmlns:xlink="http://www.w3.org/1999/xlink">
    <!-- Generator: Sketch 53.2 (72643) - https://sketchapp.com -->
    <title>编组 21复制</title>
    <desc>Created with Sketch.</desc>
    <g id="页面1" stroke="none" stroke-width="1" fill="none" fill-rule="evenodd">
        <g id="医疗" transform="translate(-254.000000, -2345.000000)">
            <g id="编组-21复制" transform="translate(254.000000, 2345.000000)">
                <g id="编组-17" transform="translate(262.000000, 67.000000)" fill="#2161FD">
                    <ellipse id="椭圆形" cx="7.92403877" cy="2" rx="1" ry="2"></ellipse>
                    <g id="编组-12" transform="translate(0.000000, 0.169778)">
                        <ellipse id="椭圆形" transform="translate(11.137977, 3.000000) rotate(40.000000) translate(-11.137977, -3.000000) " cx="11.1379768" cy="3" rx="1" ry="2"></ellipse>
                        <ellipse id="椭圆形" transform="translate(12.848078, 5.961981) rotate(80.000000) translate(-12.848078, -5.961981) " cx="12.8480775" cy="5.96198133" rx="1" ry="2"></ellipse>
                        <ellipse id="椭圆形" transform="translate(12.254166, 9.330222) rotate(120.000000) translate(-12.254166, -9.330222) " cx="12.2541658" cy="9.33022222" rx="1" ry="2"></ellipse>
                        <ellipse id="椭圆形" transform="translate(9.634139, 11.528685) rotate(160.000000) translate(-9.634139, -11.528685) " cx="9.63413948" cy="11.5286853" rx="1" ry="2"></ellipse>
                        <ellipse id="椭圆形" transform="translate(6.213938, 11.528685) rotate(200.000000) translate(-6.213938, -11.528685) " cx="6.21393805" cy="11.5286853" rx="1" ry="2"></ellipse>
                        <ellipse id="椭圆形" transform="translate(3.593912, 9.330222) rotate(240.000000) translate(-3.593912, -9.330222) " cx="3.59391175" cy="9.33022222" rx="1" ry="2"></ellipse>
                        <ellipse id="椭圆形" transform="translate(3.000000, 5.961981) rotate(280.000000) translate(-3.000000, -5.961981) " cx="3" cy="5.96198133" rx="1" ry="2"></ellipse>
                        <ellipse id="椭圆形" transform="translate(4.710101, 3.000000) rotate(320.000000) translate(-4.710101, -3.000000) " cx="4.71010072" cy="3" rx="1" ry="2"></ellipse>
                    </g>
                </g>
                <path d="M220,16 L220,11 L232,11 C234.761424,11 237,8.76142375 237,6 C237,3.23857625 234.761424,1 232,1 L193,1 C190.238576,1 188,3.23857625 188,6 C188,8.76142375 190.238576,11 193,11 L207,11 L207,16 L204,16 C201.238576,16 199,18.2385763 199,21 C199,23.7614237 201.238576,26 204,26 L243,26 C245.761424,26 248,23.7614237 248,21 C248,18.2385763 245.761424,16 243,16 L220,16 Z" id="形状结合" stroke="#2161FD" stroke-width="2"></path>
                <path d="M33,27 L33,23 L39.1290323,23 C40.714624,23 42,21.714624 42,20.1290323 L42,17.8709677 C42,16.285376 40.714624,15 39.1290323,15 L18.8709677,15 C17.285376,15 16,16.285376 16,17.8709677 L16,20.1290323 C16,21.714624 17.285376,23 18.8709677,23 L27,23 L27,27 L24.8709677,27 C23.285376,27 22,28.285376 22,29.8709677 L22,32.1290323 C22,33.714624 23.285376,35 24.8709677,35 L45.1290323,35 C46.714624,35 48,33.714624 48,32.1290323 L48,29.8709677 C48,28.285376 46.714624,27 45.1290323,27 L33,27 Z" id="形状结合复制" stroke="#2161FD" stroke-width="2"></path>
                <path d="M8.9905429,169 C5.74377433,158.070166 4,146.489572 4,134.5 C4,67.9496876 57.72583,14 124,14 C190.27417,14 244,67.9496876 244,134.5 C244,146.489572 242.256226,158.070166 239.009457,169 L8.9905429,169 Z" id="形状结合" fill-opacity="0.06" fill="#2161FD"></path>
                <path d="M32.4348038,169.000001 C28.2774996,158.130403 26,146.331171 26,134 C26,79.8760945 69.8760945,36 124,36 C178.123905,36 222,79.8760945 222,134 C222,146.33117 219.7225,158.130402 215.565197,169 L32.4347969,169 Z" id="形状结合" fill-opacity="0.06" fill="#2161FD"></path>
                <g id="编组-22" transform="translate(52.492188, 37.000000)">
                    <rect id="矩形" fill="#FFFFFF" x="127.507812" y="29" width="13" height="8"></rect>
                    <rect id="矩形" fill="#FFFFFF" x="45.5078125" y="0" width="87" height="37"></rect>
                    <path d="M61.0102275,1.328125 L87.2394589,1.328125 M92.844408,1.328125 L136.078092,1.328125 L152.544881,36.3654149 L136.438757,36.3654149 M130.477623,36.3654149 L110.946254,36.3654149 M106.934242,36.3654149 L58.1309134,36.3654149 M49.3841256,36.3654149 L1.46837216,36.3654149 L17.9351612,1.328125 L53.6630967,1.328125" id="形状" stroke="#2161FD" stroke-width="2" fill="#FFFFFF" fill-rule="nonzero"></path>
                    <path d="M15.254858,53.8842909 C9.23742942,53.8842909 4.358729,49.4465884 4.358729,43.974577 C4.358729,42.9889342 4.52239517,42.0407151 4.81659358,41.1436262 L25.6931224,41.1436262 C25.9871667,42.0408691 26.1508329,42.9889342 26.1508329,43.974577 C26.1508329,49.4465884 21.2722866,53.8842909 15.254858,53.8842909 Z" id="路径" stroke="#2161FD" stroke-width="2" fill="#FFFFFF" fill-rule="nonzero"></path>
                    <path d="M29.056755,43.974577 C29.056755,42.9889342 29.2182636,42.0407151 29.5146196,41.1436262 L50.3911484,41.1436262 C50.6853468,42.0408691 50.849013,42.9889342 50.849013,43.974577 C50.849013,49.4465884 45.9704667,53.8842909 39.952884,53.8842909 C33.9353013,53.8842909 29.056755,49.4465884 29.056755,43.974577 Z" id="路径" stroke="#2161FD" stroke-width="2" fill="#FFFFFF" fill-rule="nonzero"></path>
                    <path d="M53.7549351,43.974577 C53.7549351,42.9889342 53.9162896,42.0407151 54.2126455,41.1436262 L75.0891744,41.1436262 C75.3833728,42.0408691 75.547039,42.9889342 75.547039,43.974577 C75.547039,49.4465884 70.6684927,53.8842909 64.65091,53.8842909 C58.6311697,53.8842909 53.7549351,49.4465884 53.7549351,43.974577 L53.7549351,43.974577 Z" id="路径" stroke="#2161FD" stroke-width="2" fill="#FFFFFF" fill-rule="nonzero"></path>
                    <path d="M79.9059221,43.974577 C79.9059221,42.9889342 80.0697424,42.0407151 80.361475,41.1436262 L101.240316,41.1436262 C101.53436,42.0408691 101.69818,42.9889342 101.69818,43.974577 C101.69818,49.4465884 96.8196338,53.8842909 90.8020511,53.8842909 C84.7844684,53.8842909 79.9059221,49.4465884 79.9059221,43.974577 L79.9059221,43.974577 Z" id="路径" stroke="#2161FD" stroke-width="2" fill="#FFFFFF" fill-rule="nonzero"></path>
                    <path d="M104.603948,43.974577 C104.603948,42.9889342 104.767768,42.0407151 105.059501,41.1436262 L125.938341,41.1436262 C126.232386,42.0408691 126.396206,42.9889342 126.396206,43.974577 C126.396206,49.4465884 121.51766,53.8842909 115.497919,53.8842909 C109.482494,53.8842909 104.603948,49.4465884 104.603948,43.974577 L104.603948,43.974577 Z" id="路径" stroke="#2161FD" stroke-width="2" fill="#FFFFFF" fill-rule="nonzero"></path>
                    <path d="M140.195791,53.8842909 C134.18052,53.8842909 129.301974,49.4465884 129.301974,43.974577 C129.301974,42.9889342 129.46564,42.0407151 129.757527,41.1436262 L150.636367,41.1436262 C150.930412,42.0408691 151.094078,42.9889342 151.094078,43.974577 C151.094078,49.4465884 146.215686,53.8842909 140.195791,53.8842909 L140.195791,53.8842909 Z" id="路径" stroke="#2161FD" stroke-width="2" fill="#FFFFFF" fill-rule="nonzero"></path>
                    <path d="M62.4703896,74.3234332 C62.4703896,71.9049484 62.4703896,68.2772211 62.4703896,63.4402514 C62.4703896,62.5607193 63.1205851,61.8468983 63.9255082,61.8468983 L68.2820797,61.8468983 C69.0848453,61.8468983 69.7350407,62.5607193 69.7350407,63.4402514 L69.7350407,117.587614 L132.207896,117.587614 L132.207896,63.4402514 C132.207896,62.5607193 132.857937,61.8468983 133.658545,61.8468983 L139.47039,61.8468983 C140.273001,61.8468983 140.923351,62.5607193 140.923351,63.4402514 L140.923351,117.587614 L148.188156,117.587614 C151.397061,117.587614 154,120.440588 154,123.958871 C154,127.477307 151.397061,130.328125 148.188156,130.328125 L5.81169004,130.328125 C2.60062765,130.328125 5.68434189e-14,127.477153 5.68434189e-14,123.958871 C5.68434189e-14,120.440588 2.60062765,117.587614 5.81169004,117.587614 L14.5294563,117.587614 L14.5294563,63.4402514 C14.5294563,62.5607193 15.1796517,61.8468983 15.9802597,61.8468983 L23.2450649,61.8468983 C24.0476764,61.8468983 24.6978719,62.5607193 24.6978719,63.4402514 L24.6978719,117.587614 L62.4703896,117.587614 C62.4703896,109.527152 62.4703896,103.402063 62.4703896,99.2123486 M62.4703896,95.8521464 C62.4703896,89.6179688 62.4703896,84.9393273 62.4703896,81.8162217" id="形状" stroke="#2161FD" stroke-width="2" fill="#FFFFFF" fill-rule="nonzero"></path>
                    <path d="M50.849013,84.0051818 C50.849013,85.2452235 50.849013,87.1456297 50.849013,89.7064004 M50.849013,93.1205022 C50.849013,93.9257007 50.849013,95.365892 50.849013,97.4410764 C52.5628844,98.3383193 53.7549351,100.238916 53.7549351,102.457844 C53.7549351,105.53613 51.4793281,108.031192 48.6706502,108.031192 C45.8619723,108.031192 43.5842078,105.53613 43.5842078,102.457844 C43.5842078,100.238916 44.778416,98.3383193 46.4901299,97.4410764 L46.4901299,75.6240279 C44.778416,74.726785 43.5842078,72.8260346 43.5842078,70.6072603 C43.5842078,67.5286668 45.8621265,65.0314484 48.6706502,65.0314484 C51.479174,65.0314484 53.7549351,67.5286668 53.7549351,70.6072603 C53.7549351,72.8260346 52.5628844,74.726785 50.849013,75.6240279 L50.849013,75.6240279 C50.849013,78.1510358 50.849013,80.0462918 50.849013,81.3097957" id="形状" stroke="#2161FD" stroke-width="2" fill="#FFFFFF" fill-rule="nonzero"></path>
                    <path d="M77.3183939,84.7182765 L97.8722137,62.2048098 C98.440422,61.5837009 99.3603121,61.5837009 99.9265169,62.2048098 C100.494879,62.8280749 100.494879,63.8357406 99.9265169,64.4568495 L79.3705395,86.9701621 C78.8044888,87.5934272 77.8844446,87.5909631 77.3183939,86.9701621 C76.7501856,86.3492072 76.7501856,85.3390774 77.3183939,84.7182765 Z" id="路径" fill="#2161FD" fill-rule="nonzero"></path>
                    <path d="M79.379478,103.419308 L116.134707,62.6292522 C116.700912,62.0038311 117.620956,61.9972088 118.191476,62.6160077 C118.761996,63.2348065 118.766311,64.2426262 118.202418,64.8680474 L81.4495005,105.657949 C80.8834499,106.283524 79.9634056,106.289992 79.3928857,105.671193 C78.8223657,105.052241 78.8178965,104.044575 79.379478,103.419308 Z" id="路径" fill="#2161FD" fill-rule="nonzero"></path>
                    <path d="M99.5330709,102.992555 L120.871779,79.3124879 C121.362932,78.7686904 122.17217,78.7532897 122.678734,79.2815326 C123.185144,79.8074654 123.196086,80.6782192 122.705241,81.2220168 L101.366379,104.902084 C100.875534,105.445882 100.065988,105.461282 99.5617356,104.933039 C99.0530143,104.407107 99.0419183,103.536199 99.5330709,102.992555 Z" id="路径" fill="#2161FD" fill-rule="nonzero"></path>
                    <path d="M42.5078125,1.328125 L35.4288319,36.6339746" id="路径-6" stroke="#2161FD" stroke-width="2"></path>
                    <path d="M77.0066268,1.328125 L77.5601729,11.145298 M77.8725924,16.6860774 L78.5024206,27.8561174 M78.6981147,31.3267651 L78.9616173,36" id="形状" stroke="#2161FD" stroke-width="2"></path>
                    <path d="M107.941972,1.328125 L118.622371,36" id="路径-17" stroke="#2161FD" stroke-width="2"></path>
                </g>
                <g id="编组-20" transform="translate(0.000000, 166.000000)" fill="#2161FD">
                    <g id="编组-16">
                        <path d="M2,0 L21.2594305,0 L49,0 C50.1045695,-2.02906125e-16 51,0.8954305 51,2 L51,2 C51,3.1045695 50.1045695,4 49,4 L21.6710143,4 L2,4 C0.8954305,4 1.3527075e-16,3.1045695 0,2 L0,2 C-1.3527075e-16,0.8954305 0.8954305,2.02906125e-16 2,0 Z" id="矩形"></path>
                        <rect id="矩形复制-32" x="186" y="0" width="61" height="4" rx="2"></rect>
                        <rect id="矩形复制-30" x="113" y="0" width="53" height="4" rx="2"></rect>
                        <rect id="矩形复制-31" x="170" y="0" width="5" height="4" rx="2"></rect>
                    </g>
                    <g id="编组-16复制" transform="translate(53.000000, 0.000000)">
                        <path d="M2,0 L4.58536737,0 L9,0 C10.1045695,-2.02906125e-16 11,0.8954305 11,2 L11,2 C11,3.1045695 10.1045695,4 9,4 L4.67414033,4 L2,4 C0.8954305,4 5.7935996e-16,3.1045695 4.4408921e-16,2 L0,2 C-1.3527075e-16,0.8954305 0.8954305,2.02906125e-16 2,0 Z" id="矩形"></path>
                        <path d="M20,0 L35.5077663,0 L58,0 C59.1045695,-2.02906125e-16 60,0.8954305 60,2 L60,2 C60,3.1045695 59.1045695,4 58,4 L35.8467176,4 L20,4 C18.8954305,4 18,3.1045695 18,2 L18,2 C18,0.8954305 18.8954305,2.02906125e-16 20,0 Z" id="矩形复制-37"></path>
                        <rect id="矩形复制-31" x="165" y="0" width="4" height="4" rx="2"></rect>
                    </g>
                </g>
                <g id="编组-9" transform="translate(9.000000, 92.000000)" fill="#2161FD">
                    <rect id="矩形" transform="translate(6.000000, 6.000000) rotate(90.000000) translate(-6.000000, -6.000000) " x="0" y="5" width="12" height="2"></rect>
                    <rect id="矩形" x="0" y="5" width="12" height="2"></rect>
                </g>
                <path d="M4.3625426,167 C4.13077784,166.209578 4.00603564,165.370055 4.00603564,164.5 C4.00603564,159.80558 7.63751876,156 12.1171802,156 C13.2680246,156 14.3628894,156.251168 15.3545818,156.704048 C16.6851344,153.915097 19.4361288,152 22.6139555,152 C23.4360606,152 24.2295995,152.12817 24.9773691,152.366481 C25.5226859,151.573762 26.1709338,150.863972 26.9015938,150.258614 C27.40128,149.844621 27.93951,149.47947 28.509721,149.170039 C29.887531,148.422356 31.4520641,148 33.1107309,148 C34.2125274,148 35.2727874,148.186364 36.2643724,148.530653 C40.2527995,149.915478 43.1301531,153.855317 43.13038,158.499451 C44.8687129,159.86776 45.9931369,162.046273 45.9931369,164.5 C45.9931369,165.376589 45.8496312,166.218053 45.5858961,167 L4.3625426,167 Z" id="形状结合" stroke="#2161FD" stroke-width="2" fill="#FFFFFF"></path>
            </g>
        </g>
    </g>
</svg>