<?xml version="1.0" encoding="UTF-8"?>
<svg width="753px" height="500px" viewBox="0 0 753 500" version="1.1" xmlns="http://www.w3.org/2000/svg" xmlns:xlink="http://www.w3.org/1999/xlink">
    <!-- Generator: Sketch 52.3 (67297) - http://www.bohemiancoding.com/sketch -->
    <title>分组 22</title>
    <desc>Created with Sketch.</desc>
    <defs>
        <radialGradient cx="50%" cy="51.3806416%" fx="50%" fy="51.3806416%" r="65.577152%" gradientTransform="translate(0.500000,0.513806),scale(0.693976,1.000000),scale(1.000000,0.702625),translate(-0.500000,-0.513806)" id="radialGradient-1">
            <stop stop-color="#FFFFFF" stop-opacity="0.404466712" offset="0%"></stop>
            <stop stop-color="#FFFFFF" stop-opacity="0" offset="100%"></stop>
        </radialGradient>
        <linearGradient x1="100%" y1="33.4271323%" x2="1.40116514%" y2="65.9651224%" id="linearGradient-2">
            <stop stop-color="#FAD961" offset="0%"></stop>
            <stop stop-color="#F76B1C" offset="100%"></stop>
        </linearGradient>
        <linearGradient x1="82.4929217%" y1="9.091%" x2="23.2548852%" y2="84.257%" id="linearGradient-3">
            <stop stop-color="#1425AF" offset="0%"></stop>
            <stop stop-color="#3A7FFF" offset="100%"></stop>
        </linearGradient>
        <path d="M426.100593,84.9598049 C426.098366,87.4884415 424.761713,89.940485 422.394108,91.2549338 L155.409791,239.47948 C151.06254,241.89299 145.777738,241.89299 141.430487,239.47948 L4.13366987,163.254934 C2.95692856,162.60163 1.98686604,161.631567 1.33356195,160.454826 C0.717887196,159.345863 0.426156425,158.144673 0.427184936,156.960284 L0.424682255,156.96 L0.424682255,133.966252 L16.9314236,141.84 L17.1636145,143.431092 L271.117987,2.44051995 C275.465238,0.0270101493 280.75004,0.0270101493 285.097291,2.44051995 L407.383856,70.3316638 L426.103096,61.92 L426.103096,84.96 L426.100593,84.9598049 Z" id="path-4"></path>
        <linearGradient x1="100%" y1="100%" x2="0%" y2="0%" id="linearGradient-6">
            <stop stop-color="#06DBB4" offset="0%"></stop>
            <stop stop-color="#00D4D8" offset="100%"></stop>
        </linearGradient>
        <linearGradient x1="2.33162866%" y1="50%" x2="121.211493%" y2="26.7549247%" id="linearGradient-7">
            <stop stop-color="#3474FF" offset="0%"></stop>
            <stop stop-color="#000078" offset="100%"></stop>
            <stop stop-color="#000078" offset="100%"></stop>
        </linearGradient>
        <linearGradient x1="100%" y1="50%" x2="0%" y2="50%" id="linearGradient-8">
            <stop stop-color="#691FE6" offset="0%"></stop>
            <stop stop-color="#B45AE2" offset="100%"></stop>
        </linearGradient>
        <linearGradient x1="105.815398%" y1="32.0356982%" x2="-2.68979366%" y2="68.9309712%" id="linearGradient-9">
            <stop stop-color="#691FE6" offset="0%"></stop>
            <stop stop-color="#B45AE2" offset="100%"></stop>
        </linearGradient>
        <linearGradient x1="35.7791721%" y1="100%" x2="65.1454547%" y2="-4.30802079%" id="linearGradient-10">
            <stop stop-color="#E4A449" offset="0%"></stop>
            <stop stop-color="#D74E00" offset="100%"></stop>
        </linearGradient>
        <linearGradient x1="22.2799793%" y1="76.8984246%" x2="72.6662678%" y2="8.51621183%" id="linearGradient-11">
            <stop stop-color="#E4A449" offset="0%"></stop>
            <stop stop-color="#D74E00" offset="100%"></stop>
        </linearGradient>
        <linearGradient x1="0%" y1="50%" x2="97.9639635%" y2="50%" id="linearGradient-12">
            <stop stop-color="#691FE6" offset="0%"></stop>
            <stop stop-color="#B45AE2" offset="100%"></stop>
        </linearGradient>
        <linearGradient x1="50%" y1="0%" x2="50%" y2="100%" id="linearGradient-13">
            <stop stop-color="#FAD961" offset="0%"></stop>
            <stop stop-color="#F76B1C" offset="100%"></stop>
        </linearGradient>
        <linearGradient x1="65.5787668%" y1="32.3519913%" x2="50%" y2="72.4017898%" id="linearGradient-14">
            <stop stop-color="#FAD961" offset="0%"></stop>
            <stop stop-color="#F76B1C" offset="100%"></stop>
        </linearGradient>
        <linearGradient x1="100%" y1="100%" x2="0%" y2="0%" id="linearGradient-15">
            <stop stop-color="#09E3BB" offset="0%"></stop>
            <stop stop-color="#00D4D8" offset="100%"></stop>
        </linearGradient>
        <polygon id="path-16" points="25.9375 28.8 51.875 14.4 25.9375 0 0 14.4"></polygon>
        <linearGradient x1="50%" y1="100%" x2="50%" y2="0%" id="linearGradient-18">
            <stop stop-color="#00D7D2" offset="0%"></stop>
            <stop stop-color="#00D7D2" stop-opacity="0" offset="100%"></stop>
        </linearGradient>
        <radialGradient cx="50%" cy="0%" fx="50%" fy="0%" r="80.8959446%" gradientTransform="translate(0.500000,0.000000),scale(0.999325,1.000000),rotate(90.000000),translate(-0.500000,-0.000000)" id="radialGradient-19">
            <stop stop-color="#FFFFFF" offset="0%"></stop>
            <stop stop-color="#FFFFFF" stop-opacity="0" offset="100%"></stop>
        </radialGradient>
        <radialGradient cx="50%" cy="0%" fx="50%" fy="0%" r="67.8973493%" gradientTransform="translate(0.500000,0.000000),scale(0.999325,1.000000),rotate(90.000000),translate(-0.500000,-0.000000)" id="radialGradient-20">
            <stop stop-color="#FFFFFF" offset="0%"></stop>
            <stop stop-color="#FFFFFF" stop-opacity="0" offset="100%"></stop>
        </radialGradient>
        <radialGradient cx="50%" cy="0%" fx="50%" fy="0%" r="50%" gradientTransform="translate(0.500000,0.000000),scale(0.999325,1.000000),rotate(90.000000),translate(-0.500000,-0.000000)" id="radialGradient-21">
            <stop stop-color="#FFFFFF" offset="0%"></stop>
            <stop stop-color="#FFFFFF" stop-opacity="0" offset="100%"></stop>
        </radialGradient>
        <radialGradient cx="50%" cy="0%" fx="50%" fy="0%" r="80.8959446%" gradientTransform="translate(0.500000,0.000000),scale(0.999325,1.000000),rotate(90.000000),translate(-0.500000,-0.000000)" id="radialGradient-22">
            <stop stop-color="#FFFFFF" offset="0%"></stop>
            <stop stop-color="#FFFFFF" stop-opacity="0" offset="100%"></stop>
        </radialGradient>
        <radialGradient cx="50%" cy="0%" fx="50%" fy="0%" r="64.1878164%" gradientTransform="translate(0.500000,0.000000),scale(0.999325,1.000000),rotate(90.000000),translate(-0.500000,-0.000000)" id="radialGradient-23">
            <stop stop-color="#FFFFFF" offset="0%"></stop>
            <stop stop-color="#FFFFFF" stop-opacity="0" offset="100%"></stop>
        </radialGradient>
        <linearGradient x1="0%" y1="50%" x2="97.4009438%" y2="50%" id="linearGradient-24">
            <stop stop-color="#691FE6" offset="0%"></stop>
            <stop stop-color="#B45AE2" offset="100%"></stop>
        </linearGradient>
        <linearGradient x1="83.7228298%" y1="50.0018561%" x2="0%" y2="50%" id="linearGradient-25">
            <stop stop-color="#09E3BB" offset="0%"></stop>
            <stop stop-color="#00D4D8" offset="100%"></stop>
        </linearGradient>
        <polygon id="path-26" points="25.9375 28.8 51.875 14.4 25.9375 0 0 14.4"></polygon>
        <linearGradient x1="104.831402%" y1="30.2353341%" x2="0%" y2="77.9002755%" id="linearGradient-28">
            <stop stop-color="#09E3BB" offset="0%"></stop>
            <stop stop-color="#00D4D8" offset="100%"></stop>
        </linearGradient>
        <linearGradient x1="3.58147131%" y1="50%" x2="96.2322854%" y2="50%" id="linearGradient-29">
            <stop stop-color="#691FE6" offset="0%"></stop>
            <stop stop-color="#B45AE2" offset="100%"></stop>
        </linearGradient>
        <polygon id="path-30" points="25.9375 28.8 51.875 14.4 25.9375 0 0 14.4"></polygon>
        <radialGradient cx="50%" cy="0%" fx="50%" fy="0%" r="80.8959446%" gradientTransform="translate(0.500000,0.000000),scale(0.999325,1.000000),rotate(90.000000),translate(-0.500000,-0.000000)" id="radialGradient-32">
            <stop stop-color="#FFFFFF" offset="0%"></stop>
            <stop stop-color="#FFFFFF" stop-opacity="0" offset="100%"></stop>
        </radialGradient>
        <linearGradient x1="116.991583%" y1="39.8767728%" x2="-28.9238464%" y2="50%" id="linearGradient-33">
            <stop stop-color="#FAD961" offset="0%"></stop>
            <stop stop-color="#F76B1C" offset="100%"></stop>
        </linearGradient>
        <polygon id="path-34" points="25.9375 28.8 51.875 14.4 25.9375 0 0 14.4"></polygon>
        <polygon id="path-36" points="25.9375 28.8 51.875 14.4 25.9375 0 0 14.4"></polygon>
        <polygon id="path-38" points="25.9375 28.8 51.875 14.4 25.9375 0 0 14.4"></polygon>
    </defs>
    <g id="APP解决方案" stroke="none" stroke-width="1" fill="none" fill-rule="evenodd">
        <g id="APP-1440" transform="translate(-605.000000, -100.000000)">
            <g id="TOP">
                <g id="Illustration">
                    <g id="分组-22" transform="translate(566.000000, 80.000000)">
                        <path d="M440.9375,-7.10542736e-15 L466.875,14.4 L440.9375,28.8 L415,14.4 L440.9375,-7.10542736e-15 Z M440.9375,28.8 L466.875,43.2 L440.9375,57.6 L415,43.2 L440.9375,28.8 Z M440.9375,57.6 L466.875,72 L440.9375,86.4 L415,72 L440.9375,57.6 Z M440.9375,86.4 L466.875,100.8 L440.9375,115.2 L415,100.8 L440.9375,86.4 Z M440.9375,115.2 L466.875,129.6 L440.9375,144 L415,129.6 L440.9375,115.2 Z M440.9375,144 L466.875,158.4 L440.9375,172.8 L415,158.4 L440.9375,144 Z M440.9375,172.8 L466.875,187.2 L440.9375,201.6 L415,187.2 L440.9375,172.8 Z M440.9375,201.6 L466.875,216 L440.9375,230.4 L415,216 L440.9375,201.6 Z M440.9375,230.4 L466.875,244.8 L440.9375,259.2 L415,244.8 L440.9375,230.4 Z M440.9375,259.2 L466.875,273.6 L440.9375,288 L415,273.6 L440.9375,259.2 Z M440.9375,288 L466.875,302.4 L440.9375,316.8 L415,302.4 L440.9375,288 Z M440.9375,316.8 L466.875,331.2 L440.9375,345.6 L415,331.2 L440.9375,316.8 Z M440.9375,345.6 L466.875,360 L440.9375,374.4 L415,360 L440.9375,345.6 Z M440.9375,374.4 L466.875,388.8 L440.9375,403.2 L415,388.8 L440.9375,374.4 Z M440.9375,403.2 L466.875,417.6 L440.9375,432 L415,417.6 L440.9375,403.2 Z M440.9375,432 L466.875,446.4 L440.9375,460.8 L415,446.4 L440.9375,432 Z M440.9375,460.8 L466.875,475.2 L440.9375,489.6 L415,475.2 L440.9375,460.8 Z M440.9375,489.6 L466.875,504 L440.9375,518.4 L415,504 L440.9375,489.6 Z M440.9375,518.4 L466.875,532.8 L440.9375,547.2 L415,532.8 L440.9375,518.4 Z M440.9375,547.2 L466.875,561.6 L440.9375,576 L415,561.6 L440.9375,547.2 Z M492.8125,-7.10542736e-15 L518.75,14.4 L492.8125,28.8 L466.875,14.4 L492.8125,-7.10542736e-15 Z M492.8125,28.8 L518.75,43.2 L492.8125,57.6 L466.875,43.2 L492.8125,28.8 Z M492.8125,57.6 L518.75,72 L492.8125,86.4 L466.875,72 L492.8125,57.6 Z M492.8125,86.4 L518.75,100.8 L492.8125,115.2 L466.875,100.8 L492.8125,86.4 Z M492.8125,115.2 L518.75,129.6 L492.8125,144 L466.875,129.6 L492.8125,115.2 Z M492.8125,144 L518.75,158.4 L492.8125,172.8 L466.875,158.4 L492.8125,144 Z M492.8125,172.8 L518.75,187.2 L492.8125,201.6 L466.875,187.2 L492.8125,172.8 Z M492.8125,201.6 L518.75,216 L492.8125,230.4 L466.875,216 L492.8125,201.6 Z M492.8125,230.4 L518.75,244.8 L492.8125,259.2 L466.875,244.8 L492.8125,230.4 Z M492.8125,259.2 L518.75,273.6 L492.8125,288 L466.875,273.6 L492.8125,259.2 Z M492.8125,288 L518.75,302.4 L492.8125,316.8 L466.875,302.4 L492.8125,288 Z M492.8125,316.8 L518.75,331.2 L492.8125,345.6 L466.875,331.2 L492.8125,316.8 Z M492.8125,345.6 L518.75,360 L492.8125,374.4 L466.875,360 L492.8125,345.6 Z M492.8125,374.4 L518.75,388.8 L492.8125,403.2 L466.875,388.8 L492.8125,374.4 Z M492.8125,403.2 L518.75,417.6 L492.8125,432 L466.875,417.6 L492.8125,403.2 Z M492.8125,432 L518.75,446.4 L492.8125,460.8 L466.875,446.4 L492.8125,432 Z M492.8125,460.8 L518.75,475.2 L492.8125,489.6 L466.875,475.2 L492.8125,460.8 Z M492.8125,489.6 L518.75,504 L492.8125,518.4 L466.875,504 L492.8125,489.6 Z M492.8125,518.4 L518.75,532.8 L492.8125,547.2 L466.875,532.8 L492.8125,518.4 Z M492.8125,547.2 L518.75,561.6 L492.8125,576 L466.875,561.6 L492.8125,547.2 Z M544.6875,-7.10542736e-15 L570.625,14.4 L544.6875,28.8 L518.75,14.4 L544.6875,-7.10542736e-15 Z M544.6875,28.8 L570.625,43.2 L544.6875,57.6 L518.75,43.2 L544.6875,28.8 Z M544.6875,57.6 L570.625,72 L544.6875,86.4 L518.75,72 L544.6875,57.6 Z M544.6875,86.4 L570.625,100.8 L544.6875,115.2 L518.75,100.8 L544.6875,86.4 Z M544.6875,115.2 L570.625,129.6 L544.6875,144 L518.75,129.6 L544.6875,115.2 Z M544.6875,144 L570.625,158.4 L544.6875,172.8 L518.75,158.4 L544.6875,144 Z M544.6875,172.8 L570.625,187.2 L544.6875,201.6 L518.75,187.2 L544.6875,172.8 Z M544.6875,201.6 L570.625,216 L544.6875,230.4 L518.75,216 L544.6875,201.6 Z M544.6875,230.4 L570.625,244.8 L544.6875,259.2 L518.75,244.8 L544.6875,230.4 Z M544.6875,259.2 L570.625,273.6 L544.6875,288 L518.75,273.6 L544.6875,259.2 Z M544.6875,288 L570.625,302.4 L544.6875,316.8 L518.75,302.4 L544.6875,288 Z M544.6875,316.8 L570.625,331.2 L544.6875,345.6 L518.75,331.2 L544.6875,316.8 Z M544.6875,345.6 L570.625,360 L544.6875,374.4 L518.75,360 L544.6875,345.6 Z M544.6875,374.4 L570.625,388.8 L544.6875,403.2 L518.75,388.8 L544.6875,374.4 Z M544.6875,403.2 L570.625,417.6 L544.6875,432 L518.75,417.6 L544.6875,403.2 Z M544.6875,432 L570.625,446.4 L544.6875,460.8 L518.75,446.4 L544.6875,432 Z M544.6875,460.8 L570.625,475.2 L544.6875,489.6 L518.75,475.2 L544.6875,460.8 Z M544.6875,489.6 L570.625,504 L544.6875,518.4 L518.75,504 L544.6875,489.6 Z M544.6875,518.4 L570.625,532.8 L544.6875,547.2 L518.75,532.8 L544.6875,518.4 Z M544.6875,547.2 L570.625,561.6 L544.6875,576 L518.75,561.6 L544.6875,547.2 Z M596.5625,-7.10542736e-15 L622.5,14.4 L596.5625,28.8 L570.625,14.4 L596.5625,-7.10542736e-15 Z M596.5625,28.8 L622.5,43.2 L596.5625,57.6 L570.625,43.2 L596.5625,28.8 Z M596.5625,57.6 L622.5,72 L596.5625,86.4 L570.625,72 L596.5625,57.6 Z M596.5625,86.4 L622.5,100.8 L596.5625,115.2 L570.625,100.8 L596.5625,86.4 Z M596.5625,115.2 L622.5,129.6 L596.5625,144 L570.625,129.6 L596.5625,115.2 Z M596.5625,144 L622.5,158.4 L596.5625,172.8 L570.625,158.4 L596.5625,144 Z M596.5625,172.8 L622.5,187.2 L596.5625,201.6 L570.625,187.2 L596.5625,172.8 Z M596.5625,201.6 L622.5,216 L596.5625,230.4 L570.625,216 L596.5625,201.6 Z M596.5625,230.4 L622.5,244.8 L596.5625,259.2 L570.625,244.8 L596.5625,230.4 Z M596.5625,259.2 L622.5,273.6 L596.5625,288 L570.625,273.6 L596.5625,259.2 Z M596.5625,288 L622.5,302.4 L596.5625,316.8 L570.625,302.4 L596.5625,288 Z M596.5625,316.8 L622.5,331.2 L596.5625,345.6 L570.625,331.2 L596.5625,316.8 Z M596.5625,345.6 L622.5,360 L596.5625,374.4 L570.625,360 L596.5625,345.6 Z M596.5625,374.4 L622.5,388.8 L596.5625,403.2 L570.625,388.8 L596.5625,374.4 Z M596.5625,403.2 L622.5,417.6 L596.5625,432 L570.625,417.6 L596.5625,403.2 Z M596.5625,432 L622.5,446.4 L596.5625,460.8 L570.625,446.4 L596.5625,432 Z M596.5625,460.8 L622.5,475.2 L596.5625,489.6 L570.625,475.2 L596.5625,460.8 Z M596.5625,489.6 L622.5,504 L596.5625,518.4 L570.625,504 L596.5625,489.6 Z M596.5625,518.4 L622.5,532.8 L596.5625,547.2 L570.625,532.8 L596.5625,518.4 Z M596.5625,547.2 L622.5,561.6 L596.5625,576 L570.625,561.6 L596.5625,547.2 Z M648.4375,-7.10542736e-15 L674.375,14.4 L648.4375,28.8 L622.5,14.4 L648.4375,-7.10542736e-15 Z M648.4375,28.8 L674.375,43.2 L648.4375,57.6 L622.5,43.2 L648.4375,28.8 Z M648.4375,57.6 L674.375,72 L648.4375,86.4 L622.5,72 L648.4375,57.6 Z M648.4375,86.4 L674.375,100.8 L648.4375,115.2 L622.5,100.8 L648.4375,86.4 Z M648.4375,115.2 L674.375,129.6 L648.4375,144 L622.5,129.6 L648.4375,115.2 Z M648.4375,144 L674.375,158.4 L648.4375,172.8 L622.5,158.4 L648.4375,144 Z M648.4375,172.8 L674.375,187.2 L648.4375,201.6 L622.5,187.2 L648.4375,172.8 Z M648.4375,201.6 L674.375,216 L648.4375,230.4 L622.5,216 L648.4375,201.6 Z M648.4375,230.4 L674.375,244.8 L648.4375,259.2 L622.5,244.8 L648.4375,230.4 Z M648.4375,259.2 L674.375,273.6 L648.4375,288 L622.5,273.6 L648.4375,259.2 Z M648.4375,288 L674.375,302.4 L648.4375,316.8 L622.5,302.4 L648.4375,288 Z M648.4375,316.8 L674.375,331.2 L648.4375,345.6 L622.5,331.2 L648.4375,316.8 Z M648.4375,345.6 L674.375,360 L648.4375,374.4 L622.5,360 L648.4375,345.6 Z M648.4375,374.4 L674.375,388.8 L648.4375,403.2 L622.5,388.8 L648.4375,374.4 Z M648.4375,403.2 L674.375,417.6 L648.4375,432 L622.5,417.6 L648.4375,403.2 Z M648.4375,432 L674.375,446.4 L648.4375,460.8 L622.5,446.4 L648.4375,432 Z M648.4375,460.8 L674.375,475.2 L648.4375,489.6 L622.5,475.2 L648.4375,460.8 Z M648.4375,489.6 L674.375,504 L648.4375,518.4 L622.5,504 L648.4375,489.6 Z M648.4375,518.4 L674.375,532.8 L648.4375,547.2 L622.5,532.8 L648.4375,518.4 Z M648.4375,547.2 L674.375,561.6 L648.4375,576 L622.5,561.6 L648.4375,547.2 Z M700.3125,-7.10542736e-15 L726.25,14.4 L700.3125,28.8 L674.375,14.4 L700.3125,-7.10542736e-15 Z M700.3125,28.8 L726.25,43.2 L700.3125,57.6 L674.375,43.2 L700.3125,28.8 Z M700.3125,57.6 L726.25,72 L700.3125,86.4 L674.375,72 L700.3125,57.6 Z M700.3125,86.4 L726.25,100.8 L700.3125,115.2 L674.375,100.8 L700.3125,86.4 Z M700.3125,115.2 L726.25,129.6 L700.3125,144 L674.375,129.6 L700.3125,115.2 Z M700.3125,144 L726.25,158.4 L700.3125,172.8 L674.375,158.4 L700.3125,144 Z M700.3125,172.8 L726.25,187.2 L700.3125,201.6 L674.375,187.2 L700.3125,172.8 Z M700.3125,201.6 L726.25,216 L700.3125,230.4 L674.375,216 L700.3125,201.6 Z M700.3125,230.4 L726.25,244.8 L700.3125,259.2 L674.375,244.8 L700.3125,230.4 Z M700.3125,259.2 L726.25,273.6 L700.3125,288 L674.375,273.6 L700.3125,259.2 Z M700.3125,288 L726.25,302.4 L700.3125,316.8 L674.375,302.4 L700.3125,288 Z M700.3125,316.8 L726.25,331.2 L700.3125,345.6 L674.375,331.2 L700.3125,316.8 Z M700.3125,345.6 L726.25,360 L700.3125,374.4 L674.375,360 L700.3125,345.6 Z M700.3125,374.4 L726.25,388.8 L700.3125,403.2 L674.375,388.8 L700.3125,374.4 Z M700.3125,403.2 L726.25,417.6 L700.3125,432 L674.375,417.6 L700.3125,403.2 Z M700.3125,432 L726.25,446.4 L700.3125,460.8 L674.375,446.4 L700.3125,432 Z M700.3125,460.8 L726.25,475.2 L700.3125,489.6 L674.375,475.2 L700.3125,460.8 Z M700.3125,489.6 L726.25,504 L700.3125,518.4 L674.375,504 L700.3125,489.6 Z M700.3125,518.4 L726.25,532.8 L700.3125,547.2 L674.375,532.8 L700.3125,518.4 Z M700.3125,547.2 L726.25,561.6 L700.3125,576 L674.375,561.6 L700.3125,547.2 Z M752.1875,-7.10542736e-15 L778.125,14.4 L752.1875,28.8 L726.25,14.4 L752.1875,-7.10542736e-15 Z M752.1875,28.8 L778.125,43.2 L752.1875,57.6 L726.25,43.2 L752.1875,28.8 Z M752.1875,57.6 L778.125,72 L752.1875,86.4 L726.25,72 L752.1875,57.6 Z M752.1875,86.4 L778.125,100.8 L752.1875,115.2 L726.25,100.8 L752.1875,86.4 Z M752.1875,115.2 L778.125,129.6 L752.1875,144 L726.25,129.6 L752.1875,115.2 Z M752.1875,144 L778.125,158.4 L752.1875,172.8 L726.25,158.4 L752.1875,144 Z M752.1875,172.8 L778.125,187.2 L752.1875,201.6 L726.25,187.2 L752.1875,172.8 Z M752.1875,201.6 L778.125,216 L752.1875,230.4 L726.25,216 L752.1875,201.6 Z M752.1875,230.4 L778.125,244.8 L752.1875,259.2 L726.25,244.8 L752.1875,230.4 Z M752.1875,259.2 L778.125,273.6 L752.1875,288 L726.25,273.6 L752.1875,259.2 Z M752.1875,288 L778.125,302.4 L752.1875,316.8 L726.25,302.4 L752.1875,288 Z M752.1875,316.8 L778.125,331.2 L752.1875,345.6 L726.25,331.2 L752.1875,316.8 Z M752.1875,345.6 L778.125,360 L752.1875,374.4 L726.25,360 L752.1875,345.6 Z M752.1875,374.4 L778.125,388.8 L752.1875,403.2 L726.25,388.8 L752.1875,374.4 Z M752.1875,403.2 L778.125,417.6 L752.1875,432 L726.25,417.6 L752.1875,403.2 Z M752.1875,432 L778.125,446.4 L752.1875,460.8 L726.25,446.4 L752.1875,432 Z M752.1875,460.8 L778.125,475.2 L752.1875,489.6 L726.25,475.2 L752.1875,460.8 Z M752.1875,489.6 L778.125,504 L752.1875,518.4 L726.25,504 L752.1875,489.6 Z M752.1875,518.4 L778.125,532.8 L752.1875,547.2 L726.25,532.8 L752.1875,518.4 Z M752.1875,547.2 L778.125,561.6 L752.1875,576 L726.25,561.6 L752.1875,547.2 Z M804.0625,-7.10542736e-15 L830,14.4 L804.0625,28.8 L778.125,14.4 L804.0625,-7.10542736e-15 Z M804.0625,28.8 L830,43.2 L804.0625,57.6 L778.125,43.2 L804.0625,28.8 Z M804.0625,57.6 L830,72 L804.0625,86.4 L778.125,72 L804.0625,57.6 Z M804.0625,86.4 L830,100.8 L804.0625,115.2 L778.125,100.8 L804.0625,86.4 Z M804.0625,115.2 L830,129.6 L804.0625,144 L778.125,129.6 L804.0625,115.2 Z M804.0625,144 L830,158.4 L804.0625,172.8 L778.125,158.4 L804.0625,144 Z M804.0625,172.8 L830,187.2 L804.0625,201.6 L778.125,187.2 L804.0625,172.8 Z M804.0625,201.6 L830,216 L804.0625,230.4 L778.125,216 L804.0625,201.6 Z M804.0625,230.4 L830,244.8 L804.0625,259.2 L778.125,244.8 L804.0625,230.4 Z M804.0625,259.2 L830,273.6 L804.0625,288 L778.125,273.6 L804.0625,259.2 Z M804.0625,288 L830,302.4 L804.0625,316.8 L778.125,302.4 L804.0625,288 Z M804.0625,316.8 L830,331.2 L804.0625,345.6 L778.125,331.2 L804.0625,316.8 Z M804.0625,345.6 L830,360 L804.0625,374.4 L778.125,360 L804.0625,345.6 Z M804.0625,374.4 L830,388.8 L804.0625,403.2 L778.125,388.8 L804.0625,374.4 Z M804.0625,403.2 L830,417.6 L804.0625,432 L778.125,417.6 L804.0625,403.2 Z M804.0625,432 L830,446.4 L804.0625,460.8 L778.125,446.4 L804.0625,432 Z M804.0625,460.8 L830,475.2 L804.0625,489.6 L778.125,475.2 L804.0625,460.8 Z M804.0625,489.6 L830,504 L804.0625,518.4 L778.125,504 L804.0625,489.6 Z M804.0625,518.4 L830,532.8 L804.0625,547.2 L778.125,532.8 L804.0625,518.4 Z M804.0625,547.2 L830,561.6 L804.0625,576 L778.125,561.6 L804.0625,547.2 Z M25.9375,-7.10542736e-15 L51.875,14.4 L25.9375,28.8 L0,14.4 L25.9375,-7.10542736e-15 Z M25.9375,28.8 L51.875,43.2 L25.9375,57.6 L0,43.2 L25.9375,28.8 Z M25.9375,57.6 L51.875,72 L25.9375,86.4 L0,72 L25.9375,57.6 Z M25.9375,86.4 L51.875,100.8 L25.9375,115.2 L0,100.8 L25.9375,86.4 Z M25.9375,115.2 L51.875,129.6 L25.9375,144 L0,129.6 L25.9375,115.2 Z M25.9375,144 L51.875,158.4 L25.9375,172.8 L0,158.4 L25.9375,144 Z M25.9375,172.8 L51.875,187.2 L25.9375,201.6 L0,187.2 L25.9375,172.8 Z M25.9375,201.6 L51.875,216 L25.9375,230.4 L0,216 L25.9375,201.6 Z M25.9375,230.4 L51.875,244.8 L25.9375,259.2 L0,244.8 L25.9375,230.4 Z M25.9375,259.2 L51.875,273.6 L25.9375,288 L0,273.6 L25.9375,259.2 Z M25.9375,288 L51.875,302.4 L25.9375,316.8 L0,302.4 L25.9375,288 Z M25.9375,316.8 L51.875,331.2 L25.9375,345.6 L0,331.2 L25.9375,316.8 Z M25.9375,345.6 L51.875,360 L25.9375,374.4 L0,360 L25.9375,345.6 Z M25.9375,374.4 L51.875,388.8 L25.9375,403.2 L0,388.8 L25.9375,374.4 Z M25.9375,403.2 L51.875,417.6 L25.9375,432 L0,417.6 L25.9375,403.2 Z M25.9375,432 L51.875,446.4 L25.9375,460.8 L0,446.4 L25.9375,432 Z M25.9375,460.8 L51.875,475.2 L25.9375,489.6 L0,475.2 L25.9375,460.8 Z M25.9375,489.6 L51.875,504 L25.9375,518.4 L0,504 L25.9375,489.6 Z M25.9375,518.4 L51.875,532.8 L25.9375,547.2 L0,532.8 L25.9375,518.4 Z M25.9375,547.2 L51.875,561.6 L25.9375,576 L0,561.6 L25.9375,547.2 Z M77.8125,-7.10542736e-15 L103.75,14.4 L77.8125,28.8 L51.875,14.4 L77.8125,-7.10542736e-15 Z M77.8125,28.8 L103.75,43.2 L77.8125,57.6 L51.875,43.2 L77.8125,28.8 Z M77.8125,57.6 L103.75,72 L77.8125,86.4 L51.875,72 L77.8125,57.6 Z M77.8125,86.4 L103.75,100.8 L77.8125,115.2 L51.875,100.8 L77.8125,86.4 Z M77.8125,115.2 L103.75,129.6 L77.8125,144 L51.875,129.6 L77.8125,115.2 Z M77.8125,144 L103.75,158.4 L77.8125,172.8 L51.875,158.4 L77.8125,144 Z M77.8125,172.8 L103.75,187.2 L77.8125,201.6 L51.875,187.2 L77.8125,172.8 Z M77.8125,201.6 L103.75,216 L77.8125,230.4 L51.875,216 L77.8125,201.6 Z M77.8125,230.4 L103.75,244.8 L77.8125,259.2 L51.875,244.8 L77.8125,230.4 Z M77.8125,259.2 L103.75,273.6 L77.8125,288 L51.875,273.6 L77.8125,259.2 Z M77.8125,288 L103.75,302.4 L77.8125,316.8 L51.875,302.4 L77.8125,288 Z M77.8125,316.8 L103.75,331.2 L77.8125,345.6 L51.875,331.2 L77.8125,316.8 Z M77.8125,345.6 L103.75,360 L77.8125,374.4 L51.875,360 L77.8125,345.6 Z M77.8125,374.4 L103.75,388.8 L77.8125,403.2 L51.875,388.8 L77.8125,374.4 Z M77.8125,403.2 L103.75,417.6 L77.8125,432 L51.875,417.6 L77.8125,403.2 Z M77.8125,432 L103.75,446.4 L77.8125,460.8 L51.875,446.4 L77.8125,432 Z M77.8125,460.8 L103.75,475.2 L77.8125,489.6 L51.875,475.2 L77.8125,460.8 Z M77.8125,489.6 L103.75,504 L77.8125,518.4 L51.875,504 L77.8125,489.6 Z M77.8125,518.4 L103.75,532.8 L77.8125,547.2 L51.875,532.8 L77.8125,518.4 Z M77.8125,547.2 L103.75,561.6 L77.8125,576 L51.875,561.6 L77.8125,547.2 Z M129.6875,-7.10542736e-15 L155.625,14.4 L129.6875,28.8 L103.75,14.4 L129.6875,-7.10542736e-15 Z M129.6875,28.8 L155.625,43.2 L129.6875,57.6 L103.75,43.2 L129.6875,28.8 Z M129.6875,57.6 L155.625,72 L129.6875,86.4 L103.75,72 L129.6875,57.6 Z M129.6875,86.4 L155.625,100.8 L129.6875,115.2 L103.75,100.8 L129.6875,86.4 Z M129.6875,115.2 L155.625,129.6 L129.6875,144 L103.75,129.6 L129.6875,115.2 Z M129.6875,144 L155.625,158.4 L129.6875,172.8 L103.75,158.4 L129.6875,144 Z M129.6875,172.8 L155.625,187.2 L129.6875,201.6 L103.75,187.2 L129.6875,172.8 Z M129.6875,201.6 L155.625,216 L129.6875,230.4 L103.75,216 L129.6875,201.6 Z M129.6875,230.4 L155.625,244.8 L129.6875,259.2 L103.75,244.8 L129.6875,230.4 Z M129.6875,259.2 L155.625,273.6 L129.6875,288 L103.75,273.6 L129.6875,259.2 Z M129.6875,288 L155.625,302.4 L129.6875,316.8 L103.75,302.4 L129.6875,288 Z M129.6875,316.8 L155.625,331.2 L129.6875,345.6 L103.75,331.2 L129.6875,316.8 Z M129.6875,345.6 L155.625,360 L129.6875,374.4 L103.75,360 L129.6875,345.6 Z M129.6875,374.4 L155.625,388.8 L129.6875,403.2 L103.75,388.8 L129.6875,374.4 Z M129.6875,403.2 L155.625,417.6 L129.6875,432 L103.75,417.6 L129.6875,403.2 Z M129.6875,432 L155.625,446.4 L129.6875,460.8 L103.75,446.4 L129.6875,432 Z M129.6875,460.8 L155.625,475.2 L129.6875,489.6 L103.75,475.2 L129.6875,460.8 Z M129.6875,489.6 L155.625,504 L129.6875,518.4 L103.75,504 L129.6875,489.6 Z M129.6875,518.4 L155.625,532.8 L129.6875,547.2 L103.75,532.8 L129.6875,518.4 Z M129.6875,547.2 L155.625,561.6 L129.6875,576 L103.75,561.6 L129.6875,547.2 Z M181.5625,-7.10542736e-15 L207.5,14.4 L181.5625,28.8 L155.625,14.4 L181.5625,-7.10542736e-15 Z M181.5625,28.8 L207.5,43.2 L181.5625,57.6 L155.625,43.2 L181.5625,28.8 Z M181.5625,57.6 L207.5,72 L181.5625,86.4 L155.625,72 L181.5625,57.6 Z M181.5625,86.4 L207.5,100.8 L181.5625,115.2 L155.625,100.8 L181.5625,86.4 Z M181.5625,115.2 L207.5,129.6 L181.5625,144 L155.625,129.6 L181.5625,115.2 Z M181.5625,144 L207.5,158.4 L181.5625,172.8 L155.625,158.4 L181.5625,144 Z M181.5625,172.8 L207.5,187.2 L181.5625,201.6 L155.625,187.2 L181.5625,172.8 Z M181.5625,201.6 L207.5,216 L181.5625,230.4 L155.625,216 L181.5625,201.6 Z M181.5625,230.4 L207.5,244.8 L181.5625,259.2 L155.625,244.8 L181.5625,230.4 Z M181.5625,259.2 L207.5,273.6 L181.5625,288 L155.625,273.6 L181.5625,259.2 Z M181.5625,288 L207.5,302.4 L181.5625,316.8 L155.625,302.4 L181.5625,288 Z M181.5625,316.8 L207.5,331.2 L181.5625,345.6 L155.625,331.2 L181.5625,316.8 Z M181.5625,345.6 L207.5,360 L181.5625,374.4 L155.625,360 L181.5625,345.6 Z M181.5625,374.4 L207.5,388.8 L181.5625,403.2 L155.625,388.8 L181.5625,374.4 Z M181.5625,403.2 L207.5,417.6 L181.5625,432 L155.625,417.6 L181.5625,403.2 Z M181.5625,432 L207.5,446.4 L181.5625,460.8 L155.625,446.4 L181.5625,432 Z M181.5625,460.8 L207.5,475.2 L181.5625,489.6 L155.625,475.2 L181.5625,460.8 Z M181.5625,489.6 L207.5,504 L181.5625,518.4 L155.625,504 L181.5625,489.6 Z M181.5625,518.4 L207.5,532.8 L181.5625,547.2 L155.625,532.8 L181.5625,518.4 Z M181.5625,547.2 L207.5,561.6 L181.5625,576 L155.625,561.6 L181.5625,547.2 Z M233.4375,-7.10542736e-15 L259.375,14.4 L233.4375,28.8 L207.5,14.4 L233.4375,-7.10542736e-15 Z M233.4375,28.8 L259.375,43.2 L233.4375,57.6 L207.5,43.2 L233.4375,28.8 Z M233.4375,57.6 L259.375,72 L233.4375,86.4 L207.5,72 L233.4375,57.6 Z M233.4375,86.4 L259.375,100.8 L233.4375,115.2 L207.5,100.8 L233.4375,86.4 Z M233.4375,115.2 L259.375,129.6 L233.4375,144 L207.5,129.6 L233.4375,115.2 Z M233.4375,144 L259.375,158.4 L233.4375,172.8 L207.5,158.4 L233.4375,144 Z M233.4375,172.8 L259.375,187.2 L233.4375,201.6 L207.5,187.2 L233.4375,172.8 Z M233.4375,201.6 L259.375,216 L233.4375,230.4 L207.5,216 L233.4375,201.6 Z M233.4375,230.4 L259.375,244.8 L233.4375,259.2 L207.5,244.8 L233.4375,230.4 Z M233.4375,259.2 L259.375,273.6 L233.4375,288 L207.5,273.6 L233.4375,259.2 Z M233.4375,288 L259.375,302.4 L233.4375,316.8 L207.5,302.4 L233.4375,288 Z M233.4375,316.8 L259.375,331.2 L233.4375,345.6 L207.5,331.2 L233.4375,316.8 Z M233.4375,345.6 L259.375,360 L233.4375,374.4 L207.5,360 L233.4375,345.6 Z M233.4375,374.4 L259.375,388.8 L233.4375,403.2 L207.5,388.8 L233.4375,374.4 Z M233.4375,403.2 L259.375,417.6 L233.4375,432 L207.5,417.6 L233.4375,403.2 Z M233.4375,432 L259.375,446.4 L233.4375,460.8 L207.5,446.4 L233.4375,432 Z M233.4375,460.8 L259.375,475.2 L233.4375,489.6 L207.5,475.2 L233.4375,460.8 Z M233.4375,489.6 L259.375,504 L233.4375,518.4 L207.5,504 L233.4375,489.6 Z M233.4375,518.4 L259.375,532.8 L233.4375,547.2 L207.5,532.8 L233.4375,518.4 Z M233.4375,547.2 L259.375,561.6 L233.4375,576 L207.5,561.6 L233.4375,547.2 Z M285.3125,-7.10542736e-15 L311.25,14.4 L285.3125,28.8 L259.375,14.4 L285.3125,-7.10542736e-15 Z M285.3125,28.8 L311.25,43.2 L285.3125,57.6 L259.375,43.2 L285.3125,28.8 Z M285.3125,57.6 L311.25,72 L285.3125,86.4 L259.375,72 L285.3125,57.6 Z M285.3125,86.4 L311.25,100.8 L285.3125,115.2 L259.375,100.8 L285.3125,86.4 Z M285.3125,115.2 L311.25,129.6 L285.3125,144 L259.375,129.6 L285.3125,115.2 Z M285.3125,144 L311.25,158.4 L285.3125,172.8 L259.375,158.4 L285.3125,144 Z M285.3125,172.8 L311.25,187.2 L285.3125,201.6 L259.375,187.2 L285.3125,172.8 Z M285.3125,201.6 L311.25,216 L285.3125,230.4 L259.375,216 L285.3125,201.6 Z M285.3125,230.4 L311.25,244.8 L285.3125,259.2 L259.375,244.8 L285.3125,230.4 Z M285.3125,259.2 L311.25,273.6 L285.3125,288 L259.375,273.6 L285.3125,259.2 Z M285.3125,288 L311.25,302.4 L285.3125,316.8 L259.375,302.4 L285.3125,288 Z M285.3125,316.8 L311.25,331.2 L285.3125,345.6 L259.375,331.2 L285.3125,316.8 Z M285.3125,345.6 L311.25,360 L285.3125,374.4 L259.375,360 L285.3125,345.6 Z M285.3125,374.4 L311.25,388.8 L285.3125,403.2 L259.375,388.8 L285.3125,374.4 Z M285.3125,403.2 L311.25,417.6 L285.3125,432 L259.375,417.6 L285.3125,403.2 Z M285.3125,432 L311.25,446.4 L285.3125,460.8 L259.375,446.4 L285.3125,432 Z M285.3125,460.8 L311.25,475.2 L285.3125,489.6 L259.375,475.2 L285.3125,460.8 Z M285.3125,489.6 L311.25,504 L285.3125,518.4 L259.375,504 L285.3125,489.6 Z M285.3125,518.4 L311.25,532.8 L285.3125,547.2 L259.375,532.8 L285.3125,518.4 Z M285.3125,547.2 L311.25,561.6 L285.3125,576 L259.375,561.6 L285.3125,547.2 Z M337.1875,-7.10542736e-15 L363.125,14.4 L337.1875,28.8 L311.25,14.4 L337.1875,-7.10542736e-15 Z M337.1875,28.8 L363.125,43.2 L337.1875,57.6 L311.25,43.2 L337.1875,28.8 Z M337.1875,57.6 L363.125,72 L337.1875,86.4 L311.25,72 L337.1875,57.6 Z M337.1875,86.4 L363.125,100.8 L337.1875,115.2 L311.25,100.8 L337.1875,86.4 Z M337.1875,115.2 L363.125,129.6 L337.1875,144 L311.25,129.6 L337.1875,115.2 Z M337.1875,144 L363.125,158.4 L337.1875,172.8 L311.25,158.4 L337.1875,144 Z M337.1875,172.8 L363.125,187.2 L337.1875,201.6 L311.25,187.2 L337.1875,172.8 Z M337.1875,201.6 L363.125,216 L337.1875,230.4 L311.25,216 L337.1875,201.6 Z M337.1875,230.4 L363.125,244.8 L337.1875,259.2 L311.25,244.8 L337.1875,230.4 Z M337.1875,259.2 L363.125,273.6 L337.1875,288 L311.25,273.6 L337.1875,259.2 Z M337.1875,288 L363.125,302.4 L337.1875,316.8 L311.25,302.4 L337.1875,288 Z M337.1875,316.8 L363.125,331.2 L337.1875,345.6 L311.25,331.2 L337.1875,316.8 Z M337.1875,345.6 L363.125,360 L337.1875,374.4 L311.25,360 L337.1875,345.6 Z M337.1875,374.4 L363.125,388.8 L337.1875,403.2 L311.25,388.8 L337.1875,374.4 Z M337.1875,403.2 L363.125,417.6 L337.1875,432 L311.25,417.6 L337.1875,403.2 Z M337.1875,432 L363.125,446.4 L337.1875,460.8 L311.25,446.4 L337.1875,432 Z M337.1875,460.8 L363.125,475.2 L337.1875,489.6 L311.25,475.2 L337.1875,460.8 Z M337.1875,489.6 L363.125,504 L337.1875,518.4 L311.25,504 L337.1875,489.6 Z M337.1875,518.4 L363.125,532.8 L337.1875,547.2 L311.25,532.8 L337.1875,518.4 Z M337.1875,547.2 L363.125,561.6 L337.1875,576 L311.25,561.6 L337.1875,547.2 Z M389.0625,-7.10542736e-15 L415,14.4 L389.0625,28.8 L363.125,14.4 L389.0625,-7.10542736e-15 Z M389.0625,28.8 L415,43.2 L389.0625,57.6 L363.125,43.2 L389.0625,28.8 Z M389.0625,57.6 L415,72 L389.0625,86.4 L363.125,72 L389.0625,57.6 Z M389.0625,86.4 L415,100.8 L389.0625,115.2 L363.125,100.8 L389.0625,86.4 Z M389.0625,115.2 L415,129.6 L389.0625,144 L363.125,129.6 L389.0625,115.2 Z M389.0625,144 L415,158.4 L389.0625,172.8 L363.125,158.4 L389.0625,144 Z M389.0625,172.8 L415,187.2 L389.0625,201.6 L363.125,187.2 L389.0625,172.8 Z M389.0625,201.6 L415,216 L389.0625,230.4 L363.125,216 L389.0625,201.6 Z M389.0625,230.4 L415,244.8 L389.0625,259.2 L363.125,244.8 L389.0625,230.4 Z M389.0625,259.2 L415,273.6 L389.0625,288 L363.125,273.6 L389.0625,259.2 Z M389.0625,288 L415,302.4 L389.0625,316.8 L363.125,302.4 L389.0625,288 Z M389.0625,316.8 L415,331.2 L389.0625,345.6 L363.125,331.2 L389.0625,316.8 Z M389.0625,345.6 L415,360 L389.0625,374.4 L363.125,360 L389.0625,345.6 Z M389.0625,374.4 L415,388.8 L389.0625,403.2 L363.125,388.8 L389.0625,374.4 Z M389.0625,403.2 L415,417.6 L389.0625,432 L363.125,417.6 L389.0625,403.2 Z M389.0625,432 L415,446.4 L389.0625,460.8 L363.125,446.4 L389.0625,432 Z M389.0625,460.8 L415,475.2 L389.0625,489.6 L363.125,475.2 L389.0625,460.8 Z M389.0625,489.6 L415,504 L389.0625,518.4 L363.125,504 L389.0625,489.6 Z M389.0625,518.4 L415,532.8 L389.0625,547.2 L363.125,532.8 L389.0625,518.4 Z M389.0625,547.2 L415,561.6 L389.0625,576 L363.125,561.6 L389.0625,547.2 Z" id="合并形状" stroke="url(#radialGradient-1)" stroke-width="0.72" fill-rule="nonzero"></path>
                        <g id="手机" transform="translate(149.492272, 172.080000)">
                            <path d="M162.614652,277.63948 L429.598969,129.414934 C433.075565,127.484795 434.329216,123.10177 432.399077,119.625174 C431.745773,118.448433 430.77571,117.47837 429.598969,116.825066 L292.302152,40.60052 C287.954901,38.1870101 282.670099,38.1870101 278.322848,40.60052 L11.338531,188.825066 C7.86193502,190.755205 6.60828401,195.13823 8.53842306,198.614826 C9.19172715,199.791567 10.1617897,200.76163 11.338531,201.414934 L148.635348,277.63948 C152.982599,280.05299 158.267401,280.05299 162.614652,277.63948 Z" id="路径-42" stroke="url(#linearGradient-2)" stroke-width="1.44"></path>
                            <g id="分组-24" transform="translate(7.204861, 24.480000)">
                                <mask id="mask-5" fill="white">
                                    <use xlink:href="#path-4"></use>
                                </mask>
                                <use id="Mask" fill="url(#linearGradient-3)" xlink:href="#path-4"></use>
                                <path d="M155.409791,227.23948 L430.027465,74.7770412 C432.314224,73.5074769 433.732639,71.0976493 433.732639,68.4821074 L433.732639,66.24 C433.732639,63.1530743 431.230191,60.6506266 428.143265,60.6506266 C427.86867,60.6506266 427.594449,60.670862 427.322828,60.7111685 L-7.20486111,125.191863 L-7.20486111,140.482107 C-7.20486111,143.097649 -5.78644576,145.507477 -3.49968702,146.777041 L141.430487,227.23948 C145.777738,229.65299 151.06254,229.65299 155.409791,227.23948 Z" id="路径-42" stroke="url(#linearGradient-6)" stroke-width="4.32" opacity="0.875418527" mask="url(#mask-5)"></path>
                                <path d="M57.5216308,180.654901 L71.1585256,188.225842" id="形状" stroke="#397DFD" stroke-width="2.88" stroke-linecap="round" mask="url(#mask-5)"></path>
                                <path d="M22.3350694,161.770557 C21.937156,161.520587 21.6145833,160.99559 21.6145833,160.597945 C21.6145833,160.2003 21.937156,160.080587 22.3350694,160.330557 C22.7329829,160.580528 23.0555556,161.105524 23.0555556,161.503169 C23.0555556,161.900814 22.7329829,162.020528 22.3350694,161.770557 Z M26.0815972,163.930557 C25.6836837,163.680587 25.3611111,163.15559 25.3611111,162.757945 C25.3611111,162.3603 25.6836837,162.240587 26.0815972,162.490557 C26.4795107,162.740528 26.8020833,163.265524 26.8020833,163.663169 C26.8020833,164.060814 26.4795107,164.180528 26.0815972,163.930557 Z M29.828125,166.090557 C29.4302115,165.840587 29.1076389,165.31559 29.1076389,164.917945 C29.1076389,164.5203 29.4302115,164.400587 29.828125,164.650557 C30.2260385,164.900528 30.5486111,165.425524 30.5486111,165.823169 C30.5486111,166.220814 30.2260385,166.340528 29.828125,166.090557 Z M33.5746528,168.250557 C33.1767393,168.000587 32.8541667,167.47559 32.8541667,167.077945 C32.8541667,166.6803 33.1767393,166.560587 33.5746528,166.810557 C33.9725663,167.060528 34.2951389,167.585524 34.2951389,167.983169 C34.2951389,168.380814 33.9725663,168.500528 33.5746528,168.250557 Z M37.3211806,170.410557 C36.9232671,170.160587 36.6006944,169.63559 36.6006944,169.237945 C36.6006944,168.8403 36.9232671,168.720587 37.3211806,168.970557 C37.719094,169.220528 38.0416667,169.745524 38.0416667,170.143169 C38.0416667,170.540814 37.719094,170.660528 37.3211806,170.410557 Z M41.0677083,172.570557 C40.6697948,172.320587 40.3472222,171.79559 40.3472222,171.397945 C40.3472222,171.0003 40.6697948,170.880587 41.0677083,171.130557 C41.4656218,171.380528 41.7881944,171.905524 41.7881944,172.303169 C41.7881944,172.700814 41.4656218,172.820528 41.0677083,172.570557 Z" id="合并形状" stroke="#397DFD" stroke-width="1.44" fill="#3A7FFF" fill-rule="nonzero" mask="url(#mask-5)"></path>
                                <path d="M89.3402778,198.850557 C88.9423643,198.600587 88.6197917,198.07559 88.6197917,197.677945 C88.6197917,197.2803 88.9423643,197.160587 89.3402778,197.410557 C89.7381913,197.660528 90.0607639,198.185524 90.0607639,198.583169 C90.0607639,198.980814 89.7381913,199.100528 89.3402778,198.850557 Z M93.0868056,201.010557 C92.6888921,200.760587 92.3663194,200.23559 92.3663194,199.837945 C92.3663194,199.4403 92.6888921,199.320587 93.0868056,199.570557 C93.484719,199.820528 93.8072917,200.345524 93.8072917,200.743169 C93.8072917,201.140814 93.484719,201.260528 93.0868056,201.010557 Z M96.8333333,203.170557 C96.4354198,202.920587 96.1128472,202.39559 96.1128472,201.997945 C96.1128472,201.6003 96.4354198,201.480587 96.8333333,201.730557 C97.2312468,201.980528 97.5538194,202.505524 97.5538194,202.903169 C97.5538194,203.300814 97.2312468,203.420528 96.8333333,203.170557 Z M100.579861,205.330557 C100.181948,205.080587 99.859375,204.55559 99.859375,204.157945 C99.859375,203.7603 100.181948,203.640587 100.579861,203.890557 C100.977775,204.140528 101.300347,204.665524 101.300347,205.063169 C101.300347,205.460814 100.977775,205.580528 100.579861,205.330557 Z M104.326389,207.490557 C103.928475,207.240587 103.605903,206.71559 103.605903,206.317945 C103.605903,205.9203 103.928475,205.800587 104.326389,206.050557 C104.724302,206.300528 105.046875,206.825524 105.046875,207.223169 C105.046875,207.620814 104.724302,207.740528 104.326389,207.490557 Z M108.072917,209.650557 C107.675003,209.400587 107.352431,208.87559 107.352431,208.477945 C107.352431,208.0803 107.675003,207.960587 108.072917,208.210557 C108.47083,208.460528 108.793403,208.985524 108.793403,209.383169 C108.793403,209.780814 108.47083,209.900528 108.072917,209.650557 Z" id="合并形状-copy-3" stroke="#397DFD" stroke-width="2.16" fill="#3A7FFF" fill-rule="nonzero" mask="url(#mask-5)"></path>
                            </g>
                            <path d="M162.614652,240.91948 L429.598969,92.6949338 C433.075565,90.7647948 434.329216,86.38177 432.399077,82.9051741 C431.745773,81.7284328 430.77571,80.7583703 429.598969,80.1050662 L292.302152,3.88051995 C287.954901,1.46701015 282.670099,1.46701015 278.322848,3.88051995 L11.338531,152.105066 C7.86193502,154.035205 6.60828401,158.41823 8.53842306,161.894826 C9.19172715,163.071567 10.1617897,164.04163 11.338531,164.694934 L148.635348,240.91948 C152.982599,243.33299 158.267401,243.33299 162.614652,240.91948 Z" id="路径-42" fill="url(#linearGradient-7)"></path>
                            <path d="M329.625507,43.5779576 C331.045308,44.2659579 333.318669,44.0205739 334.703201,43.0298772 C336.087732,42.0391804 336.059141,40.6783275 334.63934,39.9903272 C333.219539,39.302327 330.946179,39.547711 329.561647,40.5384077 C328.177115,41.5291045 328.205706,42.8899574 329.625507,43.5779576 Z" id="椭圆形" fill="url(#linearGradient-8)" fill-rule="nonzero"></path>
                            <path d="M340.432799,49.3379576 C341.8526,50.0259579 344.12596,49.7805739 345.510492,48.7898772 C346.895024,47.7991804 346.866433,46.4383275 345.446632,45.7503272 C344.026831,45.062327 341.75347,45.307711 340.368939,46.2984077 C338.984407,47.2891045 339.012998,48.6499574 340.432799,49.3379576 Z" id="椭圆形-copy-26" fill="url(#linearGradient-8)" fill-rule="nonzero"></path>
                            <path d="M351.240091,54.3779576 C352.659891,55.0659579 354.933252,54.8205739 356.317784,53.8298772 C357.702316,52.8391804 357.673724,51.4783275 356.253924,50.7903272 C354.834123,50.102327 352.560762,50.347711 351.17623,51.3384077 C349.791699,52.3291045 349.82029,53.6899574 351.240091,54.3779576 Z" id="椭圆形-copy-30" fill="url(#linearGradient-8)" fill-rule="nonzero"></path>
                            <path d="M362.767868,60.1379576 C364.187669,60.8259579 366.46103,60.5805739 367.845562,59.5898772 C369.230093,58.5991804 369.201502,57.2383275 367.781701,56.5503272 C366.361901,55.862327 364.08854,56.107711 362.704008,57.0984077 C361.319476,58.0891045 361.348068,59.4499574 362.767868,60.1379576 Z" id="椭圆形-copy-31" fill="url(#linearGradient-8)" fill-rule="nonzero"></path>
                            <path d="M292.302152,18.28052 L324.21875,36 L324.21875,36 C320.2423,38.2076485 318.808403,43.220851 321.016051,47.1973012 C321.763285,48.5432308 322.87282,49.6527659 324.21875,50.4 L350.15625,64.8 C358.222232,69.2780779 368.027768,69.2780779 376.09375,64.8 L403.661469,80.1050662 C407.138065,82.0352052 408.391716,86.41823 406.461577,89.8948259 C405.808273,91.0715672 404.83821,92.0416297 403.661469,92.6949338 L162.614652,226.51948 C158.267401,228.93299 152.982599,228.93299 148.635348,226.51948 L37.276031,164.694934 C33.799435,162.764795 32.545784,158.38177 34.4759231,154.905174 C35.1292272,153.728433 36.0992897,152.75837 37.276031,152.105066 L278.322848,18.28052 C282.670099,15.8670101 287.954901,15.8670101 292.302152,18.28052 Z" id="Mask" fill="url(#linearGradient-9)"></path>
                        </g>
                        <g id="其他" transform="translate(206.410675, 215.280000)">
                            <polygon id="路径-49" stroke="url(#linearGradient-10)" stroke-width="1.44" fill-rule="nonzero" points="92.9427083 118.8 124.644097 100.8 150.581597 86.4"></polygon>
                            <polyline id="形状" stroke="url(#linearGradient-10)" stroke-width="1.44" fill-rule="nonzero" points="51.875 98.4227854 84.4638169 81.36 84.4638169 81.36 159.227431 122.865414 127.886285 139.171567"></polyline>
                            <g id="分组-26" transform="translate(0.000000, 89.280000)">
                                <polygon id="路径-48" fill="url(#linearGradient-10)" fill-rule="nonzero" points="0 23.04 31.186756 40.32 72.7690972 17.28 41.5823413 7.10542736e-15"></polygon>
                                <polygon id="路径-48-copy" fill="url(#linearGradient-10)" fill-rule="nonzero" points="36.3845486 43.2 67.5713046 60.48 109.153646 37.44 77.9668899 20.16"></polygon>
                                <polygon id="路径-48-copy-2" fill="url(#linearGradient-10)" fill-rule="nonzero" points="72.7690972 63.36 103.955853 80.64 145.538194 57.6 114.351438 40.32"></polygon>
                                <path d="M41.2758794,4.60841322 L41.2800376,4.60841322 L47.9027185,8.40725843 L46.6192103,9.14278539 L39.9965294,5.34394017 L41.2758794,4.60841322 Z M51.7119382,12.0646456 L48.6500918,10.3084717 L49.9308279,9.5715673 L52.9940604,11.3291186 L51.7119382,12.0646456 Z M53.7415723,13.2301941 L55.0236945,12.4932897 L63.0352256,17.0910219 L61.7531034,17.8251715 L53.7415723,13.2301941 Z M43.7710971,10.7774734 L37.1484162,6.97725078 L38.4305384,6.24172383 L45.0532193,10.0419464 L43.7710971,10.7774734 Z M48.8634092,13.6990581 L45.8015628,11.9428842 L47.0822989,11.2059798 L50.1455314,12.9635311 L48.8634092,13.6990581 Z M58.9049902,19.460135 L50.8934591,14.8637802 L52.1755813,14.1282532 L60.1871124,18.724608 L58.9049902,19.460135 Z M40.9225681,12.4117482 L34.2998872,8.61152557 L35.5820094,7.87599861 L42.2046903,11.6762212 L40.9225681,12.4117482 Z M46.0147416,15.3333329 L42.9528952,13.577159 L44.2336313,12.8402546 L47.2968638,14.5978059 L46.0147416,15.3333329 Z M56.0563226,21.0944097 L48.0447915,16.498055 L49.3269137,15.762528 L57.3384448,20.3588828 L56.0563226,21.0944097 Z M38.0745936,14.046023 L31.4519127,10.2458003 L32.7326488,9.51027339 L39.3567158,13.310496 L38.0745936,14.046023 Z M43.166074,16.9676077 L40.1042276,15.2114337 L41.3849638,14.4745294 L44.4481962,16.2320807 L43.166074,16.9676077 Z M53.207655,22.7286845 L45.1961239,18.1323297 L46.4782461,17.3968028 L54.4897772,21.9931576 L53.207655,22.7286845 Z M35.225926,15.6802977 L28.6032451,11.8800751 L29.8839812,11.1445482 L36.5080482,14.9447708 L35.225926,15.6802977 Z M40.3174064,18.6018824 L37.2555601,16.8457085 L38.5376822,16.1088042 L41.5995286,17.8663555 L40.3174064,18.6018824 Z M50.359126,24.363097 L42.347595,19.7667423 L43.6297171,19.0312153 L51.6412482,23.6275701 L50.359126,24.363097 Z M32.3772584,17.3147103 L25.7545775,13.5144877 L27.0353136,12.7789607 L33.6593806,16.5791833 L32.3772584,17.3147103 Z M37.4688775,20.236295 L34.4070311,18.480121 L35.6891533,17.7432167 L38.7509997,19.500768 L37.4688775,20.236295 Z M47.5104584,25.9973718 L39.4989274,21.401017 L40.7810496,20.6654901 L48.7925806,25.2618449 L47.5104584,25.9973718 Z M29.5285908,18.948985 L22.9059099,15.1487624 L24.186646,14.4132355 L30.810713,18.2134581 L29.5285908,18.948985 Z M34.6209029,21.8705697 L31.5590565,20.1143958 L32.8397926,19.3774915 L35.9030251,21.1350428 L34.6209029,21.8705697 Z M44.6617909,27.6316466 L36.6502598,23.0352918 L37.932382,22.2997649 L45.943913,26.8961197 L44.6617909,27.6316466 Z M26.6800618,20.5832598 L20.0573809,16.7830372 L21.338117,16.0475103 L27.962184,19.8477329 L26.6800618,20.5832598 Z M31.7722353,23.5048445 L28.7103889,21.7486706 L29.991125,21.0117663 L33.0543575,22.7693176 L31.7722353,23.5048445 Z M41.8138163,29.2659214 L33.8022852,24.6695666 L35.0844074,23.9340397 L43.0945524,28.5303944 L41.8138163,29.2659214 Z M23.8313942,22.2175346 L17.2087133,18.417312 L18.4894494,17.681785 L25.1135164,21.4820077 L23.8313942,22.2175346 Z M28.9235677,25.1391193 L25.8617213,23.3829454 L27.1424574,22.646041 L30.2056899,24.4035923 L28.9235677,25.1391193 Z M38.9651487,30.9003339 L30.9536176,26.3039791 L32.2357398,25.5684522 L40.2472709,30.164807 L38.9651487,30.9003339 Z M20.9834197,23.8519471 L14.3607388,20.0517245 L15.6414749,19.3161976 L22.2655418,23.1164202 L20.9834197,23.8519471 Z M26.0749001,26.7735318 L23.0130537,25.0173579 L24.2937898,24.2804536 L27.3570223,26.0380049 L26.0749001,26.7735318 Z M36.1166197,32.5346087 L28.1050886,27.9382539 L29.3872108,27.202727 L37.3987419,31.7990817 L36.1166197,32.5346087 Z M18.1347521,25.4862219 L11.5120712,21.6859993 L12.7928073,20.9504723 L19.4168743,24.750695 L18.1347521,25.4862219 Z M23.2263711,28.4078066 L20.1645248,26.6516327 L21.4466469,25.9147283 L24.5084933,27.6722797 L23.2263711,28.4078066 Z M33.2679521,34.1688835 L25.256421,29.5725287 L26.5385432,28.8370017 L34.5500743,33.4333565 L33.2679521,34.1688835 Z M8.66298776,23.3209628 L9.94510995,22.5840584 L16.5677908,26.384281 L15.2856687,27.119808 L8.66298776,23.3209628 Z M20.3777036,30.0420814 L17.3158572,28.2859075 L18.5979793,27.5490031 L21.6598257,29.3065544 L20.3777036,30.0420814 Z M22.4076148,31.2063903 L23.688351,30.4708633 L31.7012681,35.0672181 L30.4191459,35.802745 L22.4076148,31.2063903 Z" id="合并形状" fill-opacity="0.658797554" fill="#FFFFFF"></path>
                                <path d="M77.660428,24.7684132 L77.6645863,24.7684132 L84.2872671,28.5672584 L83.0037589,29.3027854 L76.381078,25.5039402 L77.660428,24.7684132 Z M88.0964868,32.2246456 L85.0346404,30.4684717 L86.3153765,29.7315673 L89.378609,31.4891186 L88.0964868,32.2246456 Z M90.1261209,33.3901941 L91.4082431,32.6532897 L99.4197742,37.2510219 L98.137652,37.9851715 L90.1261209,33.3901941 Z M80.1556457,30.9374734 L73.5329648,27.1372508 L74.815087,26.4017238 L81.4377679,30.2019464 L80.1556457,30.9374734 Z M85.2479578,33.8590581 L82.1861114,32.1028842 L83.4668476,31.3659798 L86.53008,33.1235311 L85.2479578,33.8590581 Z M95.2895388,39.620135 L87.2780077,35.0237802 L88.5601299,34.2882532 L96.571661,38.884608 L95.2895388,39.620135 Z M77.3071167,32.5717482 L70.6844358,28.7715256 L71.966558,28.0359986 L78.5892389,31.8362212 L77.3071167,32.5717482 Z M82.3992902,35.4933329 L79.3374438,33.737159 L80.61818,33.0002546 L83.6814124,34.7578059 L82.3992902,35.4933329 Z M92.4408712,41.2544097 L84.4293401,36.658055 L85.7114623,35.922528 L93.7229934,40.5188828 L92.4408712,41.2544097 Z M74.4591422,34.206023 L67.8364613,30.4058003 L69.1171974,29.6702734 L75.7412644,33.470496 L74.4591422,34.206023 Z M79.5506227,37.1276077 L76.4887763,35.3714337 L77.7695124,34.6345294 L80.8327448,36.3920807 L79.5506227,37.1276077 Z M89.5922036,42.8886845 L81.5806726,38.2923297 L82.8627947,37.5568028 L90.8743258,42.1531576 L89.5922036,42.8886845 Z M71.6104746,35.8402977 L64.9877937,32.0400751 L66.2685298,31.3045482 L72.8925968,35.1047708 L71.6104746,35.8402977 Z M76.7019551,38.7618824 L73.6401087,37.0057085 L74.9222309,36.2688042 L77.9840772,38.0263555 L76.7019551,38.7618824 Z M86.7436747,44.523097 L78.7321436,39.9267423 L80.0142658,39.1912153 L88.0257968,43.7875701 L86.7436747,44.523097 Z M68.761807,37.4747103 L62.1391261,33.6744877 L63.4198622,32.9389607 L70.0439292,36.7391833 L68.761807,37.4747103 Z M73.8534261,40.396295 L70.7915797,38.640121 L72.0737019,37.9032167 L75.1355483,39.660768 L73.8534261,40.396295 Z M83.8950071,46.1573718 L75.883476,41.561017 L77.1655982,40.8254901 L85.1771292,45.4218449 L83.8950071,46.1573718 Z M65.9131394,39.108985 L59.2904585,35.3087624 L60.5711946,34.5732355 L67.1952616,38.3734581 L65.9131394,39.108985 Z M71.0054515,42.0305697 L67.9436051,40.2743958 L69.2243412,39.5374915 L72.2875737,41.2950428 L71.0054515,42.0305697 Z M81.0463395,47.7916466 L73.0348084,43.1952918 L74.3169306,42.4597649 L82.3284617,47.0561197 L81.0463395,47.7916466 Z M63.0646104,40.7432598 L56.4419295,36.9430372 L57.7226656,36.2075103 L64.3467326,40.0077329 L63.0646104,40.7432598 Z M68.1567839,43.6648445 L65.0949375,41.9086706 L66.3756736,41.1717663 L69.4389061,42.9293176 L68.1567839,43.6648445 Z M78.1983649,49.4259214 L70.1868338,44.8295666 L71.468956,44.0940397 L79.479101,48.6903944 L78.1983649,49.4259214 Z M60.2159428,42.3775346 L53.5932619,38.577312 L54.873998,37.841785 L61.498065,41.6420077 L60.2159428,42.3775346 Z M65.3081163,45.2991193 L62.2462699,43.5429454 L63.5270061,42.806041 L66.5902385,44.5635923 L65.3081163,45.2991193 Z M75.3496973,51.0603339 L67.3381662,46.4639791 L68.6202884,45.7284522 L76.6318195,50.324807 L75.3496973,51.0603339 Z M57.3679683,44.0119471 L50.7452874,40.2117245 L52.0260235,39.4761976 L58.6500905,43.2764202 L57.3679683,44.0119471 Z M62.4594487,46.9335318 L59.3976023,45.1773579 L60.6783385,44.4404536 L63.7415709,46.1980049 L62.4594487,46.9335318 Z M72.5011683,52.6946087 L64.4896373,48.0982539 L65.7717594,47.362727 L73.7832905,51.9590817 L72.5011683,52.6946087 Z M54.5193007,45.6462219 L47.8966198,41.8459993 L49.1773559,41.1104723 L55.8014229,44.910695 L54.5193007,45.6462219 Z M59.6109198,48.5678066 L56.5490734,46.8116327 L57.8311956,46.0747283 L60.8930419,47.8322797 L59.6109198,48.5678066 Z M69.6525007,54.3288835 L61.6409697,49.7325287 L62.9230918,48.9970017 L70.9346229,53.5933565 L69.6525007,54.3288835 Z M45.0475364,43.4809628 L46.3296586,42.7440584 L52.9523395,46.544281 L51.6702173,47.279808 L45.0475364,43.4809628 Z M56.7622522,50.2020814 L53.7004058,48.4459075 L54.982528,47.7090031 L58.0443744,49.4665544 L56.7622522,50.2020814 Z M58.7921635,51.3663903 L60.0728996,50.6308633 L68.0858167,55.2272181 L66.8036945,55.962745 L58.7921635,51.3663903 Z" id="合并形状" fill-opacity="0.658797554" fill="#FFFFFF"></path>
                                <path d="M114.044977,44.9284132 L114.049135,44.9284132 L120.671816,48.7272584 L119.388307,49.4627854 L112.765627,45.6639402 L114.044977,44.9284132 Z M124.481035,52.3846456 L121.419189,50.6284717 L122.699925,49.8915673 L125.763158,51.6491186 L124.481035,52.3846456 Z M126.51067,53.5501941 L127.792792,52.8132897 L135.804323,57.4110219 L134.522201,58.1451715 L126.51067,53.5501941 Z M116.540194,51.0974734 L109.917513,47.2972508 L111.199636,46.5617238 L117.822317,50.3619464 L116.540194,51.0974734 Z M121.632506,54.0190581 L118.57066,52.2628842 L119.851396,51.5259798 L122.914629,53.2835311 L121.632506,54.0190581 Z M131.674087,59.780135 L123.662556,55.1837802 L124.944679,54.4482532 L132.95621,59.044608 L131.674087,59.780135 Z M113.691665,52.7317482 L107.068984,48.9315256 L108.351107,48.1959986 L114.973788,51.9962212 L113.691665,52.7317482 Z M118.783839,55.6533329 L115.721992,53.897159 L117.002729,53.1602546 L120.065961,54.9178059 L118.783839,55.6533329 Z M128.82542,61.4144097 L120.813889,56.818055 L122.096011,56.082528 L130.107542,60.6788828 L128.82542,61.4144097 Z M110.843691,54.366023 L104.22101,50.5658003 L105.501746,49.8302734 L112.125813,53.630496 L110.843691,54.366023 Z M115.935171,57.2876077 L112.873325,55.5314337 L114.154061,54.7945294 L117.217293,56.5520807 L115.935171,57.2876077 Z M125.976752,63.0486845 L117.965221,58.4523297 L119.247343,57.7168028 L127.258874,62.3131576 L125.976752,63.0486845 Z M107.995023,56.0002977 L101.372342,52.2000751 L102.653078,51.4645482 L109.277145,55.2647708 L107.995023,56.0002977 Z M113.086504,58.9218824 L110.024657,57.1657085 L111.306779,56.4288042 L114.368626,58.1863555 L113.086504,58.9218824 Z M123.128223,64.683097 L115.116692,60.0867423 L116.398814,59.3512153 L124.410345,63.9475701 L123.128223,64.683097 Z M105.146356,57.6347103 L98.5236747,53.8344877 L99.8044108,53.0989607 L106.428478,56.8991833 L105.146356,57.6347103 Z M110.237975,60.556295 L107.176128,58.800121 L108.45825,58.0632167 L111.520097,59.820768 L110.237975,60.556295 Z M120.279556,66.3173718 L112.268025,61.721017 L113.550147,60.9854901 L121.561678,65.5818449 L120.279556,66.3173718 Z M102.297688,59.268985 L95.6750071,55.4687624 L96.9557432,54.7332355 L103.57981,58.5334581 L102.297688,59.268985 Z M107.39,62.1905697 L104.328154,60.4343958 L105.60889,59.6974915 L108.672122,61.4550428 L107.39,62.1905697 Z M117.430888,67.9516466 L109.419357,63.3552918 L110.701479,62.6197649 L118.71301,67.2161197 L117.430888,67.9516466 Z M99.449159,60.9032598 L92.8264781,57.1030372 L94.1072143,56.3675103 L100.731281,60.1677329 L99.449159,60.9032598 Z M104.541333,63.8248445 L101.479486,62.0686706 L102.760222,61.3317663 L105.823455,63.0893176 L104.541333,63.8248445 Z M114.582914,69.5859214 L106.571382,64.9895666 L107.853505,64.2540397 L115.86365,68.8503944 L114.582914,69.5859214 Z M96.6004914,62.5375346 L89.9778105,58.737312 L91.2585467,58.001785 L97.8826136,61.8020077 L96.6004914,62.5375346 Z M101.692665,65.4591193 L98.6308186,63.7029454 L99.9115547,62.966041 L102.974787,64.7235923 L101.692665,65.4591193 Z M111.734246,71.2203339 L103.722715,66.6239791 L105.004837,65.8884522 L113.016368,70.484807 L111.734246,71.2203339 Z M93.7525169,64.1719471 L87.129836,60.3717245 L88.4105721,59.6361976 L95.0346391,63.4364202 L93.7525169,64.1719471 Z M98.8439974,67.0935318 L95.782151,65.3373579 L97.0628871,64.6004536 L100.12612,66.3580049 L98.8439974,67.0935318 Z M108.885717,72.8546087 L100.874186,68.2582539 L102.156308,67.522727 L110.167839,72.1190817 L108.885717,72.8546087 Z M90.9038493,65.8062219 L84.2811684,62.0059993 L85.5619045,61.2704723 L92.1859715,65.070695 L90.9038493,65.8062219 Z M95.9954684,68.7278066 L92.933622,66.9716327 L94.2157442,66.2347283 L97.2775906,67.9922797 L95.9954684,68.7278066 Z M106.037049,74.4888835 L98.0255183,69.8925287 L99.3076405,69.1570017 L107.319172,73.7533565 L106.037049,74.4888835 Z M81.432085,63.6409628 L82.7142072,62.9040584 L89.3368881,66.704281 L88.0547659,67.439808 L81.432085,63.6409628 Z M93.1468008,70.3620814 L90.0849544,68.6059075 L91.3670766,67.8690031 L94.428923,69.6265544 L93.1468008,70.3620814 Z M95.1767121,71.5263903 L96.4574482,70.7908633 L104.470365,75.3872181 L103.188243,76.122745 L95.1767121,71.5263903 Z" id="合并形状" fill-opacity="0.658797554" fill="#FFFFFF"></path>
                            </g>
                            <polygon id="路径-50" stroke="url(#linearGradient-11)" stroke-width="1.44" fill-rule="nonzero" points="202.456597 115.2 98.7065972 57.6 202.456597 0 306.206597 57.6"></polygon>
                        </g>
                        <g id="苹果" transform="translate(165.342967, 36.720000)">
                            <g id="02" transform="translate(0.000000, 86.400000)" fill-rule="nonzero">
                                <polygon id="路径-28" fill="url(#linearGradient-8)" points="77.8125 86.4 155.625 43.2 77.8125 0 2.84217094e-14 43.2"></polygon>
                                <polygon id="路径-28" fill="url(#linearGradient-12)" points="77.8125 77.76 139.774306 43.2 77.8125 8.64 15.8506944 43.2"></polygon>
                                <polygon id="路径-29" fill="url(#linearGradient-8)" points="77.8125 86.4 77.8125 115.2 155.625 72 155.625 43.2"></polygon>
                                <path d="M140.494792,71.7019536 C142.484359,70.4878533 144.097222,67.7660914 144.097222,65.622728 C144.097222,63.4793647 142.484359,62.7260482 140.494792,63.9401485 C138.505224,65.1542487 136.892361,67.8760107 136.892361,70.019374 C136.892361,72.1627373 138.505224,72.9160539 140.494792,71.7019536 Z" id="椭圆形" fill="url(#linearGradient-13)"></path>
                                <path d="M130.407986,78.1819536 C132.397554,76.9678533 134.010417,74.2460914 134.010417,72.102728 C134.010417,69.9593647 132.397554,69.2060482 130.407986,70.4201485 C128.418419,71.6342487 126.805556,74.3560107 126.805556,76.499374 C126.805556,78.6427373 128.418419,79.3960539 130.407986,78.1819536 Z" id="椭圆形-copy-23" fill="url(#linearGradient-13)"></path>
                                <path d="M86.4583333,92.88 L108.793403,80.64 L108.793403,83.88 L86.4583333,96.48 L86.4583333,92.88 Z M86.4583333,99.36 L108.793403,87.12 L108.793403,90.36 L86.4583333,102.96 L86.4583333,99.36 Z" id="合并形状" fill="url(#linearGradient-13)"></path>
                                <polygon id="Mask" fill="url(#linearGradient-8)" transform="translate(38.906250, 79.000000) scale(-1, 1) translate(-38.906250, -79.000000) " points="0 86.2 0 115 77.8125 71.8 77.8125 43"></polygon>
                                <path d="M27.6024306,87.16 L24,85.16 L24,73 L27.6024306,75 L27.6024306,87.16 Z M34.0868056,90.76 L30.484375,88.76 L30.484375,76.6 L34.0868056,78.6 L34.0868056,90.76 Z M40.5711806,94.36 L36.96875,92.36 L36.96875,80.2 L40.5711806,82.2 L40.5711806,94.36 Z M47.0555556,97.96 L43.453125,95.96 L43.453125,83.8 L47.0555556,85.8 L47.0555556,97.96 Z M53.5399306,101.56 L49.9375,99.56 L49.9375,87.4 L53.5399306,89.4 L53.5399306,101.56 Z" id="Combined-Shape" fill="url(#linearGradient-14)"></path>
                            </g>
                            <g id="凹" transform="translate(51.875000, 115.200000)">
                                <mask id="mask-17" fill="white">
                                    <use xlink:href="#path-16"></use>
                                </mask>
                                <use id="Mask" fill="url(#linearGradient-15)" fill-rule="nonzero" xlink:href="#path-16"></use>
                                <polygon id="路径-34" fill="#19AEA9" fill-rule="nonzero" mask="url(#mask-17)" points="0 14.4 0 17.28 25.9375 2.88 25.9375 0"></polygon>
                                <polygon id="路径-34" fill="#19AEA9" fill-rule="nonzero" mask="url(#mask-17)" transform="translate(38.906250, 8.640000) scale(-1, 1) translate(-38.906250, -8.640000) " points="25.9375 14.4 25.9375 17.28 51.875 2.88 51.875 0"></polygon>
                            </g>
                            <g id="气管" transform="translate(51.875000, 60.480000)" fill-rule="nonzero">
                                <polygon id="Mask" fill="url(#linearGradient-18)" opacity="0.316662016" points="25.9375 83.52 51.875 69.12 51.875 0.36 -1.42108547e-14 2.88 -1.42108547e-14 69.12"></polygon>
                                <polygon id="Mask" fill="url(#linearGradient-18)" opacity="0.607328869" points="25.9375 83.52 49.7135417 70.3667532 49.7135417 7.56 2.16145833 9.86181818 2.16145833 70.3667532"></polygon>
                                <ellipse id="椭圆形" fill="url(#radialGradient-19)" cx="15.1302083" cy="69.12" rx="1.44097222" ry="1.44"></ellipse>
                                <ellipse id="椭圆形-copy-13" fill="url(#radialGradient-19)" cx="25.2170139" cy="79.2" rx="1.44097222" ry="1.44"></ellipse>
                                <ellipse id="椭圆形-copy-10" fill="url(#radialGradient-20)" cx="27.3784722" cy="66.24" rx="2.16145833" ry="2.16"></ellipse>
                                <ellipse id="椭圆形-copy-14" fill="url(#radialGradient-21)" cx="41.7881944" cy="66.24" rx="2.16145833" ry="2.16"></ellipse>
                                <ellipse id="椭圆形-copy-11" fill="url(#radialGradient-22)" cx="12.2482639" cy="56.88" rx="2.16145833" ry="2.16"></ellipse>
                                <ellipse id="椭圆形-copy-12" fill="url(#radialGradient-23)" cx="43.2291667" cy="51.12" rx="2.88194444" ry="2.88"></ellipse>
                            </g>
                            <g id="01" fill-rule="nonzero">
                                <polygon id="路径-28" fill="url(#linearGradient-8)" points="77.8125 86.4 155.625 43.2 77.8125 2.13162821e-14 2.84217094e-14 43.2"></polygon>
                                <polygon id="路径-29" fill="url(#linearGradient-8)" points="77.8125 86.4 77.8125 115.2 155.625 72 155.625 43.2"></polygon>
                                <path d="M87.1788194,90.72 L109.513889,78.48 L109.513889,81.72 L87.1788194,94.32 L87.1788194,90.72 Z M87.1788194,97.2 L109.513889,84.96 L109.513889,88.2 L87.1788194,100.8 L87.1788194,97.2 Z" id="合并形状" fill="url(#linearGradient-13)"></path>
                                <path d="M140.494792,68.8219536 C142.484359,67.6078533 144.097222,64.8860914 144.097222,62.742728 C144.097222,60.5993647 142.484359,59.8460482 140.494792,61.0601485 C138.505224,62.2742487 136.892361,64.9960107 136.892361,67.139374 C136.892361,69.2827373 138.505224,70.0360539 140.494792,68.8219536 Z" id="椭圆形" fill="url(#linearGradient-13)"></path>
                                <path d="M130.407986,75.3019536 C132.397554,74.0878533 134.010417,71.3660914 134.010417,69.222728 C134.010417,67.0793647 132.397554,66.3260482 130.407986,67.5401485 C128.418419,68.7542487 126.805556,71.4760107 126.805556,73.619374 C126.805556,75.7627373 128.418419,76.5160539 130.407986,75.3019536 Z" id="椭圆形-copy-23" fill="url(#linearGradient-13)"></path>
                                <polygon id="Mask" fill="url(#linearGradient-8)" transform="translate(38.906250, 79.200000) scale(-1, 1) translate(-38.906250, -79.200000) " points="0 86.4 0 115.2 77.8125 72 77.8125 43.2"></polygon>
                                <path d="M26.2594639,86.44 L22.6570333,84.44 L22.6570333,72.28 L26.2594639,74.28 L26.2594639,86.44 Z M32.7438389,90.04 L29.1414083,88.04 L29.1414083,75.88 L32.7438389,77.88 L32.7438389,90.04 Z M39.2282139,93.64 L35.6257833,91.64 L35.6257833,79.48 L39.2282139,81.48 L39.2282139,93.64 Z M45.7125889,97.24 L42.1101583,95.24 L42.1101583,83.08 L45.7125889,85.08 L45.7125889,97.24 Z M52.1969639,100.84 L48.5945333,98.84 L48.5945333,86.68 L52.1969639,88.68 L52.1969639,100.84 Z" id="Combined-Shape" fill="url(#linearGradient-14)"></path>
                            </g>
                            <polygon id="路径-28" fill="url(#linearGradient-24)" fill-rule="nonzero" points="77.8125 77.76 139.774306 43.2 77.8125 8.64 15.8506944 43.2"></polygon>
                            <path d="M86.6495847,48.8588852 C79.4835941,52.7538127 83.9457696,57.5581934 83.9916762,57.6151486 C83.7649631,57.6720071 79.4571071,58.8804313 73.5563917,59.3907887 C68.4543193,59.8302557 63.2956642,60.2184577 59.6633079,58.4264402 C56.0975242,56.6629159 56.9320908,55.0432996 52.924016,52.9920768 C48.9159412,50.940854 45.8218,51.2813901 42.3865682,49.6460246 C38.8288675,47.9479829 39.4737883,44.864969 40.1787982,42.1919367 C41.6274047,36.7206201 49.0502452,29.1759988 60.9888651,27.6343415 C66.9173392,26.8649218 73.3151701,27.7355096 77.8215093,29.9748075 C81.2539193,31.6756518 82.3086986,34.4517983 84.3739705,35.5087478 C86.4448092,36.5685463 92.8922084,37.1800795 96.5936517,39.470337 C98.2330272,40.3762473 102.460186,43.1307435 101.428333,46.8968872 C101.033473,46.8398082 92.6521152,45.5898731 86.6495847,48.8588852 Z M87.1788194,33.6678396 C89.5482034,31.8853879 93.9089263,31.0667536 97.4098789,30.9708548 C101.337039,30.8508122 106.05243,31.7366664 108.793403,33.1200193 C106.31986,34.8993936 102.248024,35.8275072 98.3823629,35.9809917 C94.5111111,36.1314361 89.9217052,35.3914565 87.1788194,33.6678396 Z" id="形状" fill="url(#linearGradient-25)" fill-rule="nonzero"></path>
                        </g>
                        <g id="安卓" transform="translate(499.648522, 20.880000)">
                            <g id="03" transform="translate(0.000000, 86.400000)" fill-rule="nonzero">
                                <polygon id="路径-28" fill="url(#linearGradient-8)" points="77.8125 86.4 155.625 43.2 77.8125 0 2.84217094e-14 43.2"></polygon>
                                <polygon id="路径-28" fill="url(#linearGradient-12)" points="77.8125 77.76 139.774306 43.2 77.8125 8.64 15.8506944 43.2"></polygon>
                                <polygon id="路径-29" fill="url(#linearGradient-8)" points="77.8125 86.4 77.8125 115.2 155.625 72 155.625 43.2"></polygon>
                                <path d="M140.494792,71.7019536 C142.484359,70.4878533 144.097222,67.7660914 144.097222,65.622728 C144.097222,63.4793647 142.484359,62.7260482 140.494792,63.9401485 C138.505224,65.1542487 136.892361,67.8760107 136.892361,70.019374 C136.892361,72.1627373 138.505224,72.9160539 140.494792,71.7019536 Z" id="椭圆形" fill="url(#linearGradient-13)"></path>
                                <path d="M130.407986,78.1819536 C132.397554,76.9678533 134.010417,74.2460914 134.010417,72.102728 C134.010417,69.9593647 132.397554,69.2060482 130.407986,70.4201485 C128.418419,71.6342487 126.805556,74.3560107 126.805556,76.499374 C126.805556,78.6427373 128.418419,79.3960539 130.407986,78.1819536 Z" id="椭圆形-copy-23" fill="url(#linearGradient-13)"></path>
                                <path d="M86.4583333,92.88 L108.793403,80.64 L108.793403,83.88 L86.4583333,96.48 L86.4583333,92.88 Z M86.4583333,99.36 L108.793403,87.12 L108.793403,90.36 L86.4583333,102.96 L86.4583333,99.36 Z" id="合并形状" fill="url(#linearGradient-13)"></path>
                                <polygon id="Mask" fill="url(#linearGradient-8)" transform="translate(38.906250, 79.200000) scale(-1, 1) translate(-38.906250, -79.200000) " points="0 86.4 0 115.2 77.8125 72 77.8125 43.2"></polygon>
                                <path d="M27.3784722,87.16 L23.7760417,85.16 L23.7760417,73 L27.3784722,75 L27.3784722,87.16 Z M33.8628472,90.76 L30.2604167,88.76 L30.2604167,76.6 L33.8628472,78.6 L33.8628472,90.76 Z M40.3472222,94.36 L36.7447917,92.36 L36.7447917,80.2 L40.3472222,82.2 L40.3472222,94.36 Z M46.8315972,97.96 L43.2291667,95.96 L43.2291667,83.8 L46.8315972,85.8 L46.8315972,97.96 Z M53.3159722,101.56 L49.7135417,99.56 L49.7135417,87.4 L53.3159722,89.4 L53.3159722,101.56 Z" id="Combined-Shape" fill="url(#linearGradient-14)"></path>
                            </g>
                            <g id="凹" transform="translate(51.875000, 115.200000)">
                                <mask id="mask-27" fill="white">
                                    <use xlink:href="#path-26"></use>
                                </mask>
                                <use id="Mask" fill="url(#linearGradient-15)" fill-rule="nonzero" xlink:href="#path-26"></use>
                                <polygon id="路径-34" fill="#19AEA9" fill-rule="nonzero" mask="url(#mask-27)" points="0 14.4 0 17.28 25.9375 2.88 25.9375 0"></polygon>
                                <polygon id="路径-34" fill="#19AEA9" fill-rule="nonzero" mask="url(#mask-27)" transform="translate(38.906250, 8.640000) scale(-1, 1) translate(-38.906250, -8.640000) " points="25.9375 14.4 25.9375 17.28 51.875 2.88 51.875 0"></polygon>
                            </g>
                            <g id="气管" transform="translate(51.875000, 60.480000)" fill-rule="nonzero">
                                <polygon id="Mask" fill="url(#linearGradient-18)" opacity="0.316662016" points="25.9375 83.52 51.875 69.12 51.875 0.36 -1.42108547e-14 2.88 -1.42108547e-14 69.12"></polygon>
                                <polygon id="Mask" fill="url(#linearGradient-18)" opacity="0.607328869" points="25.9375 83.52 49.7135417 70.3667532 49.7135417 7.56 2.16145833 9.86181818 2.16145833 70.3667532"></polygon>
                                <ellipse id="椭圆形" fill="url(#radialGradient-19)" cx="15.1302083" cy="69.12" rx="1.44097222" ry="1.44"></ellipse>
                                <ellipse id="椭圆形-copy-13" fill="url(#radialGradient-19)" cx="25.2170139" cy="79.2" rx="1.44097222" ry="1.44"></ellipse>
                                <ellipse id="椭圆形-copy-10" fill="url(#radialGradient-20)" cx="27.3784722" cy="66.24" rx="2.16145833" ry="2.16"></ellipse>
                                <ellipse id="椭圆形-copy-14" fill="url(#radialGradient-21)" cx="41.7881944" cy="66.24" rx="2.16145833" ry="2.16"></ellipse>
                                <ellipse id="椭圆形-copy-11" fill="url(#radialGradient-22)" cx="12.2482639" cy="56.88" rx="2.16145833" ry="2.16"></ellipse>
                                <ellipse id="椭圆形-copy-12" fill="url(#radialGradient-23)" cx="43.2291667" cy="51.12" rx="2.88194444" ry="2.88"></ellipse>
                            </g>
                            <g id="02" fill-rule="nonzero">
                                <polygon id="路径-28" fill="url(#linearGradient-8)" points="77.8125 86.4 155.625 43.2 77.8125 2.13162821e-14 2.84217094e-14 43.2"></polygon>
                                <polygon id="路径-29" fill="url(#linearGradient-8)" points="77.8125 86.4 77.8125 115.2 155.625 72 155.625 43.2"></polygon>
                                <path d="M87.1788194,90.72 L109.513889,78.48 L109.513889,81.72 L87.1788194,94.32 L87.1788194,90.72 Z M87.1788194,97.2 L109.513889,84.96 L109.513889,88.2 L87.1788194,100.8 L87.1788194,97.2 Z" id="合并形状" fill="url(#linearGradient-13)"></path>
                                <path d="M140.494792,68.8219536 C142.484359,67.6078533 144.097222,64.8860914 144.097222,62.742728 C144.097222,60.5993647 142.484359,59.8460482 140.494792,61.0601485 C138.505224,62.2742487 136.892361,64.9960107 136.892361,67.139374 C136.892361,69.2827373 138.505224,70.0360539 140.494792,68.8219536 Z" id="椭圆形" fill="url(#linearGradient-13)"></path>
                                <path d="M130.407986,75.3019536 C132.397554,74.0878533 134.010417,71.3660914 134.010417,69.222728 C134.010417,67.0793647 132.397554,66.3260482 130.407986,67.5401485 C128.418419,68.7542487 126.805556,71.4760107 126.805556,73.619374 C126.805556,75.7627373 128.418419,76.5160539 130.407986,75.3019536 Z" id="椭圆形-copy-23" fill="url(#linearGradient-13)"></path>
                                <polygon id="Mask" fill="url(#linearGradient-8)" transform="translate(38.906250, 79.200000) scale(-1, 1) translate(-38.906250, -79.200000) " points="0 86.4 0 115.2 77.8125 72 77.8125 43.2"></polygon>
                                <path d="M27.6024306,87.16 L24,85.16 L24,73 L27.6024306,75 L27.6024306,87.16 Z M34.0868056,90.76 L30.484375,88.76 L30.484375,76.6 L34.0868056,78.6 L34.0868056,90.76 Z M40.5711806,94.36 L36.96875,92.36 L36.96875,80.2 L40.5711806,82.2 L40.5711806,94.36 Z M47.0555556,97.96 L43.453125,95.96 L43.453125,83.8 L47.0555556,85.8 L47.0555556,97.96 Z M53.5399306,101.56 L49.9375,99.56 L49.9375,87.4 L53.5399306,89.4 L53.5399306,101.56 Z" id="Combined-Shape" fill="url(#linearGradient-14)"></path>
                            </g>
                            <polygon id="路径-28" fill="url(#linearGradient-24)" fill-rule="nonzero" points="77.8125 77.76 139.774306 43.2 77.8125 8.64 15.8506944 43.2"></polygon>
                            <path d="M67.0944907,29.552282 C65.3115476,28.5947063 62.4492247,28.545155 60.6972126,29.4388873 L47.4090293,36.2174245 C45.6570173,37.1111568 45.6830622,38.6128782 47.4609113,39.567718 C49.2438544,40.5252937 52.1061773,40.574845 53.8581894,39.6811127 L67.1463726,32.9025755 C68.8983847,32.0088432 68.8774338,30.5098578 67.0944907,29.552282 Z M50.6220187,42.6370816 C48.7439956,43.5679523 48.7688172,45.1280971 50.6711984,46.1208729 L53.0223986,47.3478693 L45.9735182,50.8417538 C44.216333,51.7127293 44.2399139,53.1748867 46.0198898,54.1037842 C47.8049659,55.0353432 50.6732083,55.0823115 52.4303935,54.211336 L59.4792739,50.7174515 L63.8399599,52.9931172 L56.7910794,56.4870017 C55.0338942,57.3579772 55.0574752,58.8201347 56.837451,59.7490321 C58.6225272,60.6805912 61.4907695,60.7275595 63.2479547,59.856584 L70.2968352,56.3626995 L72.6480354,57.5896958 C74.5504165,58.5824716 77.6163266,58.6352548 79.4943498,57.7043842 L100.147569,47.4673026 L71.2752384,32.4 L50.6220187,42.6370816 Z M104.854865,37.0292365 L111.222679,36.1859791 C111.560029,36.1444125 111.751723,35.9631225 111.646455,35.7871772 C111.546353,35.6139603 111.191208,35.5048562 110.853943,35.5517001 L104.419659,36.4017056 C103.325936,34.9554394 101.628895,33.5724551 99.3354029,32.3610259 C97.0419107,31.1495967 94.3999126,30.2406879 91.6245732,29.6380722 L93.4358001,26.3513864 C93.5354508,26.1790341 93.3327188,25.9934662 92.9989173,25.9374938 C92.6599503,25.8787929 92.3029596,25.9727727 92.2135548,26.1453046 L90.4120632,29.4005067 C83.6523639,28.1740765 76.2916893,28.7440517 71.328125,31.2342226 L100.79744,46.8 C105.771244,44.3100052 107.062514,40.5393854 104.854865,37.0292365 Z M85.565371,32.8888768 C84.8508309,32.5959014 84.8326788,32.1399157 85.5248257,31.8703667 C86.2169727,31.6008177 87.3572417,31.6198074 88.0717818,31.9127828 C88.7863219,32.2057583 88.804474,32.661744 88.112327,32.9312929 C87.4147669,33.1986224 86.2744979,33.1796327 85.565371,32.8888768 Z M98.534121,40.0888768 C97.8195809,39.7959014 97.8014288,39.3399157 98.4935757,39.0703667 C99.1857227,38.8008177 100.325992,38.8198074 101.040532,39.1127828 C101.755072,39.4057583 101.773224,39.861744 101.081077,40.1312929 C100.383517,40.3986224 99.2432479,40.3796327 98.534121,40.0888768 Z M104.559768,49.712282 C102.776825,48.7547063 99.9145025,48.705155 98.1624904,49.5988873 L84.8743071,56.3774245 C83.122295,57.2711568 83.14834,58.7728782 84.926189,59.727718 C86.7091322,60.6852937 89.5714551,60.734845 91.3234671,59.8411127 L104.61165,53.0625755 C106.363662,52.1688432 106.342712,50.6698578 104.559768,49.712282 Z" id="形状" fill="url(#linearGradient-28)" fill-rule="nonzero"></path>
                        </g>
                        <g id="Gear" transform="translate(294.309981, 84.240000)">
                            <g id="管二" transform="translate(0.000000, 16.560000)" fill-rule="nonzero" stroke="url(#linearGradient-13)" stroke-width="1.44">
                                <polyline id="路径-33" points="97.265625 46.44 38.1857639 15.48 10.3192632 0.36"></polyline>
                                <polyline id="路径-33" points="85.0173611 50.76 25.9375 19.8 0.251363194 6.48"></polyline>
                                <polyline id="路径-33" points="95.8246528 134.28 36.7447917 103.32 11.0102958 90"></polyline>
                                <polyline id="路径-33" points="85.7378472 140.76 26.6579861 109.8 2.03695833 96.32"></polyline>
                            </g>
                            <g id="gear" transform="translate(36.744792, 30.240000)">
                                <g id="分组-13" transform="translate(0.000000, 86.400000)" fill-rule="nonzero">
                                    <polygon id="路径-28" fill="url(#linearGradient-8)" points="77.8125 86.4 155.625 43.2 77.8125 0 2.84217094e-14 43.2"></polygon>
                                    <polygon id="路径-29" fill="url(#linearGradient-8)" points="77.8125 86.4 77.8125 115.2 155.625 72 155.625 43.2"></polygon>
                                    <polygon id="路径-35" fill="url(#linearGradient-13)" points="92.2222222 89.28 92.2222222 92.88 114.557292 80.28 114.557292 77.04"></polygon>
                                    <polygon id="路径-35-copy" fill="url(#linearGradient-13)" points="92.2222222 95.76 92.2222222 99.36 114.557292 86.76 114.557292 83.52"></polygon>
                                    <path d="M142.65625,68.8219536 C144.645817,67.6078533 146.258681,64.8860914 146.258681,62.742728 C146.258681,60.5993647 144.645817,59.8460482 142.65625,61.0601485 C140.666683,62.2742487 139.053819,64.9960107 139.053819,67.139374 C139.053819,69.2827373 140.666683,70.0360539 142.65625,68.8219536 Z" id="椭圆形-copy-19" fill="url(#linearGradient-13)"></path>
                                    <path d="M131.128472,76.0219536 C133.11804,74.8078533 134.730903,72.0860914 134.730903,69.942728 C134.730903,67.7993647 133.11804,67.0460482 131.128472,68.2601485 C129.138905,69.4742487 127.526042,72.1960107 127.526042,74.339374 C127.526042,76.4827373 129.138905,77.2360539 131.128472,76.0219536 Z" id="椭圆形-copy-18" fill="url(#linearGradient-13)"></path>
                                    <polygon id="Mask" fill="url(#linearGradient-8)" transform="translate(38.906250, 79.000000) scale(-1, 1) translate(-38.906250, -79.000000) " points="0 86.2 0 115 77.8125 71.8 77.8125 43"></polygon>
                                    <path d="M27.6024306,87.16 L24,85.16 L24,73 L27.6024306,75 L27.6024306,87.16 Z M34.0868056,90.76 L30.484375,88.76 L30.484375,76.6 L34.0868056,78.6 L34.0868056,90.76 Z M40.5711806,94.36 L36.96875,92.36 L36.96875,80.2 L40.5711806,82.2 L40.5711806,94.36 Z M47.0555556,97.96 L43.453125,95.96 L43.453125,83.8 L47.0555556,85.8 L47.0555556,97.96 Z M53.5399306,101.56 L49.9375,99.56 L49.9375,87.4 L53.5399306,89.4 L53.5399306,101.56 Z" id="Combined-Shape" fill="url(#linearGradient-14)"></path>
                                </g>
                                <polygon id="路径-28" fill="url(#linearGradient-29)" fill-rule="nonzero" points="77.8125 164.16 139.774306 129.6 77.8125 95.04 15.8506944 129.6"></polygon>
                                <g id="分组-29" transform="translate(51.875000, 60.480000)">
                                    <g id="分组-14" transform="translate(0.000000, 54.720000)">
                                        <mask id="mask-31" fill="white">
                                            <use xlink:href="#path-30"></use>
                                        </mask>
                                        <use id="Mask" fill="url(#linearGradient-15)" fill-rule="nonzero" xlink:href="#path-30"></use>
                                        <polygon id="路径-34" fill="#1EA09C" fill-rule="nonzero" mask="url(#mask-31)" points="0 14.4 0 17.28 25.9375 2.88 25.9375 0"></polygon>
                                        <polygon id="路径-34" fill="#1EA09C" fill-rule="nonzero" mask="url(#mask-31)" transform="translate(38.906250, 8.640000) scale(-1, 1) translate(-38.906250, -8.640000) " points="25.9375 14.4 25.9375 17.28 51.875 2.88 51.875 0"></polygon>
                                    </g>
                                    <g id="分组-15" fill-rule="nonzero">
                                        <polygon id="Mask" fill="url(#linearGradient-18)" opacity="0.316662016" points="25.9375 83.52 51.875 69.12 51.875 0.36 -1.42108547e-14 2.88 -1.42108547e-14 69.12"></polygon>
                                        <polygon id="Mask" fill="url(#linearGradient-18)" opacity="0.607328869" points="25.9375 83.52 49.7135417 70.3667532 49.7135417 7.56 2.16145833 9.86181818 2.16145833 70.3667532"></polygon>
                                        <ellipse id="椭圆形" fill="url(#radialGradient-19)" cx="15.1302083" cy="69.12" rx="1.44097222" ry="1.44"></ellipse>
                                        <ellipse id="椭圆形-copy-13" fill="url(#radialGradient-19)" cx="25.2170139" cy="79.2" rx="1.44097222" ry="1.44"></ellipse>
                                        <ellipse id="椭圆形-copy-10" fill="url(#radialGradient-22)" cx="27.3784722" cy="66.24" rx="2.16145833" ry="2.16"></ellipse>
                                        <ellipse id="椭圆形-copy-14" fill="url(#radialGradient-22)" cx="41.7881944" cy="66.24" rx="2.16145833" ry="2.16"></ellipse>
                                        <ellipse id="椭圆形-copy-11" fill="url(#radialGradient-22)" cx="12.2482639" cy="56.88" rx="2.16145833" ry="2.16"></ellipse>
                                        <ellipse id="椭圆形-copy-12" fill="url(#radialGradient-32)" cx="43.2291667" cy="51.12" rx="2.88194444" ry="2.88"></ellipse>
                                    </g>
                                </g>
                                <g id="分组-13-copy" fill-rule="nonzero">
                                    <polygon id="路径-28" fill="url(#linearGradient-8)" points="77.8125 86.4 155.625 43.2 77.8125 0 2.84217094e-14 43.2"></polygon>
                                    <polygon id="路径-29" fill="url(#linearGradient-8)" points="77.8125 86.4 77.8125 115.2 155.625 72 155.625 43.2"></polygon>
                                    <polygon id="路径-35-copy-2" fill="url(#linearGradient-13)" points="92.2222222 90 92.2222222 93.6 114.557292 81 114.557292 77.76"></polygon>
                                    <polygon id="路径-35-copy-3" fill="url(#linearGradient-13)" points="92.2222222 96.48 92.2222222 100.08 114.557292 87.48 114.557292 84.24"></polygon>
                                    <path d="M142.65625,68.8219536 C144.645817,67.6078533 146.258681,64.8860914 146.258681,62.742728 C146.258681,60.5993647 144.645817,59.8460482 142.65625,61.0601485 C140.666683,62.2742487 139.053819,64.9960107 139.053819,67.139374 C139.053819,69.2827373 140.666683,70.0360539 142.65625,68.8219536 Z" id="椭圆形" fill="url(#linearGradient-13)"></path>
                                    <path d="M131.128472,76.0219536 C133.11804,74.8078533 134.730903,72.0860914 134.730903,69.942728 C134.730903,67.7993647 133.11804,67.0460482 131.128472,68.2601485 C129.138905,69.4742487 127.526042,72.1960107 127.526042,74.339374 C127.526042,76.4827373 129.138905,77.2360539 131.128472,76.0219536 Z" id="椭圆形-copy-17" fill="url(#linearGradient-13)"></path>
                                    <polygon id="Mask" fill="url(#linearGradient-8)" transform="translate(38.906250, 79.200000) scale(-1, 1) translate(-38.906250, -79.200000) " points="0 86.4 0 115.2 77.8125 72 77.8125 43.2"></polygon>
                                    <path d="M28.0989583,87.6 L24.4965278,85.6 L24.4965278,73.44 L28.0989583,75.44 L28.0989583,87.6 Z M34.5833333,91.2 L30.9809028,89.2 L30.9809028,77.04 L34.5833333,79.04 L34.5833333,91.2 Z M41.0677083,94.8 L37.4652778,92.8 L37.4652778,80.64 L41.0677083,82.64 L41.0677083,94.8 Z M47.5520833,98.4 L43.9496528,96.4 L43.9496528,84.24 L47.5520833,86.24 L47.5520833,98.4 Z M54.0364583,102 L50.4340278,100 L50.4340278,87.84 L54.0364583,89.84 L54.0364583,102 Z" id="Shape" fill="url(#linearGradient-14)"></path>
                                </g>
                                <polygon id="路径-28" fill="url(#linearGradient-29)" fill-rule="nonzero" points="77.8125 77.76 139.774306 43.2 77.8125 8.64 15.8506944 43.2"></polygon>
                                <path d="M51.5677196,57.3492075 C37.978792,49.3937858 38.6316517,36.618088 53.0259227,28.8138877 C66.2419357,21.6485083 86.4468226,21.16532 100.183675,27.2916016 L89.6005747,33.0294841 C81.4459523,30.0373615 70.3100916,30.5407476 62.8678947,34.5757138 C54.2313321,39.2582339 53.8396162,46.9236527 61.9929728,51.6969057 C69.0187872,55.810057 80.0970656,56.4334885 88.552906,53.5311289 L98.5438938,59.3801939 C84.1886722,65.3546658 64.0443115,64.6534299 51.5677196,57.3492075 Z M95.5030748,49.7629277 C100.097082,45.8599639 100.354574,40.8211485 96.1618894,36.8707014 L106.74499,31.1328189 C116.162201,38.3909202 115.647672,48.4596522 105.494063,55.6119927 L95.5030748,49.7629277 Z M69.3728265,47.9797182 C64.7968214,45.3007687 65.0166687,40.9986147 69.8638693,38.3705883 C74.7110699,35.7425619 82.3500875,35.7838432 86.9260927,38.4627926 C91.5020978,41.1417421 91.2822505,45.4438961 86.4350499,48.0719225 C81.5878493,50.699949 73.9488317,50.6586677 69.3728265,47.9797182 Z" id="合并形状" fill="url(#linearGradient-33)"></path>
                            </g>
                            <g id="管一" transform="translate(167.873264, 0.000000)" fill-rule="nonzero" stroke="url(#linearGradient-13)" stroke-width="1.44">
                                <polyline id="路径" points="10.8072917 94.7578979 49.7135417 116.357898 201.375868 28.08 166.792535 5.76"></polyline>
                                <polyline id="路径-copy-5" points="10.8072917 181.877898 49.7135417 203.477898 201.375868 115.2 167.873264 96.48"></polyline>
                                <polyline id="路径-37-copy" points="2.30478288e-13 102.24 38.1857639 123.84 38.1857639 209.52 2.27373675e-13 188.28"></polyline>
                                <polyline id="路径-37-copy-3" points="175.798611 0 210.021701 23.04 210.021701 108.72 175.798611 89.64"></polyline>
                            </g>
                        </g>
                        <g id="立方体" transform="translate(353.389842, 246.960000)">
                            <g id="立方体3" transform="translate(207.500000, 0.000000)">
                                <polygon id="路径-44" stroke="url(#linearGradient-2)" stroke-width="1.44" fill-rule="nonzero" points="55.4774306 83.52 16.5711806 105.12 55.4774306 126.72 94.3836806 105.12"></polygon>
                                <path d="M32.421875,56.16 L0,38.16" id="路径-40" stroke="#44D7D2" stroke-width="1.44" fill-rule="nonzero"></path>
                                <polygon id="路径-44" fill="url(#linearGradient-3)" points="55.4774306 40.32 3.60243056 69.12 55.4774306 97.92 107.352431 69.12"></polygon>
                                <g id="分组-29-copy" transform="translate(29.539931, 0.000000)">
                                    <g id="分组-14" transform="translate(0.000000, 54.720000)">
                                        <mask id="mask-35" fill="white">
                                            <use xlink:href="#path-34"></use>
                                        </mask>
                                        <use id="Mask" fill="url(#linearGradient-15)" fill-rule="nonzero" xlink:href="#path-34"></use>
                                        <polygon id="路径-34" fill="#1EA09C" fill-rule="nonzero" mask="url(#mask-35)" points="0 14.4 0 17.28 25.9375 2.88 25.9375 0"></polygon>
                                        <polygon id="路径-34" fill="#1EA09C" fill-rule="nonzero" mask="url(#mask-35)" transform="translate(38.906250, 8.640000) scale(-1, 1) translate(-38.906250, -8.640000) " points="25.9375 14.4 25.9375 17.28 51.875 2.88 51.875 0"></polygon>
                                    </g>
                                    <g id="分组-15" fill-rule="nonzero">
                                        <polygon id="Mask" fill="url(#linearGradient-18)" opacity="0.316662016" points="25.9375 83.52 51.875 69.12 51.875 0.36 -1.42108547e-14 2.88 -1.42108547e-14 69.12"></polygon>
                                        <polygon id="Mask" fill="url(#linearGradient-18)" opacity="0.607328869" points="25.9375 83.52 49.7135417 70.3667532 49.7135417 7.56 2.16145833 9.86181818 2.16145833 70.3667532"></polygon>
                                        <ellipse id="椭圆形" fill="url(#radialGradient-19)" cx="15.1302083" cy="69.12" rx="1.44097222" ry="1.44"></ellipse>
                                        <ellipse id="椭圆形-copy-13" fill="url(#radialGradient-19)" cx="25.2170139" cy="79.2" rx="1.44097222" ry="1.44"></ellipse>
                                        <ellipse id="椭圆形-copy-10" fill="url(#radialGradient-22)" cx="27.3784722" cy="66.24" rx="2.16145833" ry="2.16"></ellipse>
                                        <ellipse id="椭圆形-copy-28" fill="url(#radialGradient-22)" cx="25.9375" cy="48.96" rx="2.16145833" ry="2.16"></ellipse>
                                        <ellipse id="椭圆形-copy-14" fill="url(#radialGradient-22)" cx="41.7881944" cy="66.24" rx="2.16145833" ry="2.16"></ellipse>
                                        <ellipse id="椭圆形-copy-11" fill="url(#radialGradient-22)" cx="12.2482639" cy="56.88" rx="2.16145833" ry="2.16"></ellipse>
                                        <ellipse id="椭圆形-copy-27" fill="url(#radialGradient-22)" cx="15.8506944" cy="39.6" rx="2.16145833" ry="2.16"></ellipse>
                                        <ellipse id="椭圆形-copy-12" fill="url(#radialGradient-32)" cx="43.2291667" cy="51.12" rx="2.88194444" ry="2.88"></ellipse>
                                        <ellipse id="椭圆形-copy-24" fill="url(#radialGradient-32)" cx="26.6579861" cy="36.72" rx="2.88194444" ry="2.88"></ellipse>
                                        <ellipse id="椭圆形-copy-25" fill="url(#radialGradient-32)" cx="15.1302083" cy="21.6" rx="2.88194444" ry="2.88"></ellipse>
                                    </g>
                                </g>
                                <polygon id="路径-45" fill="url(#linearGradient-3)" points="3.60243056 69.12 3.60243056 83.52 55.4774306 112.32 55.4774306 97.92"></polygon>
                                <polygon id="路径-46" fill="url(#linearGradient-3)" points="55.4774306 112.32 107.352431 83.52 107.352431 69.12 55.4774306 97.92"></polygon>
                            </g>
                            <g id="立方体2" transform="translate(102.309028, 57.600000)">
                                <polygon id="路径-44" stroke="url(#linearGradient-2)" stroke-width="1.44" fill-rule="nonzero" points="56.9184028 83.52 18.0121528 105.12 56.9184028 126.72 95.8246528 105.12"></polygon>
                                <path d="M34.5833333,57.6 L0.720486111,38.88" id="路径-39" stroke="#44D7D2" stroke-width="1.44" fill-rule="nonzero"></path>
                                <polygon id="路径-44" fill="url(#linearGradient-3)" points="56.9184028 40.32 5.04340278 69.12 56.9184028 97.92 108.793403 69.12"></polygon>
                                <g id="分组-29-copy" transform="translate(30.980903, 0.000000)">
                                    <g id="分组-14" transform="translate(0.000000, 54.720000)">
                                        <mask id="mask-37" fill="white">
                                            <use xlink:href="#path-36"></use>
                                        </mask>
                                        <use id="Mask" fill="url(#linearGradient-15)" fill-rule="nonzero" xlink:href="#path-36"></use>
                                        <polygon id="路径-34" fill="#1EA09C" fill-rule="nonzero" mask="url(#mask-37)" points="0 14.4 0 17.28 25.9375 2.88 25.9375 0"></polygon>
                                        <polygon id="路径-34" fill="#1EA09C" fill-rule="nonzero" mask="url(#mask-37)" transform="translate(38.906250, 8.640000) scale(-1, 1) translate(-38.906250, -8.640000) " points="25.9375 14.4 25.9375 17.28 51.875 2.88 51.875 0"></polygon>
                                    </g>
                                    <g id="分组-15" fill-rule="nonzero">
                                        <polygon id="Mask" fill="url(#linearGradient-18)" opacity="0.316662016" points="25.9375 83.52 51.875 69.12 51.875 0.36 -1.42108547e-14 2.88 -1.42108547e-14 69.12"></polygon>
                                        <polygon id="Mask" fill="url(#linearGradient-18)" opacity="0.607328869" points="25.9375 83.52 49.7135417 70.3667532 49.7135417 7.56 2.16145833 9.86181818 2.16145833 70.3667532"></polygon>
                                        <ellipse id="椭圆形" fill="url(#radialGradient-19)" cx="15.1302083" cy="69.12" rx="1.44097222" ry="1.44"></ellipse>
                                        <ellipse id="椭圆形-copy-13" fill="url(#radialGradient-19)" cx="25.2170139" cy="79.2" rx="1.44097222" ry="1.44"></ellipse>
                                        <ellipse id="椭圆形-copy-10" fill="url(#radialGradient-22)" cx="27.3784722" cy="66.24" rx="2.16145833" ry="2.16"></ellipse>
                                        <ellipse id="椭圆形-copy-28" fill="url(#radialGradient-22)" cx="25.9375" cy="48.96" rx="2.16145833" ry="2.16"></ellipse>
                                        <ellipse id="椭圆形-copy-14" fill="url(#radialGradient-22)" cx="41.7881944" cy="66.24" rx="2.16145833" ry="2.16"></ellipse>
                                        <ellipse id="椭圆形-copy-11" fill="url(#radialGradient-22)" cx="12.2482639" cy="56.88" rx="2.16145833" ry="2.16"></ellipse>
                                        <ellipse id="椭圆形-copy-27" fill="url(#radialGradient-22)" cx="15.8506944" cy="39.6" rx="2.16145833" ry="2.16"></ellipse>
                                        <ellipse id="椭圆形-copy-12" fill="url(#radialGradient-32)" cx="43.2291667" cy="51.12" rx="2.88194444" ry="2.88"></ellipse>
                                        <ellipse id="椭圆形-copy-24" fill="url(#radialGradient-32)" cx="26.6579861" cy="36.72" rx="2.88194444" ry="2.88"></ellipse>
                                        <ellipse id="椭圆形-copy-25" fill="url(#radialGradient-32)" cx="15.1302083" cy="21.6" rx="2.88194444" ry="2.88"></ellipse>
                                    </g>
                                </g>
                                <polygon id="路径-45" fill="url(#linearGradient-3)" points="5.04340278 69.12 5.04340278 83.52 56.9184028 112.32 56.9184028 97.92"></polygon>
                                <polygon id="路径-46" fill="url(#linearGradient-3)" points="56.9184028 112.32 108.793403 83.52 108.793403 69.12 56.9184028 97.92"></polygon>
                            </g>
                            <g id="立方体1" transform="translate(0.000000, 115.200000)">
                                <polygon id="路径-44" stroke="url(#linearGradient-2)" stroke-width="1.44" fill-rule="nonzero" points="55.4774306 83.52 16.5711806 105.12 55.4774306 126.72 94.3836806 105.12"></polygon>
                                <path d="M32.7821181,57.24 L0.360243056,38.52" id="路径-38" stroke="#44D7D2" stroke-width="2.88" fill-rule="nonzero"></path>
                                <polygon id="路径-44" fill="url(#linearGradient-3)" points="55.4774306 40.32 3.60243056 69.12 55.4774306 97.92 107.352431 69.12"></polygon>
                                <g id="分组-29-copy" transform="translate(29.539931, 0.000000)">
                                    <g id="分组-14" transform="translate(0.000000, 54.720000)">
                                        <mask id="mask-39" fill="white">
                                            <use xlink:href="#path-38"></use>
                                        </mask>
                                        <use id="Mask" fill="url(#linearGradient-15)" fill-rule="nonzero" xlink:href="#path-38"></use>
                                        <polygon id="路径-34" fill="#1EA09C" fill-rule="nonzero" mask="url(#mask-39)" points="0 14.4 0 17.28 25.9375 2.88 25.9375 0"></polygon>
                                        <polygon id="路径-34" fill="#1EA09C" fill-rule="nonzero" mask="url(#mask-39)" transform="translate(38.906250, 8.640000) scale(-1, 1) translate(-38.906250, -8.640000) " points="25.9375 14.4 25.9375 17.28 51.875 2.88 51.875 0"></polygon>
                                    </g>
                                    <g id="分组-15" fill-rule="nonzero">
                                        <polygon id="Mask" fill="url(#linearGradient-18)" opacity="0.316662016" points="25.9375 83.52 51.875 69.12 51.875 0.36 -1.42108547e-14 2.88 -1.42108547e-14 69.12"></polygon>
                                        <polygon id="Mask" fill="url(#linearGradient-18)" opacity="0.607328869" points="25.9375 83.52 49.7135417 70.3667532 49.7135417 7.56 2.16145833 9.86181818 2.16145833 70.3667532"></polygon>
                                        <ellipse id="椭圆形" fill="url(#radialGradient-19)" cx="15.1302083" cy="69.12" rx="1.44097222" ry="1.44"></ellipse>
                                        <ellipse id="椭圆形-copy-13" fill="url(#radialGradient-19)" cx="25.2170139" cy="79.2" rx="1.44097222" ry="1.44"></ellipse>
                                        <ellipse id="椭圆形-copy-10" fill="url(#radialGradient-22)" cx="27.3784722" cy="66.24" rx="2.16145833" ry="2.16"></ellipse>
                                        <ellipse id="椭圆形-copy-28" fill="url(#radialGradient-22)" cx="25.9375" cy="48.96" rx="2.16145833" ry="2.16"></ellipse>
                                        <ellipse id="椭圆形-copy-14" fill="url(#radialGradient-22)" cx="41.7881944" cy="66.24" rx="2.16145833" ry="2.16"></ellipse>
                                        <ellipse id="椭圆形-copy-11" fill="url(#radialGradient-22)" cx="12.2482639" cy="56.88" rx="2.16145833" ry="2.16"></ellipse>
                                        <ellipse id="椭圆形-copy-27" fill="url(#radialGradient-22)" cx="15.8506944" cy="39.6" rx="2.16145833" ry="2.16"></ellipse>
                                        <ellipse id="椭圆形-copy-12" fill="url(#radialGradient-32)" cx="43.2291667" cy="51.12" rx="2.88194444" ry="2.88"></ellipse>
                                        <ellipse id="椭圆形-copy-24" fill="url(#radialGradient-32)" cx="26.6579861" cy="36.72" rx="2.88194444" ry="2.88"></ellipse>
                                        <ellipse id="椭圆形-copy-25" fill="url(#radialGradient-32)" cx="15.1302083" cy="21.6" rx="2.88194444" ry="2.88"></ellipse>
                                    </g>
                                </g>
                                <polygon id="路径-45" fill="url(#linearGradient-3)" points="3.60243056 69.12 3.60243056 83.52 55.4774306 112.32 55.4774306 97.92"></polygon>
                                <polygon id="路径-46" fill="url(#linearGradient-3)" points="55.4774306 112.32 107.352431 83.52 107.352431 69.12 55.4774306 97.92"></polygon>
                            </g>
                        </g>
                    </g>
                </g>
            </g>
        </g>
    </g>
</svg>