<?xml version="1.0" encoding="UTF-8"?>
<svg width="360px" height="60px" viewBox="0 0 360 60" version="1.1" xmlns="http://www.w3.org/2000/svg" xmlns:xlink="http://www.w3.org/1999/xlink">
    <!-- Generator: Sketch 52.5 (67469) - http://www.bohemiancoding.com/sketch -->
    <title>enwise</title>
    <desc>Created with Sketch.</desc>
    <defs>
        <polygon id="path-1" points="0 0.19845 27.587614 0.19845 27.587614 37.99995 0 37.99995"></polygon>
        <polygon id="path-3" points="0.154245614 0.1986 27.7421053 0.1986 27.7421053 38 0.154245614 38"></polygon>
        <polygon id="path-5" points="0.1517 0.264811429 12.7032 0.264811429 12.7032 17 0.1517 17"></polygon>
        <polygon id="path-7" points="0.12485 0.264811429 12.676 0.264811429 12.676 17 0.12485 17"></polygon>
        <polygon id="path-9" points="0.124845182 0.333734006 4.70545455 0.333734006 4.70545455 4.89381818 0.124845182 4.89381818"></polygon>
        <polygon id="path-11" points="0.0950444444 0.122257895 12.688 0.122257895 12.688 8.81625789 0.0950444444 8.81625789"></polygon>
    </defs>
    <g id="Page-1" stroke="none" stroke-width="1" fill="none" fill-rule="evenodd">
        <g id="教育" transform="translate(-248.000000, -4733.000000)">
            <g id="Content-03" transform="translate(0.000000, 4459.000000)">
                <g id="Enwise" transform="translate(150.000000, 224.000000)">
                    <g id="enwise" transform="translate(98.000000, 50.000000)">
                        <rect id="Rectangle" fill="#D8D8D8" fill-rule="nonzero" opacity="0.0183919271" x="0" y="0" width="360" height="60"></rect>
                        <g id="Group-105" transform="translate(23.000000, 2.000000)">
                            <path d="M109,0 C107.897253,0 107,0.787210584 107,1.75578831 L107,12.2442117 C107,13.2127894 107.897253,14 109,14 C110.102747,14 111,13.2127894 111,12.2442117 L111,1.75578831 C111,0.787210584 110.102747,0 109,0" id="Fill-1" fill="#EB6120"></path>
                            <path d="M125.417458,6.58207631 C123.830528,4.91730257 121.733055,4 119.51165,4 C117.268519,4 115.15574,4.93327418 113.562885,6.62679681 C112.923965,7.30612245 112.814845,8.39378882 113.308107,9.15723159 C113.618679,9.63691216 114.103547,9.94143744 114.638284,9.99254658 C115.175984,10.0420586 115.69887,9.83868678 116.077087,9.42981366 C117.971133,7.38864241 121.051673,7.38864241 122.945719,9.42981366 C123.286904,9.79822538 123.740665,10 124.223558,10 C124.647693,10 125.059485,9.83975155 125.382895,9.54747116 C125.760618,9.20674357 125.978858,8.71375333 125.998608,8.1595386 C126.019346,7.56699201 125.807525,6.99148181 125.417458,6.58207631" id="Fill-3" fill="#FCC92C"></path>
                            <path d="M103.999971,7.50728779 C104.010511,3.92967404 101.10847,1.01056607 97.5303554,1.00002596 C93.952743,0.989987765 91.0341382,3.8920308 91.0235981,7.46964455 C91.0235981,7.47817702 91.0261076,7.48620758 91.0261076,7.49524196 C91.0261076,7.50377442 91.0235981,7.51130307 91.0235981,7.52033745 L91.0000083,12.1404181 C90.9969968,13.1477512 91.8141058,13.9698796 92.8219405,13.9723892 C93.8292733,13.9754006 94.6508994,13.1582913 94.6539109,12.1509582 L94.6769987,7.53087756 C94.6769987,7.52234509 94.6744892,7.51431453 94.6744892,7.50578206 C94.6744892,7.49674768 94.6775007,7.48871713 94.6775007,7.48018466 C94.6820178,5.91773915 95.9573704,4.64941283 97.5198153,4.65393002 C99.083264,4.65844721 100.351088,5.93380026 100.346571,7.49674768 C100.346571,7.50528015 100.34908,7.51331071 100.34908,7.52184318 C100.34908,7.53087756 100.346571,7.53840621 100.346571,7.54744058 L100.322981,12.1675212 C100.319969,13.1748544 101.137078,13.9969828 102.144411,13.9999942 C103.151744,14.0025038 103.97337,13.1853945 103.976382,12.1780613 L103.999971,7.55798069 C103.999971,7.54894631 103.997462,7.54141767 103.997462,7.53238329 C103.997462,7.52385082 103.999971,7.51632217 103.999971,7.50728779" id="Fill-5" fill="#54C3F1"></path>
                            <g id="Group-9" transform="translate(0.000000, 17.000000)">
                                <mask id="mask-2" fill="white">
                                    <use xlink:href="#path-1"></use>
                                </mask>
                                <g id="Clip-8"></g>
                                <path d="M10.8161053,22.21695 L17.3283158,22.21695 C17.3312632,22.21695 17.3342105,22.21745 17.3366667,22.21745 L24.5243158,22.21745 C26.2161053,22.21745 27.587614,20.82145 27.587614,19.09945 C27.587614,17.37745 26.2161053,15.98145 24.5243158,15.98145 L24.3047368,15.98145 C24.3022807,15.98145 24.2993333,15.98095 24.296386,15.98095 L20.6681754,15.98095 L20.1754737,15.98095 L17.8947018,15.98095 L10.8161053,15.98095 C8.2302807,15.98095 6.12635088,13.83945 6.12635088,11.20745 C6.12635088,8.57545 8.2302807,6.43445 10.8161053,6.43445 L17.3366667,6.43445 L20.6681754,6.43445 L24.5243158,6.43445 C26.2161053,6.43445 27.587614,5.03845 27.587614,3.31645 C27.587614,1.59395 26.2161053,0.19845 24.5243158,0.19845 L20.6681754,0.19845 L17.3366667,0.19845 L10.8161053,0.19845 C4.85210526,0.19845 -0.000245614035,5.13695 -0.000245614035,11.20745 C-0.000245614035,14.30045 1.26122807,17.09695 3.28508772,19.09895 C1.26122807,21.10095 -0.000245614035,23.89795 -0.000245614035,26.99045 C-0.000245614035,33.06095 4.85210526,37.99995 10.8161053,37.99995 L20.1754737,37.99995 C20.1784211,37.99995 20.1808772,37.99945 20.1843158,37.99945 L24.5243158,37.99945 C26.2161053,37.99945 27.587614,36.60345 27.587614,34.88145 C27.587614,33.15945 26.2161053,31.76345 24.5243158,31.76345 L17.3366667,31.76345 C17.3342105,31.76345 17.3312632,31.76395 17.3283158,31.76395 L10.8161053,31.76395 C8.2302807,31.76395 6.12635088,29.62295 6.12635088,26.99045 C6.12635088,24.35845 8.2302807,22.21695 10.8161053,22.21695" id="Fill-7" fill="#54C3F1" mask="url(#mask-2)"></path>
                            </g>
                            <path d="M158.586058,39.5516448 L164.959615,39.5516448 C164.9625,39.5516448 164.965385,39.5521342 164.967788,39.5521342 L172.001923,39.5521342 C173.657692,39.5521342 175,38.1857334 175,36.5002447 C175,34.814756 173.657692,33.4483552 172.001923,33.4483552 L171.7875,33.4483552 C171.785096,33.4483552 171.782212,33.4478658 171.779327,33.4478658 L168.228365,33.4478658 L167.746154,33.4478658 L165.513942,33.4478658 L158.586058,33.4478658 C156.055288,33.4478658 153.996154,31.3517718 153.996154,28.7755777 C153.996154,26.1993836 156.055288,24.103779 158.586058,24.103779 L164.967788,24.103779 L168.228365,24.103779 L172.001923,24.103779 C173.657692,24.103779 175,22.7373781 175,21.0518895 C175,19.3659114 173.657692,18 172.001923,18 L168.228365,18 L164.967788,18 L158.586058,18 C152.749038,18 148,22.8337897 148,28.7755777 C148,31.8029972 149.234615,34.5402034 151.215385,36.4997553 C149.234615,38.4593072 148,41.1970028 148,44.2239329 C148,50.1657209 152.749038,55 158.586058,55 L167.746154,55 C167.749038,55 167.751442,54.9995106 167.754327,54.9995106 L172.001923,54.9995106 C173.657692,54.9995106 175,53.6331098 175,51.9476211 C175,50.2621325 173.657692,48.8957317 172.001923,48.8957317 L164.967788,48.8957317 C164.965385,48.8957317 164.9625,48.896221 164.959135,48.896221 L158.586058,48.896221 C156.055288,48.896221 153.996154,46.8006164 153.996154,44.2239329 C153.996154,41.6477388 156.055288,39.5516448 158.586058,39.5516448" id="Fill-10" fill="#54C3F1"></path>
                            <path d="M102,34.957171 L102,21.0518895 C102,19.3664008 100.629393,18 98.9387165,18 C97.2480397,18 95.877433,19.3664008 95.877433,21.0518895 L95.877433,37.7795326 C95.877433,37.7810008 95.8779239,37.7819796 95.8779239,37.7834477 L95.8779239,44.252318 C95.8779239,46.8133407 93.7881413,48.896221 91.2197264,48.896221 C88.6513115,48.896221 86.561529,46.8133407 86.561529,44.252318 L86.561529,37.7829583 L86.561529,37.7795326 L86.561529,21.0518895 C86.561529,19.3664008 85.1909222,18 83.5002455,18 C81.8095687,18 80.4394528,19.3664008 80.4394528,21.0518895 L80.4394528,21.2691824 C80.4394528,21.2721188 80.4389619,21.2745658 80.4389619,21.2775022 L80.4389619,37.2255334 C80.4389619,37.227491 80.4389619,37.2289592 80.4389619,37.2304274 L80.4389619,44.252318 C80.4389619,46.8133407 78.3491794,48.896221 75.7807645,48.896221 C73.2118587,48.896221 71.122567,46.8133407 71.122567,44.252318 L71.122567,37.7829583 C71.122567,37.7819796 71.122567,37.7805114 71.122567,37.7795326 L71.122567,21.0518895 C71.122567,19.3664008 69.7524512,18 68.0612835,18 C66.3706067,18 65,19.3664008 65,21.0518895 L65,34.4682618 C65,34.46973 65,34.4711982 65,34.472177 L65,44.252318 C65,50.1789347 69.8359051,55 75.7807645,55 C78.8047392,55 81.5405527,53.7505655 83.5002455,51.7440313 C85.4599382,53.7505655 88.1952608,55 91.2197264,55 C97.1640949,55 102,50.1789347 102,44.252318 L102,34.9615756 C102,34.9601074 102,34.9586392 102,34.957171" id="Fill-12" fill="#54C3F1"></path>
                            <path d="M56.9097061,46 C42.6227956,46 31,34.3764119 31,20.0897456 C31,18.3830762 32.3835954,17 34.0907895,17 C35.797488,17 37.1805878,18.3830762 37.1805878,20.0897456 C37.1805878,30.9685241 46.0312372,39.8195178 56.9097061,39.8195178 C58.6164046,39.8195178 60,41.2030895 60,42.9097589 C60,44.6164283 58.6164046,46 56.9097061,46" id="Fill-14" fill="#FCC92C"></path>
                            <path d="M35,55 C33.3431687,55 32,53.6335992 32,51.9481105 L32,21.0518895 C32,19.3659114 33.3431687,18 35,18 C36.6568313,18 38,19.3659114 38,21.0518895 L38,51.9481105 C38,53.6335992 36.6568313,55 35,55" id="Fill-16" fill="#54C3F1"></path>
                            <path d="M57,55 C55.3431687,55 54,53.6335992 54,51.9481105 L54,21.0518895 C54,19.3659114 55.3431687,18 57,18 C58.6568313,18 60,19.3659114 60,21.0518895 L60,51.9481105 C60,53.6335992 58.6568313,55 57,55" id="Fill-18" fill="#54C3F1"></path>
                            <path d="M109,55 C107.343169,55 106,53.6335992 106,51.9481105 L106,21.0518895 C106,19.3659114 107.343169,18 109,18 C110.656831,18 112,19.3659114 112,21.0518895 L112,51.9481105 C112,53.6335992 110.656831,55 109,55" id="Fill-20" fill="#EB6120"></path>
                            <g id="Group-24" transform="translate(116.000000, 17.000000)">
                                <mask id="mask-4" fill="white">
                                    <use xlink:href="#path-3"></use>
                                </mask>
                                <g id="Clip-23"></g>
                                <path d="M16.9257544,15.9811 L16.4600702,15.9811 L12.0203509,15.9811 L10.9705965,15.9811 C8.38477193,15.9811 6.28133333,13.8396 6.28133333,11.2076 C6.28133333,8.5751 8.38477193,6.4341 10.9705965,6.4341 L17.4916491,6.4341 L20.8231579,6.4341 L24.678807,6.4341 C26.3705965,6.4341 27.7421053,5.0386 27.7421053,3.3161 C27.7421053,1.5941 26.3705965,0.1986 24.678807,0.1986 L20.8231579,0.1986 L17.4916491,0.1986 L10.9705965,0.1986 C5.00659649,0.1986 0.154245614,5.1371 0.154245614,11.2076 C0.154245614,17.1946 4.87494737,22.0776 10.7264561,22.2106 C10.7731228,22.2126 10.818807,22.2176 10.8664561,22.2176 L16.4600702,22.2176 C16.4659649,22.2176 16.4713684,22.2171 16.4767719,22.2171 L16.9257544,22.2171 C19.5115789,22.2171 21.6155088,24.3581 21.6155088,26.9906 C21.6155088,29.6226 19.5115789,31.7641 16.9257544,31.7641 L10.4135439,31.7641 C10.4105965,31.7641 10.4076491,31.7636 10.4047018,31.7636 L3.21754386,31.7636 C1.52575439,31.7636 0.154245614,33.1596 0.154245614,34.8816 C0.154245614,36.6036 1.52575439,37.9996 3.21754386,37.9996 L7.55754386,37.9996 C7.56098246,37.9996 7.5634386,38.0001 7.56638596,38.0001 L16.9257544,38.0001 C22.8897544,38.0001 27.7421053,33.0611 27.7421053,26.9906 C27.7421053,20.9196 22.8897544,15.9811 16.9257544,15.9811" id="Fill-22" fill="#54C3F1" mask="url(#mask-4)"></path>
                            </g>
                            <path d="M265,40.0675396 C261.729027,40.0675396 259.06754,42.7285258 259.06754,45.9994988 C259.06754,49.270973 261.729027,51.9319592 265,51.9319592 C268.270973,51.9319592 270.931959,49.270973 270.931959,45.9994988 C270.931959,42.7285258 268.270973,40.0675396 265,40.0675396 M265,54 C260.588748,54 257,50.4107512 257,45.9994988 C257,41.5887476 260.588748,38 265,38 C269.411252,38 273,41.5887476 273,45.9994988 C273,50.4107512 269.411252,54 265,54" id="Fill-25" fill="#54C3F1"></path>
                            <g id="Group-29" transform="translate(195.000000, 38.000000)">
                                <mask id="mask-6" fill="white">
                                    <use xlink:href="#path-5"></use>
                                </mask>
                                <g id="Clip-28"></g>
                                <path d="M4.9697,9.62501143 L8.1577,9.62501143 C8.1592,9.62501143 8.1607,9.62549714 8.1622,9.62549714 L11.6812,9.62549714 C12.2447,9.62549714 12.7032,9.18009714 12.7032,8.63269714 C12.7032,8.08481143 12.2447,7.63941143 11.6812,7.63941143 L11.5737,7.63941143 C11.5727,7.63941143 11.5712,7.63892571 11.5697,7.63892571 L9.7932,7.63892571 L9.5522,7.63892571 L8.4352,7.63892571 L4.9697,7.63892571 C3.4402,7.63892571 2.1957,6.43046857 2.1957,4.94466857 C2.1957,3.45886857 3.4402,2.24992571 4.9697,2.24992571 L8.1622,2.24992571 L9.7932,2.24992571 L11.6812,2.24992571 C12.2447,2.24992571 12.7032,1.80452571 12.7032,1.25712571 C12.7032,0.710211429 12.2447,0.264811429 11.6812,0.264811429 L9.7932,0.264811429 L8.1622,0.264811429 L4.9697,0.264811429 C2.3132,0.264811429 0.1517,2.36406857 0.1517,4.94466857 C0.1517,6.44261143 0.8827,7.77444 2.0127,8.63221143 C0.8827,9.48949714 0.1517,10.8218114 0.1517,12.3197543 C0.1517,14.9003543 2.3132,17.0000971 4.9697,17.0000971 L9.5522,17.0000971 C9.5532,17.0000971 9.5547,16.9996114 9.5562,16.9996114 L11.6812,16.9996114 C12.2447,16.9996114 12.7032,16.5542114 12.7032,16.0068114 C12.7032,15.4594114 12.2447,15.0140114 11.6812,15.0140114 L8.1622,15.0140114 C8.1607,15.0140114 8.1592,15.0144971 8.1577,15.0144971 L4.9697,15.0144971 C3.4402,15.0144971 2.1957,13.8055543 2.1957,12.3197543 C2.1957,10.8339543 3.4402,9.62501143 4.9697,9.62501143" id="Fill-27" fill="#54C3F1" mask="url(#mask-6)"></path>
                            </g>
                            <g id="Group-32" transform="translate(302.000000, 38.000000)">
                                <mask id="mask-8" fill="white">
                                    <use xlink:href="#path-7"></use>
                                </mask>
                                <g id="Clip-31"></g>
                                <path d="M4.94285,9.62501143 L8.13085,9.62501143 C8.13235,9.62501143 8.13385,9.62549714 8.13535,9.62549714 L11.65435,9.62549714 C12.21785,9.62549714 12.67635,9.18009714 12.67635,8.63269714 C12.67635,8.08481143 12.21785,7.63941143 11.65435,7.63941143 L11.54685,7.63941143 C11.54535,7.63941143 11.54435,7.63892571 11.54285,7.63892571 L9.76635,7.63892571 L9.52535,7.63892571 L8.40835,7.63892571 L4.94285,7.63892571 C3.41335,7.63892571 2.16935,6.43046857 2.16935,4.94466857 C2.16935,3.45886857 3.41335,2.24992571 4.94285,2.24992571 L8.13535,2.24992571 L9.76635,2.24992571 L11.65435,2.24992571 C12.21785,2.24992571 12.67635,1.80452571 12.67635,1.25712571 C12.67635,0.710211429 12.21785,0.264811429 11.65435,0.264811429 L9.76635,0.264811429 L8.13535,0.264811429 L4.94285,0.264811429 C2.28635,0.264811429 0.12485,2.36406857 0.12485,4.94466857 C0.12485,6.44261143 0.85585,7.77444 1.98585,8.63221143 C0.85585,9.48949714 0.12485,10.8218114 0.12485,12.3197543 C0.12485,14.9003543 2.28635,17.0000971 4.94285,17.0000971 L9.52535,17.0000971 C9.52635,17.0000971 9.52785,16.9996114 9.52935,16.9996114 L11.65435,16.9996114 C12.21785,16.9996114 12.67635,16.5542114 12.67635,16.0068114 C12.67635,15.4594114 12.21785,15.0140114 11.65435,15.0140114 L8.13535,15.0140114 C8.13385,15.0140114 8.13235,15.0144971 8.13085,15.0144971 L4.94285,15.0144971 C3.41335,15.0144971 2.16935,13.8055543 2.16935,12.3197543 C2.16935,10.8339543 3.41335,9.62501143 4.94285,9.62501143" id="Fill-30" fill="#54C3F1" mask="url(#mask-8)"></path>
                            </g>
                            <path d="M193.023306,52.9829923 L183.954344,52.9829923 L183.954344,39.0085038 C183.954344,38.4524452 183.515956,38 182.977172,38 C182.437911,38 182,38.4524452 182,39.0085038 L182,53.9914962 C182,54.5475548 182.437911,55 182.977172,55 L193.023306,55 C193.561611,55 194,54.5475548 194,53.9914962 C194,53.4354375 193.561611,52.9829923 193.023306,52.9829923" id="Fill-33" fill="#54C3F1"></path>
                            <path d="M231.393698,45.4912495 L231.175716,45.4912495 L229.097239,45.4912495 L228.606302,45.4912495 C227.144007,45.4912495 225.954667,44.2636773 225.954667,42.7543753 C225.954667,41.2450733 227.144007,40.0170077 228.606302,40.0170077 L231.658527,40.0170077 L233.217862,40.0170077 L235.022906,40.0170077 C235.561646,40.0170077 236,39.5645625 236,39.0085038 C236,38.4524452 235.561646,38 235.022906,38 L233.217862,38 L231.658527,38 L228.606302,38 C226.066048,38 224,40.132956 224,42.7543753 C224,45.3387897 226.009162,47.4441155 228.499701,47.5033232 C228.518822,47.50431 228.537466,47.5092439 228.557065,47.5092439 L231.175716,47.5092439 C231.17715,47.5092439 231.178584,47.5087505 231.180018,47.5087505 L231.393698,47.5087505 C232.855993,47.5087505 234.045811,48.7368161 234.045811,50.2461181 C234.045811,51.7554201 232.855993,52.9834857 231.393698,52.9834857 L228.345297,52.9834857 C228.343863,52.9834857 228.342907,52.9829923 228.341473,52.9829923 L224.977572,52.9829923 C224.438354,52.9829923 224,53.4354375 224,53.9914962 C224,54.5475548 224.438354,55 224.977572,55 L227.008724,55 C227.00968,55 227.011114,55 227.012548,55 L231.393698,55 C233.933474,55 236,52.8675374 236,50.2461181 C236,47.6242055 233.933474,45.4912495 231.393698,45.4912495" id="Fill-35" fill="#54C3F1"></path>
                            <path d="M296.393698,45.4912495 L296.175716,45.4912495 L294.097239,45.4912495 L293.605824,45.4912495 C292.143529,45.4912495 290.954189,44.2636773 290.954189,42.7543753 C290.954189,41.2450733 292.143529,40.0170077 293.605824,40.0170077 L296.658527,40.0170077 L298.217862,40.0170077 L300.022428,40.0170077 C300.561646,40.0170077 301,39.5645625 301,39.0085038 C301,38.4524452 300.561646,38 300.022428,38 L298.217862,38 L296.658527,38 L293.605824,38 C291.066048,38 289,40.132956 289,42.7543753 C289,45.3387897 291.009162,47.4441155 293.499223,47.5033232 C293.518822,47.50431 293.536988,47.5092439 293.557065,47.5092439 L296.175716,47.5092439 C296.17715,47.5092439 296.178584,47.5087505 296.180018,47.5087505 L296.393698,47.5087505 C297.855993,47.5087505 299.045333,48.7368161 299.045333,50.2461181 C299.045333,51.7554201 297.855993,52.9834857 296.393698,52.9834857 L293.345297,52.9834857 C293.343863,52.9834857 293.342429,52.9829923 293.340995,52.9829923 L289.977094,52.9829923 C289.438354,52.9829923 289,53.4354375 289,53.9914962 C289,54.5475548 289.438354,55 289.977094,55 L292.008724,55 C292.010158,55 292.011114,55 292.012548,55 L296.393698,55 C298.933474,55 301,52.8675374 301,50.2461181 C301,47.6242055 298.933474,45.4912495 296.393698,45.4912495" id="Fill-37" fill="#54C3F1"></path>
                            <path d="M221.020291,38 L210.979709,38 C210.439527,38 210,38.4524452 210,39.0085038 C210,39.5645625 210.439527,40.0170077 210.979709,40.0170077 L215.020291,40.0170077 L215.020291,53.9914962 C215.020291,54.5475548 215.459818,55 216,55 C216.540182,55 216.979709,54.5475548 216.979709,53.9914962 L216.979709,40.0170077 L221.020291,40.0170077 C221.560473,40.0170077 222,39.5645625 222,39.0085038 C222,38.4524452 221.560473,38 221.020291,38" id="Fill-39" fill="#54C3F1"></path>
                            <path d="M254.022867,38 C253.484105,38 253.045733,38.4524452 253.045733,39.0085038 L253.045733,45.4912495 L244.954267,45.4912495 L244.954267,39.0085038 C244.954267,38.4524452 244.515895,38 243.977133,38 C243.438371,38 243,38.4524452 243,39.0085038 L243,53.9914962 C243,54.5475548 243.438371,55 243.977133,55 C244.515895,55 244.954267,54.5475548 244.954267,53.9914962 L244.954267,47.5082571 L253.045733,47.5082571 L253.045733,53.9914962 C253.045733,54.5475548 253.484105,55 254.022867,55 C254.561629,55 255,54.5475548 255,53.9914962 L255,39.0085038 C255,38.4524452 254.561629,38 254.022867,38" id="Fill-41" fill="#54C3F1"></path>
                            <path d="M193.345388,34 C191.171691,34 189.039465,33.2758247 187.466089,31.9461215 C185.824437,30.5592218 184.927243,28.6329721 185.004622,26.6613433 C185.019795,26.2827112 185.369265,25.9962554 185.766276,26.000037 C186.171885,26.014218 186.488482,26.3328173 186.473815,26.7119222 C186.411102,28.2992464 187.113584,29.7962851 188.451283,30.9269818 C190.176383,32.3843138 192.721803,32.9619523 195.094764,32.4353653 C195.489752,32.3431889 195.886257,32.5752843 195.97982,32.9444625 C196.073889,33.3136406 195.830119,33.6842369 195.435132,33.7721589 C194.7458,33.9253135 194.043318,34 193.345388,34" id="Fill-43" fill="#54C3F1"></path>
                            <path d="M185.654589,34 C184.957164,34 184.25468,33.9253141 183.565347,33.7721606 C183.170358,33.6842392 182.926082,33.3136457 183.020151,32.9444703 C183.11422,32.5752949 183.511232,32.3455647 183.905715,32.4353769 C186.277164,32.96196 188.823602,32.3847984 190.548707,30.9270046 C191.886409,29.7963162 192.588892,28.2992886 192.526179,26.7119761 C192.511512,26.3328741 192.82811,26.0142771 193.23372,26.0000962 C193.649444,25.9939512 193.980203,26.2827683 193.995375,26.6613977 C194.072755,28.6330119 193.176065,30.5592473 191.534408,31.9461367 C189.961028,33.27583 187.828292,34 185.654589,34" id="Fill-45" fill="#54C3F1"></path>
                            <path d="M185.5,17 C183.570293,17 182,18.7582535 182,20.9201278 L182,23.2263046 C182,23.6538871 182.309495,24 182.690777,24 C183.072535,24 183.381554,23.6538871 183.381554,23.2263046 L183.381554,20.9201278 C183.381554,19.6123536 184.331907,18.5479233 185.5,18.5479233 C186.668093,18.5479233 187.618446,19.6123536 187.618446,20.9201278 L187.618446,23.2263046 C187.618446,23.6538871 187.927465,24 188.309223,24 C188.690981,24 189,23.6538871 189,23.2263046 L189,20.9201278 C189,18.7582535 187.430182,17 185.5,17" id="Fill-47" fill="#54C3F1"></path>
                            <path d="M193.5,17 C191.569818,17 190,18.7582535 190,20.9201278 L190,23.2263046 C190,23.6538871 190.309495,24 190.690777,24 C191.072535,24 191.381554,23.6538871 191.381554,23.2263046 L191.381554,20.9201278 C191.381554,19.6123536 192.331907,18.5479233 193.5,18.5479233 C194.668093,18.5479233 195.618446,19.6123536 195.618446,20.9201278 L195.618446,23.2263046 C195.618446,23.6538871 195.927465,24 196.309223,24 C196.690505,24 197,23.6538871 197,23.2263046 L197,20.9201278 C197,18.7582535 195.430182,17 193.5,17" id="Fill-49" fill="#54C3F1"></path>
                            <path d="M187.862671,24.3044976 C187.338695,23.6163648 186.609318,23.1230848 185.772253,22.8710059 C186.093319,22.2211816 186.322153,21.5254817 186.445793,20.7971487 C186.509608,20.4225775 186.241388,20.0692887 185.846038,20.0092249 C185.451187,19.9472693 185.079269,20.2040776 185.015455,20.5786488 C184.727792,22.2698947 183.764096,23.7525726 182.300355,24.7556857 C181.975799,24.9779691 181.903011,25.4074018 182.137329,25.7148151 C182.278917,25.9011548 182.500273,26 182.725119,26 C182.872191,26 183.020759,25.957908 183.148387,25.8704135 C183.876768,25.3714581 184.500952,24.7736575 185.01047,24.1016049 C185.688497,24.2222054 186.282269,24.5764401 186.688088,25.1089745 C186.829676,25.2953142 187.051531,25.3941594 187.275878,25.3941594 C187.42295,25.3941594 187.571518,25.3520674 187.699645,25.2640999 C188.024201,25.0418165 188.096989,24.6119109 187.862671,24.3044976" id="Fill-51" fill="#54C3F1"></path>
                            <path d="M195.862678,24.3044976 C195.338731,23.6158919 194.609393,23.1230848 193.772374,22.8710059 C194.092924,22.2211816 194.322244,21.5254817 194.445878,20.7971487 C194.509689,20.4225775 194.240985,20.0692887 193.845657,20.0092249 C193.450329,19.9472693 193.07893,20.2040776 193.015617,20.5786488 C192.72797,22.2698947 191.763828,23.7530455 190.300665,24.7556857 C189.976127,24.9779691 189.902844,25.4074018 190.137149,25.7148151 C190.27873,25.9011548 190.500572,26 190.724907,26 C190.871971,26 191.020531,25.957908 191.148651,25.8704135 C191.876494,25.3714581 192.500644,24.7736575 193.010632,24.1016049 C193.688124,24.2226784 194.282363,24.5769131 194.68816,25.1089745 C194.82974,25.2953142 195.051084,25.3941594 195.275918,25.3941594 C195.422982,25.3941594 195.571541,25.3520674 195.699662,25.2640999 C196.0242,25.0418165 196.096984,24.6119109 195.862678,24.3044976" id="Fill-53" fill="#54C3F1"></path>
                            <path d="M196.288255,29 L182.711255,29 C182.31818,29 182,28.7764018 182,28.499828 C182,28.2239422 182.31818,28 182.711255,28 L196.288255,28 C196.68133,28 197,28.2239422 197,28.499828 C197,28.7764018 196.68133,29 196.288255,29" id="Fill-55" fill="#54C3F1"></path>
                            <path d="M224.322219,17 C223.94811,17 223.644438,17.3207547 223.644438,17.7170102 L223.644438,27.0741655 L223.644438,28.0877504 L223.644438,28.6137881 C223.644438,30.3049057 222.76794,31.8514369 221.357801,32.6508563 C221.028006,32.837881 220.903459,33.272627 221.080717,33.6215094 C221.202933,33.8628157 221.436634,34 221.678732,34 C221.786487,34 221.896107,33.9733527 221.998264,33.9156168 C223.849684,32.8655152 225,30.8343977 225,28.6137881 L225,28.0877504 L225,27.0741655 L225,17.7170102 C225,17.3207547 224.696794,17 224.322219,17" id="Fill-57" fill="#54C3F1"></path>
                            <path d="M235.24469,34 L231.853334,34 C230.280336,34 229,32.7850798 229,31.2913498 L229,17.7170102 C229,17.3207547 229.338408,17 229.75531,17 C230.172731,17 230.511139,17.3207547 230.511139,17.7170102 L230.511139,31.2913498 C230.511139,31.9945428 231.1131,32.5659797 231.853334,32.5659797 L235.24469,32.5659797 C235.661592,32.5659797 236,32.8867344 236,33.2829898 C236,33.6792453 235.661592,34 235.24469,34" id="Fill-59" fill="#54C3F1"></path>
                            <path d="M267.720267,24 C267.352059,24 267.037941,23.7410081 267.003204,23.3947673 C266.965986,23.0278621 267.257278,22.7022855 267.653771,22.6683043 C269.643683,22.4956431 271.49167,21.6107542 272.724324,20.2404853 C272.979389,19.9571555 273.433943,19.9185823 273.740121,20.1546139 C274.0463,20.3906455 274.087984,20.8112776 273.832918,21.0941481 C272.3581,22.7339707 270.155303,23.7919799 267.788252,23.9967856 C267.765425,23.9990816 267.742598,24 267.720267,24" id="Fill-61" fill="#54C3F1"></path>
                            <path d="M273.279808,34 C273.226255,34 273.17171,33.9942966 273.117165,33.9824144 C270.473225,33.3973371 268.150604,31.4714774 267.055739,28.9567382 C266.902517,28.6050264 267.076069,28.2000826 267.443008,28.0532191 C267.810442,27.906831 268.231925,28.0727059 268.386139,28.4248929 C269.304972,30.5361142 271.242308,32.1497108 273.441459,32.6364039 C273.829224,32.7224307 274.070709,33.0931539 273.981454,33.4648277 C273.904595,33.7842201 273.608069,34 273.279808,34" id="Fill-63" fill="#54C3F1"></path>
                            <path d="M265.90125,32.8997243 C265.491271,32.1699898 265.274662,31.3257873 265.274662,30.4574082 L265.274662,29.9319402 L265.274662,28.918009 L265.274662,17.7173995 C265.274662,17.3207082 264.988773,17 264.637112,17 C264.285451,17 264,17.3207082 264,17.7173995 L264,28.918009 L264,29.9319402 L264,30.4574082 C264,31.5976491 264.285012,32.706806 264.823904,33.6664635 C264.945363,33.8820781 265.151887,34 265.363235,34 C265.479871,34 265.597383,33.9644754 265.703057,33.8889856 C266.000785,33.6778116 266.089358,33.234741 265.90125,32.8997243" id="Fill-65" fill="#54C3F1"></path>
                            <path d="M274.288721,27 L260.711279,27 C260.318191,27 260,26.7760578 260,26.499828 C260,26.2239422 260.318191,26 260.711279,26 L274.288721,26 C274.68132,26 275,26.2239422 275,26.499828 C275,26.7760578 274.68132,27 274.288721,27" id="Fill-67" fill="#54C3F1"></path>
                            <path d="M247.306077,27 L242.693446,27 C242.310213,27 242,26.7764018 242,26.500172 C242,26.2239422 242.310213,26 242.693446,26 L247.306077,26 C247.68931,26 248,26.2239422 248,26.500172 C248,26.7764018 247.68931,27 247.306077,27" id="Fill-69" fill="#54C3F1"></path>
                            <path d="M255.270981,34 C255.043638,34 254.820309,33.896373 254.67778,33.7009621 C254.465995,33.4098197 249.471966,26.4811225 248.010042,17.8351781 C247.943796,17.4443564 248.212292,17.075247 248.609767,17.0096165 C249.006238,16.9454665 249.382634,17.2089751 249.44888,17.5997969 C250.853592,25.9067329 255.813996,32.7969401 255.86368,32.8655313 C256.09805,33.1872684 256.022771,33.6358252 255.695055,33.8662719 C255.566578,33.9565754 255.418027,34 255.270981,34" id="Fill-71" fill="#54C3F1"></path>
                            <path d="M253.145521,22 L242.695131,22 C242.311231,22 242,21.6342836 242,21.1824831 C242,20.7306827 242.311231,20.3649662 242.695131,20.3649662 L253.145521,20.3649662 C253.402251,20.3649662 253.610694,20.1190923 253.610694,19.8175169 C253.610694,19.3657164 253.921926,19 254.305347,19 C254.689247,19 255,19.3657164 255,19.8175169 C255,21.0210053 254.168138,22 253.145521,22" id="Fill-73" fill="#54C3F1"></path>
                            <path d="M249.752218,31 C249.522682,31 249.296764,30.8979103 249.14891,30.7043442 C248.900762,30.3788701 248.970037,29.9184556 249.302451,29.6763716 C251.806672,27.8524026 252.520613,25.5513411 252.52785,25.5280929 C252.644686,25.1389391 253.062401,24.9150493 253.459954,25.0302793 C253.858541,25.1444985 254.086526,25.5528573 253.969173,25.9420111 C253.935053,26.0552195 253.102725,28.7408863 250.200434,30.8544464 C250.065504,30.9524929 249.908344,31 249.752218,31" id="Fill-75" fill="#54C3F1"></path>
                            <path d="M242.362552,20 C242.010948,20 241.725543,20.3188396 241.725543,20.7127291 L241.725543,28.9476192 L241.725543,29.9556428 L241.725543,30.4780491 C241.725543,31.3413686 241.508968,32.1811429 241.099055,32.906135 C240.910539,33.2391997 240.999098,33.6796889 241.296778,33.8896325 C241.402435,33.9646824 241.520367,34 241.636546,34 C241.847859,34 242.05435,33.8827651 242.17579,33.6684069 C242.714595,32.7143408 243,31.6116464 243,30.4780491 L243,29.9556428 L243,28.9476192 L243,20.7127291 C243,20.3188396 242.714595,20 242.362552,20" id="Fill-77" fill="#54C3F1"></path>
                            <path d="M247.362518,25 C247.010895,25 246.725474,25.3166613 246.725474,25.7078597 L246.725474,28.9821371 L246.725474,29.9832738 L246.725474,30.5021111 C246.725474,31.3595323 246.508888,32.1935693 246.098953,32.9136083 C245.910427,33.2443975 245.999429,33.6818772 246.296687,33.8908737 C246.402349,33.9649237 246.520288,34 246.636911,34 C246.847797,34 247.054299,33.8835661 247.175745,33.6706723 C247.71458,32.7236116 248,31.6279636 248,30.5021111 L248,29.9832738 L248,28.9821371 L248,25.7078597 C248,25.3166613 247.71458,25 247.362518,25" id="Fill-79" fill="#54C3F1"></path>
                            <path d="M282.460268,21.4249755 C281.888033,21.4249755 281.423,21.9055247 281.423,22.4959137 L281.423,26.5035959 C281.423,27.0944753 281.888033,27.5750245 282.460268,27.5750245 L292.539732,27.5750245 C293.111967,27.5750245 293.577,27.0944753 293.577,26.5035959 L293.577,22.4959137 C293.577,21.9055247 293.111967,21.4249755 292.539732,21.4249755 L282.460268,21.4249755 Z M292.539732,29 L282.460268,29 C281.103841,29 280,27.8800262 280,26.5035959 L280,22.4959137 C280,21.1194835 281.103841,20 282.460268,20 L292.539732,20 C293.896159,20 295,21.1194835 295,22.4959137 L295,26.5035959 C295,27.8800262 293.896159,29 292.539732,29 Z" id="Fill-81" fill="#54C3F1"></path>
                            <path d="M287.500172,34 C287.223942,34 287,33.6792918 287,33.2830939 L287,17.7173995 C287,17.3207082 287.223942,17 287.500172,17 C287.776058,17 288,17.3207082 288,17.7173995 L288,33.2830939 C288,33.6792918 287.776058,34 287.500172,34" id="Fill-83" fill="#54C3F1"></path>
                            <g id="Group-87" transform="translate(310.000000, 20.000000)">
                                <mask id="mask-10" fill="white">
                                    <use xlink:href="#path-9"></use>
                                </mask>
                                <g id="Clip-86"></g>
                                <path d="M2.92168182,4.89381818 C2.76986364,4.89381818 2.61713636,4.842 2.49259091,4.73518182 C2.21531818,4.49790909 2.18304545,4.08063636 2.42031818,3.80381818 L3.20531818,2.88609091 C3.33486364,2.73472727 3.39759091,2.54245455 3.38213636,2.34381818 C3.36668182,2.14518182 3.27486364,1.96472727 3.1235,1.83518182 C2.97213636,1.70563636 2.78122727,1.64472727 2.58077273,1.65836364 C2.38213636,1.67381818 2.20213636,1.76563636 2.07259091,1.917 L1.28713636,2.83472727 C1.04986364,3.11109091 0.633045455,3.14427273 0.355772727,2.907 C0.0789545455,2.66972727 0.0462272727,2.25290909 0.2835,1.97563636 L1.0685,1.05836364 C1.42713636,0.638818182 1.92804545,0.383818182 2.47804545,0.341090909 C3.02668182,0.294272727 3.56304545,0.472454545 3.98259091,0.831545455 C4.40168182,1.18972727 4.65622727,1.69063636 4.69940909,2.24109091 C4.74213636,2.79154545 4.56804545,3.32563636 4.20940909,3.74518182 L3.42395455,4.66290909 C3.29304545,4.81518182 3.10804545,4.89381818 2.92168182,4.89381818" id="Fill-85" fill="#54C3F1" mask="url(#mask-10)"></path>
                            </g>
                            <path d="M300.5,28 C300.224019,28 300,27.6993756 300,27.3279889 L300,22.6724736 C300,22.3010869 300.224019,22 300.5,22 C300.776325,22 301,22.3010869 301,22.6724736 L301,27.3279889 C301,27.6993756 300.776325,28 300.5,28" id="Fill-88" fill="#EB6120"></path>
                            <g id="Group-92" transform="translate(302.000000, 20.000000)">
                                <mask id="mask-12" fill="white">
                                    <use xlink:href="#path-11"></use>
                                </mask>
                                <g id="Clip-91"></g>
                                <path d="M11.9886,8.81625789 L2.78893333,8.81625789 C1.30356296,8.81625789 0.0950444444,7.62731053 0.0950444444,6.16646842 L0.0950444444,0.810994737 C0.0950444444,0.430152632 0.408488889,0.122257895 0.794637037,0.122257895 C1.18126667,0.122257895 1.49471111,0.430152632 1.49471111,0.810994737 L1.49471111,6.16646842 C1.49471111,6.86799474 2.07537778,7.43925789 2.78893333,7.43925789 L11.9886,7.43925789 C12.3747481,7.43925789 12.6881926,7.74762632 12.6881926,8.12752105 C12.6881926,8.50836316 12.3747481,8.81625789 11.9886,8.81625789" id="Fill-90" fill="#54C3F1" mask="url(#mask-12)"></path>
                            </g>
                            <path d="M308.322058,26 C307.947393,26 307.643649,25.6967576 307.643649,25.3221367 C307.643649,24.2379286 306.762277,23.3561931 305.677942,23.3561931 C305.303744,23.3561931 305,23.0524843 305,22.6778633 C305,22.3037089 305.303744,22 305.677942,22 C307.510206,22 309,23.4905528 309,25.3221367 C309,25.6967576 308.696256,26 308.322058,26" id="Fill-93" fill="#FCC92C"></path>
                            <path d="M205.273645,27 L203.778942,27 C203.210555,27 202.671663,26.7378741 202.338229,26.2989325 C202.004296,25.8590377 201.910814,25.2890331 202.088279,24.7738366 L204.238351,18.4785268 C204.362826,18.1144102 204.772244,17.9156712 205.154168,18.0343427 C205.535592,18.1530142 205.744551,18.54382 205.620076,18.9079367 L203.469504,25.2041996 C203.424013,25.3376455 203.478502,25.4377299 203.514995,25.4858658 C203.551488,25.5340016 203.634471,25.6145457 203.778942,25.6145457 L205.273645,25.6145457 C205.674565,25.6145457 206,25.9248074 206,26.3070346 C206,26.6897383 205.674565,27 205.273645,27" id="Fill-95" fill="#54C3F1"></path>
                            <path d="M205.922625,34 L203.611635,34 C203.096524,34 202.608014,33.7505388 202.305718,33.3325097 C202.003423,32.9144806 201.919264,32.3724475 202.080327,31.8817598 L205.490221,21.4847992 C205.611623,21.1147248 206.009202,20.9141871 206.377277,21.0352847 C206.74632,21.1563824 206.947044,21.5545515 206.826126,21.9236571 L203.415748,32.3211021 C203.387211,32.4082924 203.422035,32.4746539 203.444768,32.5066237 C203.467501,32.5385935 203.520221,32.5923608 203.611635,32.5923608 L205.922625,32.5923608 C206.293118,32.5923608 206.594446,32.2905855 206.594446,31.9190578 L206.594446,31.2055504 C206.594446,30.8170692 206.909317,30.5017309 207.297223,30.5017309 C207.685613,30.5017309 208,30.8170692 208,31.2055504 L208,31.9190578 C208,33.0665793 207.068446,34 205.922625,34" id="Fill-97" fill="#54C3F1"></path>
                            <path d="M214.837746,34 L213.857558,34 C213.446114,34 213.112553,33.6811604 213.112553,33.2872709 C213.112553,32.8933815 213.446114,32.5745419 213.857558,32.5745419 L214.837746,32.5745419 C215.209223,32.5745419 215.510504,32.2856242 215.510504,31.930486 L215.510504,22.069514 C215.510504,21.7143758 215.209223,21.4254581 214.837746,21.4254581 L208.744492,21.4254581 C208.333561,21.4254581 208,21.1066185 208,20.7127291 C208,20.3188396 208.333561,20 208.744492,20 L214.837746,20 C216.03006,20 217,20.9285589 217,22.069514 L217,31.930486 C217,33.0714411 216.03006,34 214.837746,34" id="Fill-99" fill="#54C3F1"></path>
                            <path d="M213.380471,17.0053657 C212.99265,16.958486 212.639018,17.2239732 212.59054,17.5990109 L211.539341,25.5601722 C211.53628,25.5744828 211.531177,25.5878065 211.529646,25.6021172 L211.171932,28.3571636 C210.956079,30.0255877 210.260552,31.5893961 209.161386,32.8808087 C208.912874,33.1729433 208.956249,33.6037431 209.257831,33.8440633 C209.389996,33.9486791 209.549207,34 209.707397,34 C209.911513,34 210.114099,33.9151231 210.253919,33.7507973 C211.523522,32.2590357 212.32672,30.4524398 212.576252,28.5279044 L212.698212,27.5863625 L213.994351,17.7692582 C214.043339,17.3942206 213.768292,17.0522454 213.380471,17.0053657" id="Fill-101" fill="#54C3F1"></path>
                            <path d="M285.955613,38 C285.379591,38 284.911226,38.4593528 284.911226,39.0242926 L284.911226,48.624815 C284.911226,51.0103904 282.932123,52.9514149 280.499748,52.9514149 C278.067877,52.9514149 276.088774,51.0103904 276.088774,48.624815 L276.088774,39.0242926 C276.088774,38.4593528 275.620409,38 275.044387,38 C274.468364,38 274,38.4593528 274,39.0242926 L274,48.624815 C274,52.1402699 276.915831,55 280.499748,55 C284.084169,55 287,52.1402699 287,48.624815 L287,39.0242926 C287,38.4593528 286.532139,38 285.955613,38" id="Fill-103" fill="#54C3F1"></path>
                        </g>
                    </g>
                </g>
            </g>
        </g>
    </g>
</svg>