<?xml version="1.0" encoding="UTF-8"?>
<svg width="371px" height="352px" viewBox="0 0 371 352" version="1.1" xmlns="http://www.w3.org/2000/svg" xmlns:xlink="http://www.w3.org/1999/xlink">
    <!-- Generator: Sketch 52.5 (67469) - http://www.bohemiancoding.com/sketch -->
    <title>教育 Illustration</title>
    <desc>Created with Sketch.</desc>
    <defs>
        <linearGradient x1="50%" y1="0.37206823%" x2="50%" y2="99.4861407%" id="linearGradient-1">
            <stop stop-color="#005FFF" stop-opacity="0.400220788" offset="0%"></stop>
            <stop stop-color="#2E4BE0" stop-opacity="0" offset="100%"></stop>
        </linearGradient>
        <linearGradient x1="115.916121%" y1="100%" x2="115.916121%" y2="0%" id="linearGradient-2">
            <stop stop-color="#8BBBFF" stop-opacity="0" offset="0%"></stop>
            <stop stop-color="#8BBBFF" offset="100%"></stop>
        </linearGradient>
        <linearGradient x1="7.78039942%" y1="111.791108%" x2="115.916121%" y2="0%" id="linearGradient-3">
            <stop stop-color="#8BBBFF" stop-opacity="0" offset="0%"></stop>
            <stop stop-color="#8BBBFF" offset="100%"></stop>
        </linearGradient>
        <linearGradient x1="50%" y1="0.37206823%" x2="50%" y2="99.4861407%" id="linearGradient-4">
            <stop stop-color="#2776FB" offset="0%"></stop>
            <stop stop-color="#2E4BE0" offset="100%"></stop>
        </linearGradient>
        <linearGradient x1="64.1164273%" y1="100%" x2="64.1164273%" y2="0%" id="linearGradient-5">
            <stop stop-color="#F4F9FF" offset="0%"></stop>
            <stop stop-color="#E2EEFF" offset="100%"></stop>
        </linearGradient>
        <linearGradient x1="100%" y1="50%" x2="0%" y2="50%" id="linearGradient-6">
            <stop stop-color="#2776FB" offset="0%"></stop>
            <stop stop-color="#2E4BE0" offset="100%"></stop>
        </linearGradient>
        <linearGradient x1="0%" y1="0%" x2="100%" y2="100%" id="linearGradient-7">
            <stop stop-color="#2776FB" offset="0%"></stop>
            <stop stop-color="#2E4BE0" offset="100%"></stop>
        </linearGradient>
        <linearGradient x1="100%" y1="100%" x2="0%" y2="0%" id="linearGradient-8">
            <stop stop-color="#F5D466" offset="0%"></stop>
            <stop stop-color="#FDB174" offset="100%"></stop>
        </linearGradient>
        <linearGradient x1="0%" y1="0%" x2="100%" y2="100%" id="linearGradient-9">
            <stop stop-color="#F6547C" offset="0%"></stop>
            <stop stop-color="#F66964" offset="100%"></stop>
        </linearGradient>
        <linearGradient x1="100%" y1="100%" x2="0%" y2="0%" id="linearGradient-10">
            <stop stop-color="#09E3BB" offset="0%"></stop>
            <stop stop-color="#00D4D8" offset="100%"></stop>
        </linearGradient>
        <linearGradient x1="64.1164273%" y1="100%" x2="64.1164273%" y2="0%" id="linearGradient-11">
            <stop stop-color="#F4F9FF" offset="0%"></stop>
            <stop stop-color="#B2D2FF" offset="100%"></stop>
        </linearGradient>
    </defs>
    <g id="Page-1" stroke="none" stroke-width="1" fill="none" fill-rule="evenodd">
        <g id="教育" transform="translate(-156.000000, -4002.000000)">
            <g id="Content-02" transform="translate(0.000000, 998.000000)">
                <g id="教育应用系统" transform="translate(0.000000, 2904.000000)">
                    <g id="教育-Illustration" transform="translate(150.000000, 80.000000)">
                        <g id="底层" transform="translate(12.000000, 20.000000)" fill="url(#linearGradient-1)" fill-opacity="0.5" opacity="0.318196615">
                            <rect id="Rectangle" x="94" y="87" width="260" height="192"></rect>
                            <rect id="Rectangle-Copy-75" x="4" y="0" width="180" height="136"></rect>
                            <rect id="Rectangle-Copy-124" x="229" y="249" width="136" height="104"></rect>
                            <rect id="Rectangle-Copy-123" x="0" y="200" width="90" height="58"></rect>
                            <rect id="Rectangle-Copy-125" x="90" y="272" width="90" height="58"></rect>
                        </g>
                        <g id="代码1" transform="translate(6.000000, 90.000000)">
                            <rect id="Rectangle" fill="#F0F6FF" x="24" y="48" width="59" height="6" rx="1"></rect>
                            <rect id="Rectangle-Copy-66" fill="#F0F6FF" x="6" y="24" width="59" height="6" rx="1"></rect>
                            <rect id="Rectangle-Copy-67" fill="#E6F1FF" x="72" y="24" width="59" height="6" rx="1"></rect>
                            <rect id="Rectangle" fill="#CEE1FF" x="0" y="56" width="17" height="6" rx="1"></rect>
                            <rect id="Rectangle-Copy-63" fill="#CEE1FF" x="17" y="0" width="17" height="6" rx="1"></rect>
                            <rect id="Rectangle" fill="#F0F6FF" x="47" y="72" width="59" height="6" rx="1"></rect>
                            <rect id="Rectangle-Copy-61" fill="#F0F6FF" x="44" y="0" width="114" height="6" rx="1"></rect>
                        </g>
                        <g id="line" transform="translate(31.000000, 35.000000)" opacity="0.7" stroke-linecap="round" stroke-linejoin="round">
                            <path d="M258,48 L258,33.9889969 C258,30.6752884 260.686292,27.9889969 264,27.9889969 L272,27.9889969 C275.313708,27.9889969 278,25.3027054 278,21.9889969 L278,8" id="Path-12" stroke="url(#linearGradient-2)" stroke-width="3"></path>
                            <path d="M261.64193,171.988997 L315,171.988997 C318.313708,171.988997 321,169.302705 321,165.988997 L321,109" id="Path-12-Copy-3" stroke="url(#linearGradient-3)" stroke-width="2"></path>
                            <path d="M41,288 L41,267.485421 C41,264.171712 43.6862915,261.485421 47,261.485421 L71,261.485421 C74.3137085,261.485421 77,258.799129 77,255.485421 L77,235" id="Path-12-Copy-2" stroke="url(#linearGradient-2)" stroke-width="3"></path>
                            <path d="M193.5,48 L193.5,0" id="Path-12-Copy" stroke="url(#linearGradient-2)" stroke-width="3"></path>
                            <path d="M4.82096494,72.5110031 L5,4" id="Path-12-Copy-5" stroke="url(#linearGradient-2)" stroke-width="3" stroke-dasharray="0,6"></path>
                            <path d="M123.320965,322.511003 L123.5,254" id="Path-12-Copy-6" stroke="url(#linearGradient-2)" stroke-width="3" stroke-dasharray="0,6"></path>
                            <path d="M281.320965,322.511003 L281.5,254" id="Path-12-Copy-7" stroke="url(#linearGradient-2)" stroke-width="3" stroke-dasharray="0,6"></path>
                            <path d="M0.5,222 L0.5,159" id="Path-12-Copy-4" stroke="url(#linearGradient-2)" stroke-width="3"></path>
                        </g>
                        <g id="1" transform="translate(24.000000, 178.000000)">
                            <circle id="Oval" fill="url(#linearGradient-4)" cx="8" cy="8" r="8"></circle>
                            <circle id="Oval" fill="#FFFFFF" cx="8" cy="8" r="4"></circle>
                        </g>
                        <g id="2" transform="translate(301.000000, 27.000000)">
                            <circle id="Oval" fill="url(#linearGradient-4)" cx="8" cy="8" r="8"></circle>
                            <circle id="Oval" fill="#FFFFFF" cx="8" cy="8" r="4"></circle>
                        </g>
                        <g id="3" transform="translate(348.000000, 140.000000)">
                            <circle id="Oval" fill="url(#linearGradient-4)" cx="4" cy="4" r="4"></circle>
                            <circle id="Oval" fill="#FFFFFF" cx="4" cy="4" r="2"></circle>
                        </g>
                        <g id="教育" transform="translate(88.000000, 84.000000)" fill-rule="nonzero">
                            <rect id="Rectangle-Copy-106" fill="url(#linearGradient-4)" x="5" y="5" width="200" height="180"></rect>
                            <rect id="Rectangle-Copy-106" fill="url(#linearGradient-5)" x="11" y="11" width="188" height="168"></rect>
                            <rect id="Rectangle" fill="url(#linearGradient-6)" x="23" y="20" width="145" height="8" rx="1"></rect>
                            <rect id="Rectangle-Copy-110" fill="url(#linearGradient-6)" x="23" y="35" width="76" height="8" rx="1"></rect>
                            <g id="Group-14" opacity="0.503813244" transform="translate(23.000000, 52.000000)" stroke-width="3">
                                <rect id="Rectangle" stroke="url(#linearGradient-7)" fill="#FFFFFF" x="0" y="0" width="48" height="32" rx="1"></rect>
                                <rect id="Rectangle-Copy-113" stroke="url(#linearGradient-7)" fill="#FFFFFF" x="58" y="42" width="48" height="32" rx="1"></rect>
                                <rect id="Rectangle-Copy-111" stroke="url(#linearGradient-8)" fill="url(#linearGradient-8)" x="58" y="0" width="48" height="32" rx="1"></rect>
                                <rect id="Rectangle-Copy-115" stroke="url(#linearGradient-8)" fill="url(#linearGradient-8)" x="116" y="42" width="48" height="32" rx="1"></rect>
                                <rect id="Rectangle-Copy-118" stroke="url(#linearGradient-8)" fill="url(#linearGradient-8)" x="116" y="84" width="48" height="32" rx="1"></rect>
                                <rect id="Rectangle-Copy-114" stroke="url(#linearGradient-9)" fill="url(#linearGradient-9)" x="0" y="42" width="48" height="32" rx="1"></rect>
                                <rect id="Rectangle-Copy-112" stroke="url(#linearGradient-10)" fill="url(#linearGradient-10)" x="116" y="0" width="48" height="32" rx="1"></rect>
                                <rect id="Rectangle-Copy-117" stroke="url(#linearGradient-10)" fill="url(#linearGradient-10)" x="58" y="84" width="48" height="32" rx="1"></rect>
                                <rect id="Rectangle-Copy-116" stroke="url(#linearGradient-4)" fill="url(#linearGradient-4)" x="0" y="84" width="48" height="32" rx="1"></rect>
                            </g>
                            <g id="Group-13" transform="translate(10.000000, 51.000000)">
                                <path d="M0.5,130 C0.5,128.666667 23.1666667,107.166667 68.5,65.5 L109.5,89.5 L130.5,36.5 L204,8" id="Path-18" stroke="url(#linearGradient-8)" stroke-width="8"></path>
                                <rect id="Rectangle-Copy-119" fill="url(#linearGradient-9)" x="199" y="0" width="16" height="16" rx="1"></rect>
                                <rect id="Rectangle-Copy-120" fill="url(#linearGradient-9)" x="125" y="28" width="16" height="16" rx="1"></rect>
                                <rect id="Rectangle-Copy-121" fill="url(#linearGradient-9)" x="102" y="80" width="16" height="16" rx="1"></rect>
                                <rect id="Rectangle-Copy-122" fill="url(#linearGradient-9)" x="59" y="57" width="16" height="16" rx="1"></rect>
                            </g>
                            <rect id="Rectangle" fill="url(#linearGradient-10)" x="0" y="0" width="16" height="16" rx="1"></rect>
                            <rect id="Rectangle-Copy-109" fill="url(#linearGradient-10)" x="0" y="174" width="16" height="16" rx="1"></rect>
                            <rect id="Rectangle-Copy-107" fill="url(#linearGradient-10)" x="193" y="0" width="16" height="16" rx="1"></rect>
                            <rect id="Rectangle-Copy-108" fill="url(#linearGradient-10)" x="193" y="174" width="16" height="16" rx="1"></rect>
                        </g>
                        <g id="icon-笔" transform="translate(44.000000, 315.000000)" fill-rule="nonzero">
                            <circle id="Oval" fill="url(#linearGradient-4)" cx="28" cy="28" r="28"></circle>
                            <g id="Group-15" transform="translate(10.000000, 13.000000)" fill="url(#linearGradient-11)">
                                <polygon id="Rectangle-Copy-126" points="18 16 30 23 18 30 6 23"></polygon>
                                <polygon id="Rectangle" points="18 0 36 11 18 22 0 11"></polygon>
                            </g>
                        </g>
                    </g>
                </g>
            </g>
        </g>
    </g>
</svg>