<?xml version="1.0" encoding="UTF-8"?>
<svg width="400px" height="400px" viewBox="0 0 400 400" version="1.1" xmlns="http://www.w3.org/2000/svg" xmlns:xlink="http://www.w3.org/1999/xlink">
    <!-- Generator: Sketch 52.5 (67469) - http://www.bohemiancoding.com/sketch -->
    <title>线上 Illustration</title>
    <desc>Created with Sketch.</desc>
    <defs>
        <linearGradient x1="100%" y1="47.1539721%" x2="3.7349353%" y2="47.1539721%" id="linearGradient-1">
            <stop stop-color="#005FFF" stop-opacity="0.400220788" offset="0%"></stop>
            <stop stop-color="#2E4BE0" stop-opacity="0" offset="100%"></stop>
        </linearGradient>
        <linearGradient x1="100%" y1="47.1539721%" x2="3.7349353%" y2="47.1539721%" id="linearGradient-2">
            <stop stop-color="#005FFF" stop-opacity="0.492272418" offset="0%"></stop>
            <stop stop-color="#2E4BE0" stop-opacity="0" offset="100%"></stop>
        </linearGradient>
        <linearGradient x1="7.78039942%" y1="111.791108%" x2="115.916121%" y2="0%" id="linearGradient-3">
            <stop stop-color="#8BBBFF" stop-opacity="0" offset="0%"></stop>
            <stop stop-color="#8BBBFF" offset="100%"></stop>
        </linearGradient>
        <linearGradient x1="115.916121%" y1="100%" x2="115.916121%" y2="0%" id="linearGradient-4">
            <stop stop-color="#8BBBFF" stop-opacity="0" offset="0%"></stop>
            <stop stop-color="#8BBBFF" offset="100%"></stop>
        </linearGradient>
        <linearGradient x1="120.174728%" y1="137.778845%" x2="115.916121%" y2="0%" id="linearGradient-5">
            <stop stop-color="#8BBBFF" stop-opacity="0" offset="0%"></stop>
            <stop stop-color="#8BBBFF" offset="100%"></stop>
        </linearGradient>
        <linearGradient x1="50%" y1="0.37206823%" x2="50%" y2="99.4861407%" id="linearGradient-6">
            <stop stop-color="#2776FB" offset="0%"></stop>
            <stop stop-color="#2E4BE0" offset="100%"></stop>
        </linearGradient>
        <linearGradient x1="64.1164273%" y1="100%" x2="64.1164273%" y2="0%" id="linearGradient-7">
            <stop stop-color="#F4F9FF" offset="0%"></stop>
            <stop stop-color="#B2D2FF" offset="100%"></stop>
        </linearGradient>
        <linearGradient x1="75.15%" y1="100%" x2="75.15%" y2="0%" id="linearGradient-8">
            <stop stop-color="#FFFFFF" offset="0%"></stop>
            <stop stop-color="#EFF6FF" offset="100%"></stop>
        </linearGradient>
        <linearGradient x1="0%" y1="0%" x2="100%" y2="100%" id="linearGradient-9">
            <stop stop-color="#F6547C" offset="0%"></stop>
            <stop stop-color="#F66964" offset="100%"></stop>
        </linearGradient>
        <linearGradient x1="100%" y1="100%" x2="0%" y2="0%" id="linearGradient-10">
            <stop stop-color="#F5D466" offset="0%"></stop>
            <stop stop-color="#FDB174" offset="100%"></stop>
        </linearGradient>
        <linearGradient x1="100%" y1="100%" x2="0%" y2="0%" id="linearGradient-11">
            <stop stop-color="#09E3BB" offset="0%"></stop>
            <stop stop-color="#00D4D8" offset="100%"></stop>
        </linearGradient>
        <linearGradient x1="100%" y1="50%" x2="0%" y2="50%" id="linearGradient-12">
            <stop stop-color="#2776FB" offset="0%"></stop>
            <stop stop-color="#2E4BE0" offset="100%"></stop>
        </linearGradient>
        <linearGradient x1="0%" y1="50%" x2="100%" y2="50%" id="linearGradient-13">
            <stop stop-color="#09E3BB" offset="0%"></stop>
            <stop stop-color="#00D4D8" offset="100%"></stop>
        </linearGradient>
        <linearGradient x1="46.7831967%" y1="0%" x2="46.7831967%" y2="94.5556427%" id="linearGradient-14">
            <stop stop-color="#F5D466" offset="0%"></stop>
            <stop stop-color="#FDB174" offset="100%"></stop>
        </linearGradient>
        <linearGradient x1="42.8563732%" y1="-36.1074937%" x2="50%" y2="95.6690806%" id="linearGradient-15">
            <stop stop-color="#FAD961" offset="0%"></stop>
            <stop stop-color="#F76B1C" offset="100%"></stop>
        </linearGradient>
        <linearGradient x1="43.4322078%" y1="99.4861407%" x2="43.4322078%" y2="0%" id="linearGradient-16">
            <stop stop-color="#2776FB" offset="0%"></stop>
            <stop stop-color="#2E4BE0" offset="100%"></stop>
        </linearGradient>
        <linearGradient x1="50%" y1="0%" x2="50%" y2="95.9617692%" id="linearGradient-17">
            <stop stop-color="#40CCD3" offset="0%"></stop>
            <stop stop-color="#08AD8B" offset="100%"></stop>
        </linearGradient>
    </defs>
    <g id="Page-1" stroke="none" stroke-width="1" fill="none" fill-rule="evenodd">
        <g id="教育" transform="translate(-890.000000, -2302.000000)">
            <g id="Content-02" transform="translate(0.000000, 998.000000)">
                <g id="线上教学系统" transform="translate(0.000000, 1224.000000)">
                    <g id="线上-Illustration" transform="translate(890.000000, 80.000000)">
                        <rect id="Rectangle" fill="#FFFFFF" fill-rule="nonzero" opacity="0.0131370908" x="0" y="0" width="400" height="400"></rect>
                        <g id="底层" transform="translate(15.000000, 25.000000)" fill-opacity="0.5" opacity="0.318196615">
                            <circle id="Oval" fill="url(#linearGradient-1)" cx="94" cy="94" r="94"></circle>
                            <circle id="Oval-Copy-6" fill="url(#linearGradient-2)" cx="260" cy="245" r="121"></circle>
                            <circle id="Oval-Copy-9" fill="url(#linearGradient-1)" cx="324" cy="38" r="33"></circle>
                            <circle id="Oval-Copy-10" fill="url(#linearGradient-1)" transform="translate(291.000000, 57.000000) scale(1, -1) translate(-291.000000, -57.000000) " cx="291" cy="57" r="14"></circle>
                        </g>
                        <g id="line" transform="translate(31.000000, 56.000000)" opacity="0.7" stroke-linecap="round" stroke-linejoin="round">
                            <path d="M285.64193,169.988997 L339,169.988997 C342.313708,169.988997 345,167.302705 345,163.988997 L345,107" id="Path-12-Copy-3" stroke="url(#linearGradient-3)" stroke-width="2"></path>
                            <path d="M1,339 L1,313.48267 C1,310.168962 3.6862915,307.48267 7,307.48267 L31,307.48267 C34.3137085,307.48267 37,304.796379 37,301.48267 L37,276" id="Path-12-Copy-2" stroke="url(#linearGradient-4)" stroke-width="3"></path>
                            <path d="M77.5,63 L77.5,0" id="Path-12-Copy" stroke="url(#linearGradient-4)" stroke-width="3"></path>
                            <path d="M0.5,201 L0.5,138" id="Path-12-Copy-4" stroke="url(#linearGradient-4)" stroke-width="3"></path>
                            <path d="M111,71 L111,32 C111,26.4771525 115.477153,22 121,22 L269,22 C274.522847,22 279,26.4771525 279,32 L279,124" id="Path-6" stroke="url(#linearGradient-5)" stroke-width="3" stroke-dasharray="0,6"></path>
                        </g>
                        <g id="1" transform="translate(23.000000, 178.000000)">
                            <circle id="Oval" fill="url(#linearGradient-6)" cx="8" cy="8" r="8"></circle>
                            <circle id="Oval" fill="#FFFFFF" cx="8" cy="8" r="4"></circle>
                        </g>
                        <g id="2" transform="translate(100.000000, 47.000000)">
                            <circle id="Oval" fill="url(#linearGradient-6)" cx="8" cy="8" r="8"></circle>
                            <circle id="Oval" fill="#FFFFFF" cx="8" cy="8" r="4"></circle>
                        </g>
                        <g id="3" transform="translate(372.000000, 158.000000)">
                            <circle id="Oval" fill="url(#linearGradient-6)" cx="4" cy="4" r="4"></circle>
                            <circle id="Oval" fill="#FFFFFF" cx="4" cy="4" r="2"></circle>
                        </g>
                        <g id="icon-线上" transform="translate(200.000000, 50.000000)" fill-rule="nonzero">
                            <circle id="Oval" fill="url(#linearGradient-6)" cx="28" cy="28" r="28"></circle>
                            <rect id="Rectangle" fill="url(#linearGradient-7)" x="11" y="23" width="34" height="18" rx="9"></rect>
                            <circle id="Oval" fill="url(#linearGradient-7)" cx="28" cy="22" r="9"></circle>
                        </g>
                        <g id="web" transform="translate(58.000000, 129.000000)">
                            <rect id="Rectangle" stroke="url(#linearGradient-6)" stroke-width="2" fill="url(#linearGradient-6)" x="0" y="0" width="240" height="192" rx="8"></rect>
                            <rect id="Rectangle" fill="url(#linearGradient-8)" x="8" y="20" width="224" height="164" rx="4"></rect>
                            <circle id="Oval" fill="url(#linearGradient-9)" fill-rule="nonzero" cx="12" cy="10" r="4"></circle>
                            <circle id="Oval-Copy-7" fill="url(#linearGradient-10)" fill-rule="nonzero" cx="24" cy="10" r="4"></circle>
                            <circle id="Oval-Copy-8" fill="url(#linearGradient-11)" fill-rule="nonzero" cx="36" cy="10" r="4"></circle>
                            <g id="代码" transform="translate(22.000000, 34.000000)">
                                <rect id="Rectangle" fill="#DBEAFF" x="25" y="83" width="80" height="8" rx="1"></rect>
                                <rect id="Rectangle-Copy-76" fill="#DBEAFF" x="0" y="103" width="50" height="8" rx="1"></rect>
                                <rect id="Rectangle" fill="url(#linearGradient-9)" x="0" y="83" width="17" height="8" rx="1"></rect>
                                <rect id="Rectangle" fill="url(#linearGradient-12)" x="61" y="103" width="59" height="8" rx="1"></rect>
                                <rect id="Rectangle-Copy-62" fill="#E8F3FF" x="27" y="123" width="101" height="8" rx="1"></rect>
                                <rect id="Rectangle-Copy-60" fill="#E8F3FF" x="113" y="83" width="59" height="8" rx="1"></rect>
                                <rect id="Rectangle-Copy-64" fill="#E8F3FF" x="139" y="103" width="47" height="8" rx="1"></rect>
                                <rect id="Rectangle-Copy-68" fill="url(#linearGradient-13)" x="0" y="123" width="16" height="8" rx="1"></rect>
                                <rect id="Rectangle" fill="url(#linearGradient-14)" fill-rule="nonzero" opacity="0.660342262" x="0" y="0" width="95" height="71" rx="2"></rect>
                                <path d="M25.1329425,30.1727921 C22.4963921,28.1109681 20.8,24.8895493 20.8,21.2694597 C20.8,15.045509 25.8144108,10 32,10 C38.1855892,10 43.2,15.045509 43.2,21.2694597 C43.2,24.8895493 41.5036079,28.1109681 38.8670575,30.1727921 C47.0927737,33.0354197 53,40.8973034 53,50.1474503 C53,61.817358 43.5979797,59.656057 32,59.656057 C20.4020203,59.656057 11,61.817358 11,50.1474503 C11,40.8973034 16.9072263,33.0354197 25.1329425,30.1727921 Z" id="Combined-Shape" fill="url(#linearGradient-15)" fill-rule="nonzero"></path>
                                <rect id="Rectangle" fill="url(#linearGradient-15)" fill-rule="nonzero" x="61" y="17" width="26" height="8" rx="4"></rect>
                                <rect id="Rectangle" fill="url(#linearGradient-15)" fill-rule="nonzero" x="61" y="32" width="26" height="8" rx="4"></rect>
                            </g>
                        </g>
                        <g id="iphone" transform="translate(267.000000, 180.000000)">
                            <path d="M1.5,140.5 L86.5,140.5 L86.5,8 C86.5,4.41014913 83.5898509,1.5 80,1.5 L8,1.5 C4.41014913,1.5 1.5,4.41014913 1.5,8 L1.5,140.5 Z" id="Rectangle" stroke="url(#linearGradient-6)" stroke-width="3" fill="url(#linearGradient-6)"></path>
                            <path d="M7.5,140.5 L80.5,140.5 L80.5,10 C80.5,8.61928813 79.3807119,7.5 78,7.5 L10,7.5 C8.61928813,7.5 7.5,8.61928813 7.5,10 L7.5,140.5 Z" id="Rectangle" stroke="url(#linearGradient-7)" stroke-width="3" fill="url(#linearGradient-7)"></path>
                            <path d="M43.3209649,125.511003 L43.5,57" id="Path-12-Copy-7" stroke="url(#linearGradient-11)" stroke-width="3" opacity="0.7" stroke-linecap="round" stroke-linejoin="round" stroke-dasharray="0,6"></path>
                            <path d="M32,6 L56,6 C59.3137085,6 62,8.6862915 62,12 L26,12 L26,12 C26,8.6862915 28.6862915,6 32,6 Z" id="Rectangle" fill="url(#linearGradient-16)" transform="translate(44.000000, 9.000000) scale(1, -1) translate(-44.000000, -9.000000) "></path>
                            <path d="M37.1329425,61.1581422 C34.4963921,59.0978156 32.8,55.8787363 32.8,52.2612757 C32.8,46.0418449 37.8144108,41 44,41 C50.1855892,41 55.2,46.0418449 55.2,52.2612757 C55.2,55.8787363 53.5036079,59.0978156 50.8670575,61.1581422 C59.0927737,64.018691 65,71.8748653 65,81.1182946 C65,92.7797274 55.5979797,90.7777778 44,90.7777778 C32.4020203,90.7777778 23,92.7797274 23,81.1182946 C23,71.8748653 28.9072263,64.018691 37.1329425,61.1581422 Z" id="Combined-Shape" fill="url(#linearGradient-17)" fill-rule="nonzero"></path>
                        </g>
                    </g>
                </g>
            </g>
        </g>
    </g>
</svg>