<?xml version="1.0" encoding="UTF-8"?>
<svg width="400px" height="400px" viewBox="0 0 400 400" version="1.1" xmlns="http://www.w3.org/2000/svg" xmlns:xlink="http://www.w3.org/1999/xlink">
    <!-- Generator: Sketch 52.5 (67469) - http://www.bohemiancoding.com/sketch -->
    <title>智能 Illustration</title>
    <desc>Created with Sketch.</desc>
    <defs>
        <linearGradient x1="100%" y1="47.1539721%" x2="3.7349353%" y2="47.1539721%" id="linearGradient-1">
            <stop stop-color="#005FFF" stop-opacity="0.400220788" offset="0%"></stop>
            <stop stop-color="#2E4BE0" stop-opacity="0" offset="100%"></stop>
        </linearGradient>
        <linearGradient x1="7.78039942%" y1="111.791108%" x2="115.916121%" y2="0%" id="linearGradient-2">
            <stop stop-color="#8BBBFF" stop-opacity="0" offset="0%"></stop>
            <stop stop-color="#8BBBFF" offset="100%"></stop>
        </linearGradient>
        <linearGradient x1="115.916121%" y1="100%" x2="115.916121%" y2="0%" id="linearGradient-3">
            <stop stop-color="#8BBBFF" stop-opacity="0" offset="0%"></stop>
            <stop stop-color="#8BBBFF" offset="100%"></stop>
        </linearGradient>
        <linearGradient x1="50%" y1="0.37206823%" x2="50%" y2="99.4861407%" id="linearGradient-4">
            <stop stop-color="#2776FB" offset="0%"></stop>
            <stop stop-color="#2E4BE0" offset="100%"></stop>
        </linearGradient>
        <linearGradient x1="75.15%" y1="100%" x2="75.15%" y2="0%" id="linearGradient-5">
            <stop stop-color="#FFFFFF" offset="0%"></stop>
            <stop stop-color="#EFF6FF" offset="100%"></stop>
        </linearGradient>
        <linearGradient x1="0%" y1="0%" x2="100%" y2="100%" id="linearGradient-6">
            <stop stop-color="#F6547C" offset="0%"></stop>
            <stop stop-color="#F66964" offset="100%"></stop>
        </linearGradient>
        <linearGradient x1="100%" y1="100%" x2="0%" y2="0%" id="linearGradient-7">
            <stop stop-color="#09E3BB" offset="0%"></stop>
            <stop stop-color="#00D4D8" offset="100%"></stop>
        </linearGradient>
        <linearGradient x1="0%" y1="50%" x2="100%" y2="50%" id="linearGradient-8">
            <stop stop-color="#09E3BB" offset="0%"></stop>
            <stop stop-color="#00D4D8" offset="100%"></stop>
        </linearGradient>
        <linearGradient x1="42.8563732%" y1="-36.1074937%" x2="50%" y2="95.6690806%" id="linearGradient-9">
            <stop stop-color="#FAD961" offset="0%"></stop>
            <stop stop-color="#F76B1C" offset="100%"></stop>
        </linearGradient>
        <linearGradient x1="64.1164273%" y1="100%" x2="64.1164273%" y2="0%" id="linearGradient-10">
            <stop stop-color="#F4F9FF" offset="0%"></stop>
            <stop stop-color="#B2D2FF" offset="100%"></stop>
        </linearGradient>
        <linearGradient x1="64.1164273%" y1="100%" x2="64.1164273%" y2="-98.3239212%" id="linearGradient-11">
            <stop stop-color="#F4F9FF" offset="0%"></stop>
            <stop stop-color="#B2D2FF" offset="100%"></stop>
        </linearGradient>
        <linearGradient x1="50%" y1="100%" x2="50%" y2="0%" id="linearGradient-12">
            <stop stop-color="#09E3BB" offset="0%"></stop>
            <stop stop-color="#00D4D8" offset="100%"></stop>
        </linearGradient>
    </defs>
    <g id="Page-1" stroke="none" stroke-width="1" fill="none" fill-rule="evenodd">
        <g id="教育" transform="translate(-890.000000, -3422.000000)">
            <g id="Content-02" transform="translate(0.000000, 998.000000)">
                <g id="智能排课系统" transform="translate(0.000000, 2344.000000)">
                    <g id="智能-Illustration" transform="translate(890.000000, 80.000000)">
                        <rect id="Rectangle" fill="#FFFFFF" fill-rule="nonzero" opacity="0.0113932292" x="0" y="0" width="400" height="400"></rect>
                        <g id="底层" transform="translate(13.000000, 15.000000)" fill="url(#linearGradient-1)" fill-opacity="0.5">
                            <polygon id="Rectangle" opacity="0.50453404" points="186.5 9 363 185.5 186.5 362 10 185.5"></polygon>
                            <polygon id="Rectangle" opacity="0.497000558" points="100.350288 0 200.700577 100.350288 100.350288 200.700577 0 100.350288"></polygon>
                            <polygon id="Rectangle-Copy-101" opacity="0.601864769" points="288.350288 283 327.700577 322.350288 288.350288 361.700577 249 322.350288"></polygon>
                        </g>
                        <g id="line" transform="translate(32.000000, 58.000000)" opacity="0.7" stroke-linecap="round" stroke-linejoin="round">
                            <path d="M284.64193,167.988997 L338,167.988997 C341.313708,167.988997 344,165.302705 344,161.988997 L344,105" id="Path-12-Copy-3" stroke="url(#linearGradient-2)" stroke-width="2"></path>
                            <path d="M13.5,310.5 L13.5,284.98267 C13.5,281.668962 16.1862915,278.98267 19.5,278.98267 L43.5,278.98267 C46.8137085,278.98267 49.5,276.296379 49.5,272.98267 L49.5,247.5" id="Path-12-Copy-2" stroke="url(#linearGradient-3)" stroke-width="3" transform="translate(31.500000, 279.000000) rotate(-270.000000) translate(-31.500000, -279.000000) "></path>
                            <path d="M50,49.5 L50,25.2107283 C50,22.29505 51.5862668,19.6102634 54.1401221,18.2034932 L61.3773931,14.216902 C63.6120165,12.985978 65,10.6367897 65,8.08557129 L65,-33.5" id="Path-12-Copy" stroke="url(#linearGradient-3)" stroke-width="3" transform="translate(57.500000, 8.000000) rotate(-270.000000) translate(-57.500000, -8.000000) "></path>
                            <path d="M201.5,325 L201.5,262" id="Path-12-Copy-4" stroke="url(#linearGradient-3)" stroke-width="3" transform="translate(201.500000, 293.500000) rotate(-270.000000) translate(-201.500000, -293.500000) "></path>
                        </g>
                        <g id="1" transform="translate(89.000000, 347.000000)">
                            <circle id="Oval" fill="url(#linearGradient-4)" cx="8" cy="8" r="8"></circle>
                            <circle id="Oval" fill="#FFFFFF" cx="8" cy="8" r="4"></circle>
                        </g>
                        <g id="2" transform="translate(126.000000, 64.000000)">
                            <circle id="Oval" fill="url(#linearGradient-4)" cx="8" cy="8" r="8"></circle>
                            <circle id="Oval" fill="#FFFFFF" cx="8" cy="8" r="4"></circle>
                        </g>
                        <g id="3" transform="translate(372.000000, 158.000000)">
                            <circle id="Oval" fill="url(#linearGradient-4)" cx="4" cy="4" r="4"></circle>
                            <circle id="Oval" fill="#FFFFFF" cx="4" cy="4" r="2"></circle>
                        </g>
                        <g id="Group-5" transform="translate(135.000000, 85.000000)" fill-rule="nonzero" stroke-dasharray="10,4" stroke-width="3">
                            <path d="M0,99 L82,0 L158.5,0" id="Path-15" stroke="#ACCEFF"></path>
                            <path d="M0,214 L82,115 L158.5,115" id="Path-15-Copy-2" stroke="#0069FF" transform="translate(79.250000, 164.500000) scale(1, -1) translate(-79.250000, -164.500000) "></path>
                            <path d="M1.42108547e-14,109.5 L82,109.5 L158.5,109.5" id="Path-15-Copy" stroke="#ACCEFF"></path>
                            <path d="M83.5,219.5 L83.5,4" id="Path-16" stroke="#ACCEFF"></path>
                        </g>
                        <g id="人员" transform="translate(36.000000, 114.000000)">
                            <path d="M8,-1.39266376e-12 L106,-1.40598644e-12 C110.418278,-1.40679806e-12 114,3.581722 114,8 L114,128.541847 L114,142 C114,146.418278 110.418278,150 106,150 L86.1672715,150 L58.0635,172 L58.0635,150 L8,150 C3.581722,150 8.07674756e-14,146.418278 9.59232693e-14,142 L-6.57252031e-14,8 C-7.01905052e-14,3.581722 3.581722,-1.39503335e-12 8,-1.39976919e-12 Z" id="Rectangle" stroke="url(#linearGradient-4)" stroke-width="2" fill="url(#linearGradient-4)"></path>
                            <rect id="Rectangle" fill="url(#linearGradient-5)" x="8" y="8" width="98" height="98" rx="4"></rect>
                            <g id="代码" transform="translate(8.000000, 31.000000)">
                                <g id="Group-4" opacity="0.299037388" transform="translate(0.000000, 80.000000)">
                                    <rect id="Rectangle" fill="#DBEAFF" x="14" y="0" width="46" height="4" rx="1"></rect>
                                    <rect id="Rectangle-Copy-76" fill="#DBEAFF" x="0" y="12" width="26" height="4" rx="1"></rect>
                                    <rect id="Rectangle" fill="url(#linearGradient-6)" x="0" y="0" width="10" height="4" rx="1"></rect>
                                    <rect id="Rectangle" fill="url(#linearGradient-7)" x="32" y="12" width="31" height="4" rx="1"></rect>
                                    <rect id="Rectangle-Copy-62" fill="#E8F3FF" x="16" y="24" width="59" height="4" rx="1"></rect>
                                    <rect id="Rectangle-Copy-60" fill="#E8F3FF" x="64" y="0" width="34" height="4" rx="1"></rect>
                                    <rect id="Rectangle-Copy-64" fill="#E8F3FF" x="73" y="12" width="25" height="4" rx="1"></rect>
                                    <rect id="Rectangle-Copy-68" fill="url(#linearGradient-8)" x="0" y="24" width="9" height="4" rx="1"></rect>
                                </g>
                                <path d="M42.1329425,20.1727921 C39.4963921,18.1109681 37.8,14.8895493 37.8,11.2694597 C37.8,5.04550899 42.8144108,0 49,0 C55.1855892,0 60.2,5.04550899 60.2,11.2694597 C60.2,14.8895493 58.5036079,18.1109681 55.8670575,20.1727921 C64.0927737,23.0354197 70,30.8973034 70,40.1474503 C70,51.817358 60.5979797,49.656057 49,49.656057 C37.4020203,49.656057 28,51.817358 28,40.1474503 C28,30.8973034 33.9072263,23.0354197 42.1329425,20.1727921 Z" id="Combined-Shape" fill="url(#linearGradient-9)" fill-rule="nonzero"></path>
                            </g>
                        </g>
                        <g id="Group-12" transform="translate(190.000000, 55.000000)">
                            <rect id="Rectangle" stroke="#ACCEFF" stroke-width="3" fill="url(#linearGradient-10)" fill-rule="nonzero" x="96" y="0" width="77" height="76" rx="2"></rect>
                            <rect id="Rectangle-Copy-102" stroke="#ACCEFF" stroke-width="3" fill="url(#linearGradient-10)" fill-rule="nonzero" x="96" y="101" width="77" height="76" rx="2"></rect>
                            <path d="M98,212 L170,212 C171.104569,212 172,212.895431 172,214 L172,286 C172,287.104569 171.104569,288 170,288 L121.203881,288 L121.203881,299 L107.350649,288 L98,288 C96.8954305,288 96,287.104569 96,286 L96,214 C96,212.895431 96.8954305,212 98,212 Z" id="Rectangle-Copy-103" stroke="url(#linearGradient-4)" stroke-width="3" fill="url(#linearGradient-4)" fill-rule="nonzero"></path>
                            <rect id="Rectangle" fill="url(#linearGradient-11)" fill-rule="nonzero" x="102" y="218" width="64" height="47" rx="2"></rect>
                            <circle id="Oval" fill="#DBEAFF" fill-rule="nonzero" cx="28" cy="30" r="28"></circle>
                            <circle id="Oval-Copy-16" fill="#DBEAFF" fill-rule="nonzero" cx="28" cy="139" r="28"></circle>
                            <circle id="Oval-Copy-17" fill="url(#linearGradient-4)" fill-rule="nonzero" cx="28" cy="247.5" r="28"></circle>
                            <path d="M147.232577,252.099923 C146.350403,251.3031 145.468229,249.809035 140.959391,249.111822 C136.450525,248.414609 137.234701,246.12375 137.136676,245.92453 C137.136676,245.526119 137.332727,244.032083 137.332727,244.032083 C138.312898,243.13565 138.999021,242.040026 139.48912,240.844791 C140.567317,240.147578 140.959363,240.047968 141.155414,239.251145 C141.155414,239.251145 141.547517,236.163464 140.371266,236.163464 C140.371266,236.163464 139.881194,236.263074 140.077217,235.565832 C140.175243,234.271017 140.175243,233.075782 140.077217,231.880548 C139.979192,231.083725 140.175243,228.792837 138.606946,228.494036 C138.018821,228.394426 137.430724,228.394426 136.842599,228.494036 C136.156476,228.494036 135.470354,227 134.490183,227 L132.333789,227.298801 C131.35359,227.298801 131.451615,227.597603 130.961516,227.697242 C130.471444,227.697242 129.883319,227.796823 129.393219,227.896433 C127.824923,228.294845 127.236826,230.486093 127.1388,231.282916 C127.040774,231.980129 127.040774,234.271017 127.040774,235.466251 C127.236826,236.163464 126.6487,236.163464 126.6487,236.163464 C125.668529,236.063854 126.060603,239.251145 126.060603,239.251145 C126.256655,239.948358 126.060603,240.34677 127.530874,240.944372 C128.020974,242.239246 128.903148,243.23526 129.981345,243.932473 C129.981345,243.932473 130.07937,245.227317 130.07937,246.12375 C129.981345,246.02414 130.569441,248.414638 126.060603,249.111822 C121.551737,249.809064 120.669563,251.303129 119.787389,252.099923 C118.905215,252.996356 119.003241,256.78125 119.003241,256.78125 L148.212748,256.78125 C148.212748,256.78125 148.114751,252.996356 147.232577,252.099923 Z" id="Path" fill="url(#linearGradient-12)"></path>
                            <path d="M153.829943,51.2136374 C152.58539,50.0957441 151.340837,47.9996637 144.97986,47.0215173 C138.618843,46.0433709 139.725144,42.829438 139.586852,42.5499443 C139.586852,41.9909976 139.863437,39.894958 139.863437,39.894958 C141.246242,38.6373179 142.21421,37.1002249 142.905632,35.423385 C144.42673,34.4452386 144.97982,34.3054918 145.256405,33.1875985 C145.256405,33.1875985 145.809576,28.8557724 144.150145,28.8557724 C144.150145,28.8557724 143.458763,28.9955192 143.735307,28.017332 C143.8736,26.2007861 143.8736,24.5239462 143.735307,22.8471064 C143.597015,21.7292131 143.8736,18.5152394 141.661079,18.0960396 C140.831364,17.9562928 140.001689,17.9562928 139.171974,18.0960396 C138.204006,18.0960396 137.236038,16 135.853233,16 L132.811038,16.4191998 C131.428192,16.4191998 131.566485,16.8383995 130.875062,16.9781872 C130.183679,16.9781872 129.353964,17.1178932 128.662541,17.2576401 C126.450021,17.8165867 125.620346,20.8907728 125.482053,22.008666 C125.34376,22.9868124 125.34376,26.2007861 125.34376,27.877626 C125.620346,28.8557724 124.79063,28.8557724 124.79063,28.8557724 C123.407825,28.7160255 123.960955,33.1875985 123.960955,33.1875985 C124.23754,34.1657449 123.960955,34.7246915 126.035183,35.5630911 C126.726606,37.3797186 127.971159,38.7770648 129.492257,39.7552112 C129.492257,39.7552112 129.630549,41.5717979 129.630549,42.829438 C129.492257,42.6896911 130.321932,46.0434117 123.960955,47.0215173 C117.599938,47.9997045 116.355385,50.0957849 115.110832,51.2136374 C113.86628,52.4712775 114.004572,57.78125 114.004572,57.78125 L155.212748,57.78125 C155.212748,57.78125 155.074496,52.4712775 153.829943,51.2136374 Z" id="Path-Copy" fill="url(#linearGradient-4)" opacity="0.243861607"></path>
                            <rect id="Rectangle" fill="url(#linearGradient-7)" fill-rule="nonzero" opacity="0.204450335" x="102" y="268" width="38" height="6" rx="1"></rect>
                            <rect id="Rectangle-Copy-105" fill="url(#linearGradient-7)" fill-rule="nonzero" opacity="0.204450335" x="102" y="277.21875" width="52" height="6" rx="1"></rect>
                            <rect id="Rectangle-Copy-104" fill="url(#linearGradient-7)" fill-rule="nonzero" opacity="0.204450335" x="147" y="268" width="17" height="6" rx="1"></rect>
                            <path d="M139.064899,144.900737 C140.548452,144.44968 144.114212,144.529281 145.025153,142.114712 C144.200727,140.485404 144.142595,140.625103 144.01009,138.34693 C143.986197,135.958987 145.519684,121.683829 137.607425,122.002271 C137.607425,122.002271 134.549508,119.340661 129.096512,122.692131 C122.797929,126.83137 125.823285,140.883925 123.660928,141.527775 C123.660928,141.527775 123.075315,144.035079 129.399665,145.049949 C127.467219,148.751224 118.390643,147.139389 118,156.308677 L150.529293,156.308677 C150.074428,147.474508 140.44433,148.376623 139.064899,144.900737 Z" id="Path" fill="url(#linearGradient-4)" fill-rule="nonzero" opacity="0.242745536"></path>
                            <path d="M28.12,125 C30.59,125 32.604,125.646 34.124,127.014 C35.644,128.344 36.404,130.168 36.404,132.486 C36.404,134.386 35.91,135.944 34.998,137.16 C34.656,137.54 33.554,138.566 31.73,140.162 C31.046,140.694 30.552,141.34 30.21,142.024 C29.83,142.784 29.64,143.62 29.64,144.532 L29.64,145.064 L25.27,145.064 L25.27,144.532 C25.27,143.088 25.498,141.834 26.03,140.808 C26.524,139.782 28.006,138.186 30.476,135.982 L30.932,135.45 C31.616,134.614 31.958,133.702 31.958,132.752 C31.958,131.498 31.578,130.51 30.894,129.788 C30.172,129.066 29.146,128.724 27.854,128.724 C26.22,128.724 25.042,129.218 24.282,130.244 C23.636,131.118 23.332,132.372 23.332,134.006 L19,134.006 C19,131.194 19.798,128.99 21.47,127.394 C23.104,125.798 25.308,125 28.12,125 Z M27.436,146.926 C28.272,146.926 28.994,147.192 29.564,147.724 C30.096,148.256 30.4,148.94 30.4,149.776 C30.4,150.612 30.096,151.334 29.564,151.866 C28.956,152.398 28.272,152.664 27.436,152.664 C26.6,152.664 25.916,152.36 25.384,151.828 C24.776,151.296 24.51,150.612 24.51,149.776 C24.51,148.94 24.776,148.256 25.384,147.724 C25.916,147.192 26.6,146.926 27.436,146.926 Z" id="?" fill="url(#linearGradient-4)"></path>
                            <path d="M28.12,16 C30.59,16 32.604,16.646 34.124,18.014 C35.644,19.344 36.404,21.168 36.404,23.486 C36.404,25.386 35.91,26.944 34.998,28.16 C34.656,28.54 33.554,29.566 31.73,31.162 C31.046,31.694 30.552,32.34 30.21,33.024 C29.83,33.784 29.64,34.62 29.64,35.532 L29.64,36.064 L25.27,36.064 L25.27,35.532 C25.27,34.088 25.498,32.834 26.03,31.808 C26.524,30.782 28.006,29.186 30.476,26.982 L30.932,26.45 C31.616,25.614 31.958,24.702 31.958,23.752 C31.958,22.498 31.578,21.51 30.894,20.788 C30.172,20.066 29.146,19.724 27.854,19.724 C26.22,19.724 25.042,20.218 24.282,21.244 C23.636,22.118 23.332,23.372 23.332,25.006 L19,25.006 C19,22.194 19.798,19.99 21.47,18.394 C23.104,16.798 25.308,16 28.12,16 Z M27.436,37.926 C28.272,37.926 28.994,38.192 29.564,38.724 C30.096,39.256 30.4,39.94 30.4,40.776 C30.4,41.612 30.096,42.334 29.564,42.866 C28.956,43.398 28.272,43.664 27.436,43.664 C26.6,43.664 25.916,43.36 25.384,42.828 C24.776,42.296 24.51,41.612 24.51,40.776 C24.51,39.94 24.776,39.256 25.384,38.724 C25.916,38.192 26.6,37.926 27.436,37.926 Z" id="?-copy" fill="url(#linearGradient-4)"></path>
                            <polyline id="Path-17" stroke="url(#linearGradient-10)" stroke-width="6" fill-rule="nonzero" points="17 244.5 25.5 254 42 238.5"></polyline>
                        </g>
                    </g>
                </g>
            </g>
        </g>
    </g>
</svg>