<?xml version="1.0" encoding="UTF-8"?>
<svg width="400px" height="400px" viewBox="0 0 400 400" version="1.1" xmlns="http://www.w3.org/2000/svg" xmlns:xlink="http://www.w3.org/1999/xlink">
    <!-- Generator: Sketch 52.5 (67469) - http://www.bohemiancoding.com/sketch -->
    <title>门店 Illustration</title>
    <desc>Created with Sketch.</desc>
    <defs>
        <linearGradient x1="50%" y1="100%" x2="50%" y2="0%" id="linearGradient-1">
            <stop stop-color="#9BC5FF" stop-opacity="0.203209918" offset="0%"></stop>
            <stop stop-color="#82B6FF" offset="100%"></stop>
        </linearGradient>
        <linearGradient x1="50%" y1="0.37206823%" x2="50%" y2="99.4861407%" id="linearGradient-2">
            <stop stop-color="#2776FB" offset="0%"></stop>
            <stop stop-color="#2E4BE0" offset="100%"></stop>
        </linearGradient>
        <linearGradient x1="47.4288614%" y1="0%" x2="47.4288614%" y2="100%" id="linearGradient-3">
            <stop stop-color="#2D318E" offset="0%"></stop>
            <stop stop-color="#030021" offset="100%"></stop>
        </linearGradient>
        <linearGradient x1="24.3454448%" y1="17.8682477%" x2="81.4412496%" y2="82.4358491%" id="linearGradient-4">
            <stop stop-color="#F6547C" offset="0%"></stop>
            <stop stop-color="#FF40A7" offset="100%"></stop>
        </linearGradient>
        <linearGradient x1="100%" y1="38.5637262%" x2="0%" y2="38.5637262%" id="linearGradient-5">
            <stop stop-color="#F5D466" offset="0%"></stop>
            <stop stop-color="#FDB174" offset="100%"></stop>
        </linearGradient>
        <linearGradient x1="84.1483171%" y1="72.4806832%" x2="21.8038192%" y2="19.8853074%" id="linearGradient-6">
            <stop stop-color="#0EEBC3" offset="0%"></stop>
            <stop stop-color="#00D4D8" offset="100%"></stop>
        </linearGradient>
        <linearGradient x1="100%" y1="100%" x2="0%" y2="0%" id="linearGradient-7">
            <stop stop-color="#09E3BB" offset="0%"></stop>
            <stop stop-color="#00D4D8" offset="100%"></stop>
        </linearGradient>
        <linearGradient x1="100%" y1="25.8144103%" x2="1.41678792%" y2="25.8144103%" id="linearGradient-8">
            <stop stop-color="#09E3BB" offset="0%"></stop>
            <stop stop-color="#00D4D8" offset="100%"></stop>
        </linearGradient>
        <linearGradient x1="11.7544354%" y1="10.0711261%" x2="86.7676805%" y2="87.3338789%" id="linearGradient-9">
            <stop stop-color="#F6547C" offset="0%"></stop>
            <stop stop-color="#F66964" offset="100%"></stop>
        </linearGradient>
        <linearGradient x1="0%" y1="0%" x2="100%" y2="100%" id="linearGradient-10">
            <stop stop-color="#F6547C" offset="0%"></stop>
            <stop stop-color="#F66964" offset="100%"></stop>
        </linearGradient>
        <linearGradient x1="20.0617355%" y1="4.30612668%" x2="81.2943599%" y2="92.1995912%" id="linearGradient-11">
            <stop stop-color="#09E3BB" offset="0%"></stop>
            <stop stop-color="#00D4D8" offset="100%"></stop>
        </linearGradient>
        <linearGradient x1="0%" y1="100%" x2="57.4521009%" y2="7.53549617%" id="linearGradient-12">
            <stop stop-color="#09E3BB" offset="0%"></stop>
            <stop stop-color="#00D4D8" offset="100%"></stop>
        </linearGradient>
        <linearGradient x1="0%" y1="123.164165%" x2="5.286%" y2="0%" id="linearGradient-13">
            <stop stop-color="#8BBBFF" stop-opacity="0" offset="0%"></stop>
            <stop stop-color="#8BBBFF" offset="100%"></stop>
        </linearGradient>
        <linearGradient x1="0%" y1="103.537659%" x2="0%" y2="0%" id="linearGradient-14">
            <stop stop-color="#8BBBFF" stop-opacity="0" offset="0%"></stop>
            <stop stop-color="#8BBBFF" offset="100%"></stop>
        </linearGradient>
        <linearGradient x1="5.286%" y1="50%" x2="100%" y2="50%" id="linearGradient-15">
            <stop stop-color="#8BBBFF" stop-opacity="0" offset="0%"></stop>
            <stop stop-color="#8BBBFF" offset="100%"></stop>
        </linearGradient>
        <linearGradient x1="64.1164273%" y1="100%" x2="64.1164273%" y2="0%" id="linearGradient-16">
            <stop stop-color="#F4F9FF" offset="0%"></stop>
            <stop stop-color="#B2D2FF" offset="100%"></stop>
        </linearGradient>
        <linearGradient x1="64.1164273%" y1="131.690829%" x2="64.1164273%" y2="0%" id="linearGradient-17">
            <stop stop-color="#F4F9FF" offset="0%"></stop>
            <stop stop-color="#B2D2FF" offset="100%"></stop>
        </linearGradient>
    </defs>
    <g id="Page-1" stroke="none" stroke-width="1" fill="none" fill-rule="evenodd">
        <g id="教育" transform="translate(-890.000000, -1184.000000)">
            <g id="Content-02" transform="translate(0.000000, 998.000000)">
                <g id="智慧门店管理系统" transform="translate(150.000000, 186.000000)">
                    <g id="门店-Illustration" transform="translate(740.000000, 0.000000)">
                        <rect id="Rectangle" fill="#FFFFFF" fill-rule="nonzero" opacity="0.0174386161" x="0" y="0" width="400" height="400"></rect>
                        <g id="底层" fill="url(#linearGradient-1)" fill-opacity="0.5">
                            <circle id="Oval" opacity="0.118326823" cx="200" cy="200" r="200"></circle>
                            <circle id="Oval" opacity="0.224632626" cx="200" cy="200" r="152"></circle>
                            <circle id="Oval" opacity="0.321382068" cx="200" cy="200" r="104"></circle>
                        </g>
                        <g id="门店" transform="translate(53.000000, 79.000000)" fill-rule="nonzero" stroke="#CEE1FF" stroke-width="2">
                            <g id="门店3" transform="translate(168.000000, 132.000000)">
                                <path d="M36,30 C36,13.4314575 49.4314575,0 66,0 C82.5685425,0 96,13.4314575 96,30 L36,30 Z" id="Combined-Shape"></path>
                                <rect id="Rectangle" x="0" y="30" width="132" height="12"></rect>
                                <rect id="Rectangle" x="4" y="42" width="124" height="70"></rect>
                                <rect id="Rectangle" x="28" y="42" width="76" height="70"></rect>
                                <rect id="Rectangle" x="53" y="68" width="26" height="44"></rect>
                                <rect id="Rectangle" x="53" y="68" width="26" height="6"></rect>
                                <rect id="Rectangle-Copy" x="56" y="90" width="1" height="1"></rect>
                                <path d="M66,21 C68.209139,21 70,19.209139 70,17 C70,15.5272407 68.6666667,12.860574 66,9 C63.3333333,12.860574 62,15.5272407 62,17 C62,19.209139 63.790861,21 66,21 Z" id="Oval"></path>
                            </g>
                            <g id="门店2" transform="translate(59.000000, 0.000000)">
                                <rect id="Rectangle-Copy-2" x="9" y="12" width="100" height="232"></rect>
                                <rect id="Rectangle" x="0" y="0" width="118" height="12"></rect>
                                <rect id="Rectangle-Copy-3" x="19" y="24" width="40" height="12"></rect>
                                <rect id="Rectangle-Copy-5" x="19" y="48" width="40" height="12"></rect>
                                <rect id="Rectangle-Copy-7" x="19" y="72" width="40" height="12"></rect>
                                <rect id="Rectangle-Copy-9" x="19" y="96" width="40" height="12"></rect>
                                <rect id="Rectangle-Copy-11" x="19" y="120" width="40" height="12"></rect>
                                <rect id="Rectangle-Copy-13" x="19" y="144" width="40" height="12"></rect>
                                <rect id="Rectangle-Copy-15" x="19" y="168" width="40" height="12"></rect>
                                <rect id="Rectangle-Copy-4" x="59" y="24" width="40" height="12"></rect>
                                <rect id="Rectangle-Copy-6" x="59" y="48" width="40" height="12"></rect>
                                <rect id="Rectangle-Copy-8" x="59" y="72" width="40" height="12"></rect>
                                <rect id="Rectangle-Copy-10" x="59" y="96" width="40" height="12"></rect>
                                <rect id="Rectangle-Copy-12" x="59" y="120" width="40" height="12"></rect>
                                <rect id="Rectangle-Copy-14" x="59" y="144" width="40" height="12"></rect>
                                <rect id="Rectangle-Copy-16" x="59" y="168" width="40" height="12"></rect>
                                <rect id="Rectangle-Copy-17" x="19" y="196" width="26" height="48"></rect>
                                <rect id="Rectangle-Copy-17" x="41" y="216" width="4" height="8"></rect>
                            </g>
                            <g id="门店1" transform="translate(0.000000, 132.000000)">
                                <rect id="Rectangle" x="0" y="10" width="68" height="102"></rect>
                                <rect id="Rectangle" x="33" y="0" width="24" height="10"></rect>
                                <rect id="Rectangle-Copy-18" x="14" y="26" width="14" height="14"></rect>
                                <rect id="Rectangle-Copy-20" x="14" y="54" width="14" height="14"></rect>
                                <rect id="Rectangle-Copy-22" x="14" y="82" width="40" height="30"></rect>
                                <rect id="Rectangle-Copy-22" x="14" y="82" width="40" height="8"></rect>
                                <rect id="Rectangle-Copy-19" x="40" y="26" width="14" height="14"></rect>
                                <rect id="Rectangle-Copy-21" x="40" y="54" width="14" height="14"></rect>
                            </g>
                        </g>
                        <g id="电脑" transform="translate(111.000000, 146.000000)" fill-rule="nonzero">
                            <path d="M16,0 L168,0 C170.209139,-4.05812251e-16 172,1.790861 172,4 L172,100 L12,100 L12,4 C12,1.790861 13.790861,4.05812251e-16 16,0 Z" id="Rectangle" stroke="url(#linearGradient-2)" stroke-width="2" fill="url(#linearGradient-2)"></path>
                            <path d="M1,100 L183,100 C183.552285,100 184,100.447715 184,101 L184,106 C184,108.209139 182.209139,110 180,110 L4,110 C1.790861,110 2.705415e-16,108.209139 0,106 L0,101 C-6.76353751e-17,100.447715 0.44771525,100 1,100 Z" id="Rectangle-Copy-34" stroke="url(#linearGradient-2)" stroke-width="2" fill="url(#linearGradient-2)"></path>
                            <path d="M72,99 L112,99 L112,101 C112,103.209139 110.209139,105 108,105 L76,105 C73.790861,105 72,103.209139 72,101 L72,99 Z" id="Rectangle-Copy-34" fill="url(#linearGradient-3)" opacity="0.397763207"></path>
                            <g id="浏览器" transform="translate(18.000000, 6.000000)">
                                <rect id="Rectangle" fill="#F7FAFF" x="0" y="0" width="148" height="88" rx="2"></rect>
                                <path d="M2,0 L146,0 C147.104569,-2.02906125e-16 148,0.8954305 148,2 L148,7 L0,7 L0,2 C-1.3527075e-16,0.8954305 0.8954305,2.02906125e-16 2,0 Z" id="Rectangle" fill="#CEE1FF"></path>
                                <circle id="Oval" fill="url(#linearGradient-4)" cx="4.5" cy="3.5" r="1.5"></circle>
                                <circle id="Oval-Copy-2" fill="url(#linearGradient-5)" cx="9.5" cy="3.5" r="1.5"></circle>
                                <circle id="Oval-Copy-3" fill="url(#linearGradient-6)" cx="14.5" cy="3.5" r="1.5"></circle>
                            </g>
                            <g id="数据" transform="translate(26.000000, 21.000000)">
                                <path d="M2,62 L50,62 L50,64 L2,64 L0,64 L0,34 L2,34 L2,62 Z" id="Combined-Shape" fill="url(#linearGradient-7)"></path>
                                <path d="M35.5979797,43 L32,43 L32,39 L42,39 L42,43 L42,49 L38,49 L38,46.254834 L29.627417,54.627417 L26.7989899,51.7989899 L21.1421356,46.1421356 L9.82842712,57.4558441 L7,54.627417 L18.3137085,43.3137085 L21.1421356,40.4852814 L29.627417,48.9705627 L35.5979797,43 Z" id="Combined-Shape" fill="url(#linearGradient-8)"></path>
                                <path d="M0,0 L58,0 L58,4 L0,4 L0,0 Z M0,8 L30,8 L30,12 L0,12 L0,8 Z M0,24 L30,24 L30,28 L0,28 L0,24 Z M0,16 L42,16 L42,20 L0,20 L0,16 Z" id="Combined-Shape" fill="url(#linearGradient-5)"></path>
                                <circle id="Oval" stroke="url(#linearGradient-9)" stroke-width="2" cx="81" cy="14" r="13"></circle>
                                <path d="M94,13 L81,13 L81,0 C88.1797017,0 94,5.82029825 94,13 Z" id="Combined-Shape" fill="url(#linearGradient-10)"></path>
                                <circle id="Oval-Copy-4" stroke="url(#linearGradient-11)" stroke-width="2" cx="119" cy="14" r="13"></circle>
                                <path d="M127.444738,22.1292394 L116.182447,28.6267152 L116.182447,15.6267152 C120.995324,15.6267152 125.197336,18.2421385 127.444738,22.1292394 Z" id="Combined-Shape" fill="url(#linearGradient-12)" transform="translate(121.813592, 22.126715) rotate(-240.000000) translate(-121.813592, -22.126715) "></path>
                                <rect id="Rectangle" stroke="url(#linearGradient-2)" stroke-width="2" x="68" y="40" width="64" height="23"></rect>
                                <rect id="Rectangle" fill="#296BF4" x="74" y="45" width="52" height="4"></rect>
                                <rect id="Rectangle-Copy-37" fill="#296BF4" x="74" y="53" width="27" height="4"></rect>
                            </g>
                        </g>
                        <g id="line" transform="translate(36.000000, 29.000000)">
                            <path d="M304,211 C304,211.552285 303.552285,212 303,212 C302.447715,212 302,211.552285 302,211 L302,150 C302,149.447715 302.447715,149 303,149 C303.552285,149 304,149.447715 304,150 L304,211 Z" id="Path-3" fill="url(#linearGradient-13)" fill-rule="nonzero" opacity="0.696916853"></path>
                            <path d="M2,226 C2,226.552285 1.55228475,227 1,227 C0.44771525,227 0,226.552285 0,226 L0,165 C0,164.447715 0.44771525,164 1,164 C1.55228475,164 2,164.447715 2,165 L2,226 Z" id="Path-3-Copy" fill="url(#linearGradient-13)" fill-rule="nonzero" opacity="0.696916853"></path>
                            <path d="M206,117 L206,95.5945946 C206,91.1763166 209.581722,87.5945946 214,87.5945946 L226,87.5945946 C230.418278,87.5945946 234,84.0128726 234,79.5945946 L234,49" id="Path-8" stroke="url(#linearGradient-13)" stroke-width="3" opacity="0.7" stroke-linecap="round" stroke-linejoin="round"></path>
                            <path d="M276.5,142 L276.5,116.5 C276.5,114.290861 274.709139,112.5 272.5,112.5 L263,112.5 C260.790861,112.5 259,110.709139 259,108.5 L259,81" id="Path-9" stroke="url(#linearGradient-14)" stroke-width="3" opacity="0.329627046" stroke-linecap="round" stroke-linejoin="round"></path>
                            <path d="M116.5,50 L116.5,29.8196721 C116.5,27.6105331 114.709139,25.8196721 112.5,25.8196721 L105,25.8196721 C102.790861,25.8196721 101,24.0288111 101,21.8196721 L101,0" id="Path-9-Copy" stroke="url(#linearGradient-14)" stroke-width="3" opacity="0.329627046" stroke-linecap="round" stroke-linejoin="round"></path>
                            <path d="M-23,154 L35.8049793,154 C40.2232573,154 43.8049793,150.418278 43.8049793,146 L43.8049793,130 C43.8049793,125.581722 47.3867013,122 51.8049793,122 L117,122" id="Path-2" stroke="url(#linearGradient-15)" stroke-width="3" opacity="0.7" stroke-linecap="round" stroke-linejoin="round" transform="translate(47.000000, 138.000000) rotate(-90.000000) translate(-47.000000, -138.000000) "></path>
                        </g>
                        <g id="1" transform="translate(59.000000, 89.000000)">
                            <circle id="Oval" fill="url(#linearGradient-2)" cx="8" cy="8" r="8"></circle>
                            <circle id="Oval" fill="#FFFFFF" cx="8" cy="8" r="4"></circle>
                        </g>
                        <g id="2" transform="translate(133.000000, 23.000000)">
                            <circle id="Oval" fill="url(#linearGradient-2)" cx="4" cy="4" r="4"></circle>
                            <circle id="Oval" fill="#FFFFFF" cx="4" cy="4" r="2"></circle>
                        </g>
                        <g id="3" transform="translate(335.000000, 173.000000)">
                            <circle id="Oval" fill="url(#linearGradient-2)" cx="4" cy="4" r="4"></circle>
                            <circle id="Oval" fill="#FFFFFF" cx="4" cy="4" r="2"></circle>
                        </g>
                        <g id="icon-门店" transform="translate(242.000000, 33.000000)" fill-rule="nonzero">
                            <circle id="Oval" fill="url(#linearGradient-2)" cx="28" cy="28" r="28"></circle>
                            <g id="Group-10" transform="translate(13.000000, 15.000000)">
                                <path d="M2,9 L28,9 L28,23 C28,24.1045695 27.1045695,25 26,25 L4,25 C2.8954305,25 2,24.1045695 2,23 L2,9 Z" id="Rectangle" stroke="url(#linearGradient-16)" stroke-width="2" fill="url(#linearGradient-16)"></path>
                                <rect id="Rectangle" fill="url(#linearGradient-17)" x="12" y="17" width="6" height="8"></rect>
                                <path d="M1.77635684e-15,9 C1.77635684e-15,7.15905083 1.33333333,4.15905083 4,2.30926389e-14 L26,2.30926389e-14 C28.6666667,4.15905083 30,7.15905083 30,9 C30,11.7614237 27.7614237,14 25,14 C22.2385763,14 20,11.7614237 20,9 C20,11.7614237 17.7614237,14 15,14 C12.2385763,14 10,11.7614237 10,9 C10,11.7614237 7.76142375,14 5,14 C2.23857625,14 1.77635684e-15,11.7614237 1.77635684e-15,9 Z" id="Path" stroke="url(#linearGradient-16)" stroke-width="2" fill="url(#linearGradient-16)" stroke-linejoin="round"></path>
                            </g>
                        </g>
                    </g>
                </g>
            </g>
        </g>
    </g>
</svg>