<?xml version="1.0" encoding="UTF-8"?>
<svg width="486px" height="314px" viewBox="0 0 486 314" version="1.1" xmlns="http://www.w3.org/2000/svg" xmlns:xlink="http://www.w3.org/1999/xlink">
    <!-- Generator: Sketch 52.5 (67469) - http://www.bohemiancoding.com/sketch -->
    <title>教育</title>
    <desc>Created with Sketch.</desc>
    <defs>
        <linearGradient x1="100%" y1="93.679623%" x2="2.3031495%" y2="6.50988382%" id="linearGradient-1">
            <stop stop-color="#5D4DD8" offset="0%"></stop>
            <stop stop-color="#60137F" offset="100%"></stop>
        </linearGradient>
        <linearGradient x1="0%" y1="14.70858%" x2="100%" y2="78.4171548%" id="linearGradient-2">
            <stop stop-color="#7034D2" offset="0%"></stop>
            <stop stop-color="#2B2E87" offset="100%"></stop>
        </linearGradient>
        <linearGradient x1="70.8084572%" y1="70.884472%" x2="35.2926286%" y2="24.0675387%" id="linearGradient-3">
            <stop stop-color="#5C61F8" offset="0%"></stop>
            <stop stop-color="#60147F" offset="100%"></stop>
        </linearGradient>
        <linearGradient x1="54.66241%" y1="86.6885331%" x2="32.1122082%" y2="24.584226%" id="linearGradient-4">
            <stop stop-color="#F9AF40" offset="0%"></stop>
            <stop stop-color="#F632AA" offset="100%"></stop>
        </linearGradient>
        <linearGradient x1="0%" y1="8.85596568%" x2="100%" y2="100%" id="linearGradient-5">
            <stop stop-color="#D2335F" offset="0%"></stop>
            <stop stop-color="#732B88" offset="100%"></stop>
        </linearGradient>
        <linearGradient x1="2.70277796%" y1="0%" x2="98.4559607%" y2="42.5854771%" id="linearGradient-6">
            <stop stop-color="#1425AF" offset="0%"></stop>
            <stop stop-color="#3A7FFF" offset="100%"></stop>
        </linearGradient>
        <linearGradient x1="98.6351726%" y1="99.2010978%" x2="97.5648795%" y2="43.3898501%" id="linearGradient-7">
            <stop stop-color="#1425AF" offset="0%"></stop>
            <stop stop-color="#3A7FFF" stop-opacity="0" offset="100%"></stop>
        </linearGradient>
        <path d="M234,156 L234,83.1798106 C234,78.8176252 231.632804,74.7990137 227.817509,72.6842594 L116.162079,10.7955205 L99,21 L99,7.79805784 C99,7.11828085 99.173242,6.44971812 99.5033709,5.85548612 C99.6821648,5.53365716 99.8987956,5.24613803 100.144625,4.99539693 C100.957762,4.16601281 102.459011,3.17657035 104.648372,2.02706954 L104.67651,2.0019267 L106.095431,1.24874959 C107.29214,0.613525412 108.729058,0.627254228 109.91341,1.28522789 L232.827715,69.5709529 C236.637297,71.6873874 239,75.7028347 239,80.0608402 L239,166.635238 C239,168.04029 238.262805,169.342317 237.057983,170.06521 L234.504347,171.597392 C234.34404,171.7038 234.175973,171.805502 234.002829,171.902371 C232.998957,172.464011 231.824432,172.863209 231.002283,173.075336 C230.681976,173.157981 230.346122,173.201942 230,173.201942 C229.320223,173.201942 228.65166,173.0287 228.057428,172.698571 L216,166 L234,156 Z" id="path-8"></path>
        <linearGradient x1="0%" y1="56.6854094%" x2="100%" y2="43.7428994%" id="linearGradient-9">
            <stop stop-color="#0B0880" offset="0%"></stop>
            <stop stop-color="#1943A0" offset="100%"></stop>
        </linearGradient>
        <linearGradient x1="100%" y1="43.0605019%" x2="0%" y2="15.8115689%" id="linearGradient-10">
            <stop stop-color="#1425AF" offset="0%"></stop>
            <stop stop-color="#2149CC" offset="100%"></stop>
        </linearGradient>
        <linearGradient x1="98.437303%" y1="57.0370045%" x2="2.0595338%" y2="41.7668454%" id="linearGradient-11">
            <stop stop-color="#214ACE" offset="0%"></stop>
            <stop stop-color="#000078" offset="100%"></stop>
            <stop stop-color="#000078" offset="100%"></stop>
        </linearGradient>
        <linearGradient x1="206.814662%" y1="0%" x2="-16.4062413%" y2="50%" id="linearGradient-12">
            <stop stop-color="#2D318E" offset="0%"></stop>
            <stop stop-color="#030021" offset="100%"></stop>
        </linearGradient>
        <linearGradient x1="100%" y1="44.9106017%" x2="0%" y2="55.4408436%" id="linearGradient-13">
            <stop stop-color="#F9AA70" offset="0%"></stop>
            <stop stop-color="#F76E6D" offset="100%"></stop>
        </linearGradient>
        <filter x="-7.7%" y="-6.2%" width="115.4%" height="112.4%" filterUnits="objectBoundingBox" id="filter-14">
            <feGaussianBlur stdDeviation="3" in="SourceGraphic"></feGaussianBlur>
        </filter>
        <path d="M6.17228483,83.4290471 L111.057428,141.698571 C112.988563,142.771424 115.423776,142.075649 116.496629,140.144514 C116.826758,139.550282 117,138.881719 117,138.201942 L117,72.0608402 C117,67.7028347 114.637297,63.6873874 110.827715,61.5709529 L5.94257172,3.30142874 C4.01143679,2.228576 1.57622363,2.92435119 0.503370896,4.85548612 C0.173242003,5.44971812 1.49130726e-13,6.11828085 1.49213975e-13,6.79805784 L1.42108547e-13,72.9391598 C1.42642249e-13,77.2971653 2.3627026,81.3126126 6.17228483,83.4290471 Z" id="path-15"></path>
        <filter x="-13.7%" y="-7.7%" width="127.4%" height="118.2%" filterUnits="objectBoundingBox" id="filter-16">
            <feOffset dx="0" dy="2" in="SourceAlpha" result="shadowOffsetOuter1"></feOffset>
            <feGaussianBlur stdDeviation="5" in="shadowOffsetOuter1" result="shadowBlurOuter1"></feGaussianBlur>
            <feColorMatrix values="0 0 0 0 1   0 0 0 0 1   0 0 0 0 1  0 0 0 0.401324728 0" type="matrix" in="shadowBlurOuter1"></feColorMatrix>
        </filter>
        <linearGradient x1="-55.3747166%" y1="28.791153%" x2="100%" y2="63.7084957%" id="linearGradient-17">
            <stop stop-color="#1425AF" offset="0%"></stop>
            <stop stop-color="#3A7FFF" offset="100%"></stop>
        </linearGradient>
        <linearGradient x1="113.604531%" y1="70.3339206%" x2="-27.8220917%" y2="25.9745664%" id="linearGradient-18">
            <stop stop-color="#40CCD3" offset="0%"></stop>
            <stop stop-color="#08AD8B" offset="100%"></stop>
        </linearGradient>
        <linearGradient x1="100%" y1="85.9588718%" x2="0%" y2="21.0959731%" id="linearGradient-19">
            <stop stop-color="#FAD961" offset="0%"></stop>
            <stop stop-color="#F76B1C" offset="100%"></stop>
        </linearGradient>
        <linearGradient x1="100%" y1="40.7428513%" x2="0%" y2="19.0129451%" id="linearGradient-20">
            <stop stop-color="#1425AF" offset="0%"></stop>
            <stop stop-color="#3A7FFF" offset="100%"></stop>
        </linearGradient>
        <linearGradient x1="2.1877164%" y1="43.5994909%" x2="97.870094%" y2="56.5198092%" id="linearGradient-21">
            <stop stop-color="#1425AF" offset="0%"></stop>
            <stop stop-color="#3A7FFF" offset="100%"></stop>
        </linearGradient>
        <linearGradient x1="38.0430044%" y1="97.6018685%" x2="22.6197475%" y2="19.8603287%" id="linearGradient-22">
            <stop stop-color="#F4F9FF" offset="0%"></stop>
            <stop stop-color="#B2D2FF" offset="100%"></stop>
        </linearGradient>
        <linearGradient x1="77.2762968%" y1="54.0833648%" x2="11.5861286%" y2="50%" id="linearGradient-23">
            <stop stop-color="#F4F9FF" offset="0%"></stop>
            <stop stop-color="#F0F7FF" offset="15.1053742%"></stop>
            <stop stop-color="#B2D2FF" offset="100%"></stop>
        </linearGradient>
        <linearGradient x1="82.4929217%" y1="9.091%" x2="23.2548852%" y2="84.257%" id="linearGradient-24">
            <stop stop-color="#1425AF" offset="0%"></stop>
            <stop stop-color="#3A7FFF" offset="100%"></stop>
        </linearGradient>
        <linearGradient x1="45.9099533%" y1="88.1744307%" x2="-9.44669507%" y2="60.7260273%" id="linearGradient-25">
            <stop stop-color="#F4F9FF" offset="0%"></stop>
            <stop stop-color="#B2D2FF" offset="100%"></stop>
        </linearGradient>
        <linearGradient x1="66.1829105%" y1="31.2547631%" x2="0%" y2="59.1507423%" id="linearGradient-26">
            <stop stop-color="#F4F9FF" offset="0%"></stop>
            <stop stop-color="#B2D2FF" offset="100%"></stop>
        </linearGradient>
        <linearGradient x1="100%" y1="33.4271323%" x2="1.40116514%" y2="65.9651224%" id="linearGradient-27">
            <stop stop-color="#FAD961" offset="0%"></stop>
            <stop stop-color="#F76B1C" offset="100%"></stop>
        </linearGradient>
        <linearGradient x1="83.6968329%" y1="80.8308832%" x2="3.42451593%" y2="5.41130982%" id="linearGradient-28">
            <stop stop-color="#1425AF" offset="0%"></stop>
            <stop stop-color="#254DD3" offset="100%"></stop>
        </linearGradient>
        <linearGradient x1="64.1164273%" y1="100%" x2="64.1164273%" y2="0%" id="linearGradient-29">
            <stop stop-color="#F4F9FF" offset="0%"></stop>
            <stop stop-color="#B2D2FF" offset="100%"></stop>
        </linearGradient>
        <linearGradient x1="0%" y1="100%" x2="100%" y2="15.3270421%" id="linearGradient-30">
            <stop stop-color="#F5515F" offset="0%"></stop>
            <stop stop-color="#9F041B" offset="100%"></stop>
        </linearGradient>
        <linearGradient x1="100%" y1="41.2760257%" x2="0%" y2="64.2907638%" id="linearGradient-31">
            <stop stop-color="#FAD961" offset="0%"></stop>
            <stop stop-color="#F76B1C" offset="100%"></stop>
        </linearGradient>
        <linearGradient x1="100%" y1="56.9344923%" x2="0%" y2="55.0568795%" id="linearGradient-32">
            <stop stop-color="#FAD961" offset="0%"></stop>
            <stop stop-color="#F76B1C" offset="100%"></stop>
        </linearGradient>
        <linearGradient x1="86.6647443%" y1="11.3103226%" x2="11.1406755%" y2="85.7215%" id="linearGradient-33">
            <stop stop-color="#FAD961" offset="0%"></stop>
            <stop stop-color="#F76B1C" offset="100%"></stop>
        </linearGradient>
        <linearGradient x1="0%" y1="60.2327298%" x2="100%" y2="42.3647388%" id="linearGradient-34">
            <stop stop-color="#1425AF" offset="0%"></stop>
            <stop stop-color="#3A7FFF" offset="100%"></stop>
        </linearGradient>
        <linearGradient x1="0%" y1="59.9055316%" x2="100%" y2="59.9055316%" id="linearGradient-35">
            <stop stop-color="#1425AF" offset="0%"></stop>
            <stop stop-color="#3A7FFF" offset="100%"></stop>
        </linearGradient>
        <linearGradient x1="15.952228%" y1="94.1488454%" x2="100%" y2="24.4635181%" id="linearGradient-36">
            <stop stop-color="#1425AF" offset="0%"></stop>
            <stop stop-color="#3471F2" offset="100%"></stop>
            <stop stop-color="#3A7FFF" offset="100%"></stop>
        </linearGradient>
        <linearGradient x1="100%" y1="69.8387886%" x2="0%" y2="38.3188939%" id="linearGradient-37">
            <stop stop-color="#28959A" offset="0%"></stop>
            <stop stop-color="#059679" offset="100%"></stop>
        </linearGradient>
        <linearGradient x1="-41.3128514%" y1="24.4284723%" x2="100%" y2="61.6793113%" id="linearGradient-38">
            <stop stop-color="#40CCD3" offset="0%"></stop>
            <stop stop-color="#08AD8B" offset="100%"></stop>
        </linearGradient>
        <linearGradient x1="64.1164273%" y1="100%" x2="64.1164273%" y2="0%" id="linearGradient-39">
            <stop stop-color="#F4F9FF" offset="0%"></stop>
            <stop stop-color="#B2F4FF" offset="100%"></stop>
        </linearGradient>
    </defs>
    <g id="Page-1" stroke="none" stroke-width="1" fill="none" fill-rule="evenodd">
        <g id="教育" transform="translate(-773.000000, -154.000000)">
            <g id="TOP">
                <g id="Illustration">
                    <g id="教育" transform="translate(773.000000, 154.000000)">
                        <g id="书4" transform="translate(43.000000, 24.000000)" fill-rule="nonzero">
                            <polygon id="Path-55" fill="#601481" points="3 54 5 54 5 70 3 70"></polygon>
                            <path d="M151,39.1111111 L151,51.1333333 L63,101 L5,69 L5,55 L63,88 L151,39.1111111 Z M153,38 L153,50 L153,38 Z" id="Combined-Shape" fill="#EEEEEE"></path>
                            <polygon id="Path-58" fill="url(#linearGradient-1)" points="63 102 63 100 0 65 0 67"></polygon>
                            <path d="M3,54.6666667 L3,68.6666667 L63,102 L63,105 L1.14352972e-13,70 L1.14352972e-13,67 L-1.03321796e-12,53 L1.14352972e-13,50 L63,85 L63,88 L3,54.6666667 Z" id="Combined-Shape" fill="url(#linearGradient-2)"></path>
                            <polygon id="Path-51" fill="url(#linearGradient-3)" points="-9.9475983e-14 50 63 85 153 35 90 -2.84217094e-14"></polygon>
                            <polygon id="Path-52" fill="#2B2E87" points="63 88 63 85 153 35 153 38"></polygon>
                            <polygon id="Path-54" fill="#2B2E87" points="63 105 153 55 153 52 63 102"></polygon>
                            <polygon id="Path-59" fill="#5D54E3" points="63 100 63 102 153 52 150.998528 51.1119288"></polygon>
                        </g>
                        <g id="书3" transform="translate(43.000000, 0.000000)" fill-rule="nonzero">
                            <polygon id="Path-55" fill="#F632AA" points="3 54 5 54 5 70 3 70"></polygon>
                            <path d="M151,39.1111111 L151,51.1333333 L63,101 L5,69 L5,55 L63,88 L151,39.1111111 Z M153,38 L153,50 L153,38 Z" id="Combined-Shape" fill="#EEEEEE"></path>
                            <polygon id="Path-59" fill="#F8AF3F" points="63 100 63 102 153 52 150.998528 51.1119288"></polygon>
                            <polygon id="Path-58" fill="url(#linearGradient-4)" points="63 102 63 100 0 65 0 67"></polygon>
                            <path d="M3,54.6666667 L3,68.6666667 L63,102 L63,105 L1.14352972e-13,70 L1.14352972e-13,67 L-1.03321796e-12,53 L1.14352972e-13,50 L63,85 L63,88 L3,54.6666667 Z" id="Combined-Shape" fill="url(#linearGradient-5)"></path>
                            <polygon id="Path-51" fill="url(#linearGradient-4)" points="-9.9475983e-14 50 63 85 153 35 90 -2.84217094e-14"></polygon>
                            <polygon id="Path-52" fill="#812C82" points="63 88 63 85 153 35 153 38"></polygon>
                            <polygon id="Path-54" fill="#812C82" points="63 105 153 55 153 52 63 102"></polygon>
                        </g>
                        <g id="Mac" transform="translate(133.000000, 0.000000)">
                            <g id="Combined-Shape" fill-rule="nonzero">
                                <use fill="url(#linearGradient-6)" xlink:href="#path-8"></use>
                                <use fill="url(#linearGradient-7)" xlink:href="#path-8"></use>
                            </g>
                            <path d="M228.057428,172.698571 L105.172285,104.429047 C101.362703,102.312613 99,98.2971653 99,93.9391598 L99,7.80294975 C99,5.59381075 100.790861,3.80294975 103,3.80294975 C103.680629,3.80294975 104.350001,3.97662603 104.94477,4.30754265 L227.834309,72.6806527 C231.640199,74.7981686 234,78.8115697 234,83.1668739 L234,169.201942 C234,171.411081 232.209139,173.201942 230,173.201942 C229.320223,173.201942 228.65166,173.0287 228.057428,172.698571 Z" id="Path-62" fill="url(#linearGradient-9)" fill-rule="nonzero"></path>
                            <path d="M169,47 C170.104569,47 170.834931,46.1045695 170.631308,45 C170.427685,43.8954305 169.367186,43 168.262616,43 C167.158047,43 166.427685,43.8954305 166.631308,45 C166.834931,46.1045695 167.895431,47 169,47 Z" id="Oval" fill="#86FFF2" fill-rule="nonzero"></path>
                            <path d="M4.24,160.501685 L4.23578349,160.5 C4.23766571,158.438136 4.23766571,156.939606 4.23578349,156.004409 C4.23445546,155.344565 4.39666657,154.675203 4.73987501,154.057428 C5.10263071,153.404468 5.64097213,152.866127 6.29393239,152.503371 L18,146 L18,166 L129.172285,227.76238 C132.796555,229.775864 137.203445,229.775864 140.827715,227.76238 L216,186 L216,166 L227.706068,172.503371 C228.359028,172.866127 228.897369,173.404468 229.260125,174.057428 C229.603004,174.674611 229.765233,175.34328 229.76422,176.002509 C229.762782,176.938155 229.762782,178.270651 229.76422,180 L229.76,180.002146 L229.76,182.001942 C229.76,183.454611 228.972432,184.793093 227.702572,185.498571 L140.827715,233.76238 C137.203445,235.775864 132.796555,235.775864 129.172285,233.76238 L6.29742828,165.498571 C5.02756753,164.793093 4.24,163.454611 4.24,162.001942 L4.24,160.501685 Z" id="Combined-Shape" fill="url(#linearGradient-10)" fill-rule="nonzero"></path>
                            <path d="M140.827715,227.76238 L227.706068,179.496629 C229.637203,178.423776 230.332978,175.988563 229.260125,174.057428 C228.897369,173.404468 228.359028,172.866127 227.706068,172.503371 L105.313358,104.507421 C101.387065,102.326147 96.6129349,102.326147 92.6866419,104.507421 L6.29393239,152.503371 C4.36279746,153.576224 3.66702227,156.011437 4.73987501,157.942572 C5.10263071,158.595532 5.64097213,159.133873 6.29393239,159.496629 L129.172285,227.76238 C132.796555,229.775864 137.203445,229.775864 140.827715,227.76238 Z" id="Path-61" fill="url(#linearGradient-11)" fill-rule="nonzero"></path>
                            <g id="键盘" opacity="0.597888765" transform="translate(57.000000, 115.000000)">
                                <g id="Group" transform="translate(30.000000, 2.558824)" fill="url(#linearGradient-12)">
                                    <path d="M102.319149,63.1389706 L107.87234,66.3375 C108.191489,66.5294118 108.829787,66.5294118 109.212766,66.2735294 L114.574468,63.2029412 C114.957447,62.9470588 115.021277,62.6272059 114.638298,62.4352941 L109.085106,59.2367647 C108.765957,59.0448529 108.12766,59.0448529 107.744681,59.3007353 L102.382979,62.3713235 C102,62.5632353 101.93617,62.9470588 102.319149,63.1389706 Z" id="Path"></path>
                                    <path d="M94.7234043,58.725 L100.276596,61.9235294 C100.595745,62.1154412 101.234043,62.1154412 101.617021,61.8595588 L106.978723,58.7889706 C107.361702,58.5330882 107.425532,58.2132353 107.106383,58.0213235 L101.553191,54.8227941 C101.234043,54.6308824 100.595745,54.6308824 100.212766,54.8867647 L94.8510638,57.9573529 C94.4680851,58.2132353 94.4042553,58.5330882 94.7234043,58.725 Z" id="Path"></path>
                                    <path d="M87.1914894,54.375 L92.7446809,57.5735294 C93.0638298,57.7654412 93.7021277,57.7654412 94.0851064,57.5095588 L99.4468085,54.4389706 C99.8297872,54.1830882 99.893617,53.8632353 99.5106383,53.6713235 L93.9574468,50.4727941 C93.6382979,50.2808824 93,50.2808824 92.6170213,50.5367647 L87.2553191,53.6073529 C86.8723404,53.8632353 86.8723404,54.1830882 87.1914894,54.375 Z" id="Path"></path>
                                    <path d="M79.6595745,50.025 L85.212766,53.2235294 C85.5319149,53.4154412 86.1702128,53.4154412 86.5531915,53.1595588 L91.9148936,50.0889706 C92.2978723,49.8330882 92.3617021,49.5132353 91.9787234,49.3213235 L86.4255319,46.1227941 C86.106383,45.9308824 85.4680851,45.9308824 85.0851064,46.1867647 L79.7234043,49.2573529 C79.3404255,49.4492647 79.2765957,49.8330882 79.6595745,50.025 Z" id="Path"></path>
                                    <path d="M72.1276596,45.6110294 L77.6808511,48.8095588 C78,49.0014706 78.6382979,49.0014706 79.0212766,48.7455882 L84.3829787,45.675 C84.7659574,45.4191176 84.8297872,45.0992647 84.4468085,44.9073529 L78.893617,41.7088235 C78.5744681,41.5169118 77.9361702,41.5169118 77.5531915,41.7727941 L72.1914894,44.8433824 C71.8085106,45.0992647 71.7446809,45.4191176 72.1276596,45.6110294 Z" id="Path"></path>
                                    <path d="M64.5319149,41.2610294 L70.0851064,44.4595588 C70.4042553,44.6514706 71.0425532,44.6514706 71.4255319,44.3955882 L76.787234,41.325 C77.1702128,41.0691176 77.2340426,40.7492647 76.8510638,40.5573529 L71.2978723,37.3588235 C70.9787234,37.1669118 70.3404255,37.1669118 69.9574468,37.4227941 L64.5957447,40.4933824 C64.2765957,40.7492647 64.212766,41.0691176 64.5319149,41.2610294 Z" id="Path"></path>
                                    <path d="M57,36.9110294 L62.5531915,40.1095588 C62.8723404,40.3014706 63.5106383,40.3014706 63.893617,40.0455882 L69.2553191,36.975 C69.6382979,36.7191176 69.7021277,36.3992647 69.3191489,36.2073529 L63.7659574,33.0088235 C63.4468085,32.8169118 62.8085106,32.8169118 62.4255319,33.0727941 L57.0638298,36.1433824 C56.6808511,36.3352941 56.6808511,36.7191176 57,36.9110294 Z" id="Path"></path>
                                    <path d="M49.4680851,32.4970588 L55.0212766,35.6955882 C55.3404255,35.8875 55.9787234,35.8875 56.3617021,35.6316176 L61.7234043,32.5610294 C62.106383,32.3051471 62.1702128,31.9852941 61.787234,31.7933824 L56.2340426,28.5948529 C55.9148936,28.4029412 55.2765957,28.4029412 54.893617,28.6588235 L49.5319149,31.7294118 C49.1489362,31.9852941 49.0851064,32.3051471 49.4680851,32.4970588 Z" id="Path"></path>
                                    <path d="M41.8723404,28.1470588 L47.4255319,31.3455882 C47.7446809,31.5375 48.3829787,31.5375 48.7659574,31.2816176 L54.1276596,28.2110294 C54.5106383,27.9551471 54.5744681,27.6352941 54.1914894,27.4433824 L48.6382979,24.2448529 C48.3191489,24.0529412 47.6808511,24.0529412 47.2978723,24.3088235 L41.9361702,27.3794118 C41.6170213,27.6352941 41.5531915,27.9551471 41.8723404,28.1470588 Z" id="Path"></path>
                                    <path d="M34.3404255,23.7970588 L39.893617,26.9955882 C40.212766,27.1875 40.8510638,27.1875 41.2340426,26.9316176 L46.5957447,23.8610294 C46.9787234,23.6051471 47.0425532,23.2852941 46.6595745,23.0933824 L41.106383,19.8948529 C40.787234,19.7029412 40.1489362,19.7029412 39.7659574,19.9588235 L34.4042553,23.0294118 C34.0212766,23.2213235 34.0212766,23.6051471 34.3404255,23.7970588 Z" id="Path"></path>
                                    <path d="M26.8085106,19.4470588 L32.3617021,22.6455882 C32.6808511,22.8375 33.3191489,22.8375 33.7021277,22.5816176 L39.0638298,19.5110294 C39.4468085,19.2551471 39.5106383,18.9352941 39.1276596,18.7433824 L33.5744681,15.5448529 C33.2553191,15.3529412 32.6170213,15.3529412 32.2340426,15.6088235 L26.8723404,18.6794118 C26.4893617,18.8713235 26.4255319,19.1911765 26.8085106,19.4470588 Z" id="Path"></path>
                                    <path d="M19.212766,15.0330882 L24.7659574,18.2316176 C25.0851064,18.4235294 25.7234043,18.4235294 26.106383,18.1676471 L31.4680851,15.0970588 C31.8510638,14.8411765 31.9148936,14.5213235 31.5319149,14.3294118 L25.9787234,11.1308824 C25.6595745,10.9389706 25.0212766,10.9389706 24.6382979,11.1948529 L19.2765957,14.2654412 C18.9574468,14.5213235 18.893617,14.8411765 19.212766,15.0330882 Z" id="Path"></path>
                                    <path d="M11.6808511,10.6830882 L17.2340426,13.8816176 C17.5531915,14.0735294 18.1914894,14.0735294 18.5744681,13.8176471 L23.9361702,10.7470588 C24.3191489,10.4911765 24.3829787,10.1713235 24,9.97941176 L18.4468085,6.78088235 C18.1276596,6.58897059 17.4893617,6.58897059 17.106383,6.84485294 L11.7446809,9.91544118 C11.3617021,10.1073529 11.3617021,10.4911765 11.6808511,10.6830882 Z" id="Path"></path>
                                    <path d="M0.70212766,4.35 L9.70212766,9.53161765 C10.0212766,9.72352941 10.6595745,9.72352941 11.0425532,9.46764706 L16.4042553,6.39705882 C16.787234,6.14117647 16.8510638,5.82132353 16.4680851,5.62941176 L7.46808511,0.447794118 C7.14893617,0.255882353 6.5106383,0.255882353 6.12765957,0.511764706 L0.765957447,3.58235294 C0.446808511,3.77426471 0.382978723,4.15808824 0.70212766,4.35 Z" id="Path"></path>
                                </g>
                                <g id="Group-2" transform="translate(22.000000, 7.000000)" fill="url(#linearGradient-12)">
                                    <path d="M13.5531915,3.55514706 L8,0.356617647 C7.68085106,0.164705882 7.04255319,0.164705882 6.65957447,0.420588235 L1.29787234,3.49117647 C0.914893617,3.74705882 0.85106383,4.06691176 1.23404255,4.25882353 L6.78723404,7.45735294 C7.10638298,7.64926471 7.74468085,7.64926471 8.12765957,7.39338235 L13.4893617,4.32279412 C13.8723404,4.06691176 13.9361702,3.74705882 13.5531915,3.55514706 Z" id="Path"></path>
                                    <path d="M21.1489362,7.90514706 L15.5957447,4.70661765 C15.2765957,4.51470588 14.6382979,4.51470588 14.2553191,4.77058824 L8.89361702,7.84117647 C8.5106383,8.09705882 8.44680851,8.41691176 8.82978723,8.60882353 L14.3829787,11.8073529 C14.7021277,11.9992647 15.3404255,11.9992647 15.7234043,11.7433824 L21.0851064,8.67279412 C21.4042553,8.48088235 21.4680851,8.09705882 21.1489362,7.90514706 Z" id="Path"></path>
                                    <path d="M28.6808511,12.2551471 L23.1276596,9.05661765 C22.8085106,8.86470588 22.1702128,8.86470588 21.787234,9.12058824 L16.4255319,12.1911765 C16.0425532,12.4470588 15.9787234,12.7669118 16.3617021,12.9588235 L21.9148936,16.1573529 C22.2340426,16.3492647 22.8723404,16.3492647 23.2553191,16.0933824 L28.6170213,13.0227941 C29,12.8308824 29,12.5110294 28.6808511,12.2551471 Z" id="Path"></path>
                                    <path d="M36.212766,16.6691176 L30.6595745,13.4705882 C30.3404255,13.2786765 29.7021277,13.2786765 29.3191489,13.5345588 L23.9574468,16.6051471 C23.5744681,16.8610294 23.5106383,17.1808824 23.8297872,17.3727941 L29.3829787,20.5713235 C29.7021277,20.7632353 30.3404255,20.7632353 30.7234043,20.5073529 L36.0851064,17.4367647 C36.5319149,17.1808824 36.5957447,16.8610294 36.212766,16.6691176 Z" id="Path"></path>
                                    <path d="M43.7446809,21.0191176 L38.1914894,17.8205882 C37.8723404,17.6286765 37.2340426,17.6286765 36.8510638,17.8845588 L31.4893617,20.9551471 C31.106383,21.2110294 31.0425532,21.5308824 31.4255319,21.7227941 L36.9787234,24.9213235 C37.2978723,25.1132353 37.9361702,25.1132353 38.3191489,24.8573529 L43.6808511,21.7867647 C44.0638298,21.5948529 44.1276596,21.2110294 43.7446809,21.0191176 Z" id="Path"></path>
                                    <path d="M51.3404255,25.3691176 L45.787234,22.1705882 C45.4680851,21.9786765 44.8297872,21.9786765 44.4468085,22.2345588 L39.0851064,25.3051471 C38.7021277,25.5610294 38.6382979,25.8808824 39.0212766,26.0727941 L44.5744681,29.2713235 C44.893617,29.4632353 45.5319149,29.4632353 45.9148936,29.2073529 L51.2765957,26.1367647 C51.5957447,25.9448529 51.6595745,25.5610294 51.3404255,25.3691176 Z" id="Path"></path>
                                    <path d="M58.8723404,29.7830882 L53.3191489,26.5845588 C53,26.3926471 52.3617021,26.3926471 51.9787234,26.6485294 L46.6170213,29.7191176 C46.2340426,29.975 46.1702128,30.2948529 46.5531915,30.4867647 L52.106383,33.6852941 C52.4255319,33.8772059 53.0638298,33.8772059 53.4468085,33.6213235 L58.8085106,30.5507353 C59.1914894,30.2948529 59.1914894,29.975 58.8723404,29.7830882 Z" id="Path"></path>
                                    <path d="M66.4042553,34.1330882 L60.8510638,30.9345588 C60.5319149,30.7426471 59.893617,30.7426471 59.5106383,30.9985294 L54.1489362,34.0691176 C53.7659574,34.325 53.7021277,34.6448529 54.0851064,34.8367647 L59.6382979,38.0352941 C59.9574468,38.2272059 60.5957447,38.2272059 60.9787234,37.9713235 L66.3404255,34.9007353 C66.7234043,34.6448529 66.787234,34.325 66.4042553,34.1330882 Z" id="Path"></path>
                                    <path d="M74,38.4830882 L68.4468085,35.2845588 C68.1276596,35.0926471 67.4893617,35.0926471 67.106383,35.3485294 L61.7446809,38.4191176 C61.3617021,38.675 61.2978723,38.9948529 61.6808511,39.1867647 L67.2340426,42.3852941 C67.5531915,42.5772059 68.1914894,42.5772059 68.5744681,42.3213235 L73.9361702,39.2507353 C74.2553191,39.0588235 74.3191489,38.675 74,38.4830882 Z" id="Path"></path>
                                    <path d="M81.5319149,42.8970588 L75.9787234,39.6985294 C75.6595745,39.5066176 75.0212766,39.5066176 74.6382979,39.7625 L69.2765957,42.8330882 C68.893617,43.0889706 68.8297872,43.4088235 69.212766,43.6007353 L74.7659574,46.7992647 C75.0851064,46.9911765 75.7234043,46.9911765 76.106383,46.7352941 L81.4680851,43.6647059 C81.8510638,43.4088235 81.8510638,43.0889706 81.5319149,42.8970588 Z" id="Path"></path>
                                    <path d="M89.0638298,47.2470588 L83.5106383,44.0485294 C83.1914894,43.8566176 82.5531915,43.8566176 82.1702128,44.1125 L76.8085106,47.1830882 C76.4255319,47.4389706 76.3617021,47.7588235 76.7446809,47.9507353 L82.2978723,51.1492647 C82.6170213,51.3411765 83.2553191,51.3411765 83.6382979,51.0852941 L89,48.0147059 C89.3829787,47.7588235 89.4468085,47.4389706 89.0638298,47.2470588 Z" id="Path"></path>
                                    <path d="M96.6595745,51.5970588 L91.106383,48.3985294 C90.787234,48.2066176 90.1489362,48.2066176 89.7659574,48.4625 L84.4042553,51.5330882 C84.0212766,51.7889706 83.9574468,52.1088235 84.3404255,52.3007353 L89.893617,55.4992647 C90.212766,55.6911765 90.8510638,55.6911765 91.2340426,55.4352941 L96.5957447,52.3647059 C96.9148936,52.1727941 96.9787234,51.7889706 96.6595745,51.5970588 Z" id="Path"></path>
                                    <path d="M104.191489,56.0110294 L98.6382979,52.8125 C98.3191489,52.6205882 97.6808511,52.6205882 97.2978723,52.8764706 L91.9361702,55.9470588 C91.5531915,56.2029412 91.4893617,56.5227941 91.8723404,56.7147059 L97.4255319,59.9132353 C97.7446809,60.1051471 98.3829787,60.1051471 98.7659574,59.8492647 L104.12766,56.7786765 C104.510638,56.5227941 104.510638,56.2029412 104.191489,56.0110294 Z" id="Path"></path>
                                    <path d="M115.170213,62.3441176 L106.170213,57.1625 C105.851064,56.9705882 105.212766,56.9705882 104.829787,57.2264706 L99.4680851,60.2970588 C99.0851064,60.5529412 99.0212766,60.8727941 99.4042553,61.0647059 L108.404255,66.2463235 C108.723404,66.4382353 109.361702,66.4382353 109.744681,66.1823529 L115.106383,63.1117647 C115.425532,62.8558824 115.489362,62.5360294 115.170213,62.3441176 Z" id="Path"></path>
                                </g>
                                <g id="Group" transform="translate(120.340426, 63.036765)"></g>
                                <g id="Group" transform="translate(15.319149, 10.875000)" fill="url(#linearGradient-12)">
                                    <path d="M18.1914894,7.16470588 L7.14893617,0.767647059 C6.82978723,0.575735294 6.19148936,0.575735294 5.80851064,0.831617647 L0.446808511,3.90220588 C0.0638297872,4.15808824 1.38777878e-17,4.47794118 0.319148936,4.66985294 L11.3617021,11.0669118 C11.6808511,11.2588235 12.3191489,11.2588235 12.7021277,11.0029412 L18.0638298,7.93235294 C18.5106383,7.74044118 18.5106383,7.35661765 18.1914894,7.16470588 Z" id="Path"></path>
                                    <path d="M114.255319,62.7551471 L103.212766,56.3580882 C102.893617,56.1661765 102.255319,56.1661765 101.87234,56.4220588 L96.5106383,59.4926471 C96.1276596,59.7485294 96.0638298,60.0683824 96.4468085,60.2602941 L107.489362,66.6573529 C107.808511,66.8492647 108.446809,66.8492647 108.829787,66.5933824 L114.191489,63.5227941 C114.574468,63.3308824 114.638298,62.9470588 114.255319,62.7551471 Z" id="Path"></path>
                                    <path d="M25.7234043,11.5147059 L20.1702128,8.31617647 C19.8510638,8.12426471 19.212766,8.12426471 18.8297872,8.38014706 L13.4680851,11.4507353 C13.0851064,11.7066176 13.0212766,12.0264706 13.4042553,12.2183824 L18.9574468,15.4169118 C19.2765957,15.6088235 19.9148936,15.6088235 20.2978723,15.3529412 L25.6595745,12.2823529 C26.0425532,12.0904412 26.106383,11.7066176 25.7234043,11.5147059 Z" id="Path"></path>
                                    <path d="M33.3191489,15.9286765 L27.7659574,12.7301471 C27.4468085,12.5382353 26.8085106,12.5382353 26.4255319,12.7941176 L21.0638298,15.8647059 C20.6808511,16.1205882 20.6170213,16.4404412 21,16.6323529 L26.5531915,19.8308824 C26.8723404,20.0227941 27.5106383,20.0227941 27.893617,19.7669118 L33.2553191,16.6963235 C33.5744681,16.4404412 33.6382979,16.1205882 33.3191489,15.9286765 Z" id="Path"></path>
                                    <path d="M40.8510638,20.2786765 L35.2978723,17.0801471 C34.9787234,16.8882353 34.3404255,16.8882353 33.9574468,17.1441176 L28.5957447,20.2147059 C28.212766,20.4705882 28.1489362,20.7904412 28.5319149,20.9823529 L34.0851064,24.1808824 C34.4042553,24.3727941 35.0425532,24.3727941 35.4255319,24.1169118 L40.787234,21.0463235 C41.1702128,20.7904412 41.1702128,20.4705882 40.8510638,20.2786765 Z" id="Path"></path>
                                    <path d="M48.3829787,24.6286765 L42.8297872,21.4301471 C42.5106383,21.2382353 41.8723404,21.2382353 41.4893617,21.4941176 L36.1276596,24.5647059 C35.7446809,24.8205882 35.6808511,25.1404412 36.0638298,25.3323529 L41.6170213,28.5308824 C41.9361702,28.7227941 42.5744681,28.7227941 42.9574468,28.4669118 L48.3191489,25.3963235 C48.7021277,25.2044118 48.7659574,24.8205882 48.3829787,24.6286765 Z" id="Path"></path>
                                    <path d="M55.9787234,29.0426471 L50.4255319,25.8441176 C50.106383,25.6522059 49.4680851,25.6522059 49.0851064,25.9080882 L43.7234043,28.9786765 C43.3404255,29.2345588 43.2765957,29.5544118 43.6595745,29.7463235 L49.212766,32.9448529 C49.5319149,33.1367647 50.1702128,33.1367647 50.5531915,32.8808824 L55.9148936,29.8102941 C56.2340426,29.5544118 56.2978723,29.2345588 55.9787234,29.0426471 Z" id="Path"></path>
                                    <path d="M63.5106383,33.3926471 L57.9574468,30.1941176 C57.6382979,30.0022059 57,30.0022059 56.6170213,30.2580882 L51.2553191,33.3286765 C50.8723404,33.5845588 50.8085106,33.9044118 51.1914894,34.0963235 L56.7446809,37.2948529 C57.0638298,37.4867647 57.7021277,37.4867647 58.0851064,37.2308824 L63.4468085,34.1602941 C63.8297872,33.9044118 63.8297872,33.5845588 63.5106383,33.3926471 Z" id="Path"></path>
                                    <path d="M71.0425532,37.7426471 L65.4893617,34.5441176 C65.1702128,34.3522059 64.5319149,34.3522059 64.1489362,34.6080882 L58.787234,37.6786765 C58.4042553,37.9345588 58.3404255,38.2544118 58.7234043,38.4463235 L64.2765957,41.6448529 C64.5957447,41.8367647 65.2340426,41.8367647 65.6170213,41.5808824 L70.9787234,38.5102941 C71.3617021,38.3183824 71.4255319,37.9345588 71.0425532,37.7426471 Z" id="Path"></path>
                                    <path d="M78.6382979,42.1566176 L73.0851064,38.9580882 C72.7659574,38.7661765 72.1276596,38.7661765 71.7446809,39.0220588 L66.3829787,42.0926471 C66,42.3485294 65.9361702,42.6683824 66.3191489,42.8602941 L71.8723404,46.0588235 C72.1914894,46.2507353 72.8297872,46.2507353 73.212766,45.9948529 L78.5744681,42.9242647 C78.893617,42.6683824 78.9574468,42.3485294 78.6382979,42.1566176 Z" id="Path"></path>
                                    <path d="M86.1702128,46.5066176 L80.6170213,43.3080882 C80.2978723,43.1161765 79.6595745,43.1161765 79.2765957,43.3720588 L73.9148936,46.4426471 C73.5319149,46.6985294 73.4680851,47.0183824 73.8510638,47.2102941 L79.4042553,50.4088235 C79.7234043,50.6007353 80.3617021,50.6007353 80.7446809,50.3448529 L86.106383,47.2742647 C86.4893617,47.0183824 86.4893617,46.6985294 86.1702128,46.5066176 Z" id="Path"></path>
                                    <path d="M93.7021277,50.8566176 L88.1489362,47.6580882 C87.8297872,47.4661765 87.1914894,47.4661765 86.8085106,47.7220588 L81.4468085,50.7926471 C81.0638298,51.0485294 81,51.3683824 81.3829787,51.5602941 L86.9361702,54.7588235 C87.2553191,54.9507353 87.893617,54.9507353 88.2765957,54.6948529 L93.6382979,51.6242647 C94.0212766,51.4323529 94.0851064,51.0485294 93.7021277,50.8566176 Z" id="Path"></path>
                                    <path d="M101.297872,55.2066176 L95.7446809,52.0080882 C95.4255319,51.8161765 94.787234,51.8161765 94.4042553,52.0720588 L89.0425532,55.1426471 C88.6595745,55.3985294 88.5957447,55.7183824 88.9787234,55.9102941 L94.5319149,59.1088235 C94.8510638,59.3007353 95.4893617,59.3007353 95.8723404,59.0448529 L101.234043,55.9742647 C101.553191,55.7823529 101.617021,55.4625 101.297872,55.2066176 Z" id="Path"></path>
                                </g>
                                <g id="Group" transform="translate(7.659574, 15.352941)" fill="url(#linearGradient-12)">
                                    <path d="M22.0851064,9.21176471 L7.34042553,0.639705882 C7.0212766,0.447794118 6.38297872,0.447794118 6,0.703676471 L0.638297872,3.77426471 C0.255319149,4.03014706 0.191489362,4.35 0.574468085,4.54191176 L15.3829787,13.1139706 C15.7021277,13.3058824 16.3404255,13.3058824 16.7234043,13.05 L22.0851064,9.97941176 C22.4042553,9.72352941 22.4680851,9.40367647 22.0851064,9.21176471 Z" id="Path"></path>
                                    <path d="M29.6808511,13.5617647 L24.1276596,10.3632353 C23.8085106,10.1713235 23.1702128,10.1713235 22.787234,10.4272059 L17.4255319,13.4977941 C17.0425532,13.7536765 16.9787234,14.0735294 17.3617021,14.2654412 L22.9148936,17.4639706 C23.2340426,17.6558824 23.8723404,17.6558824 24.2553191,17.4 L29.6170213,14.3294118 C29.9361702,14.1375 30,13.7536765 29.6808511,13.5617647 Z" id="Path"></path>
                                    <path d="M37.212766,17.9117647 L31.6595745,14.7132353 C31.3404255,14.5213235 30.7021277,14.5213235 30.3191489,14.7772059 L24.9574468,17.8477941 C24.5744681,18.1036765 24.5106383,18.4235294 24.893617,18.6154412 L30.4468085,21.8139706 C30.7659574,22.0058824 31.4042553,22.0058824 31.787234,21.75 L37.1489362,18.6794118 C37.4680851,18.4875 37.5319149,18.1676471 37.212766,17.9117647 Z" id="Path"></path>
                                    <path d="M44.7446809,22.3257353 L39.1914894,19.1272059 C38.8723404,18.9352941 38.2340426,18.9352941 37.8510638,19.1911765 L32.4893617,22.2617647 C32.106383,22.5176471 32.0425532,22.8375 32.4255319,23.0294118 L37.9787234,26.2279412 C38.2978723,26.4198529 38.9361702,26.4198529 39.3191489,26.1639706 L44.6808511,23.0933824 C45.0638298,22.8375 45.0638298,22.5176471 44.7446809,22.3257353 Z" id="Path"></path>
                                    <path d="M52.2765957,26.6757353 L46.7234043,23.4772059 C46.4042553,23.2852941 45.7659574,23.2852941 45.3829787,23.5411765 L40.0212766,26.6117647 C39.6382979,26.8676471 39.5744681,27.1875 39.9574468,27.3794118 L45.5106383,30.5779412 C45.8297872,30.7698529 46.4680851,30.7698529 46.8510638,30.5139706 L52.212766,27.4433824 C52.5957447,27.2514706 52.6595745,26.8676471 52.2765957,26.6757353 Z" id="Path"></path>
                                    <path d="M59.8723404,31.0257353 L54.3191489,27.8272059 C54,27.6352941 53.3617021,27.6352941 52.9787234,27.8911765 L47.6170213,30.9617647 C47.2340426,31.2176471 47.1702128,31.5375 47.5531915,31.7294118 L53.106383,34.9279412 C53.4255319,35.1198529 54.0638298,35.1198529 54.4468085,34.8639706 L59.8085106,31.7933824 C60.1276596,31.6014706 60.1914894,31.2176471 59.8723404,31.0257353 Z" id="Path"></path>
                                    <path d="M67.4042553,35.4397059 L61.8510638,32.2411765 C61.5319149,32.0492647 60.893617,32.0492647 60.5106383,32.3051471 L55.1489362,35.3757353 C54.7659574,35.6316176 54.7021277,35.9514706 55.0851064,36.1433824 L60.6382979,39.3419118 C60.9574468,39.5338235 61.5957447,39.5338235 61.9787234,39.2779412 L67.3404255,36.2073529 C67.7234043,35.9514706 67.7234043,35.6316176 67.4042553,35.4397059 Z" id="Path"></path>
                                    <path d="M74.9361702,39.7897059 L69.3829787,36.5911765 C69.0638298,36.3992647 68.4255319,36.3992647 68.0425532,36.6551471 L62.6808511,39.7257353 C62.2978723,39.9816176 62.2340426,40.3014706 62.6170213,40.4933824 L68.1702128,43.6919118 C68.4893617,43.8838235 69.1276596,43.8838235 69.5106383,43.6279412 L74.8723404,40.5573529 C75.2553191,40.3014706 75.3191489,39.9816176 74.9361702,39.7897059 Z" id="Path"></path>
                                    <path d="M82.5319149,44.1397059 L76.9787234,40.9411765 C76.6595745,40.7492647 76.0212766,40.7492647 75.6382979,41.0051471 L70.2765957,44.0757353 C69.893617,44.3316176 69.8297872,44.6514706 70.212766,44.8433824 L75.7659574,48.0419118 C76.0851064,48.2338235 76.7234043,48.2338235 77.106383,47.9779412 L82.4680851,44.9073529 C82.787234,44.7154412 82.8510638,44.3316176 82.5319149,44.1397059 Z" id="Path"></path>
                                    <path d="M90.0638298,48.5536765 L84.5106383,45.3551471 C84.1914894,45.1632353 83.5531915,45.1632353 83.1702128,45.4191176 L77.8085106,48.4897059 C77.4255319,48.7455882 77.3617021,49.0654412 77.7446809,49.2573529 L83.2978723,52.4558824 C83.6170213,52.6477941 84.2553191,52.6477941 84.6382979,52.3919118 L90,49.3213235 C90.3829787,49.0654412 90.3829787,48.7455882 90.0638298,48.5536765 Z" id="Path"></path>
                                    <path d="M97.5957447,52.9036765 L92.0425532,49.7051471 C91.7234043,49.5132353 91.0851064,49.5132353 90.7021277,49.7691176 L85.3404255,52.8397059 C84.9574468,53.0955882 84.893617,53.4154412 85.2765957,53.6073529 L90.8297872,56.8058824 C91.1489362,56.9977941 91.787234,56.9977941 92.1702128,56.7419118 L97.5319149,53.6713235 C97.9148936,53.4154412 97.9787234,53.0955882 97.5957447,52.9036765 Z" id="Path"></path>
                                    <path d="M114.446809,62.6272059 L99.6382979,54.0551471 C99.3191489,53.8632353 98.6808511,53.8632353 98.2978723,54.1191176 L92.9361702,57.1897059 C92.5531915,57.4455882 92.4893617,57.7654412 92.8723404,57.9573529 L107.680851,66.5294118 C108,66.7213235 108.638298,66.7213235 109.021277,66.4654412 L114.382979,63.3948529 C114.702128,63.1389706 114.765957,62.8191176 114.446809,62.6272059 Z" id="Path"></path>
                                </g>
                                <g id="Group" transform="translate(0.000000, 19.830882)" fill="url(#linearGradient-12)">
                                    <path d="M82.6595745,44.0117647 L46.8510638,23.2852941 C46.5319149,23.0933824 45.893617,23.0933824 45.5106383,23.3492647 L40.1489362,26.4198529 C39.7659574,26.6757353 39.7021277,26.9955882 40.0851064,27.1875 L75.893617,47.9139706 C76.212766,48.1058824 76.8510638,48.1058824 77.2340426,47.85 L82.5957447,44.7794118 C82.9787234,44.5875 82.9787234,44.2036765 82.6595745,44.0117647 Z" id="Path"></path>
                                    <path d="M35.6808511,16.8242647 L30.1276596,13.6257353 C29.8085106,13.4338235 29.1702128,13.4338235 28.787234,13.6897059 L23.4255319,16.7602941 C23.0425532,17.0161765 22.9787234,17.3360294 23.3617021,17.5279412 L28.9148936,20.7264706 C29.2340426,20.9183824 29.8723404,20.9183824 30.2553191,20.6625 L35.6170213,17.5919118 C36,17.4 36.0638298,17.0801471 35.6808511,16.8242647 Z" id="Path"></path>
                                    <path d="M44.9361702,22.1977941 L37.7234043,18.0397059 C37.4042553,17.8477941 36.7659574,17.8477941 36.3829787,18.1036765 L31.0212766,21.1742647 C30.6382979,21.4301471 30.5744681,21.75 30.9574468,21.9419118 L38.1702128,26.1 C38.4893617,26.2919118 39.1276596,26.2919118 39.5106383,26.0360294 L44.8723404,22.9654412 C45.1914894,22.7095588 45.2553191,22.3897059 44.9361702,22.1977941 Z" id="Path"></path>
                                    <path d="M93.8297872,50.4727941 L99.3829787,53.6713235 C99.7021277,53.8632353 99.7021277,54.1830882 99.3191489,54.4389706 L93.9574468,57.5095588 C93.5744681,57.7654412 92.9361702,57.7654412 92.6170213,57.5735294 L87.0638298,54.375 C86.7446809,54.1830882 86.7446809,53.8632353 87.1276596,53.6073529 L92.4893617,50.5367647 C92.8723404,50.3448529 93.5106383,50.2808824 93.8297872,50.4727941 Z" id="Path"></path>
                                    <path d="M84.6382979,45.1632353 L91.8510638,49.3213235 C92.1702128,49.5132353 92.1702128,49.8330882 91.787234,50.0889706 L86.4255319,53.1595588 C86.0425532,53.4154412 85.4042553,53.4154412 85.0851064,53.2235294 L77.8723404,49.0654412 C77.5531915,48.8735294 77.5531915,48.5536765 77.9361702,48.2977941 L83.2978723,45.2272059 C83.6808511,44.9713235 84.3191489,44.9713235 84.6382979,45.1632353 Z" id="Path"></path>
                                    <path d="M13.0212766,3.71029412 L7.46808511,0.511764706 C7.14893617,0.319852941 6.5106383,0.319852941 6.12765957,0.575735294 L0.765957447,3.64632353 C0.382978723,3.90220588 0.319148936,4.22205882 0.70212766,4.41397059 L6.25531915,7.6125 C6.57446809,7.80441176 7.21276596,7.80441176 7.59574468,7.54852941 L12.9574468,4.47794118 C13.3404255,4.28602941 13.4042553,3.96617647 13.0212766,3.71029412 Z" id="Path"></path>
                                    <path d="M20.6170213,8.12426471 L15.0638298,4.92573529 C14.7446809,4.73382353 14.106383,4.73382353 13.7234043,4.98970588 L8.36170213,8.06029412 C7.9787234,8.31617647 7.91489362,8.63602941 8.29787234,8.82794118 L13.8510638,12.0264706 C14.1702128,12.2183824 14.8085106,12.2183824 15.1914894,11.9625 L20.5531915,8.89191176 C20.8723404,8.63602941 20.9361702,8.31617647 20.6170213,8.12426471 Z" id="Path"></path>
                                    <path d="M28.1489362,12.4742647 L22.5957447,9.27573529 C22.2765957,9.08382353 21.6382979,9.08382353 21.2553191,9.33970588 L15.893617,12.4102941 C15.5106383,12.6661765 15.4468085,12.9860294 15.8297872,13.1779412 L21.3829787,16.3764706 C21.7021277,16.5683824 22.3404255,16.5683824 22.7234043,16.3125 L28.0851064,13.2419118 C28.4680851,13.05 28.4680851,12.6661765 28.1489362,12.4742647 Z" id="Path"></path>
                                    <path d="M114.574468,62.4992647 L101.361702,54.8867647 C101.042553,54.6948529 100.404255,54.6948529 100.021277,54.9507353 L94.6595745,58.0213235 C94.2765957,58.2772059 94.212766,58.5970588 94.5957447,58.7889706 L107.808511,66.4014706 C108.12766,66.5933824 108.765957,66.5933824 109.148936,66.3375 L114.510638,63.2669118 C114.893617,63.0110294 114.893617,62.6911765 114.574468,62.4992647 Z" id="Path"></path>
                                </g>
                                <g id="Group" transform="translate(37.659574, 0.000000)" fill="url(#linearGradient-12)">
                                    <path d="M102.12766,61.3477941 L107.680851,64.5463235 C108,64.7382353 108.638298,64.7382353 109.021277,64.4823529 L111.702128,62.9470588 C112.085106,62.6911765 112.148936,62.3713235 111.765957,62.1794118 L106.212766,58.9808824 C105.893617,58.7889706 105.255319,58.7889706 104.87234,59.0448529 L102.191489,60.5801471 C101.87234,60.7720588 101.808511,61.1558824 102.12766,61.3477941 Z" id="Path"></path>
                                    <path d="M94.5957447,56.9338235 L100.148936,60.1323529 C100.468085,60.3242647 101.106383,60.3242647 101.489362,60.0683824 L104.170213,58.5330882 C104.553191,58.2772059 104.617021,57.9573529 104.234043,57.7654412 L98.6808511,54.5669118 C98.3617021,54.375 97.7234043,54.375 97.3404255,54.6308824 L94.6595745,56.1661765 C94.2765957,56.4220588 94.2765957,56.7419118 94.5957447,56.9338235 Z" id="Path"></path>
                                    <path d="M87.0638298,52.5838235 L92.6170213,55.7823529 C92.9361702,55.9742647 93.5744681,55.9742647 93.9574468,55.7183824 L96.6382979,54.1830882 C97.0212766,53.9272059 97.0851064,53.6073529 96.7021277,53.4154412 L91.1489362,50.2169118 C90.8297872,50.025 90.1914894,50.025 89.8085106,50.2808824 L87.1276596,51.8161765 C86.7446809,52.0720588 86.6808511,52.3919118 87.0638298,52.5838235 Z" id="Path"></path>
                                    <path d="M79.4680851,48.2338235 L85.0212766,51.4323529 C85.3404255,51.6242647 85.9787234,51.6242647 86.3617021,51.3683824 L89.0425532,49.8330882 C89.4255319,49.5772059 89.4893617,49.2573529 89.106383,49.0654412 L83.5531915,45.8669118 C83.2340426,45.675 82.5957447,45.675 82.212766,45.9308824 L79.5319149,47.4661765 C79.212766,47.6580882 79.1489362,48.0419118 79.4680851,48.2338235 Z" id="Path"></path>
                                    <path d="M71.9361702,43.8838235 L77.4893617,47.0823529 C77.8085106,47.2742647 78.4468085,47.2742647 78.8297872,47.0183824 L81.5106383,45.4830882 C81.893617,45.2272059 81.9574468,44.9073529 81.6382979,44.7154412 L76.0851064,41.5169118 C75.7659574,41.325 75.1276596,41.325 74.7446809,41.5808824 L72.0638298,43.1161765 C71.6170213,43.3080882 71.6170213,43.6279412 71.9361702,43.8838235 Z" id="Path"></path>
                                    <path d="M64.4042553,39.4698529 L69.9574468,42.6683824 C70.2765957,42.8602941 70.9148936,42.8602941 71.2978723,42.6044118 L73.9787234,41.0691176 C74.3617021,40.8132353 74.4255319,40.4933824 74.0425532,40.3014706 L68.4893617,37.1029412 C68.1702128,36.9110294 67.5319149,36.9110294 67.1489362,37.1669118 L64.4680851,38.7022059 C64.0851064,38.9580882 64.0212766,39.2779412 64.4042553,39.4698529 Z" id="Path"></path>
                                    <path d="M56.8085106,35.1198529 L62.3617021,38.3183824 C62.6808511,38.5102941 63.3191489,38.5102941 63.7021277,38.2544118 L66.3829787,36.7191176 C66.7659574,36.4632353 66.8297872,36.1433824 66.4468085,35.9514706 L60.893617,32.7529412 C60.5744681,32.5610294 59.9361702,32.5610294 59.5531915,32.8169118 L56.8723404,34.3522059 C56.5531915,34.5441176 56.4893617,34.9279412 56.8085106,35.1198529 Z" id="Path"></path>
                                    <path d="M49.2765957,30.7698529 L54.8297872,33.9683824 C55.1489362,34.1602941 55.787234,34.1602941 56.1702128,33.9044118 L58.8510638,32.3691176 C59.2340426,32.1132353 59.2978723,31.7933824 58.9148936,31.6014706 L53.3617021,28.4029412 C53.0425532,28.2110294 52.4042553,28.2110294 52.0212766,28.4669118 L49.3404255,30.0022059 C48.9574468,30.1941176 48.9574468,30.5779412 49.2765957,30.7698529 Z" id="Path"></path>
                                    <path d="M41.7446809,26.3558824 L47.2978723,29.5544118 C47.6170213,29.7463235 48.2553191,29.7463235 48.6382979,29.4904412 L51.3191489,27.9551471 C51.7021277,27.6992647 51.7659574,27.3794118 51.3829787,27.1875 L45.8297872,23.9889706 C45.5106383,23.7970588 44.8723404,23.7970588 44.4893617,24.0529412 L41.8085106,25.5882353 C41.4255319,25.8441176 41.3617021,26.1639706 41.7446809,26.3558824 Z" id="Path"></path>
                                    <path d="M34.212766,22.0058824 L39.7659574,25.2044118 C40.0851064,25.3963235 40.7234043,25.3963235 41.106383,25.1404412 L43.787234,23.6051471 C44.1702128,23.3492647 44.2340426,23.0294118 43.8510638,22.8375 L38.2978723,19.6389706 C37.9787234,19.4470588 37.3404255,19.4470588 36.9574468,19.7029412 L34.2765957,21.2382353 C33.893617,21.4301471 33.8297872,21.8139706 34.212766,22.0058824 Z" id="Path"></path>
                                    <path d="M26.6170213,17.6558824 L32.1702128,20.8544118 C32.4893617,21.0463235 33.1276596,21.0463235 33.5106383,20.7904412 L36.1914894,19.2551471 C36.5744681,18.9992647 36.6382979,18.6794118 36.2553191,18.4875 L30.7021277,15.2889706 C30.3829787,15.0970588 29.7446809,15.0970588 29.3617021,15.3529412 L26.6808511,16.8882353 C26.3617021,17.0801471 26.2978723,17.4639706 26.6170213,17.6558824 Z" id="Path"></path>
                                    <path d="M19.0851064,13.2419118 L24.6382979,16.4404412 C24.9574468,16.6323529 25.5957447,16.6323529 25.9787234,16.3764706 L28.6595745,14.8411765 C29.0425532,14.5852941 29.106383,14.2654412 28.7234043,14.0735294 L23.1702128,10.875 C22.8510638,10.6830882 22.212766,10.6830882 21.8297872,10.9389706 L19.1489362,12.4742647 C18.7659574,12.7301471 18.7659574,13.05 19.0851064,13.2419118 Z" id="Path"></path>
                                    <path d="M11.5531915,8.89191176 L17.106383,12.0904412 C17.4255319,12.2823529 18.0638298,12.2823529 18.4468085,12.0264706 L21.1276596,10.4911765 C21.5106383,10.2352941 21.5744681,9.91544118 21.1914894,9.72352941 L15.6382979,6.525 C15.3191489,6.33308824 14.6808511,6.33308824 14.2978723,6.58897059 L11.6170213,8.12426471 C11.2340426,8.38014706 11.1702128,8.7 11.5531915,8.89191176 Z" id="Path"></path>
                                    <path d="M0.574468085,2.55882353 L9.57446809,7.74044118 C9.89361702,7.93235294 10.5319149,7.93235294 10.9148936,7.67647059 L13.5957447,6.14117647 C13.9787234,5.88529412 14.0425532,5.56544118 13.7234043,5.37352941 L4.72340426,0.191911765 C4.40425532,2.08166817e-17 3.76595745,2.08166817e-17 3.38297872,0.255882353 L0.70212766,1.79117647 C0.255319149,1.98308824 0.191489362,2.36691176 0.574468085,2.55882353 Z" id="Path"></path>
                                </g>
                            </g>
                            <path d="M102.942572,203.920793 L126.426517,190.874157 C126.909301,190.605944 127.083244,189.997141 126.815031,189.514357 C126.724342,189.351117 126.589757,189.216532 126.426517,189.125843 L75.9425717,161.079207 C74.7344816,160.408045 73.2655184,160.408045 72.0574283,161.079207 L48.5734831,174.125843 C48.0906994,174.394056 47.9167556,175.002859 48.1849688,175.485643 C48.2756577,175.648883 48.410243,175.783468 48.5734831,175.874157 L99.0574283,203.920793 C100.265518,204.591955 101.734482,204.591955 102.942572,203.920793 Z" id="Path-65-Copy-6" fill="url(#linearGradient-12)" opacity="0.606119792"></path>
                            <polygon id="Path-67" fill="url(#linearGradient-13)" fill-rule="nonzero" filter="url(#filter-14)" points="108 96 225 161 225 81 108 16"></polygon>
                            <polygon id="Path-67" fill="url(#linearGradient-13)" fill-rule="nonzero" points="108 96 225 161 225 81 108 16"></polygon>
                        </g>
                        <g id="头像" transform="translate(196.000000, 24.000000)">
                            <g id="Path-67-Copy" opacity="0.700172061" fill-rule="nonzero">
                                <use fill="black" fill-opacity="1" filter="url(#filter-16)" xlink:href="#path-15"></use>
                                <use fill="#FFFFFF" xlink:href="#path-15"></use>
                            </g>
                            <g id="Group-11" transform="translate(29.000000, 58.000000) scale(-1, 1) translate(-29.000000, -58.000000) translate(16.000000, 37.000000)">
                                <path d="M25.9365,1.4892 L25.9365,25.0742 C25.9365,25.7082 25.6305,26.3072 25.1035,26.6712 C25.0805,26.6822 25.0565,26.7062 25.0335,26.7182 L17.3235,31.4702 L1.4005,41.2802 C1.1185,41.4562 0.8015,41.4322 0.5665,41.2682 C0.3675,41.1392 0.2155,40.9042 0.2155,40.6222 L0.2155,17.6352 C0.2155,16.8022 0.6495,16.0282 1.3535,15.5822 L25.0445,0.9852 C25.2205,0.8792 25.4085,0.8672 25.5725,0.9372 C25.6075,0.9492 25.6425,0.9732 25.6785,0.9962 C25.8315,1.1022 25.9365,1.2782 25.9365,1.4892" id="Fill-4" fill="url(#linearGradient-17)"></path>
                                <path d="M16.6953,14.8593 C16.6953,16.7253 15.1823,19.1463 13.3173,20.2673 C11.4513,21.3883 9.9383,20.7843 9.9383,18.9193 C9.9383,17.0533 11.4513,14.6323 13.3173,13.5113 C15.1823,12.3903 16.6953,12.9933 16.6953,14.8593" id="Fill-7" fill="#FFFFFF"></path>
                                <path d="M20.9648,24.1332 L5.6748,33.3202 C5.6928,29.1022 9.0958,23.6542 13.3198,21.1162 C15.4238,19.8522 17.3388,19.5562 18.7248,20.1092 C20.1098,20.6622 20.9648,22.0292 20.9648,24.1332" id="Fill-9" fill="#FFFFFF"></path>
                            </g>
                            <g id="Group-11-Copy" transform="translate(88.000000, 92.000000) scale(-1, 1) translate(-88.000000, -92.000000) translate(75.000000, 71.000000)">
                                <path d="M25.9365,1.4892 L25.9365,25.0742 C25.9365,25.7082 25.6305,26.3072 25.1035,26.6712 C25.0805,26.6822 25.0565,26.7062 25.0335,26.7182 L17.3235,31.4702 L1.4005,41.2802 C1.1185,41.4562 0.8015,41.4322 0.5665,41.2682 C0.3675,41.1392 0.2155,40.9042 0.2155,40.6222 L0.2155,17.6352 C0.2155,16.8022 0.6495,16.0282 1.3535,15.5822 L25.0445,0.9852 C25.2205,0.8792 25.4085,0.8672 25.5725,0.9372 C25.6075,0.9492 25.6425,0.9732 25.6785,0.9962 C25.8315,1.1022 25.9365,1.2782 25.9365,1.4892" id="Fill-4" fill="url(#linearGradient-18)"></path>
                                <path d="M16.6953,14.8593 C16.6953,16.7253 15.1823,19.1463 13.3173,20.2673 C11.4513,21.3883 9.9383,20.7843 9.9383,18.9193 C9.9383,17.0533 11.4513,14.6323 13.3173,13.5113 C15.1823,12.3903 16.6953,12.9933 16.6953,14.8593 Z M20.9648,24.1332 L5.6748,33.3202 C5.6928,29.1022 9.0958,23.6542 13.3198,21.1162 C15.4238,19.8522 17.3388,19.5562 18.7248,20.1092 C20.1098,20.6622 20.9648,22.0292 20.9648,24.1332 Z" id="Combined-Shape" fill="#FFFFFF"></path>
                            </g>
                            <polygon id="Path-74" fill="url(#linearGradient-19)" fill-rule="nonzero" points="50 66 50 69.9023748 61.7692308 76.3984168 61.7692308 79 67 77 61.7692308 69.8944587 61.7692308 72.4960419"></polygon>
                        </g>
                        <g id="笔记本" transform="translate(6.887495, 190.000000)" fill-rule="nonzero">
                            <path d="M202.76,68.0019156 L202.76,70.1787489 C202.76,70.9050831 202.366216,71.5743243 201.731286,71.9270634 L122.827715,115.76238 C119.203445,117.775864 114.796555,117.775864 111.172285,115.76238 L5.26871414,56.9270634 C4.63378377,56.5743243 4.24,55.9050831 4.24,55.1787489 L4.24,53.0024224 C4.23859241,53.0016153 4.23718426,53.0008078 4.23577556,53 C4.23565112,51.4400684 4.23565112,50.4408997 4.23577556,50.002494 C4.23617445,48.5972576 4.97841851,47.2342119 6.29393239,46.5033709 L18,40 L18,60 L111.172285,111.76238 C114.796555,113.775864 119.203445,113.775864 122.827715,111.76238 L189,75 L189,55 L200.706068,61.5033709 C202.02112,62.2339556 202.763305,63.5963016 202.764224,65.0010155 C202.764511,65.4397405 202.764511,66.439402 202.764224,68 C202.762815,68.0006387 202.761407,68.0012773 202.76,68.0019156 Z" id="Combined-Shape" fill="url(#linearGradient-20)"></path>
                            <path d="M111.172285,111.76238 L6.29393239,53.4966291 C4.36279746,52.4237764 3.66702227,49.9885632 4.73987501,48.0574283 C5.10263071,47.404468 5.64097213,46.8661266 6.29393239,46.5033709 L84.1722848,3.23761954 C87.7965553,1.22413596 92.2034447,1.22413596 95.8277152,3.23761954 L200.706068,61.5033709 C202.637203,62.5762236 203.332978,65.0114368 202.260125,66.9425717 C201.897369,67.595532 201.359028,68.1338734 200.706068,68.4966291 L122.827715,111.76238 C119.203445,113.775864 114.796555,113.775864 111.172285,111.76238 Z" id="Path-68" fill="url(#linearGradient-21)"></path>
                            <polygon id="Path-73" fill="url(#linearGradient-22)" points="117 109 197.5 63.5 144.5 31 59 77"></polygon>
                            <path d="M117,109 L197.5,63.5 C186.192559,48.6095715 176.525893,38.9429049 168.5,34.5 C160.474107,30.0570951 152.474107,28.8904285 144.5,31 L59,77 C68.6246154,74.8963396 77.4579488,76.0630062 85.5,80.5 C93.5420512,84.9369938 104.042051,94.4369938 117,109 Z" id="Path-71" fill="url(#linearGradient-23)"></path>
                            <path d="M158.845669,30.7330078 C162.059606,31.4605716 165.277716,32.7162357 168.5,34.5 C168.808521,34.6707884 169.119466,34.8492958 169.432836,35.0355224 C161.551624,38.2670192 154.240679,41.7551784 147.5,45.5 C140.033097,49.6482793 133.199764,54.1482793 127,59 L125,54.5 L118,54 C125.166667,48.8333333 132.5,44.1666667 140,40 C146.169125,36.5727084 152.451015,33.483711 158.845669,30.7330078 Z" id="Combined-Shape" fill="url(#linearGradient-24)"></path>
                            <polygon id="Path-5" fill="url(#linearGradient-25)" points="59 77 10 48.5 90.5 3.5 144.5 31"></polygon>
                            <path d="M59,77 L144.5,31 C141.174107,21.5871222 135.00744,14.5871222 126,10 C116.99256,5.41287781 105.159227,3.24621114 90.5,3.5 L10,48.5 C25.1264898,48.8354753 36.1264898,51.002142 43,55 C49.8735102,58.997858 55.2068436,66.3311913 59,77 Z" id="Path-4" fill="url(#linearGradient-26)"></path>
                        </g>
                        <g id="笔" transform="translate(205.887495, 295.730762) rotate(-240.000000) translate(-205.887495, -295.730762) translate(175.887495, 276.230762)">
                            <path d="M9,2.4 L8.4,3.5 L6.2,7.6 L0.8,1.3 C0.7,1.2 0.8,1 0.9,1 C0.9,1 1,0.9 1.1,1 L9,2.4 Z" id="Path" fill="url(#linearGradient-27)"></path>
                            <path d="M57.9,32.5 L57.1,34 L54.9,37.8 L6.9,8 C6.8,7.9 6.6,7.9 6.5,7.8 C6.2,7.6 5.9,7.2 5.8,6.8 C5.5,6 5.5,5.1 6,4.2 C6.2,3.9 6.4,3.6 6.6,3.3 C7.2,2.6 8.1,2.2 8.9,2.3 C9.1,2.3 9.3,2.4 9.6,2.5 C9.6,2.5 9.7,2.5 9.7,2.6 L9.8,2.7 L57.9,32.5 Z" id="Path" fill="url(#linearGradient-28)"></path>
                            <path d="M53.9,30 C53.7,29.9 53.5,29.9 53.3,29.8 C52.5,29.7 51.6,30.1 51,30.8 C50.8,31 50.6,31.3 50.4,31.7 C50,32.6 49.9,33.6 50.2,34.3 C50.3,34.6 50.5,34.9 50.7,35.1 L50.9,35.3 L47,32.9 C47,32.9 46.2721051,32.3724319 46.1721051,31.9724319 C45.8721051,31.1724319 45.8,30 46.3,29.1 C46.5,28.8 46.7,28.5 46.9,28.2 C47.5,27.5 48.4,27.1 49.2,27.2 C49.4,27.2 49.6,27.3 49.9,27.4 C50.1,27.4666667 51.4333333,28.3333333 53.9,30 Z" id="Path" fill="url(#linearGradient-29)"></path>
                            <path d="M58,32.6 C57.8,32.5 57.6,32.4 57.3,32.4 C56.5,32.3 55.7,32.7 55,33.4 C54.8,33.7 54.6,34 54.4,34.3 C54,35.2 54.101314,36.3362505 54.401314,37.0362505 C54.601314,37.4362505 54.6,37.6 54.9,37.9 L51,35.5 C51,35.5 50.8,35.4 50.8,35.3 C50.7,35.3 50.7,35.2 50.6,35.1 C50.4,34.9 50.2,34.6 50.1,34.3 C49.8,33.5 49.9,32.6 50.3,31.7 C50.5,31.4 50.7,31.1 50.9,30.8 C51.5,30.1 52.4,29.7 53.2,29.8 C53.4,29.8 53.7,29.9 53.9,30 L58,32.6 Z" id="Path" fill="url(#linearGradient-30)"></path>
                            <path d="M58.8,36.3 C58.1,37.8 56.5,38.6 55.3,38 C55.2,37.9 55,37.9 54.9,37.8 C54.6,37.6 54.3,37.2 54.2,36.8 C53.9,36 53.9,35.1 54.4,34.2 C55,32.9 56.2,32.2 57.3,32.3 C57.5,32.3 57.7,32.4 58,32.5 C58,32.5 58.1,32.5 58.1,32.6 L58.2,32.7 C59.2,33.4 59.5,34.9 58.8,36.3 Z" id="Path" fill="url(#linearGradient-30)"></path>
                        </g>
                        <g id="书1" transform="translate(342.000000, 91.000000)" fill-rule="nonzero">
                            <polygon id="Path-50" fill="#EF5700" points="84 1.67 84 5.12023727 6.5 48 4 45 82.5 1.44444444"></polygon>
                            <polygon id="Path-53" fill="#EEEEEE" points="84 4 105 16 23.5 61 3 49.5"></polygon>
                            <polygon id="Path-49" fill="url(#linearGradient-31)" points="27 60 27 180 108 135 108 15"></polygon>
                            <polygon id="Path-48" fill="url(#linearGradient-32)" points="-5.32907052e-15 45 -5.32907052e-15 165 27 180 27 60"></polygon>
                            <path d="M5.25896413,44.5863079 L27.29939,56.8323874 L104.998752,13.3326397 L108,15 L27,60 L1.42108547e-14,45 L81,4.97379915e-14 L83.9999089,1.66661604 L5.25896413,44.5863079 Z" id="Combined-Shape" fill="url(#linearGradient-33)"></path>
                        </g>
                        <g id="书2" transform="translate(378.000000, 116.000000)" fill-rule="nonzero">
                            <polygon id="Path-50" fill="#101A70" points="84 1.67 84 5.12023727 6.5 48 4 45 82.5 1.44444444"></polygon>
                            <polygon id="Path-53" fill="#EEEEEE" points="84 4 105 16 23.5 61 3 49.5"></polygon>
                            <polygon id="Path-49" fill="url(#linearGradient-34)" points="27 60 27 180 108 135 108 15"></polygon>
                            <polygon id="Path-48" fill="url(#linearGradient-35)" points="-5.32907052e-15 45 -5.32907052e-15 165 27 180 27 60"></polygon>
                            <path d="M5.25896413,44.5863079 L27.29939,56.8323874 L104.998752,13.3326397 L108,15 L27,60 L1.42108547e-14,45 L81,4.97379915e-14 L83.9999089,1.66661604 L5.25896413,44.5863079 Z" id="Combined-Shape" fill="url(#linearGradient-36)"></path>
                        </g>
                        <g id="手机" transform="translate(45.000000, 160.000000) scale(-1, 1) translate(-45.000000, -160.000000) translate(0.000000, 130.000000)">
                            <path d="M89.0976,35.5799 L89.0976,39.6979 L89.0746,39.6979 C89.1326,40.5899 88.7456,41.5169 87.8766,42.0329 L61.0296,58.3319 C59.0576,59.5169 56.6056,59.5169 54.6456,58.3199 L0.9856,25.5349 C0.4576,25.2069 0.1526,24.7019 0.0466,24.1619 L-0.0004,24.1499 L-0.0004,19.4919 C-0.0004,18.8109 0.3406,18.1309 0.9976,17.7319 L28.9596,0.7649 C30.6496,-0.2571 32.7736,-0.2571 34.4516,0.7759 L87.8896,33.4209 C88.6986,33.9129 89.0976,34.7459 89.0976,35.5799" id="Fill-3" fill="url(#linearGradient-37)"></path>
                            <path d="M89.0976,35.5799 C89.0976,36.4129 88.6866,37.2459 87.8766,37.7379 L61.0296,54.0489 C59.0576,55.2229 56.6056,55.2229 54.6456,54.0249 L0.9856,21.2399 C0.3286,20.8419 -0.0004,20.1729 -0.0004,19.4919 C-0.0004,18.8109 0.3406,18.1309 0.9976,17.7319 L28.9596,0.7649 C30.6496,-0.2571 32.7736,-0.2571 34.4516,0.7759 L87.8896,33.4209 C88.6986,33.9129 89.0976,34.7459 89.0976,35.5799" id="Fill-6" fill="url(#linearGradient-38)"></path>
                            <path d="M84.079,34.6648 C84.079,35.4038 83.715,36.1438 82.996,36.5808 L59.173,51.0548 C57.424,52.0958 55.247,52.0958 53.509,51.0328 L5.893,21.9408 C5.31,21.5878 5.018,20.9938 5.018,20.3898 C5.018,19.7858 5.32,19.1828 5.903,18.8278 L30.716,3.7708 C32.215,2.8658 34.1,2.8658 35.589,3.7818 L83.007,32.7498 C83.725,33.1858 84.079,33.9258 84.079,34.6648 Z M63.9848,33.2273 L61.5148,31.7183 L51.6668,37.7063 L54.1358,39.2143 L63.9848,33.2273 Z M63.4467,26.4851 L60.9767,24.9761 L41.2797,36.9521 L43.7497,38.4611 L63.4467,26.4851 Z M56.9398,22.491 L54.4698,20.983 L34.7728,32.958 L37.2428,34.467 L56.9398,22.491 Z M41.9774,20.7918 C41.9774,18.4118 38.1794,16.4828 33.4934,16.4828 C28.8084,16.4828 25.0104,18.4118 25.0104,20.7918 C25.0104,23.1718 28.8084,25.1018 33.4934,25.1018 C38.1794,25.1018 41.9774,23.1718 41.9774,20.7918 Z" id="Combined-Shape" fill="url(#linearGradient-39)"></path>
                        </g>
                    </g>
                </g>
            </g>
        </g>
    </g>
</svg>