<?xml version="1.0" encoding="UTF-8"?>
<svg width="571px" height="363px" viewBox="0 0 571 363" version="1.1" xmlns="http://www.w3.org/2000/svg" xmlns:xlink="http://www.w3.org/1999/xlink">
    <!-- Generator: Sketch 50.2 (55047) - http://www.bohemiancoding.com/sketch -->
    <title>Group 20</title>
    <desc>Created with Sketch.</desc>
    <defs>
        <linearGradient x1="-4.97335749%" y1="42.20486%" x2="112.847161%" y2="69.2356477%" id="linearGradient-1">
            <stop stop-color="#3474FF" offset="0%"></stop>
            <stop stop-color="#000078" offset="100%"></stop>
            <stop stop-color="#000078" offset="100%"></stop>
        </linearGradient>
        <linearGradient x1="2.33162866%" y1="50%" x2="121.211493%" y2="26.7549247%" id="linearGradient-2">
            <stop stop-color="#3474FF" offset="0%"></stop>
            <stop stop-color="#000078" offset="100%"></stop>
            <stop stop-color="#000078" offset="100%"></stop>
        </linearGradient>
        <path d="M46.8573864,38.7730947 C42.3248769,36.7761173 39.4661765,33.8543615 39.4661765,30.5993072 C39.4661765,24.5802962 49.2408538,19.7009238 61.2985294,19.7009238 C73.356205,19.7009238 83.1308824,24.5802962 83.1308824,30.5993072 C83.1308824,33.8543615 80.272182,36.7761173 75.7396724,38.7730947 C71.8909932,37.0774059 66.8354678,36.0484988 61.2985294,36.0484988 C55.7615911,36.0484988 50.7060656,37.0774059 46.8573864,38.7730947 Z" id="path-3"></path>
        <linearGradient x1="2.33162866%" y1="50%" x2="114.319658%" y2="50%" id="linearGradient-5">
            <stop stop-color="#3474FF" offset="0%"></stop>
            <stop stop-color="#000078" offset="100%"></stop>
            <stop stop-color="#000078" offset="100%"></stop>
        </linearGradient>
    </defs>
    <g id="Mockups" stroke="none" stroke-width="1" fill="none" fill-rule="evenodd">
        <g id="Other" transform="translate(-719.000000, -118.000000)">
            <g id="Group-20" transform="translate(719.000000, 118.000000)">
                <path d="M350.577206,90.9595843 L491.647794,163.894919" id="Line" stroke="#00C5FF" stroke-width="1.05" opacity="0.356997283" stroke-linecap="square"></path>
                <path d="M110.841176,130.361432 L429.929412,306.831409" id="Path-62" stroke="#00C5FF" stroke-width="1.05" opacity="0.356997283"></path>
                <path d="M432.028676,133.295612 L115.879412,289.645497" id="Path-63" stroke="#00C5FF" stroke-width="1.05" opacity="0.356997283"></path>
                <g id="Group-11" transform="translate(195.651471, 0.000000)">
                    <path d="M209.104087,82.9953811 C209.210807,83.109324 209.290129,83.219643 209.36004,83.3349829 C209.630116,83.7805579 209.630116,84.2362374 209.36004,84.6818124 C209.089963,85.1273873 208.679447,85.4980327 207.091398,86.2921394 L139.036395,120.323164 C137.448346,121.117271 136.707132,121.32255 135.816075,121.457602 C134.925017,121.592654 134.013752,121.592654 133.122695,121.457602 C132.231637,121.32255 131.490423,121.117271 129.902374,120.323164 L2.47119887,56.6009792 C0.883149761,55.8068725 0.472633664,55.4362272 0.202557285,54.9906522 C0.102424931,54.8254528 0.0394172167,54.6588643 0.0135341423,54.4919169 L0,54.4919169 L0,37.7251732 L15.1147059,37.7251732 L15.1147059,45.7110876 L70.5262016,18.002471 C72.1142507,17.2083643 72.8554645,17.0030849 73.7465222,16.8680328 C74.6375799,16.7329806 75.5488446,16.7329806 76.4399023,16.8680328 C77.33096,17.0030849 78.0721738,17.2083643 79.6602229,18.002471 L194.811765,75.5842035 L194.811765,66.2286374 L209.926471,66.2286374 L209.926471,82.9953811 L209.104087,82.9953811 Z" id="Combined-Shape" fill="url(#linearGradient-1)"></path>
                    <path d="M79.6602229,1.23572737 L207.091398,64.9579122 C208.679447,65.752019 209.089963,66.1226643 209.36004,66.5682392 C209.630116,67.0138142 209.630116,67.4694938 209.36004,67.9150687 C209.089963,68.3606437 208.679447,68.731289 207.091398,69.5253958 L139.036395,103.55642 C137.448346,104.350527 136.707132,104.555807 135.816075,104.690859 C134.925017,104.825911 134.013752,104.825911 133.122695,104.690859 C132.231637,104.555807 131.490423,104.350527 129.902374,103.55642 L2.47119887,39.8342356 C0.883149761,39.0401288 0.472633664,38.6694835 0.202557285,38.2239086 C-0.0675190948,37.7783336 -0.0675190948,37.322654 0.202557285,36.8770791 C0.472633664,36.4315041 0.883149761,36.0608588 2.47119887,35.266752 L70.5262016,1.23572737 C72.1142507,0.441620602 72.8554645,0.236341301 73.7465222,0.101289129 C74.6375799,-0.033763043 75.5488446,-0.033763043 76.4399023,0.101289129 C77.33096,0.236341301 78.0721738,0.441620602 79.6602229,1.23572737 Z" id="Combined-Shape" fill="url(#linearGradient-2)"></path>
                    <path d="M120.309405,42.4928346 C119.98148,42.329812 119.98148,42.0655001 120.309405,41.9024774 C120.637331,41.7394548 121.169003,41.7394548 121.496929,41.9024774 L156.548992,59.3280168 C156.876918,59.4910394 156.876918,59.7553513 156.548992,59.9183739 C156.221067,60.0813966 155.689394,60.0813966 155.361469,59.9183739 L120.309405,42.4928346 Z M103.684077,50.7578348 C103.356152,50.5948122 103.356152,50.3305003 103.684077,50.1674777 C104.012003,50.004455 104.543675,50.004455 104.871601,50.1674777 L109.9273,52.6808327 C110.255225,52.8438553 110.255225,53.1081672 109.9273,53.2711898 C109.599374,53.4342125 109.067702,53.4342125 108.739776,53.2711898 L103.684077,50.7578348 Z M90.0275576,57.5469421 C89.699632,57.3839195 89.699632,57.1196076 90.0275576,56.956585 C90.3554831,56.7935623 90.8871555,56.7935623 91.215081,56.956585 L96.2707799,59.46994 C96.5987055,59.6329626 96.5987055,59.8972745 96.2707799,60.0602972 C95.9428544,60.2233198 95.411182,60.2233198 95.0832565,60.0602972 L90.0275576,57.5469421 Z M113.184265,55.4806921 C112.856339,55.3176694 112.856339,55.0533575 113.184265,54.8903349 C113.51219,54.7273123 114.043863,54.7273123 114.371788,54.8903349 L122.387572,58.8752457 C122.715497,59.0382684 122.715497,59.3025803 122.387572,59.4656029 C122.059646,59.6286255 121.527974,59.6286255 121.200048,59.4656029 L113.184265,55.4806921 Z M99.5277452,62.2697994 C99.1998196,62.1067768 99.1998196,61.8424649 99.5277452,61.6794422 C99.8556707,61.5164196 100.387343,61.5164196 100.715269,61.6794422 L108.731052,65.664353 C109.058977,65.8273757 109.058977,66.0916876 108.731052,66.2547102 C108.403126,66.4177328 107.871454,66.4177328 107.543528,66.2547102 L99.5277452,62.2697994 Z M125.059499,61.3842636 C124.731574,61.221241 124.731574,60.9569291 125.059499,60.7939065 C125.387425,60.6308839 125.919097,60.6308839 126.247023,60.7939065 L134.262806,64.7788173 C134.590732,64.9418399 134.590732,65.2061518 134.262806,65.3691745 C133.93488,65.5321971 133.403208,65.5321971 133.075283,65.3691745 L125.059499,61.3842636 Z M111.40298,68.173371 C111.075054,68.0103483 111.075054,67.7460364 111.40298,67.5830138 C111.730905,67.4199912 112.262578,67.4199912 112.590503,67.5830138 L120.606286,71.5679246 C120.934212,71.7309472 120.934212,71.9952591 120.606286,72.1582818 C120.278361,72.3213044 119.746688,72.3213044 119.418763,72.1582818 L111.40298,68.173371 Z M136.934734,67.2878352 C136.606808,67.1248126 136.606808,66.8605007 136.934734,66.6974781 C137.262659,66.5344554 137.794332,66.5344554 138.122257,66.6974781 L146.13804,70.6823889 C146.465966,70.8454115 146.465966,71.1097234 146.13804,71.272746 C145.810115,71.4357687 145.278443,71.4357687 144.950517,71.272746 L136.934734,67.2878352 Z M123.278214,74.0769425 C122.950289,73.9139199 122.950289,73.649608 123.278214,73.4865854 C123.60614,73.3235628 124.137812,73.3235628 124.465738,73.4865854 L132.481521,77.4714962 C132.809446,77.6345188 132.809446,77.8988307 132.481521,78.0618533 C132.153595,78.224876 131.621923,78.224876 131.293997,78.0618533 L123.278214,74.0769425 Z M148.809968,73.4865854 C148.482043,73.3235628 148.482043,73.0592508 148.809968,72.8962282 C149.137894,72.7332056 149.669566,72.7332056 149.997492,72.8962282 L163.654011,79.6853355 C163.981937,79.8483582 163.981937,80.1126701 163.654011,80.2756927 C163.326086,80.4387153 162.794413,80.4387153 162.466488,80.2756927 L148.809968,73.4865854 Z M135.153449,80.2756927 C134.825523,80.1126701 134.825523,79.8483582 135.153449,79.6853355 C135.481374,79.5223129 136.013046,79.5223129 136.340972,79.6853355 L149.997492,86.4744428 C150.325417,86.6374655 150.325417,86.9017774 149.997492,87.0648 C149.669566,87.2278226 149.137894,87.2278226 148.809968,87.0648 L135.153449,80.2756927 Z M49.0579987,44.5590847 C36.2689024,38.2012022 36.2689024,27.893038 49.0579987,21.5351555 C61.8470949,15.177273 82.5823168,15.177273 95.3714131,21.5351555 C108.160509,27.893038 108.160509,38.2012022 95.3714131,44.5590847 C82.5823168,50.9169671 61.8470949,50.9169671 49.0579987,44.5590847 Z M50.2455221,43.9687275 C62.3787673,50.0005647 82.0506445,50.0005647 94.1838897,43.9687275 C106.317135,37.9368903 106.317135,28.1573499 94.1838897,22.1255127 C82.0506445,16.0936754 62.3787673,16.0936754 50.2455221,22.1255127 C38.1122769,28.1573499 38.1122769,37.9368903 50.2455221,43.9687275 Z" id="Combined-Shape" fill="#D8D8D8" opacity="0.137398098"></path>
                </g>
                <g id="Group-12" transform="translate(354.355882, 267.429561)">
                    <polygon id="Rectangle-5" fill="url(#linearGradient-2)" points="75.5735294 75.219191 151.147059 37.7251732 151.147059 54.4919169 75.5735294 91.9859346"></polygon>
                    <polygon id="Rectangle-4" fill="url(#linearGradient-2)" points="0 37.7251732 75.5735294 75.1982011 75.5735294 91.9649447 0 54.4919169"></polygon>
                    <path d="M75.5735294,91.9649447 L0,54.4919169 L0,37.7251732 L75.5735294,75.1982011 L75.5735294,75.219191 L151.147059,37.7251732 L151.147059,54.4919169 L75.5735294,91.9859346 L75.5735294,91.9649447 Z" id="Combined-Shape" fill="url(#linearGradient-1)"></path>
                    <polygon id="Rectangle-3" fill="url(#linearGradient-2)" points="75.5713236 0 151.147059 37.7251732 75.5713236 75.4503464 0 37.7251732"></polygon>
                </g>
                <g id="Group-20-Copy" transform="translate(0.000000, 261.561201)">
                    <path d="M92.3676471,76.4106301 L33.8763768,47.310078 C32.7301974,46.7398314 32.0847899,46.0147865 31.9401543,45.2702079 L31.9088235,45.2702079 L31.9088235,28.5034642 L47.0235294,28.5034642 L47.0235294,36.0425829 L51.6892285,33.7213063 C54.3126329,32.4161113 58.5660117,32.4161113 61.1894161,33.7213063 L124.276471,65.108351 L124.276471,60.4822236 L65.7852003,31.3816716 C64.6390209,30.8114249 63.9936134,30.0863801 63.8489779,29.3418014 L63.8176471,29.3418014 L63.8176471,12.5750577 L78.9323529,12.5750577 L78.9323529,20.1141765 L83.598052,17.7928998 C86.2214564,16.4877048 90.4748353,16.4877048 93.0982396,17.7928998 L156.185294,49.1799445 L156.185294,41.0785219 L169.87249,41.0785219 L169.87249,57.2215408 C169.882197,57.3255079 169.882197,57.4296576 169.87249,57.5336248 L169.87249,57.8452656 L169.814063,57.8452656 C169.618163,58.5387593 168.984214,59.2075079 167.912217,59.7408474 L150.099365,68.6030899 C147.475961,69.9082849 143.222582,69.9082849 140.599178,68.6030899 L137.963666,67.2918714 L137.963666,73.1499472 C137.973373,73.2539144 137.973373,73.3580641 137.963666,73.4620312 L137.963666,73.7736721 L137.90524,73.7736721 C137.709339,74.4671658 137.07539,75.1359144 136.003393,75.6692539 L118.190542,84.5314963 C115.567137,85.8366914 111.313758,85.8366914 108.690354,84.5314963 L106.054843,83.2202779 L106.054843,89.0783537 C106.06455,89.1823209 106.06455,89.2864705 106.054843,89.3904377 L106.054843,89.7020785 L105.996416,89.7020785 C105.800516,90.3955722 105.166567,91.0643208 104.09457,91.5976604 L86.281718,100.459903 C83.6583137,101.765098 79.4049348,101.765098 76.7815304,100.459903 L1.96755327,63.2384845 C0.821373876,62.6682378 0.175966388,61.943193 0.0313308078,61.1986143 L0,61.1986143 L0,44.4318707 L15.1147059,44.4318707 L15.1147059,51.9709894 L19.780405,49.6497127 C22.4038093,48.3445177 26.6571882,48.3445177 29.2805926,49.6497127 L92.3676471,81.0367574 L92.3676471,76.4106301 Z" id="Combined-Shape" fill="url(#linearGradient-1)"></path>
                    <path d="M93.0982396,1.02615617 L167.912217,38.2475745 C170.535621,39.5527695 170.535621,41.6689087 167.912217,42.9741038 L150.099365,51.8363462 C147.475961,53.1415413 143.222582,53.1415413 140.599178,51.8363462 L65.7852003,14.6149279 C63.161796,13.3097329 63.161796,11.1935936 65.7852003,9.88839862 L83.598052,1.02615617 C86.2214564,-0.279038863 90.4748353,-0.279038863 93.0982396,1.02615617 Z M61.1894161,16.9545626 L136.003393,54.1759809 C138.626798,55.481176 138.626798,57.5973152 136.003393,58.9025102 L118.190542,67.7647527 C115.567137,69.0699477 111.313758,69.0699477 108.690354,67.7647527 L33.8763768,30.5433344 C31.2529724,29.2381394 31.2529724,27.1220001 33.8763768,25.8168051 L51.6892285,16.9545626 C54.3126329,15.6493676 58.5660117,15.6493676 61.1894161,16.9545626 Z M29.2805926,32.8829691 L104.09457,70.1043874 C106.717974,71.4095824 106.717974,73.5257217 104.09457,74.8309167 L86.281718,83.6931592 C83.6583137,84.9983542 79.4049348,84.9983542 76.7815304,83.6931592 L1.96755327,46.4717409 C-0.65585109,45.1665458 -0.65585109,43.0504066 1.96755327,41.7452116 L19.780405,32.8829691 C22.4038093,31.5777741 26.6571882,31.5777741 29.2805926,32.8829691 Z" id="Combined-Shape" fill="url(#linearGradient-2)"></path>
                    <path d="M84.1891423,14.3195198 C86.4846211,15.4615655 90.2063276,15.4615655 92.5018064,14.3195198 C94.7972852,13.1774742 94.7972852,11.3258523 92.5018064,10.1838067 C90.2063276,9.04176105 86.4846211,9.04176105 84.1891423,10.1838067 C81.8936635,11.3258523 81.8936635,13.1774742 84.1891423,14.3195198 Z" id="Combined-Shape" fill-opacity="0.224382926" fill="#D8D8D8"></path>
                    <path d="M52.2803187,30.2479263 C54.5757976,31.389972 58.2975041,31.389972 60.5929829,30.2479263 C62.8884617,29.1058807 62.8884617,27.2542588 60.5929829,26.1122132 C58.2975041,24.9701675 54.5757976,24.9701675 52.2803187,26.1122132 C49.9848399,27.2542588 49.9848399,29.1058807 52.2803187,30.2479263 Z" id="Path" fill-opacity="0.224382926" fill="#D8D8D8"></path>
                    <path d="M20.3714952,46.1763328 C22.666974,47.3183784 26.3886805,47.3183784 28.6841593,46.1763328 C30.9796382,45.0342871 30.9796382,43.1826653 28.6841593,42.0406196 C26.3886805,40.898574 22.666974,40.898574 20.3714952,42.0406196 C18.0760164,43.1826653 18.0760164,45.0342871 20.3714952,46.1763328 Z" id="Path" fill-opacity="0.224382926" fill="#D8D8D8"></path>
                </g>
                <g id="Group-18" transform="translate(20.152941, 89.702079)">
                    <path d="M132.673529,58.1490346 L132.673529,66.6684368 C133.015257,70.7828303 130.018445,74.9527025 123.683091,78.0940453 C111.763226,84.004431 92.500366,84.0547556 80.4554555,78.2450191 L8.71034954,42.6727842 C3.02610251,39.7743483 0.123865713,36.0335288 0.00388077125,32.2750129 L0,32.2759815 L0,15.9284065 L4.19852941,15.9284065 L6.22935759,22.8219676 C7.07288314,22.2704223 8.00207802,21.7408148 9.01694352,21.2376005 C21.0391732,15.276458 40.5310587,15.276458 52.5532884,21.2376005 C52.86254,21.3909408 53.1638366,21.5467319 53.4571782,21.7048476 C53.5633011,21.6500312 53.6707964,21.595627 53.7796643,21.5416456 C62.4153504,17.2596983 76.4165639,17.2596983 85.05225,21.5416456 C88.4206735,23.2118559 90.4752145,25.2868439 91.215873,27.4508356 C105.557102,23.1480349 124.483288,24.0667339 136.866632,30.2069327 C137.451756,30.4970624 138.013369,30.7944353 138.551471,31.0984693 L138.551471,26.8267898 L147.788235,26.8267898 L147.788235,44.4318707 L147.716359,44.4318707 C147.173608,48.7730596 143.557032,53.0374262 136.866632,56.3548164 C135.539512,57.0128599 134.137246,57.6109326 132.673529,58.1490346 Z" id="Combined-Shape" fill="url(#linearGradient-1)"></path>
                    <path d="M53.4571782,4.93810398 C53.5633011,4.88328759 53.6707964,4.82888337 53.7796643,4.77490198 C62.4153504,0.492954603 76.4165639,0.492954603 85.05225,4.77490198 C88.4206735,6.44511229 90.4752145,8.52010029 91.215873,10.684092 C105.557102,6.38129121 124.483288,7.29999023 136.866632,13.440189 C151.42877,20.6607277 151.42877,32.367534 136.866632,39.5880728 C134.291991,40.8646914 131.434521,41.9155989 128.394233,42.7407955 C135.418383,48.5991125 133.848003,56.2870981 123.683091,61.3273017 C111.763226,67.2376873 92.500366,67.2880119 80.4554555,61.4782755 L8.71034954,25.9060406 C-3.00441455,19.9326032 -2.90292158,10.3812425 9.01694352,4.47085682 C21.0391732,-1.49028561 40.5310587,-1.49028561 52.5532884,4.47085682 C52.86254,4.62419715 53.1638366,4.77998823 53.4571782,4.93810398 Z" id="Combined-Shape" fill="url(#linearGradient-2)"></path>
                </g>
                <g id="Group-13" transform="translate(204.048529, 167.667436)">
                    <path d="M107.482353,50.8494894 L107.482353,49.8810624 L99.925,53.6535797 L100.344853,43.5935335 L107.482353,35.2101617 L122.597059,35.2101617 L122.597059,51.9769053 L111.261029,51.9769053 L111.261029,65.8094688 L98.1112578,72.0969977 L87.3713868,67.0669746 C84.8505135,67.9559639 82.3174042,68.6545783 79.7720588,69.1628176 C77.2267135,69.6710569 74.1477919,70.0902254 70.5352941,70.4203233 L70.5352941,77.965358 L52.0617647,77.965358 L52.0617647,70.4203233 C48.9900971,70.0491921 45.9344639,69.5601621 42.8948651,68.9532333 C39.8552663,68.3463044 37.3128603,67.7175515 35.2676471,67.0669746 L24.3514706,72.5161663 L11.4199795,65.8094688 L11.4199795,51.9769053 L0,51.9769053 L0,35.2101617 L15.1147059,35.2101617 L22.2522059,43.5935335 L22.2522059,54.2986673 L24.3514706,55.330254 L35.2676471,49.8810624 L52.0617647,53.6535797 L52.0617647,61.1986143 L70.5352941,61.1986143 L70.5352941,53.6535797 L87.3713868,49.8810624 L98.1112578,55.330254 L107.482353,50.8494894 Z M11.3360294,12.1558891 L22.2522059,17.6050808 L22.2522059,34.3718245 L11.3360294,28.9226328 L11.3360294,12.1558891 Z M110.841176,12.1558891 L110.841176,28.0842956 L100.344853,33.1143187 L100.344853,17.6050808 L110.841176,12.1558891 Z" id="Combined-Shape" fill="url(#linearGradient-1)"></path>
                    <path d="M52.0617647,7.57856235 L52.0617647,0 L70.5352941,0 L70.5352941,7.57856235 C76.6607453,8.18759895 82.3572311,9.39062481 87.373621,11.0622793 L98.1117563,5.70196308 L111.174514,12.2226961 L100.436379,17.5830122 C103.785146,20.0871189 106.195126,22.9307192 107.415188,25.9884527 L122.597059,25.9884527 L122.597059,35.2101617 L107.415188,35.2101617 C106.195126,38.2678951 103.785146,41.1114954 100.436379,43.6156021 L111.174514,48.9759183 L98.1112578,55.4966512 L87.3713868,50.1363351 C82.3549969,51.8079895 76.6607453,53.0110154 70.5352941,53.620052 L70.5352941,61.1986143 L52.0617647,61.1986143 L52.0617647,53.620052 C45.9363135,53.0110154 40.2398277,51.8079895 35.2234378,50.1363351 L24.4853025,55.4966512 L11.4199795,48.9756695 L22.1606799,43.6156021 C18.8119126,41.1114954 16.4019326,38.2678951 15.1818708,35.2101617 L0,35.2101617 L0,25.9884527 L15.1818708,25.9884527 C16.4019326,22.9307192 18.8119126,20.0871189 22.1606799,17.5830122 L11.4225446,12.2226961 L24.4853025,5.70196308 L35.2234378,11.0622793 C40.2398277,9.39062481 45.9363135,8.18759895 52.0617647,7.57856235 Z M61.2985294,41.4976905 C73.356205,41.4976905 83.1308824,36.6183181 83.1308824,30.5993072 C83.1308824,24.5802962 73.356205,19.7009238 61.2985294,19.7009238 C49.2408538,19.7009238 39.4661765,24.5802962 39.4661765,30.5993072 C39.4661765,36.6183181 49.2408538,41.4976905 61.2985294,41.4976905 Z" id="Combined-Shape" fill="url(#linearGradient-2)"></path>
                    <mask id="mask-4" fill="white">
                        <use xlink:href="#path-3"></use>
                    </mask>
                    <use id="Combined-Shape" fill="url(#linearGradient-2)" xlink:href="#path-3"></use>
                </g>
                <g id="Group-10" transform="translate(458.479412, 140.840647)">
                    <path d="M0,45.2702079 L0,28.5034642 L10.5083687,28.5034642 C20.7168183,21.3967762 37.4053886,16.7667436 56.2602941,16.7667436 C75.1151996,16.7667436 91.80377,21.3967762 102.01222,28.5034642 L112.520588,28.5034642 L112.520588,45.2702079 C112.065514,60.5874706 87.0516108,72.9353349 56.2602941,72.9353349 C25.4689774,72.9353349 0.455074176,60.5874706 0.00613909753,45.2702079 Z" id="Combined-Shape" fill="url(#linearGradient-5)"></path>
                    <ellipse id="Oval" fill="url(#linearGradient-2)" cx="56.2602941" cy="28.0842956" rx="56.2602941" ry="28.0842956"></ellipse>
                    <ellipse id="Oval" stroke-opacity="0.136605525" stroke="#FFFFFF" stroke-width="1.68" cx="56.2602941" cy="28.0842956" rx="35.2676471" ry="17.6050808"></ellipse>
                </g>
            </g>
        </g>
    </g>
</svg>