<?xml version="1.0" encoding="UTF-8"?>
<svg width="495px" height="464px" viewBox="0 0 495 464" version="1.1" xmlns="http://www.w3.org/2000/svg" xmlns:xlink="http://www.w3.org/1999/xlink">
    <!-- Generator: Sketch 52.5 (67469) - http://www.bohemiancoding.com/sketch -->
    <title>Group 4</title>
    <desc>Created with Sketch.</desc>
    <defs>
        <linearGradient x1="101.397422%" y1="56.8610257%" x2="60.411376%" y2="97.9747122%" id="linearGradient-1">
            <stop stop-color="#09E3BB" stop-opacity="0" offset="0%"></stop>
            <stop stop-color="#00D4D8" offset="100%"></stop>
        </linearGradient>
        <linearGradient x1="104.238168%" y1="20.7304718%" x2="11.2117999%" y2="37.016885%" id="linearGradient-2">
            <stop stop-color="#F4F9FF" offset="0%"></stop>
            <stop stop-color="#B2D2FF" offset="100%"></stop>
        </linearGradient>
        <linearGradient x1="100.943934%" y1="50%" x2="1.05594459%" y2="50%" id="linearGradient-3">
            <stop stop-color="#F4F9FF" offset="0%"></stop>
            <stop stop-color="#B2D2FF" offset="100%"></stop>
        </linearGradient>
        <linearGradient x1="0%" y1="32.3020821%" x2="100%" y2="70.9462151%" id="linearGradient-4">
            <stop stop-color="#08ACC7" offset="0%"></stop>
            <stop stop-color="#09DBDF" offset="100%"></stop>
        </linearGradient>
        <linearGradient x1="100%" y1="50%" x2="2.580317%" y2="50%" id="linearGradient-5">
            <stop stop-color="#F5515F" offset="0%"></stop>
            <stop stop-color="#9F041B" offset="100%"></stop>
        </linearGradient>
        <linearGradient x1="-5.36145386%" y1="100%" x2="-95.9056988%" y2="50%" id="linearGradient-6">
            <stop stop-color="#F5515F" offset="0%"></stop>
            <stop stop-color="#9F041B" offset="100%"></stop>
        </linearGradient>
        <linearGradient x1="100%" y1="50%" x2="0%" y2="50%" id="linearGradient-7">
            <stop stop-color="#F5515F" offset="0%"></stop>
            <stop stop-color="#9F041B" offset="100%"></stop>
        </linearGradient>
        <linearGradient x1="0%" y1="50%" x2="100%" y2="50%" id="linearGradient-8">
            <stop stop-color="#AF5414" offset="0%"></stop>
            <stop stop-color="#FFE63A" offset="100%"></stop>
        </linearGradient>
        <linearGradient x1="100%" y1="33.4271323%" x2="1.40116514%" y2="65.9651224%" id="linearGradient-9">
            <stop stop-color="#FAD961" offset="0%"></stop>
            <stop stop-color="#F76B1C" offset="100%"></stop>
        </linearGradient>
        <linearGradient x1="103.284875%" y1="58.0973962%" x2="-18.3958609%" y2="19.8408218%" id="linearGradient-10">
            <stop stop-color="#1425AF" offset="0%"></stop>
            <stop stop-color="#2149CC" offset="100%"></stop>
        </linearGradient>
        <linearGradient x1="98.437303%" y1="57.0370045%" x2="2.0595338%" y2="41.7668454%" id="linearGradient-11">
            <stop stop-color="#214ACE" offset="0%"></stop>
            <stop stop-color="#000078" offset="100%"></stop>
            <stop stop-color="#000078" offset="100%"></stop>
        </linearGradient>
        <linearGradient x1="126.914697%" y1="124.513671%" x2="-4.35539192%" y2="0%" id="linearGradient-12">
            <stop stop-color="#2D318E" offset="0%"></stop>
            <stop stop-color="#030021" offset="100%"></stop>
        </linearGradient>
        <linearGradient x1="0%" y1="0%" x2="100%" y2="100%" id="linearGradient-13">
            <stop stop-color="#3474FF" offset="0%"></stop>
            <stop stop-color="#000078" offset="100%"></stop>
            <stop stop-color="#000078" offset="100%"></stop>
        </linearGradient>
        <linearGradient x1="11.8329212%" y1="0%" x2="87.4657832%" y2="97.9777518%" id="linearGradient-14">
            <stop stop-color="#2149CD" offset="0%"></stop>
            <stop stop-color="#000078" offset="100%"></stop>
            <stop stop-color="#000078" offset="100%"></stop>
        </linearGradient>
        <linearGradient x1="64.1164273%" y1="100%" x2="64.1164273%" y2="0%" id="linearGradient-15">
            <stop stop-color="#F4F9FF" offset="0%"></stop>
            <stop stop-color="#B2D2FF" offset="100%"></stop>
        </linearGradient>
        <linearGradient x1="100%" y1="30.5233901%" x2="10.2807127%" y2="54.5780926%" id="linearGradient-16">
            <stop stop-color="#0069FF" stop-opacity="0.4" offset="0%"></stop>
            <stop stop-color="#0069FF" stop-opacity="0" offset="100%"></stop>
        </linearGradient>
    </defs>
    <g id="Page-1" stroke="none" stroke-width="1" fill="none" fill-rule="evenodd">
        <g id="Desktop-HD" transform="translate(-787.000000, -117.000000)">
            <g id="TOP">
                <g id="Illustration">
                    <g id="Group-4" transform="translate(787.000000, 117.000000)">
                        <g id="光线" transform="translate(0.000000, 190.882530)" fill-rule="nonzero" stroke-width="1.4">
                            <polygon id="Path" stroke="url(#linearGradient-1)" stroke-linejoin="round" points="0.686553672 115.96988 72.8587571 157.623795 145.03096 115.96988 72.8587571 74.3299699"></polygon>
                            <path d="M245.898305,112.048193 L204.564972,137.259036" id="Path-8" stroke="#00D4D8"></path>
                            <polygon id="Path" stroke="url(#linearGradient-1)" stroke-linejoin="round" points="99.8164972 171.293675 171.988701 212.94759 244.216949 171.293675 172.044746 129.653765"></polygon>
                            <polygon id="Path" stroke="url(#linearGradient-1)" stroke-linejoin="round" points="273.920904 272.291114 199.661017 229.418675 273.920904 186.560241 348.180791 229.418675"></polygon>
                            <path d="M270.544181,1.2185241 L164.912994,62.172741 C164.345468,62.496881 163.997227,63.1020573 164.00226,63.7554217 C163.996324,64.4053733 164.345504,65.006811 164.912994,65.3240964 L335.304407,163.674398 C339.644114,166.159127 344.975999,166.159127 349.315706,163.674398 L447.997288,106.711898 C448.560442,106.390229 448.908,105.791586 448.908023,105.143223 C448.90723,104.491404 448.560549,103.888939 447.997288,103.560542 L270.544181,1.2185241 Z" id="Path" stroke="url(#linearGradient-1)" stroke-linejoin="round"></path>
                        </g>
                        <g id="绿" transform="translate(103.683616, 281.921687)">
                            <polygon id="Path" fill="url(#linearGradient-2)" points="137.576949 73.1534639 137.576949 59.315512 68.9355932 97.1737952 0.280225989 59.315512 0.280225989 73.1534639 68.9355932 112.776506"></polygon>
                            <polygon id="Path" fill="url(#linearGradient-3)" points="68.9355932 98.9245482 0.280225989 59.315512 68.9355932 19.6924699 137.576949 59.315512"></polygon>
                            <polygon id="Path" fill="#FFFFFF" opacity="0.606050037" points="68.9355932 97.7900602 1.27502825 58.7412651 0.280225989 59.315512 68.9355932 98.9245482 137.576949 59.315512 136.596158 58.7412651"></polygon>
                            <g id="Group-6" transform="translate(25.220339, 0.000000)">
                                <polygon id="Path" fill="url(#linearGradient-4)" points="43.7152542 83.7980422 1.27502825 59.315512 43.7152542 34.8189759 86.1554802 59.315512"></polygon>
                                <polygon id="Path" fill="url(#linearGradient-4)" opacity="0.5" points="43.7152542 0.54623494 86.1554802 25.0427711 86.1554802 59.315512 43.7152542 34.8189759"></polygon>
                                <polygon id="Path" fill="url(#linearGradient-4)" opacity="0.5" points="43.7152542 34.8189759 1.27502825 59.315512 1.27502825 25.0427711 43.7152542 0.54623494"></polygon>
                                <polygon id="Path" fill="url(#linearGradient-4)" opacity="0.5" points="43.7152542 49.5393072 1.27502825 25.0427711 43.7152542 0.54623494 86.1554802 25.0427711"></polygon>
                                <polygon id="Path" fill="url(#linearGradient-4)" opacity="0.5" points="43.7152542 49.5393072 43.7152542 83.7980422 86.1554802 59.315512 86.1554802 25.0427711"></polygon>
                                <polygon id="Path" fill="url(#linearGradient-4)" opacity="0.5" points="1.27502825 25.0427711 1.27502825 59.315512 43.7152542 83.7980422 43.7152542 49.5393072"></polygon>
                                <polygon id="Path" fill="#86FFF2" opacity="0.8" points="43.7152542 48.3768072 2.28384181 24.4545181 1.27502825 25.0427711 43.7152542 49.5393072 86.1554802 25.0427711 85.1466667 24.4545181"></polygon>
                            </g>
                        </g>
                        <g id="红" transform="translate(4.203390, 225.897590)">
                            <polygon id="Path" fill="url(#linearGradient-2)" points="137.576949 73.1534639 137.576949 59.315512 68.9355932 97.1737952 0.280225989 59.315512 0.280225989 73.1534639 68.9355932 112.776506"></polygon>
                            <polygon id="Path" fill="url(#linearGradient-3)" points="68.9355932 98.9245482 0.280225989 59.315512 68.9355932 19.6924699 137.576949 59.315512"></polygon>
                            <polygon id="Path" fill="#FFFFFF" opacity="0.606050037" points="68.9355932 97.7900602 1.27502825 58.7412651 0.280225989 59.315512 68.9355932 98.9245482 137.576949 59.315512 136.596158 58.7412651"></polygon>
                            <g id="Group-6" transform="translate(25.220339, 0.000000)">
                                <polygon id="Path" fill="url(#linearGradient-5)" points="43.7152542 83.7980422 1.27502825 59.315512 43.7152542 34.8189759 86.1554802 59.315512"></polygon>
                                <polygon id="Path" fill="url(#linearGradient-6)" opacity="0.5" points="43.7152542 0.54623494 86.1554802 25.0427711 86.1554802 59.315512 43.7152542 34.8189759"></polygon>
                                <polygon id="Path" fill="url(#linearGradient-6)" opacity="0.5" points="43.7152542 34.8189759 1.27502825 59.315512 1.27502825 25.0427711 43.7152542 0.54623494"></polygon>
                                <polygon id="Path" fill="url(#linearGradient-7)" opacity="0.5" points="43.7152542 49.5393072 1.27502825 25.0427711 43.7152542 0.54623494 86.1554802 25.0427711"></polygon>
                                <polygon id="Path" fill="url(#linearGradient-6)" opacity="0.5" points="43.7152542 49.5393072 43.7152542 83.7980422 86.1554802 59.315512 86.1554802 25.0427711"></polygon>
                                <polygon id="Path" fill="url(#linearGradient-6)" opacity="0.5" points="1.27502825 25.0427711 1.27502825 59.315512 43.7152542 83.7980422 43.7152542 49.5393072"></polygon>
                                <polygon id="Path" fill="#FF7B89" opacity="0.655119978" points="43.7152542 48.3768072 2.28384181 24.4545181 1.27502825 25.0427711 43.7152542 49.5393072 86.1554802 25.0427711 85.1466667 24.4545181"></polygon>
                            </g>
                        </g>
                        <g id="黄" transform="translate(203.163842, 337.945783)">
                            <polygon id="Path" fill="url(#linearGradient-2)" points="137.576949 73.1534639 137.576949 59.315512 68.9355932 97.1737952 0.280225989 59.315512 0.280225989 73.1534639 68.9355932 112.776506"></polygon>
                            <polygon id="Path" fill="url(#linearGradient-3)" points="68.9355932 98.9245482 0.280225989 59.315512 68.9355932 19.6924699 137.576949 59.315512"></polygon>
                            <polygon id="Path" fill="#FFFFFF" opacity="0.606050037" points="68.9355932 97.7900602 1.27502825 58.7412651 0.280225989 59.315512 68.9355932 98.9245482 137.576949 59.315512 136.596158 58.7412651"></polygon>
                            <g id="Group-6" transform="translate(25.220339, 0.000000)">
                                <polygon id="Path" fill="#0F054C" points="43.7152542 83.7980422 1.27502825 59.315512 43.7152542 34.8189759 86.1554802 59.315512"></polygon>
                                <polygon id="Path" fill="url(#linearGradient-8)" points="43.7152542 83.7980422 1.27502825 59.315512 43.7152542 34.8189759 86.1554802 59.315512"></polygon>
                                <polygon id="Path" fill="url(#linearGradient-9)" opacity="0.5" points="43.7152542 0.54623494 86.1554802 25.0427711 86.1554802 59.315512 43.7152542 34.8189759"></polygon>
                                <polygon id="Path" fill="url(#linearGradient-9)" opacity="0.5" points="43.7152542 34.8189759 1.27502825 59.315512 1.27502825 25.0427711 43.7152542 0.54623494"></polygon>
                                <polygon id="Path" fill="url(#linearGradient-9)" opacity="0.5" points="43.7152542 49.5393072 1.27502825 25.0427711 43.7152542 0.54623494 86.1554802 25.0427711"></polygon>
                                <polygon id="Path" fill="url(#linearGradient-9)" opacity="0.5" points="43.7152542 49.5393072 43.7152542 83.7980422 86.1554802 59.315512 86.1554802 25.0427711"></polygon>
                                <polygon id="Path" fill="url(#linearGradient-9)" opacity="0.5" points="1.27502825 25.0427711 1.27502825 59.315512 43.7152542 83.7980422 43.7152542 49.5393072"></polygon>
                                <polygon id="Path" fill="#FFDA9D" opacity="0.8" points="43.7152542 48.3768072 2.28384181 24.4545181 1.27502825 25.0427711 43.7152542 49.5393072 86.1554802 25.0427711 85.1466667 24.4545181"></polygon>
                            </g>
                        </g>
                        <g id="电脑" transform="translate(128.903955, 0.000000)">
                            <g id="Group-2" transform="translate(26.621469, 148.864458)">
                                <path d="M0.406327684,68.6295181 L10.760678,74.0358434 L114.584407,14.1180723 C116.76058,13.1267991 119.278936,13.2308243 121.365876,14.3981928 L300.416271,117.650602 C302.139661,116.698193 309.943955,112.944578 309.943955,112.944578 L306.160904,122.748795 C305.961854,123.254519 305.58251,123.668647 305.096045,123.911295 L195.80791,187.02244 C193.636541,188.013526 191.12242,187.909461 189.040452,186.742319 L5.80067797,80.9968373 C5.10890216,80.6504298 4.56269058,80.069678 4.25943503,79.3581325 L0.406327684,68.6295181 Z" id="Path" fill="url(#linearGradient-10)" fill-rule="nonzero"></path>
                                <path d="M2.01762712,70.2962349 L189.76904,178.688855 C191.90743,179.870048 194.477882,179.973866 196.704633,178.968976 L308.795028,114.289157 C310.574463,113.266717 310.350282,111.487952 308.304633,110.283434 L120.497175,1.90481928 C118.342766,0.691180141 115.736024,0.586949714 113.491525,1.6246988 L1.40112994,66.290512 C-0.266214689,67.3269578 1.66533454e-16,69.1197289 2.01762712,70.2962349 Z" id="Path" fill="url(#linearGradient-11)" fill-rule="nonzero"></path>
                                <path d="M2.01762712,69.4558735 L189.76904,177.848494 C191.90743,179.029687 194.477882,179.133505 196.704633,178.128614 L308.795028,113.448795 C309.333239,113.184927 309.742359,112.715373 309.929944,112.146235 C310.114004,113.04008 309.638013,113.938837 308.795028,114.289157 L196.704633,178.968976 C194.477882,179.973866 191.90743,179.870048 189.76904,178.688855 L2.01762712,70.2962349 C0.686553672,69.5259036 0.126101695,68.5034639 0.378305085,67.6070783 C0.651675164,68.4198664 1.24323003,69.0870103 2.01762712,69.4558735 Z" id="Path" fill="#96FFF4" opacity="0.41968936"></path>
                                <path d="M246.444746,155.242771 L246.444746,153.183886 C246.444746,152.987801 246.332655,152.889759 246.178531,152.973795 L238.920678,157.175602 C238.754824,157.290071 238.655416,157.478352 238.654463,157.679819 L238.654463,159.738705 C238.654463,159.934789 238.766554,160.018825 238.920678,159.934789 L246.178531,155.732982 C246.340401,155.621371 246.439296,155.439264 246.444746,155.242771 Z" id="Path" fill-opacity="0.601449275" fill="#13165E"></path>
                                <path d="M235.585989,161.503464 L235.585989,159.444578 C235.585989,159.248494 235.459887,159.164458 235.319774,159.248494 L228.061921,163.450301 C227.896067,163.56477 227.796659,163.753051 227.795706,163.954518 L227.795706,166.013404 C227.795706,166.209488 227.907797,166.30753 228.061921,166.223494 L235.319774,162.021687 C235.486032,161.901203 235.584904,161.708735 235.585989,161.503464 Z" id="Path" fill-opacity="0.601449275" fill="#13165E"></path>
                            </g>
                            <g id="键盘" transform="translate(89.672316, 165.671687)">
                                <path d="M216.544633,91.4313253 L60.4867797,1.40060241 C59.4448274,0.805856685 58.1660201,0.805856685 57.1240678,1.40060241 L1.55525424,33.5304217 C1.18141867,33.741615 0.950261002,34.1376234 0.950261002,34.5668675 C0.950261002,34.9961115 1.18141867,35.3921199 1.55525424,35.6033133 L157.543051,125.634036 C158.582697,126.237405 159.866116,126.237405 160.905763,125.634036 L216.544633,93.5322289 C216.932723,93.3253252 217.175141,92.9214474 217.175141,92.4817771 C217.175141,92.0421068 216.932723,91.638229 216.544633,91.4313253 Z" id="Path" fill="#1627B1"></path>
                                <path d="M216.544633,93.5042169 L215.984181,93.8263554 L60.4587571,4.08975904 C59.4191107,3.48639054 58.1356916,3.48639054 57.0960452,4.08975904 L2.08768362,35.8974398 L1.52723164,35.5753012 C1.15339607,35.3641078 0.922238403,34.9680995 0.922238403,34.5388554 C0.922238403,34.1096114 1.15339607,33.713603 1.52723164,33.5024096 L57.1240678,1.40060241 C58.1660201,0.805856685 59.4448274,0.805856685 60.4867797,1.40060241 L216.544633,91.4733434 C216.898274,91.6896931 217.113903,92.0743226 217.113903,92.4887801 C217.113903,92.9032377 216.898274,93.2878671 216.544633,93.5042169 Z" id="Path" fill-opacity="0.605270607" fill="#11195D"></path>
                                <polygon id="Path" fill="url(#linearGradient-12)" opacity="0.803687686" points="52.9346893 9.51009036 188.494011 87.747741 194.51887 84.260241 58.959548 6.02259036"></polygon>
                                <polygon id="Path" fill="url(#linearGradient-12)" opacity="0.803687686" points="38.1527684 18.039759 165.305311 91.4173193 171.330169 87.9298193 44.1916384 14.552259"></polygon>
                                <polygon id="Path" fill="url(#linearGradient-12)" opacity="0.803687686" points="28.5270056 23.5861446 178.23774 109.989307 184.262599 106.515813 34.5658757 20.1126506"></polygon>
                                <polygon id="Path" fill="url(#linearGradient-12)" opacity="0.803687686" points="18.9152542 29.1465361 168.611977 115.535693 174.636836 112.062199 24.940113 25.6590361"></polygon>
                                <polygon id="Path-7" fill="url(#linearGradient-12)" opacity="0.803687686" points="158.986215 121.096084 165.011073 117.62259 15.3143503 31.2194277 9.28949153 34.6929217"></polygon>
                                <polygon id="Path" fill="url(#linearGradient-12)" opacity="0.803687686" points="196.67661 92.4677711 202.701469 95.9412651 208.740339 92.4677711 202.701469 88.9942771"></polygon>
                                <polygon id="Path" fill="url(#linearGradient-12)" opacity="0.803687686" points="175.421469 97.2578313 187.933559 104.470934 193.958418 100.99744 181.446328 93.7703313"></polygon>
                            </g>
                            <g id="触摸板" transform="translate(99.480226, 232.900602)">
                                <path d="M2.63412429,21.7093373 C1.89347551,21.4649727 1.39317211,20.7732543 1.39317211,19.9935994 C1.39317211,19.2139445 1.89347551,18.5222261 2.63412429,18.2778614 L31.4133333,1.66671687 C33.2838209,0.71383139 35.497648,0.71383139 37.3681356,1.66671687 L79.4020339,25.9531627 C80.1426827,26.1975273 80.6429861,26.8892457 80.6429861,27.6689006 C80.6429861,28.4485555 80.1426827,29.1402739 79.4020339,29.3846386 L50.6228249,45.9957831 C48.7523372,46.9486686 46.5385102,46.9486686 44.6680226,45.9957831 L2.63412429,21.7093373 Z" id="Path" fill-opacity="0.582342618" fill="#1425AF"></path>
                                <path d="M79.4020339,27.3537651 L37.3681356,3.0813253 C35.497648,2.12843982 33.2838209,2.12843982 31.4133333,3.0813253 L2.63412429,19.6784639 C2.19786295,19.9132194 1.83804562,20.2680407 1.59728814,20.7009036 C1.16293785,19.8605422 1.49920904,18.9361446 2.63412429,18.2778614 L31.4133333,1.66671687 C33.2838209,0.71383139 35.497648,0.71383139 37.3681356,1.66671687 L79.4020339,25.9531627 C80.5369492,26.6114458 80.8732203,27.5498494 80.4388701,28.3762048 C80.1981126,27.9433419 79.8382952,27.5885206 79.4020339,27.3537651 Z" id="Path" fill-opacity="0.599241395" fill="#11195D"></path>
                            </g>
                            <g id="Group-3">
                                <path d="M146.810395,143.752259 L170.545537,2.96370482 L168.64,2.16536145 L171.44226,0.526656627 C172.146359,0.138679824 173.012521,0.198959541 173.656045,0.680722892 L363.36904,110.179819 C365.007566,111.210329 365.953107,113.052367 365.835028,114.983886 L341.959774,256.906928 C341.898515,257.516513 341.520492,258.048738 340.964972,258.30753 L338.162712,259.932229 L337.686328,257.313102 L337.840452,257.313102 L149.262373,148.570331 C147.63155,147.527549 146.693299,145.68391 146.810395,143.752259 Z" id="Path" fill="url(#linearGradient-13)"></path>
                                <path d="M146.291977,150.26506 L336.018983,259.764157 C337.420113,260.604518 338.737175,260.114307 338.989379,258.601657 L362.892655,116.650602 C362.994808,114.71866 362.053778,112.880066 360.426667,111.83253 L170.727684,2.40346386 C169.326554,1.54909639 168.009492,2.03930723 167.757288,3.55195783 L143.825989,145.460994 C143.726015,147.388677 144.667126,149.222085 146.291977,150.26506 Z" id="Path" fill="url(#linearGradient-14)"></path>
                                <polygon id="Path" fill="url(#linearGradient-15)" opacity="0.201846168" points="356.755706 117.154819 334.085424 250.800301 151.322034 145.320934 173.880226 11.6054217"></polygon>
                                <polygon id="Path-Copy" fill="url(#linearGradient-15)" opacity="0.496117001" points="317.524068 128.773143 293.307592 271.809337 98.079096 158.918374 122.175836 15.8072289"></polygon>
                                <polygon id="Path-Copy-2" fill="url(#linearGradient-15)" opacity="0.970145089" points="278.292429 137.096714 251.602045 294.218976 36.4293785 170.210618 62.9877957 13.0060241"></polygon>
                                <path d="M163.357626,200.335698 L160.17449,218.599332 L114.722842,191.771949 L117.905979,173.508314 L163.357626,200.335698 Z M106.543067,166.801469 L103.359931,185.065103 L68.0086493,164.19936 L71.1917854,145.935726 L106.543067,166.801469 Z M226.484914,237.595953 L223.301778,255.859587 L171.537402,225.306178 L174.720538,207.042544 L226.484914,237.595953 Z M154.318578,92.4140184 L151.135442,110.677652 L84.2205164,71.1817822 L87.4036524,52.9181482 L154.318578,92.4140184 Z M165.68149,99.1208642 L242.696781,144.578375 L239.513645,162.842009 L162.498354,117.384498 L165.68149,99.1208642 Z M81.9996967,83.9240074 L237.292825,175.584234 L234.109689,193.847868 L78.8165607,102.187641 L81.9996967,83.9240074 Z M76.8413754,113.520509 L232.134504,205.180736 L228.951368,223.44437 L73.6582394,131.784143 L76.8413754,113.520509 Z" id="Combined-Shape" fill-opacity="0.293223505" fill="#0069FF"></path>
                                <polygon id="Path-2" fill="url(#linearGradient-16)" fill-rule="nonzero" points="0 11.6054217 173.740113 11.6054217 356.587571 117.350904 334.085424 250.800301 172.338983 336.562581 1.27502825 239.903614"></polygon>
                            </g>
                        </g>
                    </g>
                </g>
            </g>
        </g>
    </g>
</svg>