<?xml version="1.0" encoding="UTF-8"?>
<svg width="1920px" height="400px" viewBox="0 0 1920 400" version="1.1" xmlns="http://www.w3.org/2000/svg" xmlns:xlink="http://www.w3.org/1999/xlink">
    <!-- Generator: Sketch 52.2 (67145) - http://www.bohemiancoding.com/sketch -->
    <title>Submission demand</title>
    <desc>Created with Sketch.</desc>
    <defs>
        <linearGradient x1="0%" y1="0%" x2="100%" y2="100%" id="linearGradient-1">
            <stop stop-color="#2D7AFB" offset="0%"></stop>
            <stop stop-color="#8192FF" offset="49.6926655%"></stop>
            <stop stop-color="#0046D1" offset="100%"></stop>
        </linearGradient>
        <polygon id="path-2" points="0 -3.0127012e-12 1440 -3.0127012e-12 1440 400 0 400"></polygon>
        <polygon id="path-4" points="0 -3.0127012e-12 1920 -3.0127012e-12 1920 400 0 400"></polygon>
    </defs>
    <g id="APP解决方案" stroke="none" stroke-width="1" fill="none" fill-rule="evenodd">
        <g id="APP-1440" transform="translate(0.000000, -4161.000000)">
            <g id="Footer" transform="translate(0.000000, 4161.000000)">
                <g id="Submission-demand">
                    <g id="banner-bg">
                        <mask id="mask-3" fill="white">
                            <use xlink:href="#path-2"></use>
                        </mask>
                        <use id="bg" fill="url(#linearGradient-1)" transform="translate(720.000000, 200.000000) scale(1, -1) translate(-720.000000, -200.000000) " xlink:href="#path-2"></use>
                        <mask id="mask-5" fill="white">
                            <use xlink:href="#path-4"></use>
                        </mask>
                        <use id="bg" fill="#2A4CE1" transform="translate(960.000000, 200.000000) scale(1, -1) translate(-960.000000, -200.000000) " xlink:href="#path-4"></use>
                        <g id="分组-28-copy" mask="url(#mask-5)" opacity="0.0952380952">
                            <g transform="translate(0.000000, -29.000000)">
                                <g id="分组-13-copy">
                                    <polygon id="路径-28" stroke="#FFFFFF" fill-rule="nonzero" points="54 60 108 30 54 0 0 30"></polygon>
                                    <polygon id="路径-28-copy" stroke="#FFFFFF" fill-rule="nonzero" points="54 180 108 150 54 120 0 150"></polygon>
                                    <polygon id="路径-28-copy-2" stroke="#FFFFFF" fill-rule="nonzero" points="54 300 108 270 54 240 0 270"></polygon>
                                    <polygon id="路径-28-copy-3" stroke="#FFFFFF" fill-rule="nonzero" points="54 420 108 390 54 360 0 390"></polygon>
                                    <polygon id="路径-29" stroke="#FFFFFF" fill-rule="nonzero" points="54 60 54 120 108 90 108 30"></polygon>
                                    <polygon id="路径-29-copy" stroke="#FFFFFF" fill-rule="nonzero" points="54 180 54 240 108 210 108 150"></polygon>
                                    <polygon id="路径-29-copy-3" stroke="#FFFFFF" fill-rule="nonzero" points="54 300 54 360 108 330 108 270"></polygon>
                                    <polygon id="路径-29-copy-5" stroke="#FFFFFF" fill-rule="nonzero" points="54 420 54 480 108 450 108 390"></polygon>
                                    <polygon id="路径-29" stroke="#FFFFFF" fill-rule="nonzero" transform="translate(27.000000, 75.000000) scale(-1, 1) translate(-27.000000, -75.000000) " points="1.43884904e-13 60 0 120 54 90 54 30"></polygon>
                                    <polygon id="路径-29-copy-2" stroke="#FFFFFF" fill-rule="nonzero" transform="translate(27.000000, 195.000000) scale(-1, 1) translate(-27.000000, -195.000000) " points="1.43884904e-13 180 0 240 54 210 54 150"></polygon>
                                    <polygon id="路径-29-copy-4" stroke="#FFFFFF" fill-rule="nonzero" transform="translate(27.000000, 315.000000) scale(-1, 1) translate(-27.000000, -315.000000) " points="1.43884904e-13 300 0 360 54 330 54 270"></polygon>
                                    <polygon id="路径-29-copy-6" stroke="#FFFFFF" fill-rule="nonzero" transform="translate(27.000000, 435.000000) scale(-1, 1) translate(-27.000000, -435.000000) " points="1.43884904e-13 420 0 480 54 450 54 390"></polygon>
                                </g>
                                <g id="分组-13-copy-2" transform="translate(108.000000, 0.000000)">
                                    <polygon id="路径-28" stroke="#FFFFFF" fill-rule="nonzero" points="54 60 108 30 54 0 0 30"></polygon>
                                    <polygon id="路径-28-copy" stroke="#FFFFFF" fill-rule="nonzero" points="54 180 108 150 54 120 0 150"></polygon>
                                    <polygon id="路径-28-copy-2" stroke="#FFFFFF" fill-rule="nonzero" points="54 300 108 270 54 240 0 270"></polygon>
                                    <polygon id="路径-28-copy-3" stroke="#FFFFFF" fill-rule="nonzero" points="54 420 108 390 54 360 0 390"></polygon>
                                    <polygon id="路径-29" stroke="#FFFFFF" fill-rule="nonzero" points="54 60 54 120 108 90 108 30"></polygon>
                                    <polygon id="路径-29-copy" stroke="#FFFFFF" fill-rule="nonzero" points="54 180 54 240 108 210 108 150"></polygon>
                                    <polygon id="路径-29-copy-3" stroke="#FFFFFF" fill-rule="nonzero" points="54 300 54 360 108 330 108 270"></polygon>
                                    <polygon id="路径-29-copy-5" stroke="#FFFFFF" fill-rule="nonzero" points="54 420 54 480 108 450 108 390"></polygon>
                                    <polygon id="路径-29" stroke="#FFFFFF" fill-rule="nonzero" transform="translate(27.000000, 75.000000) scale(-1, 1) translate(-27.000000, -75.000000) " points="1.43884904e-13 60 0 120 54 90 54 30"></polygon>
                                    <polygon id="路径-29-copy-2" stroke="#FFFFFF" fill-rule="nonzero" transform="translate(27.000000, 195.000000) scale(-1, 1) translate(-27.000000, -195.000000) " points="1.43884904e-13 180 0 240 54 210 54 150"></polygon>
                                    <polygon id="路径-29-copy-4" stroke="#FFFFFF" fill-rule="nonzero" transform="translate(27.000000, 315.000000) scale(-1, 1) translate(-27.000000, -315.000000) " points="1.43884904e-13 300 0 360 54 330 54 270"></polygon>
                                    <polygon id="路径-29-copy-6" stroke="#FFFFFF" fill-rule="nonzero" transform="translate(27.000000, 435.000000) scale(-1, 1) translate(-27.000000, -435.000000) " points="1.43884904e-13 420 0 480 54 450 54 390"></polygon>
                                </g>
                                <g id="分组-13-copy-3" transform="translate(216.000000, 0.000000)">
                                    <polygon id="路径-28" stroke="#FFFFFF" fill-rule="nonzero" points="54 60 108 30 54 0 0 30"></polygon>
                                    <polygon id="路径-28-copy" stroke="#FFFFFF" fill-rule="nonzero" points="54 180 108 150 54 120 0 150"></polygon>
                                    <polygon id="路径-28-copy-2" stroke="#FFFFFF" fill-rule="nonzero" points="54 300 108 270 54 240 0 270"></polygon>
                                    <polygon id="路径-28-copy-3" stroke="#FFFFFF" fill-rule="nonzero" points="54 420 108 390 54 360 0 390"></polygon>
                                    <polygon id="路径-29" stroke="#FFFFFF" fill-rule="nonzero" points="54 60 54 120 108 90 108 30"></polygon>
                                    <polygon id="路径-29-copy" stroke="#FFFFFF" fill-rule="nonzero" points="54 180 54 240 108 210 108 150"></polygon>
                                    <polygon id="路径-29-copy-3" stroke="#FFFFFF" fill-rule="nonzero" points="54 300 54 360 108 330 108 270"></polygon>
                                    <polygon id="路径-29-copy-5" stroke="#FFFFFF" fill-rule="nonzero" points="54 420 54 480 108 450 108 390"></polygon>
                                    <polygon id="路径-29" stroke="#FFFFFF" fill-rule="nonzero" transform="translate(27.000000, 75.000000) scale(-1, 1) translate(-27.000000, -75.000000) " points="1.43884904e-13 60 0 120 54 90 54 30"></polygon>
                                    <polygon id="路径-29-copy-2" stroke="#FFFFFF" fill-rule="nonzero" transform="translate(27.000000, 195.000000) scale(-1, 1) translate(-27.000000, -195.000000) " points="1.43884904e-13 180 0 240 54 210 54 150"></polygon>
                                    <polygon id="路径-29-copy-4" stroke="#FFFFFF" fill-rule="nonzero" transform="translate(27.000000, 315.000000) scale(-1, 1) translate(-27.000000, -315.000000) " points="1.43884904e-13 300 0 360 54 330 54 270"></polygon>
                                    <polygon id="路径-29-copy-6" stroke="#FFFFFF" fill-rule="nonzero" transform="translate(27.000000, 435.000000) scale(-1, 1) translate(-27.000000, -435.000000) " points="1.43884904e-13 420 0 480 54 450 54 390"></polygon>
                                </g>
                                <g id="分组-13-copy-4" transform="translate(324.000000, 0.000000)">
                                    <polygon id="路径-28" stroke="#FFFFFF" fill-rule="nonzero" points="54 60 108 30 54 0 0 30"></polygon>
                                    <polygon id="路径-28-copy" stroke="#FFFFFF" fill-rule="nonzero" points="54 180 108 150 54 120 0 150"></polygon>
                                    <polygon id="路径-28-copy-2" stroke="#FFFFFF" fill-rule="nonzero" points="54 300 108 270 54 240 0 270"></polygon>
                                    <polygon id="路径-28-copy-3" stroke="#FFFFFF" fill-rule="nonzero" points="54 420 108 390 54 360 0 390"></polygon>
                                    <polygon id="路径-29" stroke="#FFFFFF" fill-rule="nonzero" points="54 60 54 120 108 90 108 30"></polygon>
                                    <polygon id="路径-29-copy" stroke="#FFFFFF" fill-rule="nonzero" points="54 180 54 240 108 210 108 150"></polygon>
                                    <polygon id="路径-29-copy-3" stroke="#FFFFFF" fill-rule="nonzero" points="54 300 54 360 108 330 108 270"></polygon>
                                    <polygon id="路径-29-copy-5" stroke="#FFFFFF" fill-rule="nonzero" points="54 420 54 480 108 450 108 390"></polygon>
                                    <polygon id="路径-29" stroke="#FFFFFF" fill-rule="nonzero" transform="translate(27.000000, 75.000000) scale(-1, 1) translate(-27.000000, -75.000000) " points="1.43884904e-13 60 0 120 54 90 54 30"></polygon>
                                    <polygon id="路径-29-copy-2" stroke="#FFFFFF" fill-rule="nonzero" transform="translate(27.000000, 195.000000) scale(-1, 1) translate(-27.000000, -195.000000) " points="1.43884904e-13 180 0 240 54 210 54 150"></polygon>
                                    <polygon id="路径-29-copy-4" stroke="#FFFFFF" fill-rule="nonzero" transform="translate(27.000000, 315.000000) scale(-1, 1) translate(-27.000000, -315.000000) " points="1.43884904e-13 300 0 360 54 330 54 270"></polygon>
                                    <polygon id="路径-29-copy-6" stroke="#FFFFFF" fill-rule="nonzero" transform="translate(27.000000, 435.000000) scale(-1, 1) translate(-27.000000, -435.000000) " points="1.43884904e-13 420 0 480 54 450 54 390"></polygon>
                                </g>
                                <g id="分组-13-copy-5" transform="translate(432.000000, 0.000000)">
                                    <polygon id="路径-28" stroke="#FFFFFF" fill-rule="nonzero" points="54 60 108 30 54 0 0 30"></polygon>
                                    <polygon id="路径-28-copy" stroke="#FFFFFF" fill-rule="nonzero" points="54 180 108 150 54 120 0 150"></polygon>
                                    <polygon id="路径-28-copy-2" stroke="#FFFFFF" fill-rule="nonzero" points="54 300 108 270 54 240 0 270"></polygon>
                                    <polygon id="路径-28-copy-3" stroke="#FFFFFF" fill-rule="nonzero" points="54 420 108 390 54 360 0 390"></polygon>
                                    <polygon id="路径-29" stroke="#FFFFFF" fill-rule="nonzero" points="54 60 54 120 108 90 108 30"></polygon>
                                    <polygon id="路径-29-copy" stroke="#FFFFFF" fill-rule="nonzero" points="54 180 54 240 108 210 108 150"></polygon>
                                    <polygon id="路径-29-copy-3" stroke="#FFFFFF" fill-rule="nonzero" points="54 300 54 360 108 330 108 270"></polygon>
                                    <polygon id="路径-29-copy-5" stroke="#FFFFFF" fill-rule="nonzero" points="54 420 54 480 108 450 108 390"></polygon>
                                    <polygon id="路径-29" stroke="#FFFFFF" fill-rule="nonzero" transform="translate(27.000000, 75.000000) scale(-1, 1) translate(-27.000000, -75.000000) " points="1.43884904e-13 60 0 120 54 90 54 30"></polygon>
                                    <polygon id="路径-29-copy-2" stroke="#FFFFFF" fill-rule="nonzero" transform="translate(27.000000, 195.000000) scale(-1, 1) translate(-27.000000, -195.000000) " points="1.43884904e-13 180 0 240 54 210 54 150"></polygon>
                                    <polygon id="路径-29-copy-4" stroke="#FFFFFF" fill-rule="nonzero" transform="translate(27.000000, 315.000000) scale(-1, 1) translate(-27.000000, -315.000000) " points="1.43884904e-13 300 0 360 54 330 54 270"></polygon>
                                    <polygon id="路径-29-copy-6" stroke="#FFFFFF" fill-rule="nonzero" transform="translate(27.000000, 435.000000) scale(-1, 1) translate(-27.000000, -435.000000) " points="1.43884904e-13 420 0 480 54 450 54 390"></polygon>
                                </g>
                                <g id="分组-13-copy-6" transform="translate(540.000000, 0.000000)">
                                    <polygon id="路径-28" stroke="#FFFFFF" fill-rule="nonzero" points="54 60 108 30 54 0 0 30"></polygon>
                                    <polygon id="路径-28-copy" stroke="#FFFFFF" fill-rule="nonzero" points="54 180 108 150 54 120 0 150"></polygon>
                                    <polygon id="路径-28-copy-2" stroke="#FFFFFF" fill-rule="nonzero" points="54 300 108 270 54 240 0 270"></polygon>
                                    <polygon id="路径-28-copy-3" stroke="#FFFFFF" fill-rule="nonzero" points="54 420 108 390 54 360 0 390"></polygon>
                                    <polygon id="路径-29" stroke="#FFFFFF" fill-rule="nonzero" points="54 60 54 120 108 90 108 30"></polygon>
                                    <polygon id="路径-29-copy" stroke="#FFFFFF" fill-rule="nonzero" points="54 180 54 240 108 210 108 150"></polygon>
                                    <polygon id="路径-29-copy-3" stroke="#FFFFFF" fill-rule="nonzero" points="54 300 54 360 108 330 108 270"></polygon>
                                    <polygon id="路径-29-copy-5" stroke="#FFFFFF" fill-rule="nonzero" points="54 420 54 480 108 450 108 390"></polygon>
                                    <polygon id="路径-29" stroke="#FFFFFF" fill-rule="nonzero" transform="translate(27.000000, 75.000000) scale(-1, 1) translate(-27.000000, -75.000000) " points="1.43884904e-13 60 0 120 54 90 54 30"></polygon>
                                    <polygon id="路径-29-copy-2" stroke="#FFFFFF" fill-rule="nonzero" transform="translate(27.000000, 195.000000) scale(-1, 1) translate(-27.000000, -195.000000) " points="1.43884904e-13 180 0 240 54 210 54 150"></polygon>
                                    <polygon id="路径-29-copy-4" stroke="#FFFFFF" fill-rule="nonzero" transform="translate(27.000000, 315.000000) scale(-1, 1) translate(-27.000000, -315.000000) " points="1.43884904e-13 300 0 360 54 330 54 270"></polygon>
                                    <polygon id="路径-29-copy-6" stroke="#FFFFFF" fill-rule="nonzero" transform="translate(27.000000, 435.000000) scale(-1, 1) translate(-27.000000, -435.000000) " points="1.43884904e-13 420 0 480 54 450 54 390"></polygon>
                                </g>
                                <g id="分组-13-copy-7" transform="translate(648.000000, 0.000000)">
                                    <polygon id="路径-28" stroke="#FFFFFF" fill-rule="nonzero" points="54 60 108 30 54 0 0 30"></polygon>
                                    <polygon id="路径-28-copy" stroke="#FFFFFF" fill-rule="nonzero" points="54 180 108 150 54 120 0 150"></polygon>
                                    <polygon id="路径-28-copy-2" stroke="#FFFFFF" fill-rule="nonzero" points="54 300 108 270 54 240 0 270"></polygon>
                                    <polygon id="路径-28-copy-3" stroke="#FFFFFF" fill-rule="nonzero" points="54 420 108 390 54 360 0 390"></polygon>
                                    <polygon id="路径-29" stroke="#FFFFFF" fill-rule="nonzero" points="54 60 54 120 108 90 108 30"></polygon>
                                    <polygon id="路径-29-copy" stroke="#FFFFFF" fill-rule="nonzero" points="54 180 54 240 108 210 108 150"></polygon>
                                    <polygon id="路径-29-copy-3" stroke="#FFFFFF" fill-rule="nonzero" points="54 300 54 360 108 330 108 270"></polygon>
                                    <polygon id="路径-29-copy-5" stroke="#FFFFFF" fill-rule="nonzero" points="54 420 54 480 108 450 108 390"></polygon>
                                    <polygon id="路径-29" stroke="#FFFFFF" fill-rule="nonzero" transform="translate(27.000000, 75.000000) scale(-1, 1) translate(-27.000000, -75.000000) " points="1.43884904e-13 60 0 120 54 90 54 30"></polygon>
                                    <polygon id="路径-29-copy-2" stroke="#FFFFFF" fill-rule="nonzero" transform="translate(27.000000, 195.000000) scale(-1, 1) translate(-27.000000, -195.000000) " points="1.43884904e-13 180 0 240 54 210 54 150"></polygon>
                                    <polygon id="路径-29-copy-4" stroke="#FFFFFF" fill-rule="nonzero" transform="translate(27.000000, 315.000000) scale(-1, 1) translate(-27.000000, -315.000000) " points="1.43884904e-13 300 0 360 54 330 54 270"></polygon>
                                    <polygon id="路径-29-copy-6" stroke="#FFFFFF" fill-rule="nonzero" transform="translate(27.000000, 435.000000) scale(-1, 1) translate(-27.000000, -435.000000) " points="1.43884904e-13 420 0 480 54 450 54 390"></polygon>
                                </g>
                                <g id="分组-13-copy-8" transform="translate(756.000000, 0.000000)">
                                    <polygon id="路径-28" stroke="#FFFFFF" fill-rule="nonzero" points="54 60 108 30 54 0 0 30"></polygon>
                                    <polygon id="路径-28-copy" stroke="#FFFFFF" fill-rule="nonzero" points="54 180 108 150 54 120 0 150"></polygon>
                                    <polygon id="路径-28-copy-2" stroke="#FFFFFF" fill-rule="nonzero" points="54 300 108 270 54 240 0 270"></polygon>
                                    <polygon id="路径-28-copy-3" stroke="#FFFFFF" fill-rule="nonzero" points="54 420 108 390 54 360 0 390"></polygon>
                                    <polygon id="路径-29" stroke="#FFFFFF" fill-rule="nonzero" points="54 60 54 120 108 90 108 30"></polygon>
                                    <polygon id="路径-29-copy" stroke="#FFFFFF" fill-rule="nonzero" points="54 180 54 240 108 210 108 150"></polygon>
                                    <polygon id="路径-29-copy-3" stroke="#FFFFFF" fill-rule="nonzero" points="54 300 54 360 108 330 108 270"></polygon>
                                    <polygon id="路径-29-copy-5" stroke="#FFFFFF" fill-rule="nonzero" points="54 420 54 480 108 450 108 390"></polygon>
                                    <polygon id="路径-29" stroke="#FFFFFF" fill-rule="nonzero" transform="translate(27.000000, 75.000000) scale(-1, 1) translate(-27.000000, -75.000000) " points="1.43884904e-13 60 0 120 54 90 54 30"></polygon>
                                    <polygon id="路径-29-copy-2" stroke="#FFFFFF" fill-rule="nonzero" transform="translate(27.000000, 195.000000) scale(-1, 1) translate(-27.000000, -195.000000) " points="1.43884904e-13 180 0 240 54 210 54 150"></polygon>
                                    <polygon id="路径-29-copy-4" stroke="#FFFFFF" fill-rule="nonzero" transform="translate(27.000000, 315.000000) scale(-1, 1) translate(-27.000000, -315.000000) " points="1.43884904e-13 300 0 360 54 330 54 270"></polygon>
                                    <polygon id="路径-29-copy-6" stroke="#FFFFFF" fill-rule="nonzero" transform="translate(27.000000, 435.000000) scale(-1, 1) translate(-27.000000, -435.000000) " points="1.43884904e-13 420 0 480 54 450 54 390"></polygon>
                                </g>
                                <g id="分组-13-copy-9" transform="translate(864.000000, 0.000000)">
                                    <polygon id="路径-28" stroke="#FFFFFF" fill-rule="nonzero" points="54 60 108 30 54 0 0 30"></polygon>
                                    <polygon id="路径-28-copy" stroke="#FFFFFF" fill-rule="nonzero" points="54 180 108 150 54 120 0 150"></polygon>
                                    <polygon id="路径-28-copy-2" stroke="#FFFFFF" fill-rule="nonzero" points="54 300 108 270 54 240 0 270"></polygon>
                                    <polygon id="路径-28-copy-3" stroke="#FFFFFF" fill-rule="nonzero" points="54 420 108 390 54 360 0 390"></polygon>
                                    <polygon id="路径-29" stroke="#FFFFFF" fill-rule="nonzero" points="54 60 54 120 108 90 108 30"></polygon>
                                    <polygon id="路径-29-copy" stroke="#FFFFFF" fill-rule="nonzero" points="54 180 54 240 108 210 108 150"></polygon>
                                    <polygon id="路径-29-copy-3" stroke="#FFFFFF" fill-rule="nonzero" points="54 300 54 360 108 330 108 270"></polygon>
                                    <polygon id="路径-29-copy-5" stroke="#FFFFFF" fill-rule="nonzero" points="54 420 54 480 108 450 108 390"></polygon>
                                    <polygon id="路径-29" stroke="#FFFFFF" fill-rule="nonzero" transform="translate(27.000000, 75.000000) scale(-1, 1) translate(-27.000000, -75.000000) " points="1.43884904e-13 60 0 120 54 90 54 30"></polygon>
                                    <polygon id="路径-29-copy-2" stroke="#FFFFFF" fill-rule="nonzero" transform="translate(27.000000, 195.000000) scale(-1, 1) translate(-27.000000, -195.000000) " points="1.43884904e-13 180 0 240 54 210 54 150"></polygon>
                                    <polygon id="路径-29-copy-4" stroke="#FFFFFF" fill-rule="nonzero" transform="translate(27.000000, 315.000000) scale(-1, 1) translate(-27.000000, -315.000000) " points="1.43884904e-13 300 0 360 54 330 54 270"></polygon>
                                    <polygon id="路径-29-copy-6" stroke="#FFFFFF" fill-rule="nonzero" transform="translate(27.000000, 435.000000) scale(-1, 1) translate(-27.000000, -435.000000) " points="1.43884904e-13 420 0 480 54 450 54 390"></polygon>
                                </g>
                                <g id="分组-13-copy-10" transform="translate(972.000000, 0.000000)">
                                    <polygon id="路径-28" stroke="#FFFFFF" fill-rule="nonzero" points="54 60 108 30 54 0 0 30"></polygon>
                                    <polygon id="路径-28-copy" stroke="#FFFFFF" fill-rule="nonzero" points="54 180 108 150 54 120 0 150"></polygon>
                                    <polygon id="路径-28-copy-2" stroke="#FFFFFF" fill-rule="nonzero" points="54 300 108 270 54 240 0 270"></polygon>
                                    <polygon id="路径-28-copy-3" stroke="#FFFFFF" fill-rule="nonzero" points="54 420 108 390 54 360 0 390"></polygon>
                                    <polygon id="路径-29" stroke="#FFFFFF" fill-rule="nonzero" points="54 60 54 120 108 90 108 30"></polygon>
                                    <polygon id="路径-29-copy" stroke="#FFFFFF" fill-rule="nonzero" points="54 180 54 240 108 210 108 150"></polygon>
                                    <polygon id="路径-29-copy-3" stroke="#FFFFFF" fill-rule="nonzero" points="54 300 54 360 108 330 108 270"></polygon>
                                    <polygon id="路径-29-copy-5" stroke="#FFFFFF" fill-rule="nonzero" points="54 420 54 480 108 450 108 390"></polygon>
                                    <polygon id="路径-29" stroke="#FFFFFF" fill-rule="nonzero" transform="translate(27.000000, 75.000000) scale(-1, 1) translate(-27.000000, -75.000000) " points="1.43884904e-13 60 0 120 54 90 54 30"></polygon>
                                    <polygon id="路径-29-copy-2" stroke="#FFFFFF" fill-rule="nonzero" transform="translate(27.000000, 195.000000) scale(-1, 1) translate(-27.000000, -195.000000) " points="1.43884904e-13 180 0 240 54 210 54 150"></polygon>
                                    <polygon id="路径-29-copy-4" stroke="#FFFFFF" fill-rule="nonzero" transform="translate(27.000000, 315.000000) scale(-1, 1) translate(-27.000000, -315.000000) " points="1.43884904e-13 300 0 360 54 330 54 270"></polygon>
                                    <polygon id="路径-29-copy-6" stroke="#FFFFFF" fill-rule="nonzero" transform="translate(27.000000, 435.000000) scale(-1, 1) translate(-27.000000, -435.000000) " points="1.43884904e-13 420 0 480 54 450 54 390"></polygon>
                                </g>
                                <g id="分组-13-copy-11" transform="translate(1080.000000, 0.000000)">
                                    <polygon id="路径-28" stroke="#FFFFFF" fill-rule="nonzero" points="54 60 108 30 54 0 0 30"></polygon>
                                    <polygon id="路径-28-copy" stroke="#FFFFFF" fill-rule="nonzero" points="54 180 108 150 54 120 0 150"></polygon>
                                    <polygon id="路径-28-copy-2" stroke="#FFFFFF" fill-rule="nonzero" points="54 300 108 270 54 240 0 270"></polygon>
                                    <polygon id="路径-28-copy-3" stroke="#FFFFFF" fill-rule="nonzero" points="54 420 108 390 54 360 0 390"></polygon>
                                    <polygon id="路径-29" stroke="#FFFFFF" fill-rule="nonzero" points="54 60 54 120 108 90 108 30"></polygon>
                                    <polygon id="路径-29-copy" stroke="#FFFFFF" fill-rule="nonzero" points="54 180 54 240 108 210 108 150"></polygon>
                                    <polygon id="路径-29-copy-3" stroke="#FFFFFF" fill-rule="nonzero" points="54 300 54 360 108 330 108 270"></polygon>
                                    <polygon id="路径-29-copy-5" stroke="#FFFFFF" fill-rule="nonzero" points="54 420 54 480 108 450 108 390"></polygon>
                                    <polygon id="路径-29" stroke="#FFFFFF" fill-rule="nonzero" transform="translate(27.000000, 75.000000) scale(-1, 1) translate(-27.000000, -75.000000) " points="1.43884904e-13 60 0 120 54 90 54 30"></polygon>
                                    <polygon id="路径-29-copy-2" stroke="#FFFFFF" fill-rule="nonzero" transform="translate(27.000000, 195.000000) scale(-1, 1) translate(-27.000000, -195.000000) " points="1.43884904e-13 180 0 240 54 210 54 150"></polygon>
                                    <polygon id="路径-29-copy-4" stroke="#FFFFFF" fill-rule="nonzero" transform="translate(27.000000, 315.000000) scale(-1, 1) translate(-27.000000, -315.000000) " points="1.43884904e-13 300 0 360 54 330 54 270"></polygon>
                                    <polygon id="路径-29-copy-6" stroke="#FFFFFF" fill-rule="nonzero" transform="translate(27.000000, 435.000000) scale(-1, 1) translate(-27.000000, -435.000000) " points="1.43884904e-13 420 0 480 54 450 54 390"></polygon>
                                </g>
                                <g id="分组-13-copy-12" transform="translate(1188.000000, 0.000000)">
                                    <polygon id="路径-28" stroke="#FFFFFF" fill-rule="nonzero" points="54 60 108 30 54 0 0 30"></polygon>
                                    <polygon id="路径-28-copy" stroke="#FFFFFF" fill-rule="nonzero" points="54 180 108 150 54 120 0 150"></polygon>
                                    <polygon id="路径-28-copy-2" stroke="#FFFFFF" fill-rule="nonzero" points="54 300 108 270 54 240 0 270"></polygon>
                                    <polygon id="路径-28-copy-3" stroke="#FFFFFF" fill-rule="nonzero" points="54 420 108 390 54 360 0 390"></polygon>
                                    <polygon id="路径-29" stroke="#FFFFFF" fill-rule="nonzero" points="54 60 54 120 108 90 108 30"></polygon>
                                    <polygon id="路径-29-copy" stroke="#FFFFFF" fill-rule="nonzero" points="54 180 54 240 108 210 108 150"></polygon>
                                    <polygon id="路径-29-copy-3" stroke="#FFFFFF" fill-rule="nonzero" points="54 300 54 360 108 330 108 270"></polygon>
                                    <polygon id="路径-29-copy-5" stroke="#FFFFFF" fill-rule="nonzero" points="54 420 54 480 108 450 108 390"></polygon>
                                    <polygon id="路径-29" stroke="#FFFFFF" fill-rule="nonzero" transform="translate(27.000000, 75.000000) scale(-1, 1) translate(-27.000000, -75.000000) " points="1.43884904e-13 60 0 120 54 90 54 30"></polygon>
                                    <polygon id="路径-29-copy-2" stroke="#FFFFFF" fill-rule="nonzero" transform="translate(27.000000, 195.000000) scale(-1, 1) translate(-27.000000, -195.000000) " points="1.43884904e-13 180 0 240 54 210 54 150"></polygon>
                                    <polygon id="路径-29-copy-4" stroke="#FFFFFF" fill-rule="nonzero" transform="translate(27.000000, 315.000000) scale(-1, 1) translate(-27.000000, -315.000000) " points="1.43884904e-13 300 0 360 54 330 54 270"></polygon>
                                    <polygon id="路径-29-copy-6" stroke="#FFFFFF" fill-rule="nonzero" transform="translate(27.000000, 435.000000) scale(-1, 1) translate(-27.000000, -435.000000) " points="1.43884904e-13 420 0 480 54 450 54 390"></polygon>
                                </g>
                                <g id="分组-13-copy-13" transform="translate(1296.000000, 0.000000)">
                                    <polygon id="路径-28" stroke="#FFFFFF" fill-rule="nonzero" points="54 60 108 30 54 0 0 30"></polygon>
                                    <polygon id="路径-28-copy" stroke="#FFFFFF" fill-rule="nonzero" points="54 180 108 150 54 120 0 150"></polygon>
                                    <polygon id="路径-28-copy-2" stroke="#FFFFFF" fill-rule="nonzero" points="54 300 108 270 54 240 0 270"></polygon>
                                    <polygon id="路径-28-copy-3" stroke="#FFFFFF" fill-rule="nonzero" points="54 420 108 390 54 360 0 390"></polygon>
                                    <polygon id="路径-29" stroke="#FFFFFF" fill-rule="nonzero" points="54 60 54 120 108 90 108 30"></polygon>
                                    <polygon id="路径-29-copy" stroke="#FFFFFF" fill-rule="nonzero" points="54 180 54 240 108 210 108 150"></polygon>
                                    <polygon id="路径-29-copy-3" stroke="#FFFFFF" fill-rule="nonzero" points="54 300 54 360 108 330 108 270"></polygon>
                                    <polygon id="路径-29-copy-5" stroke="#FFFFFF" fill-rule="nonzero" points="54 420 54 480 108 450 108 390"></polygon>
                                    <polygon id="路径-29" stroke="#FFFFFF" fill-rule="nonzero" transform="translate(27.000000, 75.000000) scale(-1, 1) translate(-27.000000, -75.000000) " points="1.43884904e-13 60 0 120 54 90 54 30"></polygon>
                                    <polygon id="路径-29-copy-2" stroke="#FFFFFF" fill-rule="nonzero" transform="translate(27.000000, 195.000000) scale(-1, 1) translate(-27.000000, -195.000000) " points="1.43884904e-13 180 0 240 54 210 54 150"></polygon>
                                    <polygon id="路径-29-copy-4" stroke="#FFFFFF" fill-rule="nonzero" transform="translate(27.000000, 315.000000) scale(-1, 1) translate(-27.000000, -315.000000) " points="1.43884904e-13 300 0 360 54 330 54 270"></polygon>
                                    <polygon id="路径-29-copy-6" stroke="#FFFFFF" fill-rule="nonzero" transform="translate(27.000000, 435.000000) scale(-1, 1) translate(-27.000000, -435.000000) " points="1.43884904e-13 420 0 480 54 450 54 390"></polygon>
                                </g>
                                <g id="分组-13-copy-14" transform="translate(1837.000000, 0.000000)">
                                    <polygon id="路径-28" stroke="#FFFFFF" fill-rule="nonzero" points="54 60 108 30 54 0 0 30"></polygon>
                                    <polygon id="路径-28-copy" stroke="#FFFFFF" fill-rule="nonzero" points="54 180 108 150 54 120 0 150"></polygon>
                                    <polygon id="路径-28-copy-2" stroke="#FFFFFF" fill-rule="nonzero" points="54 300 108 270 54 240 0 270"></polygon>
                                    <polygon id="路径-28-copy-3" stroke="#FFFFFF" fill-rule="nonzero" points="54 420 108 390 54 360 0 390"></polygon>
                                    <polygon id="路径-29" stroke="#FFFFFF" fill-rule="nonzero" points="54 60 54 120 108 90 108 30"></polygon>
                                    <polygon id="路径-29-copy" stroke="#FFFFFF" fill-rule="nonzero" points="54 180 54 240 108 210 108 150"></polygon>
                                    <polygon id="路径-29-copy-3" stroke="#FFFFFF" fill-rule="nonzero" points="54 300 54 360 108 330 108 270"></polygon>
                                    <polygon id="路径-29-copy-5" stroke="#FFFFFF" fill-rule="nonzero" points="54 420 54 480 108 450 108 390"></polygon>
                                    <polygon id="路径-29" stroke="#FFFFFF" fill-rule="nonzero" transform="translate(27.000000, 75.000000) scale(-1, 1) translate(-27.000000, -75.000000) " points="1.43884904e-13 60 0 120 54 90 54 30"></polygon>
                                    <polygon id="路径-29-copy-2" stroke="#FFFFFF" fill-rule="nonzero" transform="translate(27.000000, 195.000000) scale(-1, 1) translate(-27.000000, -195.000000) " points="1.43884904e-13 180 0 240 54 210 54 150"></polygon>
                                    <polygon id="路径-29-copy-4" stroke="#FFFFFF" fill-rule="nonzero" transform="translate(27.000000, 315.000000) scale(-1, 1) translate(-27.000000, -315.000000) " points="1.43884904e-13 300 0 360 54 330 54 270"></polygon>
                                    <polygon id="路径-29-copy-6" stroke="#FFFFFF" fill-rule="nonzero" transform="translate(27.000000, 435.000000) scale(-1, 1) translate(-27.000000, -435.000000) " points="1.43884904e-13 420 0 480 54 450 54 390"></polygon>
                                </g>
                                <g id="分组-13-copy-14" transform="translate(1729.000000, 0.000000)">
                                    <polygon id="路径-28" stroke="#FFFFFF" fill-rule="nonzero" points="54 60 108 30 54 0 0 30"></polygon>
                                    <polygon id="路径-28-copy" stroke="#FFFFFF" fill-rule="nonzero" points="54 180 108 150 54 120 0 150"></polygon>
                                    <polygon id="路径-28-copy-2" stroke="#FFFFFF" fill-rule="nonzero" points="54 300 108 270 54 240 0 270"></polygon>
                                    <polygon id="路径-28-copy-3" stroke="#FFFFFF" fill-rule="nonzero" points="54 420 108 390 54 360 0 390"></polygon>
                                    <polygon id="路径-29" stroke="#FFFFFF" fill-rule="nonzero" points="54 60 54 120 108 90 108 30"></polygon>
                                    <polygon id="路径-29-copy" stroke="#FFFFFF" fill-rule="nonzero" points="54 180 54 240 108 210 108 150"></polygon>
                                    <polygon id="路径-29-copy-3" stroke="#FFFFFF" fill-rule="nonzero" points="54 300 54 360 108 330 108 270"></polygon>
                                    <polygon id="路径-29-copy-5" stroke="#FFFFFF" fill-rule="nonzero" points="54 420 54 480 108 450 108 390"></polygon>
                                    <polygon id="路径-29" stroke="#FFFFFF" fill-rule="nonzero" transform="translate(27.000000, 75.000000) scale(-1, 1) translate(-27.000000, -75.000000) " points="1.43884904e-13 60 0 120 54 90 54 30"></polygon>
                                    <polygon id="路径-29-copy-2" stroke="#FFFFFF" fill-rule="nonzero" transform="translate(27.000000, 195.000000) scale(-1, 1) translate(-27.000000, -195.000000) " points="1.43884904e-13 180 0 240 54 210 54 150"></polygon>
                                    <polygon id="路径-29-copy-4" stroke="#FFFFFF" fill-rule="nonzero" transform="translate(27.000000, 315.000000) scale(-1, 1) translate(-27.000000, -315.000000) " points="1.43884904e-13 300 0 360 54 330 54 270"></polygon>
                                    <polygon id="路径-29-copy-6" stroke="#FFFFFF" fill-rule="nonzero" transform="translate(27.000000, 435.000000) scale(-1, 1) translate(-27.000000, -435.000000) " points="1.43884904e-13 420 0 480 54 450 54 390"></polygon>
                                </g>
                                <g id="分组-13-copy-14" transform="translate(1620.000000, 0.000000)">
                                    <polygon id="路径-28" stroke="#FFFFFF" fill-rule="nonzero" points="54 60 108 30 54 0 0 30"></polygon>
                                    <polygon id="路径-28-copy" stroke="#FFFFFF" fill-rule="nonzero" points="54 180 108 150 54 120 0 150"></polygon>
                                    <polygon id="路径-28-copy-2" stroke="#FFFFFF" fill-rule="nonzero" points="54 300 108 270 54 240 0 270"></polygon>
                                    <polygon id="路径-28-copy-3" stroke="#FFFFFF" fill-rule="nonzero" points="54 420 108 390 54 360 0 390"></polygon>
                                    <polygon id="路径-29" stroke="#FFFFFF" fill-rule="nonzero" points="54 60 54 120 108 90 108 30"></polygon>
                                    <polygon id="路径-29-copy" stroke="#FFFFFF" fill-rule="nonzero" points="54 180 54 240 108 210 108 150"></polygon>
                                    <polygon id="路径-29-copy-3" stroke="#FFFFFF" fill-rule="nonzero" points="54 300 54 360 108 330 108 270"></polygon>
                                    <polygon id="路径-29-copy-5" stroke="#FFFFFF" fill-rule="nonzero" points="54 420 54 480 108 450 108 390"></polygon>
                                    <polygon id="路径-29" stroke="#FFFFFF" fill-rule="nonzero" transform="translate(27.000000, 75.000000) scale(-1, 1) translate(-27.000000, -75.000000) " points="1.43884904e-13 60 0 120 54 90 54 30"></polygon>
                                    <polygon id="路径-29-copy-2" stroke="#FFFFFF" fill-rule="nonzero" transform="translate(27.000000, 195.000000) scale(-1, 1) translate(-27.000000, -195.000000) " points="1.43884904e-13 180 0 240 54 210 54 150"></polygon>
                                    <polygon id="路径-29-copy-4" stroke="#FFFFFF" fill-rule="nonzero" transform="translate(27.000000, 315.000000) scale(-1, 1) translate(-27.000000, -315.000000) " points="1.43884904e-13 300 0 360 54 330 54 270"></polygon>
                                    <polygon id="路径-29-copy-6" stroke="#FFFFFF" fill-rule="nonzero" transform="translate(27.000000, 435.000000) scale(-1, 1) translate(-27.000000, -435.000000) " points="1.43884904e-13 420 0 480 54 450 54 390"></polygon>
                                </g>
                                <g id="分组-13-copy-14" transform="translate(1512.000000, 0.000000)">
                                    <polygon id="路径-28" stroke="#FFFFFF" fill-rule="nonzero" points="54 60 108 30 54 0 0 30"></polygon>
                                    <polygon id="路径-28-copy" stroke="#FFFFFF" fill-rule="nonzero" points="54 180 108 150 54 120 0 150"></polygon>
                                    <polygon id="路径-28-copy-2" stroke="#FFFFFF" fill-rule="nonzero" points="54 300 108 270 54 240 0 270"></polygon>
                                    <polygon id="路径-28-copy-3" stroke="#FFFFFF" fill-rule="nonzero" points="54 420 108 390 54 360 0 390"></polygon>
                                    <polygon id="路径-29" stroke="#FFFFFF" fill-rule="nonzero" points="54 60 54 120 108 90 108 30"></polygon>
                                    <polygon id="路径-29-copy" stroke="#FFFFFF" fill-rule="nonzero" points="54 180 54 240 108 210 108 150"></polygon>
                                    <polygon id="路径-29-copy-3" stroke="#FFFFFF" fill-rule="nonzero" points="54 300 54 360 108 330 108 270"></polygon>
                                    <polygon id="路径-29-copy-5" stroke="#FFFFFF" fill-rule="nonzero" points="54 420 54 480 108 450 108 390"></polygon>
                                    <polygon id="路径-29" stroke="#FFFFFF" fill-rule="nonzero" transform="translate(27.000000, 75.000000) scale(-1, 1) translate(-27.000000, -75.000000) " points="1.43884904e-13 60 0 120 54 90 54 30"></polygon>
                                    <polygon id="路径-29-copy-2" stroke="#FFFFFF" fill-rule="nonzero" transform="translate(27.000000, 195.000000) scale(-1, 1) translate(-27.000000, -195.000000) " points="1.43884904e-13 180 0 240 54 210 54 150"></polygon>
                                    <polygon id="路径-29-copy-4" stroke="#FFFFFF" fill-rule="nonzero" transform="translate(27.000000, 315.000000) scale(-1, 1) translate(-27.000000, -315.000000) " points="1.43884904e-13 300 0 360 54 330 54 270"></polygon>
                                    <polygon id="路径-29-copy-6" stroke="#FFFFFF" fill-rule="nonzero" transform="translate(27.000000, 435.000000) scale(-1, 1) translate(-27.000000, -435.000000) " points="1.43884904e-13 420 0 480 54 450 54 390"></polygon>
                                </g>
                                <g id="分组-13-copy-14" transform="translate(1404.000000, 0.000000)">
                                    <polygon id="路径-28" stroke="#FFFFFF" fill-rule="nonzero" points="54 60 108 30 54 0 0 30"></polygon>
                                    <polygon id="路径-28-copy" stroke="#FFFFFF" fill-rule="nonzero" points="54 180 108 150 54 120 0 150"></polygon>
                                    <polygon id="路径-28-copy-2" stroke="#FFFFFF" fill-rule="nonzero" points="54 300 108 270 54 240 0 270"></polygon>
                                    <polygon id="路径-28-copy-3" stroke="#FFFFFF" fill-rule="nonzero" points="54 420 108 390 54 360 0 390"></polygon>
                                    <polygon id="路径-29" stroke="#FFFFFF" fill-rule="nonzero" points="54 60 54 120 108 90 108 30"></polygon>
                                    <polygon id="路径-29-copy" stroke="#FFFFFF" fill-rule="nonzero" points="54 180 54 240 108 210 108 150"></polygon>
                                    <polygon id="路径-29-copy-3" stroke="#FFFFFF" fill-rule="nonzero" points="54 300 54 360 108 330 108 270"></polygon>
                                    <polygon id="路径-29-copy-5" stroke="#FFFFFF" fill-rule="nonzero" points="54 420 54 480 108 450 108 390"></polygon>
                                    <polygon id="路径-29" stroke="#FFFFFF" fill-rule="nonzero" transform="translate(27.000000, 75.000000) scale(-1, 1) translate(-27.000000, -75.000000) " points="1.43884904e-13 60 0 120 54 90 54 30"></polygon>
                                    <polygon id="路径-29-copy-2" stroke="#FFFFFF" fill-rule="nonzero" transform="translate(27.000000, 195.000000) scale(-1, 1) translate(-27.000000, -195.000000) " points="1.43884904e-13 180 0 240 54 210 54 150"></polygon>
                                    <polygon id="路径-29-copy-4" stroke="#FFFFFF" fill-rule="nonzero" transform="translate(27.000000, 315.000000) scale(-1, 1) translate(-27.000000, -315.000000) " points="1.43884904e-13 300 0 360 54 330 54 270"></polygon>
                                    <polygon id="路径-29-copy-6" stroke="#FFFFFF" fill-rule="nonzero" transform="translate(27.000000, 435.000000) scale(-1, 1) translate(-27.000000, -435.000000) " points="1.43884904e-13 420 0 480 54 450 54 390"></polygon>
                                </g>
                            </g>
                        </g>
                    </g>
                </g>
            </g>
        </g>
    </g>
</svg>