<?xml version="1.0" encoding="UTF-8"?>
<svg width="2880px" height="707px" viewBox="0 0 2880 707" version="1.1" xmlns="http://www.w3.org/2000/svg" xmlns:xlink="http://www.w3.org/1999/xlink">
    <!-- Generator: Sketch 51.2 (57519) - http://www.bohemiancoding.com/sketch -->
    <title>Group 19</title>
    <desc>Created with Sketch.</desc>
    <defs>
        <linearGradient x1="84.8185858%" y1="0%" x2="30.1332817%" y2="65.6711468%" id="linearGradient-1">
            <stop stop-color="#73B9FF" stop-opacity="0.08" offset="0%"></stop>
            <stop stop-color="#F7FBFF" stop-opacity="0.00480311326" offset="100%"></stop>
            <stop stop-color="#FFFFFF" stop-opacity="0" offset="100%"></stop>
        </linearGradient>
    </defs>
    <g id="Page-1" stroke="none" stroke-width="1" fill="none" fill-rule="evenodd">
        <g id="Artboard-2" fill="url(#linearGradient-1)" fill-rule="nonzero">
            <g id="Group">
                <g id="Group-19" transform="translate(-31.000000, -98.000000)">
                    <circle id="Oval-7" cx="931" cy="202" r="59"></circle>
                    <circle id="Oval-7-Copy-11" cx="1499" cy="143" r="59"></circle>
                    <circle id="Oval-7-Copy-6" cx="1095" cy="458" r="59"></circle>
                    <circle id="Oval-7-Copy-7" cx="1945" cy="261" r="59"></circle>
                    <circle id="Oval-7-Copy-20" cx="2735" cy="552" r="59"></circle>
                    <circle id="Oval-7-Copy-16" cx="2407" cy="261" r="59"></circle>
                    <circle id="Oval-7-Copy-8" cx="2133" cy="565" r="59"></circle>
                    <circle id="Oval-7-Copy-22" cx="2884" cy="143" r="59"></circle>
                    <circle id="Oval-7-Copy" cx="806" cy="399" r="35"></circle>
                    <circle id="Oval-7-Copy-3" cx="1047" cy="493" r="35"></circle>
                    <circle id="Oval-7-Copy-2" cx="855" cy="608" r="59"></circle>
                    <circle id="Oval-7-Copy-19" cx="59" cy="202" r="59"></circle>
                    <circle id="Oval-7-Copy-13" cx="536" cy="800" r="59"></circle>
                    <circle id="Oval-7-Copy-14" cx="536" cy="434" r="59"></circle>
                    <circle id="Oval-7-Copy-17" cx="59" cy="760" r="59"></circle>
                    <circle id="Oval-7-Copy-18" cx="177" cy="517" r="59"></circle>
                    <circle id="Oval-7-Copy-15" cx="536" cy="202" r="59"></circle>
                    <circle id="Oval-7-Copy-10" cx="1904" cy="293" r="27"></circle>
                    <circle id="Oval-7-Copy-21" cx="2493" cy="581" r="27"></circle>
                    <circle id="Oval-7-Copy-4" cx="1233" cy="642" r="59"></circle>
                    <circle id="Oval-7-Copy-23" cx="2750.5" cy="364.5" r="74.5"></circle>
                    <circle id="Oval-7-Copy-12" cx="2165" cy="143" r="59"></circle>
                    <circle id="Oval-7-Copy-9" cx="1804" cy="583" r="59"></circle>
                    <circle id="Oval-7-Copy-5" cx="1244" cy="59" r="59"></circle>
                </g>
            </g>
        </g>
    </g>
</svg>