<?xml version="1.0" encoding="UTF-8"?>
<svg width="539px" height="375px" viewBox="0 0 539 375" version="1.1" xmlns="http://www.w3.org/2000/svg" xmlns:xlink="http://www.w3.org/1999/xlink">
    <!-- Generator: Sketch 51.2 (57519) - http://www.bohemiancoding.com/sketch -->
    <title>Group 17</title>
    <desc>Created with Sketch.</desc>
    <defs>
        <linearGradient x1="45.4452672%" y1="37.7952565%" x2="54.2546629%" y2="64.1520254%" id="linearGradient-1">
            <stop stop-color="#0069FF" stop-opacity="0.0626981431" offset="0%"></stop>
            <stop stop-color="#0069FF" stop-opacity="0" offset="100%"></stop>
        </linearGradient>
        <linearGradient x1="50%" y1="100.408793%" x2="50%" y2="-0.40899712%" id="linearGradient-2">
            <stop stop-color="#0069FF" offset="0%"></stop>
            <stop stop-color="#120078" offset="100%"></stop>
        </linearGradient>
        <linearGradient x1="50.0260286%" y1="-0.844716925%" x2="50.0260286%" y2="99.1633496%" id="linearGradient-3">
            <stop stop-color="#0069FF" stop-opacity="0.298488451" offset="0%"></stop>
            <stop stop-color="#0069FF" stop-opacity="0" offset="100%"></stop>
        </linearGradient>
        <linearGradient x1="50%" y1="2.78419962%" x2="50%" y2="100%" id="linearGradient-4">
            <stop stop-color="#FF0000" stop-opacity="0.202898551" offset="0%"></stop>
            <stop stop-color="#FF0000" stop-opacity="0" offset="100%"></stop>
        </linearGradient>
    </defs>
    <g id="Page-1" stroke="none" stroke-width="1" fill="none" fill-rule="evenodd">
        <g id="Desktop-HD" transform="translate(-760.000000, -712.000000)">
            <g id="通水电" transform="translate(136.000000, 712.000000)">
                <g id="Group-17" transform="translate(624.000000, 0.000000)">
                    <polygon id="Shape" fill="url(#linearGradient-1)" fill-rule="nonzero" points="544 195 126.5 445.5 1 286 434 1"></polygon>
                    <rect id="Rectangle-12" stroke="url(#linearGradient-2)" stroke-width="2" fill="#FFFFFF" x="1" y="1" width="434" height="286" rx="4.8"></rect>
                    <g id="Group-2" opacity="0.413783482" transform="translate(40.000000, 58.000000)">
                        <path d="M46,6.8 L356,6.8" id="Shape" stroke="#0069FF" stroke-linecap="round" stroke-dasharray="0"></path>
                        <path d="M46,54 L356,54" id="Shape-Copy" stroke="#0069FF" stroke-linecap="round" stroke-dasharray="0"></path>
                        <path d="M46,100 L356,100" id="Shape-Copy-2" stroke="#0069FF" stroke-linecap="round" stroke-dasharray="0"></path>
                        <path d="M46,147 L356,147" id="Shape-Copy-3" stroke="#0069FF" stroke-linecap="round" stroke-dasharray="0"></path>
                        <path d="M46,194 L356,194" id="Shape-Copy-4" stroke="#0069FF" stroke-linecap="round" stroke-dasharray="0"></path>
                        <text id="¥0T" font-family="PingFangSC-Medium, PingFang SC" font-size="10.4" font-weight="400" line-spacing="12.8" letter-spacing="0.06117647" fill="#0069FF">
                            <tspan x="0" y="198">¥0T</tspan>
                        </text>
                        <text id="¥25T" font-family="PingFangSC-Medium, PingFang SC" font-size="10.4" font-weight="400" line-spacing="12.8" letter-spacing="0.06117647" fill="#0069FF">
                            <tspan x="0" y="151">¥25T</tspan>
                        </text>
                        <text id="¥50T" font-family="PingFangSC-Medium, PingFang SC" font-size="10.4" font-weight="400" line-spacing="12.8" letter-spacing="0.06117647" fill="#0069FF">
                            <tspan x="0" y="105">¥50T</tspan>
                        </text>
                        <text id="¥75T" font-family="PingFangSC-Medium, PingFang SC" font-size="10.4" font-weight="400" line-spacing="12.8" letter-spacing="0.06117647" fill="#0069FF">
                            <tspan x="0" y="58">¥75T</tspan>
                        </text>
                        <text id="¥100T" font-family="PingFangSC-Medium, PingFang SC" font-size="10.4" font-weight="400" line-spacing="12.8" letter-spacing="0.06117647" fill="#0069FF">
                            <tspan x="0" y="11">¥100T</tspan>
                        </text>
                    </g>
                    <g id="Group-16" transform="translate(127.000000, 24.000000)">
                        <rect id="Rectangle-13-Copy" fill="#0069FF" fill-rule="nonzero" x="93" y="3" width="6" height="6" rx="3"></rect>
                        <rect id="Rectangle-13-Copy-2" fill="#F33838" fill-rule="nonzero" x="0" y="3" width="6" height="6" rx="3"></rect>
                        <text id="互联网经济总值" font-family="PingFangSC-Medium, PingFang SC" font-size="11" font-weight="400" line-spacing="12" letter-spacing="0.06470589" fill="#0069FF">
                            <tspan x="104" y="12">互联网经济总值</tspan>
                        </text>
                        <path d="M13.892,3.299 L19.337,3.299 L19.337,4.245 L17.148,4.245 L17.148,5.598 L18.996,5.598 L18.996,6.522 L17.148,6.522 L17.148,8.051 L18.27,8.051 C18.072,7.611 17.863,7.237 17.643,6.907 L18.468,6.643 C18.721,6.995 18.941,7.369 19.128,7.787 L18.534,8.051 L19.656,8.051 L19.656,8.997 L13.595,8.997 L13.595,8.051 L16.092,8.051 L16.092,6.522 L14.244,6.522 L14.244,5.598 L16.092,5.598 L16.092,4.245 L13.892,4.245 L13.892,3.299 Z M21.24,1.55 L21.24,11.263 L20.184,11.263 L20.184,10.845 L13.056,10.845 L13.056,11.263 L12,11.263 L12,1.55 L21.24,1.55 Z M13.056,9.866 L20.184,9.866 L20.184,2.54 L13.056,2.54 L13.056,9.866 Z M27.6847059,5.939 C27.2227059,7.083 26.4087059,8.04 25.2317059,8.832 L24.5277059,7.985 C25.7157059,7.171 26.4967059,6.17 26.8707059,4.982 C26.9697059,4.63 27.0577059,4.245 27.1237059,3.827 L24.2967059,3.827 L24.2967059,11.274 L23.2407059,11.274 L23.2407059,2.815 L27.2447059,2.815 C27.2887059,2.276 27.3217059,1.704 27.3217059,1.099 L28.3887059,1.099 C28.3887059,1.704 28.3667059,2.276 28.3227059,2.815 L32.1287059,2.815 L32.1287059,9.91 C32.1287059,10.735 31.7437059,11.153 30.9847059,11.153 L29.2577059,11.153 L28.9717059,10.108 L30.6327059,10.163 C30.9187059,10.163 31.0727059,9.998 31.0727059,9.679 L31.0727059,3.827 L28.2127059,3.827 C28.1467059,4.212 28.0807059,4.575 28.0037059,4.905 C29.1037059,5.917 30.0277059,6.918 30.7867059,7.919 L29.9837059,8.722 C29.4117059,7.853 28.6417059,6.929 27.6847059,5.939 Z M35.9994118,4.08 C35.5594118,5.07 35.0094118,5.895 34.3384118,6.555 L33.6564118,5.686 C34.6464118,4.641 35.3174118,3.233 35.6694118,1.462 L36.7364118,1.649 C36.6264118,2.155 36.5054118,2.628 36.3734118,3.068 L38.4194118,3.068 L38.4194118,1.22 L39.4644118,1.22 L39.4644118,3.068 L42.9954118,3.068 L42.9954118,4.08 L39.4644118,4.08 L39.4644118,6.357 L42.7754118,6.357 L42.7754118,7.369 L39.4644118,7.369 L39.4644118,9.877 L43.6994118,9.877 L43.6994118,10.911 L33.9424118,10.911 L33.9424118,9.877 L38.4194118,9.877 L38.4194118,7.369 L35.2734118,7.369 L35.2734118,6.357 L38.4194118,6.357 L38.4194118,4.08 L35.9994118,4.08 Z M49.9571177,1 C50.1111177,1.352 50.2541177,1.748 50.4081177,2.188 L54.2251177,2.188 L54.2251177,3.178 L52.3771177,3.178 C52.2671177,3.673 52.1131177,4.157 51.9151177,4.619 L54.4561177,4.619 L54.4561177,5.631 L46.6461177,5.631 L46.6461177,7.116 C46.6021177,8.832 46.2171177,10.218 45.4691177,11.263 L44.6661177,10.559 C45.2601177,9.723 45.5681177,8.579 45.5901177,7.116 L45.5901177,4.619 L47.8121177,4.619 L47.4271177,3.178 L45.4691177,3.178 L45.4691177,2.188 L49.3411177,2.188 C49.1981177,1.825 49.0331177,1.484 48.8571177,1.176 L49.9571177,1 Z M48.8461177,4.619 L50.9141177,4.619 C51.1121177,4.157 51.2661177,3.673 51.3761177,3.178 L48.4501177,3.178 L48.8461177,4.619 Z M57.3038236,2.98 L59.0968236,2.98 C58.7448236,2.419 58.3818236,1.913 57.9968236,1.473 L58.8878236,1.033 C59.2838236,1.517 59.6688236,2.056 60.0428236,2.639 L59.3608236,2.98 L61.6158236,2.98 C62.0338236,2.353 62.4078236,1.693 62.7158236,1 L63.7168236,1.363 C63.3868236,1.99 63.0678236,2.529 62.7378236,2.98 L64.4538236,2.98 L64.4538236,6.808 L57.3038236,6.808 L57.3038236,2.98 Z M63.4088236,5.818 L63.4088236,3.97 L58.3488236,3.97 L58.3488236,5.818 L63.4088236,5.818 Z M56.8418236,7.589 L57.8318236,7.798 C57.5678236,8.964 57.1828236,9.965 56.6878236,10.812 L55.7968236,10.24 C56.2808236,9.415 56.6328236,8.535 56.8418236,7.589 Z M61.2528236,7.083 C61.6268236,7.644 61.9458236,8.249 62.2208236,8.887 L61.2638236,9.316 C60.9778236,8.59 60.6698236,7.952 60.3288236,7.391 L61.2528236,7.083 Z M64.7068236,7.347 C65.1688236,8.183 65.5758236,9.074 65.9168236,10.031 L64.9598236,10.46 C64.5748236,9.404 64.1568236,8.469 63.7058236,7.666 L64.7068236,7.347 Z M62.4738236,11.142 L59.6358236,11.142 C58.8658236,11.142 58.4918236,10.735 58.4918236,9.921 L58.4918236,7.666 L59.5588236,7.666 L59.5588236,9.701 C59.5588236,9.998 59.6908236,10.152 59.9548236,10.152 L62.2868236,10.152 C62.4738236,10.152 62.6058236,10.086 62.6938236,9.965 C62.8038236,9.822 62.8698236,9.404 62.9028236,8.711 L63.9038236,9.03 C63.8158236,10.042 63.6508236,10.658 63.4308236,10.878 C63.2218236,11.054 62.9028236,11.142 62.4738236,11.142 Z M73.0985295,1.077 L74.1325295,1.22 C74.1105295,1.517 74.0775295,1.803 74.0555295,2.089 L76.6845295,2.089 L76.6845295,3.035 L73.9455295,3.035 C73.9015294,3.299 73.8685295,3.541 73.8355295,3.783 L76.0025295,3.783 L76.0025295,10.031 L77.0035295,10.031 L77.0035295,10.977 L69.7325295,10.977 L69.7325295,10.031 L70.8215295,10.031 L70.8215295,3.783 L72.8125294,3.783 C72.8565295,3.53 72.8895294,3.277 72.9115295,3.035 L70.2055295,3.035 L70.2055295,2.089 L73.0215295,2.089 C73.0435295,1.748 73.0765295,1.407 73.0985295,1.077 Z M71.8225294,10.031 L75.0015294,10.031 L75.0015294,9.294 L71.8225294,9.294 L71.8225294,10.031 Z M71.8225294,8.469 L75.0015294,8.469 L75.0015294,7.765 L71.8225294,7.765 L71.8225294,8.469 Z M71.8225294,6.929 L75.0015294,6.929 L75.0015294,6.236 L71.8225294,6.236 L71.8225294,6.929 Z M71.8225294,5.411 L75.0015294,5.411 L75.0015294,4.718 L71.8225294,4.718 L71.8225294,5.411 Z M68.2915295,5.257 C67.9615295,5.719 67.6095294,6.17 67.2355295,6.599 L66.8945295,5.488 C67.9175295,4.234 68.6655295,2.76 69.1385295,1.088 L70.0845295,1.528 C69.8755295,2.232 69.6115295,2.903 69.3035295,3.541 L69.3035295,11.296 L68.2915295,11.296 L68.2915295,5.257 Z" id="国内生产总值" fill="#F33838"></path>
                    </g>
                    <g id="Group-9" transform="translate(343.000000, 299.000000)">
                        <rect id="Rectangle-13" fill="#0069FF" fill-rule="nonzero" x="0" y="0" width="92.8" height="24" rx="0.8"></rect>
                        <path d="M7.781,7.365 L17.197,7.365 L17.197,8.388 L11.488,8.388 L11.092,9.95 L15.8,9.95 L14.953,15.747 L17.461,15.747 L17.461,16.77 L7.561,16.77 L7.561,15.747 L13.93,15.747 L14.183,14.108 L9.002,14.108 L10.443,8.388 L7.781,8.388 L7.781,7.365 Z M14.337,13.129 L14.689,10.929 L10.839,10.929 L10.278,13.129 L14.337,13.129 Z M23.0917059,9.29 L25.8197059,9.29 C26.2157059,8.575 26.5567059,7.805 26.8427059,6.991 L27.8107059,7.354 C27.5027059,8.102 27.1837059,8.751 26.8647059,9.29 L28.3277059,9.29 L28.3277059,10.28 L26.1607059,10.28 L26.1607059,10.478 C26.1607059,10.984 26.1387059,11.468 26.0947059,11.93 L28.5147059,11.93 L28.5147059,12.931 L26.3807059,12.931 C26.6667059,14.053 27.4367059,15.197 28.6907059,16.363 L27.9757059,17.144 C26.8537059,15.978 26.1167059,14.834 25.7647059,13.701 C25.3137059,15.263 24.4997059,16.418 23.3337059,17.188 L22.7067059,16.352 C23.8507059,15.648 24.5877059,14.515 24.9397059,12.931 L22.9267059,12.931 L22.9267059,11.93 L25.0937059,11.93 C25.1267059,11.534 25.1487059,11.127 25.1597059,10.709 L25.1597059,10.28 L23.0917059,10.28 L23.0917059,9.29 Z M24.3237059,7.035 C24.7417059,7.673 25.0717059,8.245 25.2917059,8.729 L24.5217059,9.268 C24.2797059,8.751 23.9387059,8.179 23.5207059,7.541 L24.3237059,7.035 Z M18.5377059,7.354 L22.9817059,7.354 L22.9817059,8.322 L22.3547059,8.322 L22.3547059,14.075 C22.5747059,14.009 22.7837059,13.932 23.0037059,13.866 L23.0037059,14.878 L22.3547059,15.076 L22.3547059,17.155 L21.3537059,17.155 L21.3537059,15.34 C20.5177059,15.56 19.6487059,15.747 18.7467059,15.923 L18.4937059,14.933 L19.1207059,14.834 L19.1207059,8.322 L18.5377059,8.322 L18.5377059,7.354 Z M20.1217059,14.647 C20.5397059,14.559 20.9577059,14.46 21.3537059,14.361 L21.3537059,12.942 L20.1217059,12.942 L20.1217059,14.647 Z M20.1217059,11.996 L21.3537059,11.996 L21.3537059,10.654 L20.1217059,10.654 L20.1217059,11.996 Z M20.1217059,9.708 L21.3537059,9.708 L21.3537059,8.322 L20.1217059,8.322 L20.1217059,9.708 Z M34.2004118,14.592 C33.9144118,14.13 33.6284118,13.69 33.3314118,13.272 C32.9574118,14.262 32.5174118,15.12 32.0114118,15.846 L31.3404118,15.032 C31.8574118,14.251 32.2864118,13.338 32.6384118,12.293 C32.1764118,11.655 31.6924118,11.05 31.1864118,10.456 L31.8244118,9.829 C32.1764118,10.203 32.5504118,10.654 32.9684118,11.182 C33.1334118,10.489 33.2764118,9.752 33.3864118,8.971 L34.3434118,9.136 C34.1784118,10.236 33.9694118,11.248 33.7054118,12.161 C34.0794118,12.689 34.4754118,13.272 34.8934118,13.91 L34.2004118,14.592 Z M37.3684118,15.12 C37.0604118,14.57 36.7414118,14.042 36.4224118,13.536 C36.0154118,14.526 35.5424118,15.384 34.9924118,16.11 L34.3324118,15.307 C34.9044118,14.504 35.3774118,13.58 35.7624118,12.524 C35.3004118,11.842 34.8274118,11.193 34.3434118,10.577 L34.9924118,9.961 C35.3444118,10.357 35.7184118,10.83 36.1144118,11.391 C36.3124118,10.643 36.4774118,9.84 36.6094118,9.004 L37.5774118,9.169 C37.3794118,10.368 37.1264118,11.457 36.8184118,12.436 C37.2144118,13.041 37.6324118,13.701 38.0724118,14.427 L37.3684118,15.12 Z M38.0174118,17.067 L36.9174118,17.067 L36.6424118,16.055 L37.6764118,16.099 C37.9404118,16.099 38.0834118,15.967 38.0834118,15.714 L38.0834118,8.366 L31.1754118,8.366 L31.1754118,17.133 L30.1414118,17.133 L30.1414118,7.365 L39.1174118,7.365 L39.1174118,15.945 C39.1174118,16.693 38.7434118,17.067 38.0174118,17.067 Z M46.9701177,13.646 L44.9241177,13.646 L44.9241177,12.634 L50.0831177,12.634 L50.0831177,13.646 L48.0261177,13.646 L48.0261177,15.747 L50.5891177,15.747 L50.5891177,16.77 L44.4291177,16.77 L44.4291177,15.747 L46.9701177,15.747 L46.9701177,13.646 Z M47.8831177,10.588 C47.0911177,11.248 46.1121177,11.798 44.9461177,12.249 L44.2861177,11.391 C46.2551177,10.676 47.6301177,9.675 48.4001177,8.388 L44.8141177,8.388 L44.8141177,7.387 L49.6541177,7.387 L49.6541177,8.212 C49.3901177,8.828 49.0271177,9.4 48.5651177,9.917 C49.4231177,10.456 50.1491177,10.995 50.7651177,11.534 L49.9951177,12.304 C49.4781177,11.754 48.7741177,11.182 47.8831177,10.588 Z M44.3631177,14.537 L44.3631177,15.505 C43.3071177,16.055 42.1301177,16.495 40.8101177,16.825 L40.6671177,15.813 C42.0751177,15.494 43.3071177,15.065 44.3631177,14.537 Z M42.4601177,6.925 L43.4611177,7.321 C42.9331177,8.641 42.4051177,9.719 41.8771177,10.533 C42.2841177,10.489 42.6911177,10.434 43.0981177,10.379 C43.2961177,10.005 43.4941177,9.609 43.7031177,9.202 L44.6601177,9.554 C43.7471177,11.259 42.9771177,12.502 42.3391177,13.294 C43.0101177,13.14 43.6921177,12.92 44.3851177,12.656 L44.3851177,13.602 C43.2191177,14.031 42.1191177,14.317 41.0631177,14.471 L40.7881177,13.525 C40.9751177,13.448 41.1291177,13.349 41.2611177,13.228 C41.6131177,12.865 42.0421177,12.227 42.5701177,11.325 L40.9091177,11.556 L40.6561177,10.599 C40.8101177,10.533 40.9531177,10.401 41.0851177,10.214 C41.6131177,9.224 42.0641177,8.135 42.4601177,6.925 Z M52.7108236,7.101 C53.4368236,7.662 54.0418236,8.223 54.5478236,8.784 L53.7998236,9.532 C53.3598236,8.993 52.7548236,8.41 51.9848236,7.783 L52.7108236,7.101 Z M52.4358236,9.609 C53.1398236,10.181 53.7228236,10.742 54.2068236,11.303 L53.4588236,12.051 C53.0518236,11.501 52.4798236,10.918 51.7318236,10.291 L52.4358236,9.609 Z M53.5028236,13.008 L54.4488236,13.382 C53.9648236,14.68 53.4368236,15.901 52.8648236,17.034 L51.8748236,16.605 C52.5018236,15.439 53.0408236,14.24 53.5028236,13.008 Z M59.3438236,12.414 L60.3668236,12.414 L60.3668236,17.089 L59.3438236,17.089 L59.3438236,12.414 Z M54.8998236,7.948 L57.6498236,7.948 C57.4958236,7.64 57.3308236,7.354 57.1548236,7.101 L58.2658236,6.925 C58.4198236,7.233 58.5628236,7.574 58.7168236,7.948 L61.4118236,7.948 L61.4118236,8.938 L60.5428236,8.938 C60.2898236,9.675 59.8388236,10.302 59.1898236,10.808 C59.9378236,11.083 60.8398236,11.27 61.8738236,11.369 L61.4998236,12.304 C60.1798236,12.161 59.0798236,11.864 58.2108236,11.424 C57.3308236,11.864 56.2418236,12.172 54.9218236,12.37 L54.5038236,11.446 C55.5928236,11.314 56.5058236,11.105 57.2538236,10.819 C56.5938236,10.302 56.1208236,9.675 55.8238236,8.938 L54.8998236,8.938 L54.8998236,7.948 Z M56.8028236,8.938 C57.1108236,9.51 57.5838236,9.983 58.2218236,10.357 C58.8598236,9.961 59.3108236,9.488 59.5528236,8.938 L56.8028236,8.938 Z M56.0548236,12.458 L57.0668236,12.458 L57.0668236,13.327 C57.0448236,14.361 56.8688236,15.197 56.5388236,15.824 C56.2198236,16.396 55.7138236,16.836 55.0098236,17.155 L54.4488236,16.275 C55.0648236,15.989 55.4828236,15.615 55.7028236,15.164 C55.9228236,14.691 56.0328236,14.075 56.0548236,13.327 L56.0548236,12.458 Z M66.9325295,6.98 L67.9665294,6.98 L67.9665294,8.674 L72.5535295,8.674 L72.5535295,9.664 L67.9665294,9.664 L67.9665294,11.6 L71.7285294,11.6 L71.7285294,17.122 L70.6945295,17.122 L70.6945295,16.462 L64.9745295,16.462 L64.9745295,17.133 L63.9405295,17.133 L63.9405295,11.6 L66.9325295,11.6 L66.9325295,6.98 Z M64.9745295,15.472 L70.6945295,15.472 L70.6945295,12.601 L64.9745295,12.601 L64.9745295,15.472 Z M80.1202353,11.402 L80.1202353,15.384 C80.1202353,15.67 80.2632353,15.824 80.5492353,15.824 L82.1112353,15.824 C82.2652353,15.824 82.4192353,15.758 82.5512353,15.626 C82.7052353,15.472 82.8042353,14.834 82.8482353,13.734 L83.8492353,14.064 C83.7282353,15.406 83.5632353,16.209 83.3432353,16.451 C83.1012353,16.693 82.7822353,16.814 82.3752353,16.825 L80.2522353,16.825 C79.4602353,16.825 79.0752353,16.407 79.0752353,15.571 L79.0752353,7.112 L80.1202353,7.112 L80.1202353,10.423 C81.1322353,10.126 82.1112353,9.73 83.0462353,9.235 L83.6622353,10.082 C82.4082353,10.676 81.2312353,11.116 80.1202353,11.402 Z M74.5982353,16.968 L74.2792353,15.989 C74.4772353,15.857 74.5872353,15.648 74.5872353,15.373 L74.5872353,7.145 L75.6322353,7.145 L75.6322353,10.082 L78.3712353,10.082 L78.3712353,11.105 L75.6322353,11.105 L75.6322353,15.703 C76.5562353,15.483 77.4692353,15.23 78.3822353,14.933 L78.6462353,15.912 C77.3922353,16.308 76.0392353,16.66 74.5982353,16.968 Z" id="互联网经济占比" fill="#FFFFFF"></path>
                    </g>
                    <g id="Group-23" transform="translate(105.000000, 88.000000)" fill-rule="nonzero">
                        <path d="M0,159.5 C12.7917132,159.479592 24.9583798,158.979592 36.5,158 C53.8124302,156.530612 56.9398493,153.612245 86,151 C115.060151,148.387755 131.547032,150.295918 170.5,147.602041 C209.452968,144.908163 205.658774,142.306122 278,141 C278,145.897959 278,153.897959 278,165 L0,165 L0,159.5 Z" id="Path-2" fill="url(#linearGradient-3)"></path>
                        <path d="M1.5,95.5 C13.8333333,81.1666667 27.1666667,71.5 41.5,66.5 C63,59 72.9533053,63.2710843 101.754902,46.5 C130.556499,29.7289157 142.735294,41 182.637255,27 C222.539216,13 205.302408,8.38554217 277,0" id="Path-2" stroke="#F24141" stroke-width="3" stroke-linecap="round" stroke-linejoin="round"></path>
                        <path d="M0,96 C12.0433213,81.6666667 25.2575211,72 39.6425993,67 C61.2202166,59.5 71.2094544,63.7710843 100.115028,47 C129.020602,30.2289157 141.243364,41.5 181.289375,27.5 C221.335386,13.5 206.043572,9.38554217 278,1 C278,22 278,76.6666667 278,165 L0,165 L0,96 Z" id="Path-2" fill="url(#linearGradient-4)"></path>
                        <path d="M1,159 C12.3303505,158.903614 23.7375093,158.421687 35.2214765,157.554217 C52.4474273,156.253012 59.8299776,152.566265 88.7449664,150.253012 C117.659955,147.939759 133.655481,149.240964 172.41387,146.855422 C211.17226,144.46988 205.020134,142.156627 277,141" id="Path-2-Copy" stroke="#0069FF" stroke-width="3" stroke-linecap="round" stroke-linejoin="round"></path>
                    </g>
                </g>
            </g>
        </g>
    </g>
</svg>