<?xml version="1.0" encoding="UTF-8"?>
<svg width="242px" height="268px" viewBox="0 0 242 268" version="1.1" xmlns="http://www.w3.org/2000/svg" xmlns:xlink="http://www.w3.org/1999/xlink">
    <!-- Generator: Sketch 54 (76480) - https://sketchapp.com -->
    <title>编组 2</title>
    <desc>Created with Sketch.</desc>
    <defs>
        <linearGradient x1="50%" y1="4.50606956%" x2="50%" y2="71.2338776%" id="linearGradient-1">
            <stop stop-color="#61C2FF" stop-opacity="0" offset="0%"></stop>
            <stop stop-color="#2670FA" stop-opacity="0.153163243" offset="100%"></stop>
        </linearGradient>
        <filter x="-2.6%" y="-2.6%" width="105.2%" height="105.2%" filterUnits="objectBoundingBox" id="filter-2">
            <feGaussianBlur stdDeviation="2.03319502" in="SourceGraphic"></feGaussianBlur>
        </filter>
        <linearGradient x1="23.8015677%" y1="24.2054209%" x2="84.4993092%" y2="76.7719491%" id="linearGradient-3">
            <stop stop-color="#86D0FF" offset="0%"></stop>
            <stop stop-color="#5D96FF" offset="100%"></stop>
        </linearGradient>
        <linearGradient x1="26.0393019%" y1="24.2054209%" x2="81.5525573%" y2="76.7719491%" id="linearGradient-4">
            <stop stop-color="#86D0FF" offset="0%"></stop>
            <stop stop-color="#5D96FF" offset="100%"></stop>
        </linearGradient>
        <linearGradient x1="50%" y1="0%" x2="50%" y2="53.4498078%" id="linearGradient-5">
            <stop stop-color="#E9F3FF" offset="0%"></stop>
            <stop stop-color="#FFFFFF" offset="100%"></stop>
        </linearGradient>
        <linearGradient x1="64.8635861%" y1="41.9985003%" x2="50%" y2="63.3373722%" id="linearGradient-6">
            <stop stop-color="#E9F4FF" offset="0%"></stop>
            <stop stop-color="#F5FCFF" stop-opacity="0.148574082" offset="100%"></stop>
        </linearGradient>
        <linearGradient x1="64.8635861%" y1="42.0023961%" x2="50%" y2="63.3308785%" id="linearGradient-7">
            <stop stop-color="#E9F4FF" offset="0%"></stop>
            <stop stop-color="#F5FCFF" stop-opacity="0.148574082" offset="100%"></stop>
        </linearGradient>
        <linearGradient x1="0%" y1="41.4191145%" x2="100%" y2="54.5945406%" id="linearGradient-8">
            <stop stop-color="#41B5FF" offset="0%"></stop>
            <stop stop-color="#2670FA" offset="100%"></stop>
        </linearGradient>
        <path d="M144.485409,74.7114733 L0.86672686,74.7114733 L62.9692761,19.5144998 C69.635783,13.589284 79.723024,13.7340992 86.2166905,19.8482461 L144.485409,74.7114733 Z" id="path-9"></path>
        <filter x="-19.1%" y="-39.6%" width="138.3%" height="192.5%" filterUnits="objectBoundingBox" id="filter-10">
            <feOffset dx="0" dy="4" in="SourceAlpha" result="shadowOffsetOuter1"></feOffset>
            <feGaussianBlur stdDeviation="8.5" in="shadowOffsetOuter1" result="shadowBlurOuter1"></feGaussianBlur>
            <feColorMatrix values="0 0 0 0 0.149019608   0 0 0 0 0.439215686   0 0 0 0 0.980392157  0 0 0 0.35 0" type="matrix" in="shadowBlurOuter1"></feColorMatrix>
        </filter>
        <linearGradient x1="0%" y1="42.3613723%" x2="100%" y2="54.090019%" id="linearGradient-11">
            <stop stop-color="#41B5FF" offset="0%"></stop>
            <stop stop-color="#2670FA" offset="100%"></stop>
        </linearGradient>
        <path d="M139.545596,74.7114733 L5.75740961,74.7114733 L63.1676473,26.4159511 C69.7182657,20.9053392 79.3219498,21.0423358 85.712717,26.7375566 L139.545596,74.7114733 Z" id="path-12"></path>
        <filter x="-20.6%" y="-45.0%" width="141.1%" height="205.3%" filterUnits="objectBoundingBox" id="filter-13">
            <feOffset dx="0" dy="4" in="SourceAlpha" result="shadowOffsetOuter1"></feOffset>
            <feGaussianBlur stdDeviation="8.5" in="shadowOffsetOuter1" result="shadowBlurOuter1"></feGaussianBlur>
            <feColorMatrix values="0 0 0 0 0.149019608   0 0 0 0 0.439215686   0 0 0 0 0.980392157  0 0 0 0.35 0" type="matrix" in="shadowBlurOuter1"></feColorMatrix>
        </filter>
        <linearGradient x1="0%" y1="30.9907703%" x2="100%" y2="60.1782826%" id="linearGradient-14">
            <stop stop-color="#41B5FF" offset="0%"></stop>
            <stop stop-color="#2670FA" offset="100%"></stop>
        </linearGradient>
        <path d="M0.51235513,74.7114733 L144.620199,74.7114733 L144.620199,157.826302 C144.620199,160.996851 142.049962,163.567088 138.879413,163.567088 L6.25314107,163.567088 C3.08259254,163.567088 0.51235513,160.996851 0.51235513,157.826302 L0.51235513,74.7114733 Z" id="path-15"></path>
        <filter x="-19.1%" y="-26.4%" width="138.2%" height="161.9%" filterUnits="objectBoundingBox" id="filter-17">
            <feOffset dx="0" dy="4" in="SourceAlpha" result="shadowOffsetOuter1"></feOffset>
            <feGaussianBlur stdDeviation="8.5" in="shadowOffsetOuter1" result="shadowBlurOuter1"></feGaussianBlur>
            <feColorMatrix values="0 0 0 0 0.149019608   0 0 0 0 0.439215686   0 0 0 0 0.980392157  0 0 0 0.35 0" type="matrix" in="shadowBlurOuter1"></feColorMatrix>
        </filter>
        <linearGradient x1="12.0304974%" y1="49.8256065%" x2="100%" y2="50.1810014%" id="linearGradient-18">
            <stop stop-color="#61C2FF" offset="0%"></stop>
            <stop stop-color="#2670FA" offset="100%"></stop>
        </linearGradient>
        <linearGradient x1="10.8981282%" y1="39.3356834%" x2="100%" y2="60.5923427%" id="linearGradient-19">
            <stop stop-color="#61C2FF" offset="0%"></stop>
            <stop stop-color="#2670FA" offset="100%"></stop>
        </linearGradient>
        <linearGradient x1="12.0304974%" y1="40.3103308%" x2="100%" y2="60.0568158%" id="linearGradient-20">
            <stop stop-color="#61C2FF" offset="0%"></stop>
            <stop stop-color="#2670FA" offset="100%"></stop>
        </linearGradient>
        <linearGradient x1="0%" y1="45.2697926%" x2="100%" y2="52.5327374%" id="linearGradient-21">
            <stop stop-color="#41B5FF" offset="0%"></stop>
            <stop stop-color="#2670FA" offset="100%"></stop>
        </linearGradient>
        <path d="M73.8827564,124.048686 L140.296964,163.567088 L-4.93496278,163.567088 L62.1834192,124.023286 C65.7953852,121.895242 70.2800646,121.904979 73.8827564,124.048686 Z" id="path-22"></path>
        <filter x="-21.4%" y="-43.4%" width="139.0%" height="209.6%" filterUnits="objectBoundingBox" id="filter-23">
            <feOffset dx="0" dy="4" in="SourceAlpha" result="shadowOffsetOuter1"></feOffset>
            <feGaussianBlur stdDeviation="7.5" in="shadowOffsetOuter1" result="shadowBlurOuter1"></feGaussianBlur>
            <feColorMatrix values="0 0 0 0 0.149019608   0 0 0 0 0.439215686   0 0 0 0 0.980392157  0 0 0 0.155594406 0" type="matrix" in="shadowBlurOuter1"></feColorMatrix>
        </filter>
        <linearGradient x1="12.0304974%" y1="30.0569493%" x2="100%" y2="70.6987033%" id="linearGradient-24">
            <stop stop-color="#61C2FF" offset="0%"></stop>
            <stop stop-color="#2670FA" offset="100%"></stop>
        </linearGradient>
        <linearGradient x1="50%" y1="0%" x2="50%" y2="100%" id="linearGradient-25">
            <stop stop-color="#6AAEFF" offset="0%"></stop>
            <stop stop-color="#2161FD" offset="100%"></stop>
        </linearGradient>
    </defs>
    <g id="页面1" stroke="none" stroke-width="1" fill="none" fill-rule="evenodd">
        <g id="报价提交成功-失败" transform="translate(-602.000000, -1208.000000)">
            <g id="编组-2" transform="translate(599.000000, 1208.000000)">
                <polygon id="矩形" fill="url(#linearGradient-1)" filter="url(#filter-2)" points="40.6912705 17.197861 207.704978 17.197861 241.778147 252.235294 9.1636046 252.235294"></polygon>
                <path d="M31.034608,164.206418 C31.1305595,164.334032 31.1890837,164.504665 31.1890837,164.69244 C31.1890837,164.821581 31.160989,164.942614 31.1120661,165.047121 L31.1706025,165.682455 C31.2636878,165.661391 31.3255749,165.609474 31.3562637,165.576379 C31.395508,165.534058 31.4622231,165.437873 31.4504498,165.299366 L31.0003908,160.44162 C30.8920479,160.421996 30.7856071,160.398671 30.6813084,160.371829 L31.034608,164.206418 Z M33.1735275,142.457488 C34.834305,143.914461 36.5752724,145.446774 37.790653,146.52952 C38.3217773,147.001373 38.4801865,147.648 38.3528158,148.229862 C38.4347844,148.659861 38.3970433,149.113931 38.2285085,149.546185 C37.9351505,150.300514 37.3215004,150.827251 36.5623966,151.008564 C38.0689376,152.529343 39.4786402,153.953297 40.4819334,154.968726 C41.1692184,155.665859 41.4317052,156.634534 41.186751,157.549466 C41.5509607,158.797226 40.783533,160.219344 39.3337076,160.452192 C39.0904654,160.493817 38.8395013,160.512738 38.5808152,160.512738 L39.1652853,161.109552 L38.0245841,160.540183 C38.0563373,161.603783 33.9766852,160.66234 32.1907984,160.531197 L32.6238517,165.191639 C32.6630959,165.614853 32.5178923,166.038067 32.2274852,166.349706 C31.937078,166.661345 31.517165,166.842172 31.0854787,166.842172 L30.2661031,166.842172 L24.9071934,166.842172 C24.3660041,166.842172 23.938351,166.381916 23.98755,165.846822 L24.0095441,165.608105 C23.9839331,165.471986 23.9771276,165.331813 23.9901257,165.191639 L24.4291891,160.466517 C23.3680132,160.310365 22.4686815,159.800415 21.9542312,159.105515 C21.8347592,159.043113 21.7194975,158.976039 21.6089215,158.904533 C21.1485489,159.298858 19.6538067,160.516522 18.3878559,160.516522 C17.8164299,160.516522 17.2758918,160.41435 16.7971295,160.236496 C16.3096827,160.053933 15.9362905,159.732846 15.6891794,159.341994 C14.8150998,159.008365 14.1730958,158.287447 13.967174,157.408789 C13.7486886,156.476795 14.041303,155.515447 14.7474789,154.836632 L18.7107322,151.027932 C17.9151019,150.87416 17.263592,150.34302 16.9522614,149.568926 C16.5794708,148.632722 16.8163481,147.590389 17.5619293,146.911925 C18.8523645,145.73179 20.7367505,144.043137 22.4955433,142.475214 C22.2668449,142.46342 22.0464644,142.420507 21.8486778,142.350963 C21.26463,142.147916 20.9976464,141.563414 21.1385013,141.043781 C21.0175422,140.476407 21.1972965,139.894563 21.6209748,139.480053 L26.5612451,134.626476 C27.0593216,134.136452 27.7274729,133.871994 28.4361182,133.879772 C29.1488129,133.88755 29.804816,134.167564 30.2907443,134.665367 C31.8376158,136.259891 33.914959,138.398887 35.0285445,139.550056 C35.4820775,140.020635 35.6319054,140.689558 35.4132377,141.296255 C35.1986194,141.899063 34.6600489,142.33464 34.0080952,142.435756 C33.8542179,142.46298 33.6962913,142.478536 33.5343152,142.478536 C33.4124132,142.478536 33.2918756,142.471388 33.1735275,142.457488 Z M27.5765629,135.315566 C28.1289003,135.286735 28.6905218,135.480189 29.098637,135.89353 C30.5032669,137.315591 32.6320969,139.46932 33.7542091,140.606218 C33.9260898,140.78045 34.0243055,140.985037 34.0579389,141.193623 C34.1839891,141.105753 34.2416051,140.983849 34.2632075,140.919013 C34.3360968,140.716781 34.2875039,140.502882 34.1376761,140.347318 C33.0240906,139.196149 30.9467474,137.057154 29.3998758,135.462629 C29.1447635,135.198172 28.796515,135.050386 28.4199206,135.046497 C28.110398,135.043301 27.817288,135.137309 27.5765629,135.315566 Z M19.9273762,149.858733 L20.1519967,149.642871 C20.1163028,149.643829 20.0804452,149.644311 20.0444345,149.644311 L20.006114,149.644311 C18.9302104,149.634661 18.2365983,148.779102 18.2196939,147.884014 C17.8822074,148.297867 17.8975295,148.800734 18.0395673,149.155784 C18.2337291,149.640942 18.6570017,149.932795 19.1773553,149.936586 L19.2123044,149.936586 C19.4583368,149.936586 19.6989717,149.909659 19.9273762,149.858733 Z M35.4227639,149.85832 C35.6115921,149.907704 35.7845421,149.936586 35.9296331,149.936586 L35.9917649,149.936586 C36.3063574,149.929812 36.5851238,149.822168 36.7993361,149.632079 C36.7377721,149.639028 36.6747668,149.643162 36.610382,149.644311 L36.537573,149.644311 C35.9889045,149.644311 35.2548768,149.365575 34.6585914,149.087187 C34.9129158,149.34381 35.1681106,149.601329 35.4227639,149.85832 Z M23.0889292,149.401891 L23.4866888,149.003417 C23.2129998,148.870258 22.9791125,148.743744 22.821622,148.65539 L22.4086918,149.052144 C22.6121589,149.165474 22.8455009,149.286683 23.0889292,149.401891 Z M22.2356181,150.256736 C22.1212017,150.198293 22.0160657,150.142561 21.9228028,150.091988 C21.5356412,150.450225 21.0465909,150.7216 20.4987622,150.887251 L15.5902081,155.603509 C15.1610404,156.018136 14.9815703,156.60155 15.1181237,157.170287 C15.1669642,157.377682 15.252298,157.567652 15.3692266,157.734189 C15.4448869,157.284941 15.6557714,156.848776 16.0133492,156.490191 L22.2356181,150.256736 Z" id="形状结合" fill="url(#linearGradient-3)" transform="translate(27.586388, 150.360889) rotate(-40.000000) translate(-27.586388, -150.360889) "></path>
                <path d="M14.3830538,184.966735 C14.3985185,184.965237 14.4141549,184.964474 14.4299398,184.964474 L14.7025763,184.964474 C15.0258452,184.964474 15.2867973,185.284545 15.2867973,185.681052 C15.2867973,185.822551 15.2530681,185.954317 15.1951684,186.065275 L15.6890382,186.065275 C15.7832243,186.065275 15.8433987,186.019587 15.8695615,185.993136 C15.8957243,185.966686 15.9402011,185.90657 15.9323523,185.820004 L15.7027016,183.496174 C15.6488702,183.492779 15.5990481,183.49095 15.5537876,183.49095 C15.0619532,183.49095 14.60823,183.358166 14.2411644,183.133381 L14.3830538,184.966735 Z M20.5503029,180.449846 C20.5989286,180.416134 20.658113,180.396386 20.7220396,180.396386 C20.8881639,180.396386 21.0222642,180.529749 21.0222642,180.69496 C21.0222642,180.712156 21.0207399,180.817279 20.9885304,180.957473 C21.0877317,181.085616 21.1634423,181.224008 21.2171656,181.367671 C21.3986226,181.237308 21.5382751,181.051213 21.6158164,180.825881 C21.7538072,180.424708 21.6650988,179.999073 21.3743326,179.688408 C20.5965193,178.857688 19.4325782,177.617162 18.2434568,176.350489 C18.1387938,176.378104 18.0295349,176.393566 17.916951,176.395923 C17.8983115,176.393397 17.879672,176.393397 17.8633624,176.393397 C17.5142024,176.393397 17.0869192,176.231826 16.7187795,176.052016 C18.0496608,177.578781 19.5239274,179.270555 20.5503029,180.449846 Z M16.9959312,171.103354 C17.8881502,171.865314 18.7704689,172.621461 19.4195798,173.183671 C20.006421,173.690541 19.8854609,174.520095 19.3404522,174.912204 C19.3297537,175.067547 19.2982659,175.223325 19.2450176,175.375069 C19.1638144,175.607072 19.0417091,175.806782 18.8890023,175.966484 C20.0403237,177.192998 21.1575934,178.38396 21.9115109,179.189388 C22.3821579,179.693301 22.5373975,180.410031 22.3106984,181.063161 C22.1373441,181.56809 21.7740067,181.954597 21.3038014,182.154865 C21.2208158,182.775518 20.791987,183.33229 20.1312016,183.448063 C19.9825536,183.475813 19.8291866,183.488427 19.6711007,183.488427 L20.0282768,183.886303 L19.3311817,183.506723 C19.3469539,184.083054 17.7028382,183.776302 16.5006923,183.594311 L16.7146202,185.752674 C16.740783,186.017183 16.6439806,186.281691 16.4503758,186.476466 C16.2567711,186.67124 15.976829,186.784257 15.6890382,186.784257 L14.5198172,186.784257 C14.5119334,187.134069 14.2698536,187.421511 13.9662271,187.421511 L10.7508813,187.421511 C10.4261677,187.421511 10.1695758,187.092756 10.1990952,186.710546 L10.4630051,183.300565 C9.97640611,183.100256 9.59001141,182.755931 9.38607619,182.335524 C9.39787364,182.312819 8.26295812,183.49095 7.33095888,183.49095 C6.9817541,183.49095 6.65142526,183.422835 6.35884828,183.304265 C5.66797217,183.021989 5.35201579,182.242962 5.50419411,181.53905 C5.34187123,181.329807 5.22481606,181.083945 5.16534704,180.816097 C5.02735628,180.194767 5.21216533,179.553868 5.65817117,179.101325 L8.38950517,176.33068 C8.21156258,176.371904 8.02561917,176.393397 7.83529513,176.393397 L7.80733583,176.393397 C7.20854092,176.385816 6.70061372,176.001732 6.4792693,175.39023 C6.25559494,174.766094 6.39772136,174.071205 6.84507008,173.618896 C6.88813368,173.575137 6.9322997,173.53033 6.97749386,173.484546 C7.03720319,173.380276 7.11688553,173.281713 7.2180624,173.192908 C7.33565446,173.089418 7.46085792,172.979695 7.59234799,172.864849 C8.0985094,172.356804 8.67142235,171.785988 9.24447446,171.217127 C9.07594436,171.213411 8.91297487,171.186858 8.76817099,171.141035 C8.24292696,170.976691 8.10233134,170.39586 8.49493799,170.055916 L8.80298123,169.788925 C8.85554265,169.640787 8.93704728,169.503473 9.04489336,169.386237 L12.0090555,166.150519 C12.3079014,165.823836 12.7087922,165.647531 13.1339794,165.652717 C13.5615962,165.657902 13.9551981,165.844578 14.246755,166.176447 C15.174878,167.239463 16.4212839,168.66546 17.0894352,169.432906 C17.361555,169.746625 17.4514517,170.192574 17.3202511,170.597038 C17.2556923,170.798515 17.1422789,170.97197 16.9959312,171.103354 Z M12.28036,166.965969 C12.7365889,166.847703 13.252982,166.948913 13.6014772,167.266575 C14.4670488,168.055257 15.7451282,169.219024 16.5243713,169.929336 C15.8493351,169.154147 14.626395,167.75498 13.712234,166.707955 C13.5591666,166.53165 13.3502175,166.433126 13.1242608,166.430533 C12.8983042,166.427941 12.6869254,166.521279 12.5289988,166.694991 L12.28036,166.965969 Z M9.69325265,175.008169 L10.0509019,174.645372 C9.81674556,174.527838 9.65935127,174.435315 9.65935127,174.435315 C9.32924763,174.85099 8.71584609,175.130416 8.01129653,175.130416 L7.98666193,175.130416 C7.59237462,175.126977 7.27795277,174.951727 7.07845955,174.698032 C7.06464041,174.848596 7.08831705,174.994439 7.13165286,175.114802 C7.24814992,175.438241 7.50211352,175.632809 7.81432565,175.635336 L7.83529513,175.635336 C8.36652174,175.635336 8.85580941,175.402864 9.11210295,175.028888 C9.22161019,174.869695 9.42431508,174.829265 9.5780912,174.932867 C9.61361599,174.956835 9.65218005,174.982073 9.69325265,175.008169 Z M18.3875357,175.432311 C18.468621,175.352355 18.534289,175.250523 18.5802111,175.129898 C18.4035994,175.124579 18.1998966,175.078668 17.9936183,175.012755 C18.1244209,175.152064 18.2558895,175.292089 18.3875357,175.432311 Z M17.5075531,175.56667 C17.1956743,175.234516 16.8872135,174.906037 16.5887652,174.588243 C16.4680481,174.702383 16.3236269,174.802452 16.1609115,174.884521 C16.1975296,174.893661 16.2336136,174.909449 16.2673526,174.932867 C16.56847,175.137211 17.0918421,175.433929 17.5075531,175.56667 Z M10.7096512,175.528406 L11.1283943,175.070775 C11.0129169,175.041943 10.8939236,175.004359 10.7760025,174.961864 L10.3633413,175.380387 C10.480289,175.436267 10.5976352,175.487095 10.7096512,175.528406 Z M10.1711915,176.116873 C10.0454856,176.059723 9.92433765,175.998679 9.81265798,175.938891 L6.19042123,179.612577 C5.91936795,179.888995 5.80601841,180.277937 5.89226263,180.657095 C5.90024412,180.69287 5.90976871,180.727868 5.9207828,180.762018 L10.1711915,176.116873 Z" id="形状结合复制" fill="url(#linearGradient-4)" transform="translate(13.766956, 176.537058) rotate(-61.000000) translate(-13.766956, -176.537058) "></path>
                <path d="M228.34219,171.708642 C228.357654,171.707144 228.373291,171.706381 228.389076,171.706381 L228.661712,171.706381 C228.984981,171.706381 229.245933,172.026452 229.245933,172.422958 C229.245933,172.564458 229.212204,172.696224 229.154304,172.807182 L229.648174,172.807182 C229.74236,172.807182 229.802535,172.761494 229.828698,172.735043 C229.85486,172.708592 229.899337,172.648477 229.891488,172.56191 L229.661838,170.238081 C229.608006,170.234686 229.558184,170.232856 229.512924,170.232856 C229.021089,170.232856 228.567366,170.100073 228.2003,169.875288 L228.34219,171.708642 Z M234.509439,167.191753 C234.558065,167.158041 234.617249,167.138293 234.681176,167.138293 C234.8473,167.138293 234.9814,167.271656 234.9814,167.436867 C234.9814,167.454063 234.979876,167.559186 234.947666,167.69938 C235.046868,167.827523 235.122578,167.965915 235.176302,168.109578 C235.357759,167.979214 235.497411,167.79312 235.574952,167.567788 C235.712943,167.166615 235.624235,166.74098 235.333469,166.430315 C234.555655,165.599595 233.391714,164.359069 232.202593,163.092396 C232.09793,163.120011 231.988671,163.135473 231.876087,163.13783 C231.857448,163.135303 231.838808,163.135303 231.822498,163.135303 C231.473338,163.135303 231.046055,162.973732 230.677915,162.793923 C232.008797,164.320688 233.483063,166.012461 234.509439,167.191753 Z M230.955067,157.84526 C231.847286,158.607221 232.729605,159.363368 233.378716,159.925578 C233.965557,160.432448 233.844597,161.262002 233.299588,161.654111 C233.28889,161.809454 233.257402,161.965231 233.204154,162.116976 C233.12295,162.348979 233.000845,162.548688 232.848138,162.708391 C233.99946,163.934904 235.116729,165.125867 235.870647,165.931294 C236.341294,166.435207 236.496534,167.151938 236.269834,167.805067 C236.09648,168.309997 235.733143,168.696504 235.262937,168.896771 C235.179952,169.517425 234.751123,170.074197 234.090338,170.18997 C233.94169,170.21772 233.788323,170.230334 233.630237,170.230334 L233.987413,170.62821 L233.290318,170.24863 C233.30609,170.82496 231.661974,170.518209 230.459828,170.336218 L230.673756,172.494581 C230.699919,172.759089 230.603117,173.023598 230.409512,173.218372 C230.215907,173.413147 229.935965,173.526164 229.648174,173.526164 L228.478953,173.526164 C228.471069,173.875976 228.22899,174.163417 227.925363,174.163417 L224.710017,174.163417 C224.385304,174.163417 224.128712,173.834663 224.158231,173.452453 L224.422141,170.042472 C223.935542,169.842162 223.549147,169.497838 223.345212,169.077431 C223.35701,169.054726 222.222094,170.232856 221.290095,170.232856 C220.94089,170.232856 220.610561,170.164742 220.317984,170.046172 C219.627108,169.763896 219.311152,168.984869 219.46333,168.280957 C219.301007,168.071713 219.183952,167.825852 219.124483,167.558003 C218.986492,166.936674 219.171301,166.295775 219.617307,165.843232 L222.348641,163.072587 C222.170699,163.113811 221.984755,163.135303 221.794431,163.135303 L221.766472,163.135303 C221.167677,163.127723 220.65975,162.743639 220.438405,162.132137 C220.214731,161.508 220.356857,160.813112 220.804206,160.360803 C220.84727,160.317044 220.891436,160.272237 220.93663,160.226453 C220.996339,160.122182 221.076022,160.023619 221.177198,159.934815 C221.29479,159.831325 221.419994,159.721602 221.551484,159.606756 C222.057645,159.098711 222.630558,158.527895 223.20361,157.959034 C223.03508,157.955317 222.872111,157.928765 222.727307,157.882942 C222.202063,157.718598 222.061467,157.137767 222.454074,156.797823 L222.762117,156.530832 C222.814679,156.382694 222.896183,156.24538 223.004029,156.128144 L225.968192,152.892426 C226.267037,152.565743 226.667928,152.389438 227.093115,152.394623 C227.520732,152.399809 227.914334,152.586485 228.205891,152.918353 C229.134014,153.98137 230.38042,155.407367 231.048571,156.174813 C231.320691,156.488532 231.410588,156.93448 231.279387,157.338945 C231.214828,157.540422 231.101415,157.713876 230.955067,157.84526 Z M226.239496,153.707876 C226.695725,153.58961 227.212118,153.69082 227.560613,154.008482 C228.426185,154.797164 229.704264,155.960931 230.483507,156.671243 C229.808471,155.896054 228.585531,154.496886 227.67137,153.449861 C227.518303,153.273556 227.309353,153.175033 227.083397,153.17244 C226.85744,153.169847 226.646061,153.263185 226.488135,153.436898 L226.239496,153.707876 Z M223.652389,161.750075 L224.010038,161.387279 C223.775882,161.269744 223.618487,161.177221 223.618487,161.177221 C223.288384,161.592896 222.674982,161.872322 221.970433,161.872322 L221.945798,161.872322 C221.551511,161.868884 221.237089,161.693634 221.037596,161.439939 C221.023776,161.590503 221.047453,161.736346 221.090789,161.856708 C221.207286,162.180147 221.46125,162.374716 221.773462,162.377243 L221.794431,162.377243 C222.325658,162.377243 222.814945,162.144771 223.071239,161.770795 C223.180746,161.611602 223.383451,161.571172 223.537227,161.674774 C223.572752,161.698741 223.611316,161.72398 223.652389,161.750075 Z M232.346672,162.174217 C232.427757,162.094262 232.493425,161.992429 232.539347,161.871805 C232.362735,161.866485 232.159033,161.820575 231.952754,161.754662 C232.083557,161.89397 232.215026,162.033995 232.346672,162.174217 Z M231.466689,162.308577 C231.15481,161.976422 230.84635,161.647944 230.547901,161.33015 C230.427184,161.444289 230.282763,161.544359 230.120048,161.626427 C230.156666,161.635568 230.19275,161.651356 230.226489,161.674774 C230.527606,161.879117 231.050978,162.175835 231.466689,162.308577 Z M224.668787,162.270313 L225.08753,161.812681 C224.972053,161.783849 224.85306,161.746265 224.735138,161.703771 L224.322477,162.122293 C224.439425,162.178174 224.556771,162.229002 224.668787,162.270313 Z M224.130328,162.85878 C224.004622,162.801629 223.883474,162.740586 223.771794,162.680798 L220.149557,166.354483 C219.878504,166.630902 219.765154,167.019844 219.851399,167.399002 C219.85938,167.434777 219.868905,167.469775 219.879919,167.503925 L224.130328,162.85878 Z" id="形状结合复制-2" fill="url(#linearGradient-4)" transform="translate(227.726092, 163.278965) scale(-1, 1) rotate(-61.000000) translate(-227.726092, -163.278965) "></path>
                <path d="M12.8387374,268 C8.69534859,257.213981 6.44651668,245.643398 6.44651668,233.604278 C6.44651668,175.032561 59.6749221,127.550802 125.335488,127.550802 C190.996053,127.550802 244.224459,175.032561 244.224459,233.604278 C244.224459,245.643398 241.975627,257.213981 237.832238,268 L12.8387333,268 Z" id="形状结合" fill="url(#linearGradient-5)"></path>
                <g id="编组" transform="translate(163.983551, 183.419714)">
                    <polygon id="路径-3" fill="url(#linearGradient-6)" points="11.1184717 5.91502582 0 16.1064656 32.186484 32.1027336 34.1263978 16.1064656"></polygon>
                    <ellipse id="椭圆形" stroke="#FFFFFF" stroke-width="5.74078594" fill="#E9F4FF" transform="translate(23.629779, 10.748663) rotate(24.000000) translate(-23.629779, -10.748663) " cx="23.629779" cy="10.7486631" rx="10.7982656" ry="6.45513504"></ellipse>
                </g>
                <g id="编组" transform="translate(76.799799, 225.131274) rotate(-41.000000) translate(-76.799799, -225.131274) translate(50.259938, 201.275214)">
                    <polygon id="路径-3" fill="url(#linearGradient-7)" points="16.4327523 8.59893048 0 23.6578914 47.5706136 47.2941176 50.4377453 23.6578914"></polygon>
                    <ellipse id="椭圆形" stroke="#FFFFFF" stroke-width="5.74078594" fill="#E9F4FF" transform="translate(34.535831, 15.889328) rotate(24.000000) translate(-34.535831, -15.889328) " cx="34.5358308" cy="15.8893281" rx="15.811818" ry="9.52444026"></ellipse>
                </g>
                <g id="暂无消息" transform="translate(52.561027, 0.000000)">
                    <g id="形状结合" opacity="0.39515904">
                        <use fill="black" fill-opacity="1" filter="url(#filter-10)" xlink:href="#path-9"></use>
                        <use fill="url(#linearGradient-8)" fill-rule="evenodd" xlink:href="#path-9"></use>
                    </g>
                    <g id="形状结合">
                        <use fill="black" fill-opacity="1" filter="url(#filter-13)" xlink:href="#path-12"></use>
                        <use fill="url(#linearGradient-11)" fill-rule="evenodd" xlink:href="#path-12"></use>
                    </g>
                    <path d="M30.0751364,56.1473387 L126.590993,56.3317964 C129.752952,56.3378394 132.314729,58.899597 132.320796,62.0615567 L132.452879,130.898872 C132.458962,134.069415 129.893661,136.644579 126.723119,136.650662 C126.71579,136.650676 126.708461,136.650676 126.701132,136.650662 L30.1852755,136.466205 C27.0233157,136.460162 24.4615387,133.898404 24.4554717,130.736444 L24.3233894,61.8991293 C24.3173059,58.7285866 26.8826069,56.1534223 30.0531496,56.1473388 C30.0604785,56.1473247 30.0678075,56.1473247 30.0751364,56.1473387 Z" id="矩形" fill="#FFFFFF" transform="translate(78.388134, 96.399001) rotate(-22.000000) translate(-78.388134, -96.399001) "></path>
                    <mask id="mask-16" fill="white">
                        <use xlink:href="#path-15"></use>
                    </mask>
                    <g id="矩形">
                        <use fill="black" fill-opacity="1" filter="url(#filter-17)" xlink:href="#path-15"></use>
                        <use fill="url(#linearGradient-14)" fill-rule="evenodd" xlink:href="#path-15"></use>
                    </g>
                    <path d="M139.545596,127.499352 L5.75740961,127.499352 L63.1676473,79.2038299 C69.7182657,73.693218 79.3219498,73.8302146 85.712717,79.5254354 L139.545596,127.499352 Z" id="形状结合" fill="url(#linearGradient-11)" transform="translate(72.651503, 101.353040) scale(1, -1) translate(-72.651503, -101.353040) "></path>
                    <path d="M30.0751364,56.1473387 L126.590993,56.3317964 C129.752952,56.3378394 132.314729,58.899597 132.320796,62.0615567 L132.452879,130.898872 C132.458962,134.069415 129.893661,136.644579 126.723119,136.650662 C126.71579,136.650676 126.708461,136.650676 126.701132,136.650662 L30.1852755,136.466205 C27.0233157,136.460162 24.4615387,133.898404 24.4554717,130.736444 L24.3233894,61.8991293 C24.3173059,58.7285866 26.8826069,56.1534223 30.0531496,56.1473388 C30.0604785,56.1473247 30.0678075,56.1473247 30.0751364,56.1473387 Z" id="矩形" fill="#FFFFFF" transform="translate(78.388134, 96.399001) rotate(-22.000000) translate(-78.388134, -96.399001) "></path>
                    <polygon id="矩形" fill="url(#linearGradient-18)" opacity="0.507300967" transform="translate(77.868316, 100.409039) rotate(-22.000000) translate(-77.868316, -100.409039) " points="33.2224727 96.738059 122.500399 96.9086838 122.514159 104.080019 33.2362327 103.909394"></polygon>
                    <polygon id="矩形复制" fill="url(#linearGradient-18)" opacity="0.507300967" transform="translate(56.252139, 126.205830) rotate(-22.000000) translate(-56.252139, -126.205830) " points="11.6062961 122.53485 100.884222 122.705475 100.897982 129.87681 11.6200562 129.706185"></polygon>
                    <path d="M105.945801,91.2856139 L161.19434,147.487673 L76.1226958,146.956265 C73.7448308,146.941412 71.8292315,145.00173 71.844085,142.623865 C71.8494311,141.768027 72.109717,140.933201 72.5917097,140.225974 L105.945801,91.2856139 Z" id="三角形" fill="url(#linearGradient-19)" transform="translate(116.519169, 119.386643) rotate(-90.000000) translate(-116.519169, -119.386643) "></path>
                    <path d="M17.0152519,92.2759063 L73.6969455,147.896064 L-12.7464885,147.896064 C-15.1243999,147.896064 -17.0520779,145.968386 -17.0520779,143.590474 C-17.0520779,142.725454 -16.7915242,141.88049 -16.3043692,141.165689 L17.0152519,92.2759063 Z" id="三角形" fill="url(#linearGradient-20)" transform="translate(28.322434, 120.085985) scale(-1, 1) rotate(-90.000000) translate(-28.322434, -120.085985) "></path>
                    <g id="三角形复制" transform="translate(70.404659, 142.069762) scale(-1, 1) translate(-70.404659, -142.069762) ">
                        <use fill="black" fill-opacity="1" filter="url(#filter-23)" xlink:href="#path-22"></use>
                        <use fill="url(#linearGradient-21)" fill-rule="evenodd" xlink:href="#path-22"></use>
                    </g>
                    <polygon id="矩形" fill="url(#linearGradient-24)" opacity="0.507300967" transform="translate(40.416699, 92.107160) rotate(-22.000000) translate(-40.416699, -92.107160) " points="28.1563435 81.3267654 52.6357749 81.3735496 52.6770551 102.887554 28.1976237 102.84077"></polygon>
                    <g id="xiaoxi" transform="translate(104.117917, 0.000000)" fill="url(#linearGradient-25)" fill-rule="nonzero">
                        <path d="M17.2929413,0.00422056265 C7.79683788,0.00422056265 0.0190769899,6.57703799 0.0190769899,14.5904729 C0.0190769899,20.352943 3.99839651,25.5751815 10.238693,27.916185 C10.238693,28.5464551 9.7864976,29.9870727 9.15342408,31.247613 C8.97254594,31.6077674 8.97254594,32.0579603 9.24386313,32.4181147 C9.42474128,32.7782691 9.87693669,32.9583463 10.238693,32.9583463 C10.4195712,32.9583463 15.2128424,32.8683077 18.3782102,29.1767253 C27.5125573,28.7265323 34.5668055,22.4238307 34.5668055,14.5904729 C34.5668055,6.57703799 26.7890446,0.00422056265 17.2929413,0.00422056265 Z" id="形状"></path>
                    </g>
                </g>
                <ellipse id="椭圆形" fill="#9FD6FF" cx="126.056027" cy="173.411765" rx="70.6128435" ry="4.29946524"></ellipse>
                <g id="duigou" transform="translate(163.699158, 8.121212)" fill="#FFFFFF" fill-rule="nonzero">
                    <path d="M8.29975284,14.195852 C7.81067772,14.195852 7.3216026,14.0068357 6.94824449,13.628803 L0.576534921,7.17691412 C-0.170157992,6.42146254 -0.170157992,5.19535883 0.576534921,4.43990727 C1.32322783,3.68381825 2.5328587,3.68381825 3.27952831,4.43990727 L8.29972953,9.52328088 L17.1429751,0.568755063 C17.8896681,-0.187333961 19.0992989,-0.187333961 19.8459685,0.568755063 C20.5926614,1.32420664 20.5926614,2.55031036 19.8459685,3.30576191 L9.65126119,13.628803 C9.27790308,14.0068357 8.78882796,14.195852 8.29975284,14.195852 Z" id="路径"></path>
                </g>
            </g>
        </g>
    </g>
</svg>