<?xml version="1.0" encoding="UTF-8"?>
<svg width="244px" height="268px" viewBox="0 0 244 268" version="1.1" xmlns="http://www.w3.org/2000/svg" xmlns:xlink="http://www.w3.org/1999/xlink">
    <!-- Generator: Sketch 54 (76480) - https://sketchapp.com -->
    <title>编组 32</title>
    <desc>Created with Sketch.</desc>
    <defs>
        <linearGradient x1="50%" y1="0%" x2="50%" y2="100%" id="linearGradient-1">
            <stop stop-color="#FCFCFC" stop-opacity="0.616996285" offset="0%"></stop>
            <stop stop-color="#E5EAF4" offset="100%"></stop>
        </linearGradient>
        <filter x="-3.7%" y="-3.6%" width="107.3%" height="107.2%" filterUnits="objectBoundingBox" id="filter-2">
            <feGaussianBlur stdDeviation="2.82352941" in="SourceGraphic"></feGaussianBlur>
        </filter>
        <linearGradient x1="50%" y1="0%" x2="50%" y2="100%" id="linearGradient-3">
            <stop stop-color="#ECF0F3" offset="0%"></stop>
            <stop stop-color="#E7EEF3" offset="100%"></stop>
        </linearGradient>
        <linearGradient x1="50%" y1="0%" x2="50%" y2="100%" id="linearGradient-4">
            <stop stop-color="#ECF0F3" offset="0%"></stop>
            <stop stop-color="#E7EEF3" offset="100%"></stop>
        </linearGradient>
        <linearGradient x1="50%" y1="0%" x2="50%" y2="53.4498078%" id="linearGradient-5">
            <stop stop-color="#E9F3FF" offset="0%"></stop>
            <stop stop-color="#FFFFFF" offset="100%"></stop>
        </linearGradient>
        <linearGradient x1="65.2112677%" y1="41.4295319%" x2="50%" y2="63.4469189%" id="linearGradient-6">
            <stop stop-color="#E6EBEF" offset="0%"></stop>
            <stop stop-color="#ECEEEE" stop-opacity="0.148574082" offset="100%"></stop>
        </linearGradient>
        <linearGradient x1="65.2112677%" y1="41.4337047%" x2="50%" y2="63.4403719%" id="linearGradient-7">
            <stop stop-color="#E6EBEF" offset="0%"></stop>
            <stop stop-color="#ECEEEE" stop-opacity="0.148574082" offset="100%"></stop>
        </linearGradient>
        <path d="M0.510263884,74.7114733 L144.029912,74.7114733 L144.029912,157.826302 C144.029912,160.996851 141.459675,163.567088 138.289126,163.567088 L6.25104983,163.567088 C3.0805013,163.567088 0.510263884,160.996851 0.510263884,157.826302 L0.510263884,74.7114733 Z" id="path-8"></path>
        <linearGradient x1="50%" y1="0%" x2="50%" y2="100%" id="linearGradient-10">
            <stop stop-color="#FF6A6A" offset="0%"></stop>
            <stop stop-color="#FD2121" offset="100%"></stop>
        </linearGradient>
    </defs>
    <g id="页面1" stroke="none" stroke-width="1" fill="none" fill-rule="evenodd">
        <g id="app复制" transform="translate(-602.000000, -6058.000000)">
            <g id="编组-32" transform="translate(598.099585, 6058.000000)">
                <polygon id="矩形" fill="url(#linearGradient-1)" filter="url(#filter-2)" points="41.4255986 17.197861 207.757617 17.197861 241.691712 252.235294 10.0266171 252.235294"></polygon>
                <path d="M31.8083511,164.206418 C31.9039109,164.334032 31.9621963,164.504665 31.9621963,164.69244 C31.9621963,164.821581 31.9342162,164.942614 31.885493,165.047121 L31.9437905,165.682455 C32.0364959,165.661391 32.0981303,165.609474 32.1286939,165.576379 C32.167778,165.534058 32.2342208,165.437873 32.2224956,165.299366 L31.7742735,160.44162 C31.6663728,160.421996 31.5603665,160.398671 31.4564935,160.371829 L31.8083511,164.206418 Z M33.9385403,142.457488 C35.5925391,143.914461 37.3264005,145.446774 38.5368204,146.52952 C39.0657768,147.001373 39.2235394,147.648 39.0966886,148.229862 C39.1783226,148.659861 39.1407356,149.113931 38.9728887,149.546185 C38.6807281,150.300514 38.0695827,150.827251 37.3135772,151.008564 C38.8139691,152.529343 40.2179178,153.953297 41.217116,154.968726 C41.9015957,155.665859 42.1630112,156.634534 41.9190568,157.549466 C42.2817799,158.797226 41.5174846,160.219344 40.0735768,160.452192 C39.8313275,160.493817 39.5813877,160.512738 39.3237574,160.512738 L39.9058419,161.109552 L38.7697967,160.540183 C38.8014203,161.603783 34.7384198,160.66234 32.9598223,160.531197 L33.391108,165.191639 C33.4301921,165.614853 33.2855812,166.038067 32.9963594,166.349706 C32.7071376,166.661345 32.2889384,166.842172 31.8590141,166.842172 L31.0429829,166.842172 L25.7059463,166.842172 C25.1669659,166.842172 24.7410583,166.381916 24.7900566,165.846822 L24.8119609,165.608105 C24.7864544,165.471986 24.7796767,165.331813 24.7926218,165.191639 L25.2298931,160.466517 C24.1730485,160.310365 23.2773875,159.800415 22.765037,159.105515 C22.6460527,159.043113 22.5312614,158.976039 22.4211368,158.904533 C21.9626432,159.298858 20.474002,160.516522 19.2132184,160.516522 C18.6441247,160.516522 18.1057929,160.41435 17.6289847,160.236496 C17.1435275,160.053933 16.7716593,159.732846 16.5255568,159.341994 C15.655045,159.008365 15.0156613,158.287447 14.8105801,157.408789 C14.5929865,156.476795 14.8844065,155.515447 15.5877,154.836632 L19.5347768,151.027932 C18.742394,150.87416 18.0935433,150.34302 17.7834834,149.568926 C17.4122144,148.632722 17.6481249,147.590389 18.3906629,146.911925 C19.6758311,145.73179 21.5525257,144.043137 23.3041397,142.475214 C23.0763748,142.46342 22.8568937,142.420507 22.6599144,142.350963 C22.0782506,142.147916 21.8123567,141.563414 21.9526366,141.043781 C21.8321713,140.476407 22.0111919,139.894563 22.4331409,139.480053 L27.3532468,134.626476 C27.8492903,134.136452 28.5147144,133.871994 29.2204673,133.879772 C29.9302531,133.88755 30.5835787,134.167564 31.0675235,134.665367 C32.6080813,136.259891 34.6769455,138.398887 35.7859858,139.550056 C36.2376676,140.020635 36.386884,140.689558 36.1691088,141.296255 C35.9553665,141.899063 35.4189943,142.33464 34.7697016,142.435756 C34.6164524,142.46298 34.4591703,142.478536 34.2978554,142.478536 C34.1764509,142.478536 34.0564053,142.471388 33.9385403,142.457488 Z M28.3644205,135.315566 C28.9145034,135.286735 29.4738326,135.480189 29.880282,135.89353 C31.2791787,137.315591 33.3993196,139.46932 34.5168518,140.606218 C34.6880309,140.78045 34.7858457,140.985037 34.8193418,141.193623 C34.9448775,141.105753 35.0022584,140.983849 35.0237726,140.919013 C35.0963644,140.716781 35.0479699,140.502882 34.8987536,140.347318 C33.7897133,139.196149 31.7208491,137.057154 30.1802913,135.462629 C29.9262202,135.198172 29.5793931,135.050386 29.2043359,135.046497 C28.8960766,135.043301 28.604163,135.137309 28.3644205,135.315566 Z M20.7464549,149.858733 L20.9701586,149.642871 C20.9346103,149.643829 20.8988991,149.644311 20.8630354,149.644311 L20.8248714,149.644311 C19.7533592,149.634661 19.0625781,148.779102 19.0457427,147.884014 C18.7096337,148.297867 18.7248933,148.800734 18.8663514,149.155784 C19.0597206,149.640942 19.4812657,149.932795 19.9994953,149.936586 L20.0343018,149.936586 C20.2793299,149.936586 20.5189826,149.909659 20.7464549,149.858733 Z M36.1785962,149.85832 C36.3666536,149.907704 36.5388977,149.936586 36.6833965,149.936586 L36.7452746,149.936586 C37.0585831,149.929812 37.3362118,149.822168 37.5495496,149.632079 C37.488237,149.639028 37.4254888,149.643162 37.3613668,149.644311 L37.288855,149.644311 C36.742426,149.644311 36.0113943,149.365575 35.4175427,149.087187 C35.670829,149.34381 35.9249822,149.601329 36.1785962,149.85832 Z M23.8951036,149.401891 L24.2912397,149.003417 C24.0186678,148.870258 23.7857352,148.743744 23.6288875,148.65539 L23.2176427,149.052144 C23.4202793,149.165474 23.6526689,149.286683 23.8951036,149.401891 Z M23.0452754,150.256736 C22.9313261,150.198293 22.8266192,150.142561 22.7337369,150.091988 C22.3481555,150.450225 21.8611014,150.7216 21.3155087,150.887251 L16.4269896,155.603509 C15.9995736,156.018136 15.820836,156.60155 15.956832,157.170287 C16.0054732,157.377682 16.0904587,157.567652 16.20691,157.734189 C16.2822615,157.284941 16.4922853,156.848776 16.8484035,156.490191 L23.0452754,150.256736 Z" id="形状结合" fill="url(#linearGradient-3)" fill-rule="nonzero" transform="translate(28.374205, 150.360889) rotate(-40.000000) translate(-28.374205, -150.360889) "></path>
                <path d="M15.2247624,184.966735 C15.240164,184.965237 15.2557365,184.964474 15.2714571,184.964474 L15.5429807,184.964474 C15.8649302,184.964474 16.1248171,185.284545 16.1248171,185.681052 C16.1248171,185.822551 16.0912256,185.954317 16.0335622,186.065275 L16.5254162,186.065275 C16.6192179,186.065275 16.6791467,186.019587 16.7052027,185.993136 C16.7312588,185.966686 16.775554,185.90657 16.7677372,185.820004 L16.5390239,183.496174 C16.4854122,183.492779 16.4357935,183.49095 16.3907177,183.49095 C15.9008907,183.49095 15.4490195,183.358166 15.0834522,183.133381 L15.2247624,184.966735 Z M21.366839,180.449846 C21.4152663,180.416134 21.4742091,180.396386 21.5378748,180.396386 C21.703321,180.396386 21.836874,180.529749 21.836874,180.69496 C21.836874,180.712156 21.8353559,180.817279 21.8032779,180.957473 C21.9020743,181.085616 21.9774759,181.224008 22.0309799,181.367671 C22.2116962,181.237308 22.3507787,181.051213 22.4280035,180.825881 C22.5654311,180.424708 22.4770848,179.999073 22.1875054,179.688408 C21.4128668,178.857688 20.2536765,177.617162 19.0694086,176.350489 C18.9651728,176.378104 18.8563599,176.393566 18.7442356,176.395923 C18.7256721,176.393397 18.7071087,176.393397 18.6908656,176.393397 C18.3431308,176.393397 17.9175916,176.231826 17.5509545,176.052016 C18.8764037,177.578781 20.3446528,179.270555 21.366839,180.449846 Z M17.826975,171.103354 C18.7155523,171.865314 19.5942697,172.621461 20.2407312,173.183671 C20.8251771,173.690541 20.7047107,174.520095 20.1619265,174.912204 C20.1512717,175.067547 20.1199124,175.223325 20.0668814,175.375069 C19.9860097,175.607072 19.8644028,175.806782 19.7123193,175.966484 C20.8589414,177.192998 21.9716508,178.38396 22.7224911,179.189388 C23.1912171,179.693301 23.3458231,180.410031 23.1200493,181.063161 C22.9474025,181.56809 22.5855482,181.954597 22.1172621,182.154865 C22.0346152,182.775518 21.6075367,183.33229 20.9494483,183.448063 C20.8014071,183.475813 20.6486661,183.488427 20.4912254,183.488427 L20.8469437,183.886303 L20.1526938,183.506723 C20.1684017,184.083054 18.5309967,183.776302 17.3337574,183.594311 L17.5468122,185.752674 C17.5728682,186.017183 17.4764609,186.281691 17.2836464,186.476466 C17.0908318,186.67124 16.8120324,186.784257 16.5254162,186.784257 L15.3609676,186.784257 C15.3531159,187.134069 15.1120242,187.421511 14.809637,187.421511 L11.6074151,187.421511 C11.2840268,187.421511 11.0284823,187.092756 11.0578812,186.710546 L11.3207139,183.300565 C10.836101,183.100256 10.4512834,182.755931 10.2481806,182.335524 C10.2599299,182.312819 9.1296467,183.49095 8.20145154,183.49095 C7.85367208,183.49095 7.52469152,183.422835 7.23330874,183.304265 C6.54525253,183.021989 6.23058577,182.242962 6.38214295,181.53905 C6.22048261,181.329807 6.10390522,181.083945 6.04467893,180.816097 C5.9072514,180.194767 6.09130613,179.553868 6.53549153,179.101325 L9.25567723,176.33068 C9.07846093,176.371904 8.89327647,176.393397 8.70372927,176.393397 L8.67588409,176.393397 C8.07953324,176.385816 7.57367922,176.001732 7.35323824,175.39023 C7.13047684,174.766094 7.27202315,174.071205 7.71754596,173.618896 C7.76043379,173.575137 7.80441954,173.53033 7.84942924,173.484546 C7.90889485,173.380276 7.98825196,173.281713 8.08901586,173.192908 C8.20612795,173.089418 8.33082038,172.979695 8.46177375,172.864849 C8.9658692,172.356804 9.53644373,171.785988 10.1071568,171.217127 C9.93931463,171.213411 9.77701031,171.186858 9.63279748,171.141035 C9.1096973,170.976691 8.96967553,170.39586 9.36067971,170.055916 L9.66746563,169.788925 C9.71981252,169.640787 9.80098448,169.503473 9.90839036,169.386237 L12.8604539,166.150519 C13.15808,165.823836 13.5573345,165.647531 13.9807863,165.652717 C14.4066577,165.657902 14.798653,165.844578 15.08902,166.176447 C16.0133546,167.239463 17.2546731,168.66546 17.9200973,169.432906 C18.1911064,169.746625 18.2806362,170.192574 18.1499711,170.597038 C18.0856759,170.798515 17.9727253,170.97197 17.826975,171.103354 Z M13.130651,166.965969 C13.5850178,166.847703 14.0993031,166.948913 14.4463759,167.266575 C15.3084146,168.055257 16.5812773,169.219024 17.3573398,169.929336 C16.6850589,169.154147 15.4671104,167.75498 14.5566806,166.707955 C14.404238,166.53165 14.1961417,166.433126 13.9711074,166.430533 C13.746073,166.427941 13.535557,166.521279 13.3782749,166.694991 L13.130651,166.965969 Z M10.5541033,175.008169 L10.9102927,174.645372 C10.6770922,174.527838 10.5203403,174.435315 10.5203403,174.435315 C10.191584,174.85099 9.58068615,175.130416 8.87901229,175.130416 L8.85447824,175.130416 C8.46180027,175.126977 8.14866178,174.951727 7.94998282,174.698032 C7.93622008,174.848596 7.95980008,174.994439 8.00295901,175.114802 C8.11898058,175.438241 8.37190759,175.632809 8.68284539,175.635336 L8.70372927,175.635336 C9.23278761,175.635336 9.72007818,175.402864 9.97532563,175.028888 C10.0843859,174.869695 10.2862634,174.829265 10.4394119,174.932867 C10.4747917,174.956835 10.5131983,174.982073 10.5541033,175.008169 Z M19.2128994,175.432311 C19.2936538,175.352355 19.3590538,175.250523 19.4047884,175.129898 C19.2288976,175.124579 19.0260263,175.078668 18.8205899,175.012755 C18.9508586,175.152064 19.0817906,175.292089 19.2128994,175.432311 Z M18.3365086,175.56667 C18.0259028,175.234516 17.718701,174.906037 17.4214708,174.588243 C17.3012465,174.702383 17.1574148,174.802452 16.9953636,174.884521 C17.0318322,174.893661 17.0677689,174.909449 17.1013702,174.932867 C17.4012585,175.137211 17.9224944,175.433929 18.3365086,175.56667 Z M11.5663533,175.528406 L11.9833873,175.070775 C11.8683812,175.041943 11.7498735,175.004359 11.6324337,174.961864 L11.2214569,175.380387 C11.3379272,175.436267 11.4547945,175.487095 11.5663533,175.528406 Z M11.0300914,176.116873 C10.9048986,176.059723 10.7842451,175.998679 10.6730213,175.938891 L7.06556914,179.612577 C6.79562221,179.888995 6.68273531,180.277937 6.76862751,180.657095 C6.77657643,180.69287 6.78606215,180.727868 6.79703128,180.762018 L11.0300914,176.116873 Z" id="形状结合复制" fill="url(#linearGradient-4)" fill-rule="nonzero" transform="translate(14.611179, 176.537058) rotate(-61.000000) translate(-14.611179, -176.537058) "></path>
                <path d="M228.310596,171.708642 C228.325997,171.707144 228.34157,171.706381 228.35729,171.706381 L228.628814,171.706381 C228.950764,171.706381 229.210651,172.026452 229.210651,172.422958 C229.210651,172.564458 229.177059,172.696224 229.119396,172.807182 L229.61125,172.807182 C229.705051,172.807182 229.76498,172.761494 229.791036,172.735043 C229.817092,172.708592 229.861387,172.648477 229.853571,172.56191 L229.624857,170.238081 C229.571246,170.234686 229.521627,170.232856 229.476551,170.232856 C228.986724,170.232856 228.534853,170.100073 228.169286,169.875288 L228.310596,171.708642 Z M234.452672,167.191753 C234.5011,167.158041 234.560043,167.138293 234.623708,167.138293 C234.789154,167.138293 234.922707,167.271656 234.922707,167.436867 C234.922707,167.454063 234.921189,167.559186 234.889111,167.69938 C234.987908,167.827523 235.063309,167.965915 235.116813,168.109578 C235.29753,167.979214 235.436612,167.79312 235.513837,167.567788 C235.651264,167.166615 235.562918,166.74098 235.273339,166.430315 C234.4987,165.599595 233.33951,164.359069 232.155242,163.092396 C232.051006,163.120011 231.942193,163.135473 231.830069,163.13783 C231.811506,163.135303 231.792942,163.135303 231.776699,163.135303 C231.428964,163.135303 231.003425,162.973732 230.636788,162.793923 C231.962237,164.320688 233.430486,166.012461 234.452672,167.191753 Z M230.912808,157.84526 C231.801386,158.607221 232.680103,159.363368 233.326565,159.925578 C233.91101,160.432448 233.790544,161.262002 233.24776,161.654111 C233.237105,161.809454 233.205746,161.965231 233.152715,162.116976 C233.071843,162.348979 232.950236,162.548688 232.798153,162.708391 C233.944775,163.934904 235.057484,165.125867 235.808325,165.931294 C236.277051,166.435207 236.431657,167.151938 236.205883,167.805067 C236.033236,168.309997 235.671382,168.696504 235.203095,168.896771 C235.120449,169.517425 234.69337,170.074197 234.035282,170.18997 C233.887241,170.21772 233.7345,170.230334 233.577059,170.230334 L233.932777,170.62821 L233.238527,170.24863 C233.254235,170.82496 231.61683,170.518209 230.419591,170.336218 L230.632646,172.494581 C230.658702,172.759089 230.562294,173.023598 230.36948,173.218372 C230.176665,173.413147 229.897866,173.526164 229.61125,173.526164 L228.446801,173.526164 C228.438949,173.875976 228.197858,174.163417 227.89547,174.163417 L224.693248,174.163417 C224.36986,174.163417 224.114316,173.834663 224.143715,173.452453 L224.406547,170.042472 C223.921934,169.842162 223.537117,169.497838 223.334014,169.077431 C223.345763,169.054726 222.21548,170.232856 221.287285,170.232856 C220.939506,170.232856 220.610525,170.164742 220.319142,170.046172 C219.631086,169.763896 219.316419,168.984869 219.467976,168.280957 C219.306316,168.071713 219.189739,167.825852 219.130512,167.558003 C218.993085,166.936674 219.17714,166.295775 219.621325,165.843232 L222.341511,163.072587 C222.164294,163.113811 221.97911,163.135303 221.789563,163.135303 L221.761718,163.135303 C221.165367,163.127723 220.659513,162.743639 220.439072,162.132137 C220.21631,161.508 220.357857,160.813112 220.803379,160.360803 C220.846267,160.317044 220.890253,160.272237 220.935263,160.226453 C220.994728,160.122182 221.074085,160.023619 221.174849,159.934815 C221.291961,159.831325 221.416654,159.721602 221.547607,159.606756 C222.051703,159.098711 222.622277,158.527895 223.19299,157.959034 C223.025148,157.955317 222.862844,157.928765 222.718631,157.882942 C222.195531,157.718598 222.055509,157.137767 222.446513,156.797823 L222.753299,156.530832 C222.805646,156.382694 222.886818,156.24538 222.994224,156.128144 L225.946287,152.892426 C226.243913,152.565743 226.643168,152.389438 227.06662,152.394623 C227.492491,152.399809 227.884486,152.586485 228.174853,152.918353 C229.099188,153.98137 230.340507,155.407367 231.005931,156.174813 C231.27694,156.488532 231.36647,156.93448 231.235805,157.338945 C231.171509,157.540422 231.058559,157.713876 230.912808,157.84526 Z M226.216484,153.707876 C226.670851,153.58961 227.185137,153.69082 227.532209,154.008482 C228.394248,154.797164 229.667111,155.960931 230.443173,156.671243 C229.770892,155.896054 228.552944,154.496886 227.642514,153.449861 C227.490071,153.273556 227.281975,153.175033 227.056941,153.17244 C226.831906,153.169847 226.62139,153.263185 226.464108,153.436898 L226.216484,153.707876 Z M223.639937,161.750075 L223.996126,161.387279 C223.762926,161.269744 223.606174,161.177221 223.606174,161.177221 C223.277417,161.592896 222.66652,161.872322 221.964846,161.872322 L221.940312,161.872322 C221.547634,161.868884 221.234495,161.693634 221.035816,161.439939 C221.022053,161.590503 221.045634,161.736346 221.088792,161.856708 C221.204814,162.180147 221.457741,162.374716 221.768679,162.377243 L221.789563,162.377243 C222.318621,162.377243 222.805912,162.144771 223.061159,161.770795 C223.170219,161.611602 223.372097,161.571172 223.525245,161.674774 C223.560625,161.698741 223.599032,161.72398 223.639937,161.750075 Z M232.298733,162.174217 C232.379487,162.094262 232.444887,161.992429 232.490622,161.871805 C232.314731,161.866485 232.11186,161.820575 231.906423,161.754662 C232.036692,161.89397 232.167624,162.033995 232.298733,162.174217 Z M231.422342,162.308577 C231.111736,161.976422 230.804534,161.647944 230.507304,161.33015 C230.38708,161.444289 230.243248,161.544359 230.081197,161.626427 C230.117666,161.635568 230.153602,161.651356 230.187204,161.674774 C230.487092,161.879117 231.008328,162.175835 231.422342,162.308577 Z M224.652187,162.270313 L225.069221,161.812681 C224.954215,161.783849 224.835707,161.746265 224.718267,161.703771 L224.30729,162.122293 C224.423761,162.178174 224.540628,162.229002 224.652187,162.270313 Z M224.115925,162.85878 C223.990732,162.801629 223.870079,162.740586 223.758855,162.680798 L220.151403,166.354483 C219.881456,166.630902 219.768569,167.019844 219.854461,167.399002 C219.86241,167.434777 219.871896,167.469775 219.882865,167.503925 L224.115925,162.85878 Z" id="形状结合复制-2" fill="url(#linearGradient-4)" fill-rule="nonzero" transform="translate(227.697012, 163.278965) scale(-1, 1) rotate(-61.000000) translate(-227.697012, -163.278965) "></path>
                <path d="M13.6867493,268 C9.56027231,257.213981 7.3206193,245.643398 7.3206193,233.604278 C7.3206193,175.032561 60.331766,127.550802 125.724329,127.550802 C191.116893,127.550802 244.128039,175.032561 244.128039,233.604278 C244.128039,245.643398 241.888386,257.213981 237.761909,268 L13.6867453,268 Z" id="形状结合" fill="url(#linearGradient-5)"></path>
                <g id="编组" transform="translate(164.214645, 183.419714)">
                    <polygon id="路径-3" fill="url(#linearGradient-6)" points="11.0730902 5.91502582 0 16.1064656 32.0551106 32.1027336 33.9871064 16.1064656"></polygon>
                    <ellipse id="椭圆形" stroke="#FFFFFF" stroke-width="5.74078594" fill="#E1E7ED" transform="translate(23.533331, 10.748663) rotate(24.000000) translate(-23.533331, -10.748663) " cx="23.5333309" cy="10.7486631" rx="10.7614413" ry="6.45072016"></ellipse>
                </g>
                <g id="编组" transform="translate(77.532849, 225.194990) rotate(-41.000000) translate(-77.532849, -225.194990) translate(51.032849, 201.194990)">
                    <polygon id="路径-3" fill="url(#linearGradient-7)" points="16.3656799 8.59893048 0 23.6578914 47.3764478 47.2941176 50.231877 23.6578914"></polygon>
                    <ellipse id="椭圆形" stroke="#FFFFFF" stroke-width="5.74078594" fill="#E1E7ED" transform="translate(34.394868, 15.889328) rotate(24.000000) translate(-34.394868, -15.889328) " cx="34.3948682" cy="15.8893281" rx="15.7580353" ry="9.51815996"></ellipse>
                </g>
                <g id="暂无消息" transform="translate(53.246907, 0.000000)">
                    <path d="M143.895672,74.7114733 L0.863189199,74.7114733 L62.6373213,19.5813773 C69.3118628,13.6247075 79.4357029,13.7700997 85.9364351,19.9159845 L143.895672,74.7114733 Z" id="形状结合" fill="#DFE7EA" opacity="0.39515904"></path>
                    <path d="M138.976022,74.7114733 L5.73390998,74.7114733 L62.8359424,26.4783544 C69.3956658,20.9374672 79.0347442,21.075048 85.4336549,26.8008968 L138.976022,74.7114733 Z" id="形状结合" fill="#C3CED5"></path>
                    <path d="M29.9799891,56.2388849 L126.116667,56.2920686 C129.284999,56.2936342 131.853048,58.8616826 131.854615,62.0300142 L131.899995,130.821165 C131.901563,133.991713 129.332598,136.563222 126.162049,136.56479 C126.160157,136.564791 126.158265,136.564791 126.156373,136.56479 L30.0196981,136.505933 C26.8513665,136.504367 24.2833168,133.936319 24.2817496,130.767987 L24.2363699,61.9768362 C24.2348017,58.8062881 26.8037674,56.2347796 29.9743156,56.2332114 C29.9762077,56.2332104 29.9780998,56.2332104 29.9799919,56.2332114 Z" id="矩形" fill="#FFFFFF" transform="translate(78.068183, 96.399001) rotate(-22.000000) translate(-78.068183, -96.399001) "></path>
                    <mask id="mask-9" fill="white">
                        <use xlink:href="#path-8"></use>
                    </mask>
                    <use id="矩形" fill="#C3CED5" xlink:href="#path-8"></use>
                    <path d="M138.976022,127.499352 L5.73390998,127.499352 L62.8359424,79.2662332 C69.3956658,73.725346 79.0347442,73.8629268 85.4336549,79.5887756 L138.976022,127.499352 Z" id="形状结合" fill="#C3CED5" transform="translate(72.354966, 101.353040) scale(1, -1) translate(-72.354966, -101.353040) "></path>
                    <path d="M29.9799891,56.2388849 L126.116667,56.2920686 C129.284999,56.2936342 131.853048,58.8616826 131.854615,62.0300142 L131.899995,130.821165 C131.901563,133.991713 129.332598,136.563222 126.162049,136.56479 C126.160157,136.564791 126.158265,136.564791 126.156373,136.56479 L30.0196981,136.505933 C26.8513665,136.504367 24.2833168,133.936319 24.2817496,130.767987 L24.2363699,61.9768362 C24.2348017,58.8062881 26.8037674,56.2347796 29.9743156,56.2332114 C29.9762077,56.2332104 29.9780998,56.2332104 29.9799919,56.2332114 Z" id="矩形" fill="#FFFFFF" transform="translate(78.068183, 96.399001) rotate(-22.000000) translate(-78.068183, -96.399001) "></path>
                    <polygon id="矩形" fill="#E6EAED" opacity="0.507300967" transform="translate(77.550486, 100.409039) rotate(-22.000000) translate(-77.550486, -100.409039) " points="33.0665029 96.8034547 122.030924 96.8474152 122.034469 104.014623 33.0700481 103.970662"></polygon>
                    <polygon id="矩形复制" fill="#E6EAED" opacity="0.507300967" transform="translate(56.022539, 126.205830) rotate(-22.000000) translate(-56.022539, -126.205830) " points="11.5385556 122.600246 100.502977 122.644207 100.506522 129.811414 11.5421008 129.767454"></polygon>
                    <path d="M105.460848,91.3909478 L160.709387,147.363611 L75.6565813,146.834489 C73.2787159,146.819696 71.3630671,144.880063 71.3778601,142.502198 C71.3832019,141.643528 71.6451722,140.806069 72.1301106,140.097425 L105.460848,91.3909478 Z" id="三角形" fill="#DFE7EA" transform="translate(116.043581, 119.377279) rotate(-90.000000) translate(-116.043581, -119.377279) "></path>
                    <path d="M16.890246,92.3800127 L73.5719396,147.773149 L-12.8526861,147.773149 C-15.2305975,147.773149 -17.1582756,145.845471 -17.1582756,143.46756 C-17.1582756,142.599743 -16.8960363,141.752181 -16.4059417,141.036001 L16.890246,92.3800127 Z" id="三角形" fill="#DFE7EA" transform="translate(28.206832, 120.076581) scale(-1, 1) rotate(-90.000000) translate(-28.206832, -120.076581) "></path>
                    <path d="M73.6226936,124.073481 L139.724323,163.567088 L-4.91482007,163.567088 L61.8879114,124.047954 C65.5087751,121.905925 70.0111833,121.915719 73.6226936,124.073481 Z" id="三角形复制" fill="#D5DFE3" transform="translate(70.117293, 142.069762) scale(-1, 1) translate(-70.117293, -142.069762) "></path>
                    <polygon id="矩形" fill="#E4E8EB" opacity="0.507300967" transform="translate(40.251733, 92.107160) rotate(-22.000000) translate(-40.251733, -92.107160) " points="28.0496803 81.3503213 52.4431505 81.3623749 52.4537861 102.863998 28.0603159 102.851945"></polygon>
                    <g id="xiaoxi" transform="translate(104.000000, 0.000000)" fill="url(#linearGradient-10)" fill-rule="nonzero">
                        <path d="M17.2223578,0.00422056265 C7.76501405,0.00422056265 0.0189991246,6.57703799 0.0189991246,14.5904729 C0.0189991246,20.352943 3.98207652,25.5751815 10.1969024,27.916185 C10.1969024,28.5464551 9.74655271,29.9870727 9.11606317,31.247613 C8.9359233,31.6077674 8.9359233,32.0579603 9.20613308,32.4181147 C9.38627294,32.7782691 9.83662266,32.9583463 10.1969024,32.9583463 C10.3770423,32.9583463 15.1507492,32.8683077 18.3031971,29.1767253 C27.4002611,28.7265323 34.4257165,22.4238307 34.4257165,14.5904729 C34.4257165,6.57703799 26.6797016,0.00422056265 17.2223578,0.00422056265 Z" id="形状"></path>
                    </g>
                </g>
                <ellipse id="椭圆形" fill="#EAEEF1" cx="126.441928" cy="173.411765" rx="70.3246278" ry="4.29946524"></ellipse>
                <g id="编组-30" transform="translate(165.900415, 6.000000)" fill="#FFFFFF">
                    <rect id="矩形" transform="translate(9.000000, 9.000000) rotate(-45.000000) translate(-9.000000, -9.000000) " x="-1" y="7" width="20" height="4" rx="2"></rect>
                    <rect id="矩形" transform="translate(9.000000, 9.000000) rotate(45.000000) translate(-9.000000, -9.000000) " x="-1" y="7" width="20" height="4" rx="2"></rect>
                </g>
            </g>
        </g>
    </g>
</svg>