<?xml version="1.0" encoding="UTF-8"?>
<svg width="171px" height="187px" viewBox="0 0 171 187" version="1.1" xmlns="http://www.w3.org/2000/svg" xmlns:xlink="http://www.w3.org/1999/xlink">
    <!-- Generator: Sketch 55.1 (78136) - https://sketchapp.com -->
    <title>编组 22复制 2</title>
    <desc>Created with Sketch.</desc>
    <defs>
        <linearGradient x1="21.9287398%" y1="33.0039716%" x2="77.3025701%" y2="65.7036976%" id="linearGradient-1">
            <stop stop-color="#FFB08C" offset="0%"></stop>
            <stop stop-color="#FF7B7F" offset="100%"></stop>
        </linearGradient>
        <linearGradient x1="50%" y1="0%" x2="50%" y2="100%" id="linearGradient-2">
            <stop stop-color="#FFB08C" offset="0%"></stop>
            <stop stop-color="#FF7B7F" offset="100%"></stop>
        </linearGradient>
        <linearGradient x1="41.3066273%" y1="0%" x2="61.442999%" y2="94.2732297%" id="linearGradient-3">
            <stop stop-color="#7BB6FF" offset="0%"></stop>
            <stop stop-color="#2060FD" offset="100%"></stop>
        </linearGradient>
        <filter x="-48.4%" y="-12.7%" width="196.8%" height="125.4%" filterUnits="objectBoundingBox" id="filter-4">
            <feGaussianBlur stdDeviation="3.72929538" in="SourceGraphic"></feGaussianBlur>
        </filter>
        <linearGradient x1="16.8626769%" y1="29.022469%" x2="93.6183248%" y2="68.574861%" id="linearGradient-5">
            <stop stop-color="#7BB6FF" offset="0%"></stop>
            <stop stop-color="#2060FD" offset="100%"></stop>
        </linearGradient>
        <linearGradient x1="16.8626769%" y1="0%" x2="93.6183248%" y2="94.2732297%" id="linearGradient-6">
            <stop stop-color="#97BEFF" offset="0%"></stop>
            <stop stop-color="#447AFF" offset="100%"></stop>
        </linearGradient>
        <polygon id="path-7" points="59.7286106 84.7650421 56.6852898 96.6987873 95.4699618 96.6987873 91.1216866 84.7650421"></polygon>
        <filter x="-11.5%" y="-85.7%" width="123.1%" height="271.4%" filterUnits="objectBoundingBox" id="filter-9">
            <feGaussianBlur stdDeviation="1.49171815" in="SourceGraphic"></feGaussianBlur>
        </filter>
        <linearGradient x1="21.9287398%" y1="21.9045246%" x2="77.3025701%" y2="75.9591735%" id="linearGradient-10">
            <stop stop-color="#FFB08C" offset="0%"></stop>
            <stop stop-color="#FF7B7F" offset="100%"></stop>
        </linearGradient>
        <linearGradient x1="21.9287398%" y1="21.9045246%" x2="77.3025701%" y2="75.9591735%" id="linearGradient-11">
            <stop stop-color="#7BCCFF" offset="0%"></stop>
            <stop stop-color="#6696FF" offset="100%"></stop>
        </linearGradient>
    </defs>
    <g id="页面1" stroke="none" stroke-width="1" fill="none" fill-rule="evenodd">
        <g id="app定制" transform="translate(-1047.000000, -743.000000)">
            <g id="编组-22复制-2" transform="translate(1047.000000, 743.000000)">
                <polygon id="三角形" fill="url(#linearGradient-1)" transform="translate(31.397136, 67.873176) scale(-1, -1) translate(-31.397136, -67.873176) " points="31.3971359 62.6521624 38.1098676 73.0941895 24.6844043 73.0941895"></polygon>
                <path d="M31.3971359,63.4698061 L31.3971359,40.2763901 C31.3971359,31.2140051 38.7436506,23.8674904 47.8060356,23.8674904 L47.8060356,23.8674904 L133.579829,23.8674904 C142.642214,23.8674904 149.988729,31.2140051 149.988729,40.2763901 L149.988729,117.099875 C149.988729,126.16226 142.642214,133.508775 133.579829,133.508775 L47.8060356,133.508775" id="路径" stroke="url(#linearGradient-2)" stroke-width="1.49171815" stroke-dasharray="2.983436418834486"></path>
                <g id="编组-10" transform="translate(0.000000, 64.678655)">
                    <g id="手机" transform="translate(108.149566, 0.000000)">
                        <rect id="矩形" fill="url(#linearGradient-3)" fill-rule="nonzero" x="0" y="0" width="62.6521624" height="122.320889" rx="13.4254634"></rect>
                        <rect id="矩形" fill="#DBEAFF" x="25.3592086" y="8.20444984" width="19.392336" height="2.23757723" rx="1.11878861"></rect>
                        <rect id="矩形" fill="#CCEBFF" x="6.71273169" y="17.9006178" width="49.226699" height="95"></rect>
                        <text id="APP" font-family="PingFangSC-Medium, PingFang SC" font-size="16.4088997" font-weight="400" fill="#FFFFFF">
                            <tspan x="15.0976794" y="73.6852898">APP</tspan>
                        </text>
                        <circle id="椭圆形" fill="#DBEAFF" cx="19.7652655" cy="9.32323846" r="1.86464769"></circle>
                    </g>
                    <g id="电脑" transform="translate(0.000000, 19.392336)">
                        <rect id="矩形" fill="#1451E5" opacity="0.280831473" filter="url(#filter-4)" x="111.878861" y="0" width="23.1216314" height="88.011371"></rect>
                        <rect id="矩形" fill="url(#linearGradient-5)" fill-rule="nonzero" x="0" y="0" width="131.271197" height="85.0279347" rx="2.98343631"></rect>
                        <circle id="椭圆形" fill="url(#linearGradient-6)" fill-rule="nonzero" cx="74.9588372" cy="80.1798507" r="2.61050677"></circle>
                        <rect id="矩形" fill="#FFFFFF" x="10.4420271" y="10.4420271" width="110.387143" height="64.1438806" rx="2.98343631"></rect>
                        <path d="M10.4420271,29.8343631 L27.5967858,29.8343631 L27.5967858,74.5859076 L13.4254634,74.5859076 C11.777757,74.5859076 10.4420271,73.2501777 10.4420271,71.6024713 L10.4420271,29.8343631 Z" id="矩形" fill="#CCEBFF"></path>
                        <rect id="矩形" fill="#5C91FD" x="14.1713225" y="35.8012357" width="8.95030892" height="2.98343631"></rect>
                        <rect id="矩形" fill="#5C91FD" x="14.1713225" y="42.5139674" width="8.95030892" height="2.98343631"></rect>
                        <rect id="矩形" fill="#5C91FD" x="14.1713225" y="49.226699" width="8.95030892" height="2.98343631"></rect>
                        <rect id="矩形" fill="#CCEBFF" x="32.8177994" y="29.8343631" width="17.1547588" height="44.7515446"></rect>
                        <rect id="矩形复制-9" fill="#CCEBFF" x="54.4477126" y="29.8343631" width="66.3814578" height="44.7515446"></rect>
                        <rect id="矩形" fill="#5C91FD" opacity="0.556059338" x="36.5470947" y="35.8012357" width="8.95030892" height="2.98343631"></rect>
                        <rect id="矩形" fill="#5C91FD" opacity="0.556059338" x="36.5470947" y="42.5139674" width="8.95030892" height="2.98343631"></rect>
                        <rect id="矩形" fill="#5C91FD" opacity="0.556059338" x="36.5470947" y="49.226699" width="8.95030892" height="2.98343631"></rect>
                        <path d="M13.4254634,10.4420271 L117.845734,10.4420271 C119.49344,10.4420271 120.82917,11.777757 120.82917,13.4254634 L120.82917,26.1050677 L10.4420271,26.1050677 L10.4420271,13.4254634 C10.4420271,11.777757 11.777757,10.4420271 13.4254634,10.4420271 Z" id="矩形" fill="#CCEBFF"></path>
                        <rect id="矩形" fill="#F3F8FF" x="29.8343631" y="14.9171815" width="85.0279347" height="6.71273169" rx="2.98343631"></rect>
                        <circle id="椭圆形" fill="#F3F8FF" cx="22.7487018" cy="18.2735474" r="4.848084"></circle>
                        <mask id="mask-8" fill="white">
                            <use xlink:href="#path-7"></use>
                        </mask>
                        <use id="路径-10" fill="#4C94FE" xlink:href="#path-7"></use>
                        <rect id="矩形" fill="#1451E5" opacity="0.380208333" filter="url(#filter-9)" mask="url(#mask-8)" x="56.6852898" y="82.7903575" width="38.784672" height="5.22101353"></rect>
                        <path d="M44.0056855,95.4699618 L109.641284,95.4699618 C113.76055,95.4699618 117.099875,98.8092866 117.099875,102.928553 L117.099875,102.928553 L36.5470947,102.928553 C36.5470947,98.8092866 39.8864196,95.4699618 44.0056855,95.4699618 Z" id="矩形" fill="#4C94FE"></path>
                    </g>
                </g>
                <circle id="椭圆形" fill="url(#linearGradient-10)" cx="93.3034393" cy="25.3592086" r="25.3592086"></circle>
                <g id="huojian" transform="translate(93.544762, 25.503417) rotate(37.000000) translate(-93.544762, -25.503417) translate(83.102735, 7.975728)" fill="#FFFFFF" fill-rule="nonzero">
                    <path d="M20.2882935,19.6175784 C19.8238683,18.8094715 19.8481873,18.2910859 17.0439278,15.7790348 C17.0595614,6.69663196 10.7659127,0.398857606 10.3770501,0.0183410329 C10.3770501,0.00598597679 10.3770501,0 10.3770501,0 C10.3770501,0 10.3729005,0.00392680078 10.3673997,0.00919446035 L10.3581354,0 C10.3581354,0 10.3581354,0.00617752805 10.3583284,0.0183410329 C9.97081683,0.400868894 3.70597454,6.72694494 3.76305662,15.8097309 C0.970088056,18.334137 0.996867897,18.8524747 0.536399384,19.6630239 C-0.304970152,21.1421348 -0.0865335006,27.0573334 0.70663232,28.3996767 C1.49955688,29.742068 2.81442296,28.7682214 3.26490332,28.3940739 C3.71557668,28.0194475 5.70389546,25.5507349 6.1933634,25.6614994 C6.1933634,25.6614994 6.79521018,25.5481011 7.47377758,26.1812737 C8.1441904,26.8071675 9.36578543,27.3945594 10.4112608,27.4781715 C10.4112608,27.4793208 10.4112608,27.4806617 10.4110678,27.4815237 C10.4172923,27.4808054 10.4235168,27.4802307 10.4299343,27.4796561 C10.4359658,27.4800392 10.4427693,27.4808054 10.4488008,27.4813321 C10.4488008,27.4803744 10.4486078,27.4791293 10.4488008,27.47798 C11.4941314,27.3898664 12.7126866,26.7965843 13.3803008,26.1678652 C14.0560213,25.531484 14.6585919,25.6421527 14.6585919,25.6421527 C15.147143,25.5289938 17.1471388,27.9886556 17.5991149,28.3612707 C18.0516701,28.7335027 19.3704929,29.7014112 20.1574342,28.3554763 C20.9445685,27.0093019 21.1360806,21.0930977 20.2882935,19.6175784 L20.2882935,19.6175784 L20.2882935,19.6175784 Z M10.4041677,16.1303481 C8.65879762,16.1342666 7.24081709,14.7333565 7.23685213,13.0012064 C7.23290376,11.2688168 8.64446678,9.86134606 10.3900299,9.85760175 C12.1354,9.85349245 13.5535736,11.2544026 13.5573455,12.9867921 C13.5612939,14.7189902 12.1495379,16.1262215 10.4041677,16.1303481 L10.4041677,16.1303481 L10.4041677,16.1303481 Z M12.7466559,28.7091278 C11.9510775,29.3037987 11.1477305,29.5035866 10.4158447,29.4949668 C9.68395889,29.5066036 8.87988813,29.3107424 8.08146284,28.7198068 C7.36545191,28.2136326 6.72592035,28.2828305 6.3883496,28.7237336 C6.05073059,29.1645888 6.16986469,31.8397458 6.58512112,32.4145911 C6.99994327,32.9892449 7.48699862,32.0401563 8.20175499,32.0042404 C8.91665612,31.9688992 9.51058958,33.3899701 9.78142786,34.2020038 C9.91976625,34.6172869 10.1354043,34.9968457 10.428149,35.0239502 C10.7210384,34.9955527 10.9351806,34.6150362 11.0714442,34.1992263 C11.3389048,33.3858517 11.9266138,31.9623386 12.6411289,31.9943276 C13.356223,32.027035 13.8474281,32.9737771 14.2600306,32.3968247 C14.6722472,31.8203033 14.7791253,29.1450027 14.4396727,28.7053447 C14.1001719,28.2657824 13.4604473,28.1996015 12.7466559,28.7091278 L12.7466559,28.7091278 L12.7466559,28.7091278 Z" id="形状"></path>
                </g>
                <circle id="椭圆形" stroke="#DBEAFF" stroke-width="2.23757723" cx="56.7563445" cy="58.922867" r="5.96687261"></circle>
                <circle id="椭圆形" fill="url(#linearGradient-11)" cx="24.3114747" cy="22.0028428" r="10.0690975"></circle>
                <text id="¥" font-family="PingFangSC-Medium, PingFang SC" font-size="14.9171815" font-weight="400" fill="#FFFFFF">
                    <tspan x="20.2092498" y="27.9337452">¥</tspan>
                </text>
                <g id="weihu" transform="translate(151.480447, 9.696168)" fill="#DBEAFF" fill-rule="nonzero">
                    <path d="M4.70722629,7.19409952 C4.71197795,7.19898466 4.71435378,7.20386981 4.71910545,7.20631238 L6.41544893,8.95030892 L7.00703091,8.34210844 L6.36793231,7.68505653 L6.0780809,7.38706272 L7.55822375,5.86534025 L7.75304191,5.8873234 C7.80293436,5.89220855 7.85282682,5.89709369 7.90509511,5.89709369 C8.00725585,5.89709369 8.10704076,5.88488083 8.20444984,5.86289768 L7.11394331,4.74419962 C7.09256083,4.72221647 7.06880252,4.70267589 7.04504421,4.68069274 C7.38003641,3.43986608 7.07593001,2.05492765 6.12559753,1.08034135 C5.18476836,0.110640194 3.84955122,-0.204451617 2.64975646,0.127738199 L4.68346798,2.21857999 L4.14890595,4.26545547 L2.1579594,4.81503421 L0.124247874,2.72419243 C-0.198865171,3.95769138 0.107617056,5.33041694 1.05082205,6.29767553 C2.04154367,7.31378556 3.46229073,7.61177936 4.70722629,7.19409952 L4.70722629,7.19409952 Z M11.1861692,8.95030892 C11.1531177,9.09383239 11.1436744,9.24198565 11.162561,9.39013891 L11.1838084,9.57996028 L11.0468806,9.71422417 L10.0010361,10.7397225 L9.71301568,11.0221397 L8.79229475,10.1193307 L8.20444984,10.6957395 L13.535188,15.9250867 C13.8633424,16.2468571 14.295373,16.4088997 14.7250427,16.4088997 C15.1547125,16.4088997 15.5867431,16.2468571 15.9148975,15.9250867 C16.5735671,15.281546 16.5735671,14.2352135 15.9148975,13.5916728 L11.1861692,8.95030892 Z M14.7249601,15.4688169 L14.0061322,15.6630406 L13.4254634,15.0803695 L13.6176848,14.3635439 L14.3345104,14.1713225 L14.9171815,14.7539936 L14.7249601,15.4688169 L14.7249601,15.4688169 Z M8.57351905,9.30746861 L9.50652253,10.2406081 L10.5663188,9.18065735 C10.5089032,8.66384161 10.6763654,8.12788455 11.0734899,7.73070208 C11.4682222,7.33351962 12.0064934,7.16603303 12.5232338,7.223457 L17.1547588,2.59125669 L14.5590952,0 L9.92996257,4.63220032 C9.98737817,5.14901606 9.81991601,5.68497312 9.42279145,6.08215558 C9.02566689,6.47694538 8.48978797,6.64682463 7.97304758,6.58940066 L6.91325132,7.64935146 L7.8462548,8.58249098 L3.26975311,13.1572673 L3.10229094,12.9897807 L2.22431075,13.6980097 L0.745859076,16.0308585 L1.1238451,16.4088997 L3.4563538,14.9302324 L4.16447952,14.0521242 L3.99701736,13.8846376 L8.57351905,9.30746861 L8.57351905,9.30746861 Z" id="形状"></path>
                </g>
            </g>
        </g>
    </g>
</svg>