<?xml version="1.0" encoding="UTF-8"?>
<svg width="150px" height="190px" viewBox="0 0 150 190" version="1.1" xmlns="http://www.w3.org/2000/svg" xmlns:xlink="http://www.w3.org/1999/xlink">
    <!-- Generator: Sketch 55.1 (78136) - https://sketchapp.com -->
    <title>编组 25复制</title>
    <desc>Created with Sketch.</desc>
    <defs>
        <linearGradient x1="20.7075577%" y1="0%" x2="88.5573469%" y2="94.2732297%" id="linearGradient-1">
            <stop stop-color="#7BB6FF" offset="0%"></stop>
            <stop stop-color="#2060FD" offset="100%"></stop>
        </linearGradient>
        <filter x="-30.0%" y="-4.7%" width="160.0%" height="109.3%" filterUnits="objectBoundingBox" id="filter-2">
            <feGaussianBlur stdDeviation="1.46391797" in="SourceGraphic"></feGaussianBlur>
        </filter>
        <linearGradient x1="41.3066273%" y1="0%" x2="61.442999%" y2="94.2732297%" id="linearGradient-3">
            <stop stop-color="#7BCCFF" offset="0%"></stop>
            <stop stop-color="#2161FD" offset="100%"></stop>
        </linearGradient>
        <linearGradient x1="16.8626769%" y1="46.4444444%" x2="93.6183248%" y2="53.1483186%" id="linearGradient-4">
            <stop stop-color="#97BEFF" offset="0%"></stop>
            <stop stop-color="#8AACFF" offset="100%"></stop>
        </linearGradient>
        <linearGradient x1="16.8626769%" y1="0%" x2="93.6183248%" y2="94.2732297%" id="linearGradient-5">
            <stop stop-color="#7BB6FF" offset="0%"></stop>
            <stop stop-color="#2060FD" offset="100%"></stop>
        </linearGradient>
        <linearGradient x1="21.9287398%" y1="21.9045246%" x2="77.3025701%" y2="75.9591735%" id="linearGradient-6">
            <stop stop-color="#FFB08C" offset="0%"></stop>
            <stop stop-color="#FF7B7F" offset="100%"></stop>
        </linearGradient>
        <linearGradient x1="50%" y1="2.57601351%" x2="50%" y2="100%" id="linearGradient-7">
            <stop stop-color="#A3D7FA" offset="0%"></stop>
            <stop stop-color="#67B0F9" offset="100%"></stop>
        </linearGradient>
        <linearGradient x1="50%" y1="0%" x2="50%" y2="100%" id="linearGradient-8">
            <stop stop-color="#B0E0FF" offset="0%"></stop>
            <stop stop-color="#9DD7FE" offset="100%"></stop>
        </linearGradient>
    </defs>
    <g id="页面1" stroke="none" stroke-width="1" fill="none" fill-rule="evenodd">
        <g id="app定制" transform="translate(-646.000000, -742.000000)">
            <g id="编组-25复制" transform="translate(646.000000, 742.000000)">
                <g id="编组-15" transform="translate(12.642424, 67.322466)">
                    <g id="jilu" transform="translate(0.000000, 19.762893)" fill="url(#linearGradient-1)" fill-rule="nonzero">
                        <path d="M75.9410365,4.66621054 L75.9410365,13.9987311 C75.9410365,16.5748712 73.7750871,18.665041 71.1000419,18.665041 C68.424897,18.665041 66.2589475,16.5748712 66.2589475,13.9987311 L66.2589475,4.66621054 C66.2589475,2.08997101 68.424897,3.55271368e-14 71.1000419,3.55271368e-14 C73.775087,3.55271368e-14 75.9410365,2.09007036 75.9410365,4.66621054 Z M51.7352658,4.66621054 L51.7352658,13.9987311 C51.7352658,16.5748712 49.5662267,18.665041 46.8942711,18.665041 C44.2223156,18.665041 42.0530771,16.5748712 42.0530771,13.9987311 L42.0530771,4.66621054 C42.0530771,2.09007036 44.2222159,3.55271368e-14 46.8942711,3.55271368e-14 C49.5660273,3.55271368e-14 51.7352658,2.09007036 51.7352658,4.66621054 Z M27.529495,4.66621054 L27.529495,13.9987311 C27.529495,16.5748712 25.3633463,18.665041 22.688301,18.665041 C20.0133554,18.665041 17.8472067,16.5748712 17.8472067,13.9987311 L17.8472067,4.66621054 C17.8472067,2.09007036 20.0133554,3.55271368e-14 22.688301,3.55271368e-14 C25.3633463,3.55271368e-14 27.529495,2.09007036 27.529495,4.66621054 Z M88.8500234,9.33232182 C91.5247696,9.33232182 93.6907191,11.422591 93.6907191,13.9987312 L93.6907191,94.8802115 C93.6907191,97.4564511 91.5247696,99.5464221 88.8500234,99.5464221 L4.93861844,99.5464221 C2.2635732,99.5464221 0.0974244387,97.4564512 0.0974244387,94.8802115 L0.0974244387,13.9986318 C0.0974244387,11.4224916 2.2635732,9.33232182 4.93861844,9.33232182 L13.0064113,9.33232182 L13.0064113,13.9986318 C13.0064113,19.1538936 17.3419979,23.3311523 22.6886997,23.3311523 C28.0385909,23.3311523 32.3708884,19.1539929 32.3708884,13.9986318 L32.3708884,9.33232182 L37.212182,9.33232182 L37.212182,13.9986318 C37.212182,19.1538936 41.5475691,23.3311523 46.8944703,23.3311523 C52.2413715,23.3311523 56.576659,19.1539929 56.576659,13.9986318 L56.576659,9.33232182 L61.4177534,9.33232182 L61.4177534,13.9986318 C61.4177534,19.1538936 65.7531406,23.3311523 71.1000418,23.3311523 C76.4467436,23.3311523 80.7822305,19.1539929 80.7822305,13.9986318 L80.7822305,9.33232182 L88.8500234,9.33232182 Z M26.7405361,84.6324901 L26.7405361,74.0859441 C26.7405361,71.9027542 24.9312926,70.1324901 22.7049453,70.1324901 C20.4725184,70.1324901 18.6662649,71.9027542 18.6662649,74.0859441 L18.6662649,84.6324901 C18.6662649,86.8188664 20.4725184,88.5891304 22.7049453,88.5891304 C24.9312926,88.5891304 26.7405361,86.8188664 26.7405361,84.6324901 Z M42.8889789,84.6324963 L42.8889789,63.5399881 C42.8889789,61.3566989 41.0826257,59.586236 38.8532884,59.586236 C36.6208616,59.586236 34.8147077,61.3566989 34.8147077,63.5399881 L34.8147077,84.6324963 C34.8147077,86.8188664 36.6208615,88.5891304 38.8532884,88.5891304 C41.0826257,88.5891304 42.8889789,86.8188664 42.8889789,84.6324963 Z M59.0374217,84.6324963 L59.0374217,52.9935354 C59.0374217,50.8071653 57.2342578,49.0368019 55.0018309,49.0368019 C52.7724936,49.0368019 50.96624,50.8071653 50.96624,52.9935354 L50.96624,84.6324963 C50.96624,86.8188664 52.7724935,88.5891304 55.0018308,88.5891304 C57.2342577,88.5891304 59.0374217,86.8188664 59.0374217,84.6324963 Z M75.188954,84.6324963 L75.188954,42.4443993 C75.188954,40.2612095 73.3827005,38.4907466 71.1503733,38.4907466 C68.9238267,38.4907466 67.1147825,40.2612094 67.1147825,42.4443993 L67.1147825,84.6324963 C67.1147825,86.8188664 68.9238267,88.5891304 71.1503733,88.5891304 C73.3828001,88.5891304 75.188954,86.8188664 75.188954,84.6324963 Z" id="形状结合"></path>
                    </g>
                    <rect id="矩形" fill="#1451E5" opacity="0.380208333" filter="url(#filter-2)" x="70.2017103" y="24.8866055" width="14.6391797" height="94.4227092"></rect>
                    <g id="编组-13" transform="translate(73.195899, -0.000000)">
                        <g id="手机">
                            <rect id="矩形" fill="url(#linearGradient-3)" fill-rule="nonzero" x="0" y="0" width="61.4845548" height="120.041274" rx="13.1752617"></rect>
                            <rect id="矩形" fill="url(#linearGradient-4)" fill-rule="nonzero" x="20.4948516" y="108.32993" width="21.9587696" height="5.85567189" rx="2.19587696"></rect>
                            <rect id="矩形" fill="#DBEAFF" x="24.8866055" y="8.05154884" width="19.0309336" height="2.19587696" rx="1.09793848"></rect>
                            <rect id="矩形" fill="#CCEBFF" x="6.58763087" y="17.5670157" width="48.3092931" height="87.1031193"></rect>
                            <circle id="椭圆形" fill="#DBEAFF" cx="19.3969131" cy="9.14948732" r="1.82989746"></circle>
                        </g>
                        <g id="anzhuo" transform="translate(19.762893, 46.845375)" fill="#FFFFFF" fill-rule="nonzero">
                            <path d="M14.7506544,5.69295083 L14.7506544,4.53268835 L13.6342125,4.53268835 L13.6342125,5.69295083 L14.7506544,5.69295083 Z M9.05386973,5.69295083 L9.05386973,4.53268835 L7.93742784,4.53268835 L7.93742784,5.69295083 L9.05386973,5.69295083 Z M15.336853,2.47117412 C17.2180176,3.80851541 18.1585999,5.62159073 18.1585999,7.91040012 L4.52948231,7.91040012 C4.52948231,5.58723216 5.45141285,3.77415681 7.29793848,2.47117412 L5.80579657,0.991112618 C5.52069087,0.708315141 5.52069087,0.446661413 5.80579657,0.198222534 C6.09090226,-0.0475733955 6.35469164,-0.0475733955 6.6051583,0.198222534 L8.30779879,1.88707842 C9.22972933,1.39548656 10.2422542,1.14704768 11.3427089,1.14704765 C12.4085245,1.14704765 13.4023976,1.39284358 14.3243281,1.88707842 L16.0269686,0.198222534 C16.3120743,-0.0475733955 16.5758637,-0.0475733955 16.8263303,0.198222534 C17.0741325,0.444018464 17.0741325,0.708315167 16.8263303,0.991112618 L15.336853,2.47117412 L15.336853,2.47117412 Z M20.9803469,9.0733056 C21.4413121,9.0733056 21.840993,9.23981251 22.1793894,9.5754693 C22.5177859,9.90848315 22.6856519,10.3049282 22.6856519,10.7648044 L22.6856519,18.6329171 C22.6856519,19.124509 22.5177859,19.5315259 22.1793894,19.8460389 C21.8436575,20.1631949 21.4439766,20.321773 20.9803469,20.321773 C20.5193816,20.321773 20.1197007,20.163195 19.7813043,19.8460389 C19.4455723,19.5288829 19.2750418,19.1245089 19.2750418,18.6329171 L19.2750418,10.7621615 C19.2750418,10.3049282 19.4429078,9.90848315 19.7813043,9.57282633 C20.1170362,9.23981248 20.5167171,9.0733056 20.9803469,9.0733056 Z M1.7077354,9.0733056 C2.16870067,9.0733056 2.56838154,9.23981251 2.906778,9.5754693 C3.24517446,9.90848315 3.41304041,10.3049282 3.41304041,10.7648044 L3.41304041,18.6329171 C3.41304041,19.124509 3.24517446,19.5315259 2.906778,19.8460389 C2.57104606,20.1631949 2.17136519,20.321773 1.7077354,20.321773 C1.24677013,20.321773 0.847089265,20.163195 0.508692778,19.8460389 C0.172960838,19.5288829 0.00243036101,19.1245089 0.00243036101,18.6329171 L0.00243036101,10.7621615 C0.00243036101,10.3049282 0.170296318,9.90848315 0.508692778,9.57282633 C0.847089239,9.23981248 1.2467701,9.0733056 1.7077354,9.0733056 Z M4.52948231,20.321773 L4.52948231,9.0733056 L18.1585999,9.0733056 L18.1585999,20.321773 C18.1585999,20.638929 18.0520184,20.9032257 17.8388552,21.1146631 C17.6256921,21.3261004 17.3592382,21.4318191 17.0394935,21.4318191 L15.8697608,21.4318191 L15.8697608,25.3936266 C15.8697608,25.8852185 15.7018949,26.2922354 15.3634984,26.6067484 C15.0277664,26.9239044 14.6280856,27.0824825 14.1644558,27.0824825 C13.7034905,27.0824825 13.3038096,26.9239045 12.9654132,26.6067484 C12.6296812,26.2895924 12.4591507,25.8852184 12.4591507,25.3936266 L12.4591507,21.4291761 L10.2236024,21.4291761 L10.2236024,25.3909836 C10.2236024,25.8825755 10.0557365,26.2895924 9.71734,26.6041055 C9.38160806,26.9212615 8.98192719,27.0798395 8.51829737,27.0798395 C8.0573321,27.0798395 7.65765124,26.9212615 7.31925478,26.6041055 C6.98352284,26.2869494 6.81299233,25.8825755 6.81299233,25.3909836 L6.81299233,21.4291761 L5.64325968,21.4291761 C5.323515,21.4291761 5.05706108,21.3234575 4.84389792,21.1120201 C4.63606386,20.9005827 4.52948231,20.636286 4.52948231,20.321773 Z" id="形状"></path>
                        </g>
                    </g>
                </g>
                <text id="¥" transform="translate(28.329958, 27.060876) rotate(-35.000000) translate(-28.329958, -27.060876) " font-family="PingFangSC-Semibold, PingFang SC" font-size="22.6907286" font-weight="500" fill="#DBEAFF">
                    <tspan x="21.5227394" y="35.0608765">¥</tspan>
                </text>
                <g id="编组-17" transform="translate(0.000000, 158.553691)" fill="#538AFF">
                    <ellipse id="椭圆形" cx="5.80007138" cy="1.46391797" rx="1" ry="1.46391797"></ellipse>
                    <g id="编组-12" transform="translate(0.000000, 0.124270)">
                        <ellipse id="椭圆形" transform="translate(8.152542, 2.195877) rotate(40.000000) translate(-8.152542, -2.195877) " cx="8.15254221" cy="2.19587696" rx="1" ry="1.46391797"></ellipse>
                        <ellipse id="椭圆形" transform="translate(9.404266, 4.363926) rotate(80.000000) translate(-9.404266, -4.363926) " cx="9.4042658" cy="4.36392581" rx="1" ry="1.46391797"></ellipse>
                        <ellipse id="椭圆形" transform="translate(8.969547, 6.829340) rotate(120.000000) translate(-8.969547, -6.829340) " cx="8.96954676" cy="6.82933999" rx="1" ry="1.46391797"></ellipse>
                        <ellipse id="椭圆形" transform="translate(7.051795, 8.438525) rotate(160.000000) translate(-7.051795, -8.438525) " cx="7.05179496" cy="8.43852481" rx="1" ry="1.46391797"></ellipse>
                        <ellipse id="椭圆形" transform="translate(4.548348, 8.438525) rotate(200.000000) translate(-4.548348, -8.438525) " cx="4.54834779" cy="8.43852481" rx="1" ry="1.46391797"></ellipse>
                        <ellipse id="椭圆形" transform="translate(2.630596, 6.829340) rotate(240.000000) translate(-2.630596, -6.829340) " cx="2.630596" cy="6.82933999" rx="1" ry="1.46391797"></ellipse>
                        <ellipse id="椭圆形" transform="translate(2.195877, 4.363926) rotate(280.000000) translate(-2.195877, -4.363926) " cx="2.19587696" cy="4.36392581" rx="1" ry="1.46391797"></ellipse>
                        <ellipse id="椭圆形" transform="translate(3.447601, 2.195877) rotate(320.000000) translate(-3.447601, -2.195877) " cx="3.44760054" cy="2.19587696" rx="1" ry="1.46391797"></ellipse>
                    </g>
                </g>
                <circle id="椭圆形" fill="url(#linearGradient-5)" fill-rule="nonzero" cx="24.2255877" cy="71.9621913" r="20.4948516"></circle>
                <g id="fuwu" transform="translate(8.122490, 58.786930)" fill="#FFFFFF" fill-rule="nonzero">
                    <path d="M28.0740316,9.0133887 C26.907617,3.93542323 22.0643852,0 16.4621135,0 C10.8598418,0 6.01312818,3.9389496 4.85019546,9.01691506 C2.06472786,9.6163971 0.013927338,11.6863733 0.013927338,14.147776 C0.013927338,16.7925497 2.3815748,18.9824223 5.48388934,19.3879543 C6.46576667,22.0962025 8.43648499,24.3107597 11.1035702,25.6789892 C12.9036787,26.6028968 14.8883243,27.0719034 16.9112702,27.0719034 C18.1577669,27.0719034 19.4147092,26.8955851 20.6542422,26.5358959 C20.9606437,26.4477368 21.1382172,26.1268376 21.0511714,25.8165175 C20.9641255,25.5061974 20.6472786,25.3298791 20.3408771,25.4145119 C17.3708723,26.2749449 14.2755214,25.9963621 11.6258454,24.6387116 C9.18507941,23.3868521 7.39193464,21.3521395 6.52495785,18.8660522 L6.52495785,10.8435721 C6.81395012,5.96660942 11.2498073,1.9395007 16.4690772,1.9395007 C21.817175,1.9395007 26.340078,6.16761222 26.423642,11.2067877 L26.423642,19.4549552 C30.0168952,19.4549552 32.9277089,17.0781852 32.9277089,14.147776 C32.924227,11.6828469 30.862981,9.60934437 28.0740316,9.0133887 Z" id="路径"></path>
                </g>
                <path d="M120.773233,41.5217631 L126.587722,39.0198507 C126.751354,38.949442 126.941912,39.0070765 127.039095,39.1563683 L130.095293,43.8512853 C130.205562,44.0206814 130.432276,44.0686127 130.601672,43.9583428 C130.711238,43.8870201 130.774438,43.7626687 130.767471,43.6321199 L129.956233,28.4316217 C129.945461,28.2297841 130.10035,28.05743 130.302188,28.0466581 C130.443603,28.0391109 130.57668,28.113827 130.643865,28.2384923 L138.986486,43.7187632 C139.082376,43.8966943 139.304353,43.9632013 139.482284,43.8673108 C139.600764,43.8034592 139.674638,43.6797289 139.674638,43.545138 L139.674638,30.3500221 C139.674638,30.1478972 139.838493,29.9840426 140.040617,29.9840426 C140.162179,29.9840426 140.275807,30.0444017 140.343864,30.1451265 L143.101664,34.2266904 C143.194699,34.3643829 143.368825,34.4221115 143.525692,34.3672699 L148.631238,32.5823378" id="路径-3复制" stroke="#DBEAFF" stroke-width="2.19587696" stroke-linecap="round"></path>
                <g id="编组-2" transform="translate(70.268063, 29.728909)" fill="url(#linearGradient-6)">
                    <circle id="椭圆形" cx="16.1030977" cy="16.1030977" r="16.1030977"></circle>
                </g>
                <g id="weihu" transform="translate(78.319611, 37.780458)" fill="#FFFFFF" fill-rule="nonzero">
                    <path d="M4.61950078,7.06002776 C4.62416388,7.06482187 4.62649544,7.06961597 4.63115855,7.07201302 L6.29588838,8.78350783 L6.87644543,8.18664199 L6.2492573,7.54183513 L5.96480766,7.24939484 L7.41736605,5.75603172 L7.60855351,5.77760518 C7.65751615,5.78239929 7.70647879,5.78719339 7.75777299,5.78719339 C7.85802983,5.78719339 7.95595511,5.77520813 8.05154884,5.75363467 L6.98136538,4.65578506 C6.96038139,4.63421159 6.93706584,4.61503518 6.9137503,4.59346172 C7.24249947,3.37575953 6.94406051,2.0166313 6.01143875,1.06020773 C5.08814321,0.108578265 3.77780964,-0.200641386 2.60037467,0.125357625 L4.59618523,2.17723375 L4.07158549,4.18596295 L2.11774291,4.72529955 L0.121932347,2.67342342 C-0.19515905,3.88393446 0.105611467,5.23107743 1.03123856,6.18030984 C2.00349674,7.17748329 3.39776627,7.46992358 4.61950078,7.06002776 L4.61950078,7.06002776 Z M10.9776998,8.78350783 C10.9452643,8.92435655 10.935997,9.06974877 10.9545316,9.215141 L10.975383,9.40142479 L10.8410071,9.53318649 L9.81465327,10.5395733 L9.53200053,10.8167272 L8.62843847,9.93074336 L8.05154884,10.49641 L13.2829415,15.6283012 C13.6049803,15.9440749 14.0289594,16.1030977 14.4506217,16.1030977 C14.872284,16.1030977 15.2962631,15.9440749 15.6183019,15.6283012 C16.2646963,14.9967537 16.2646963,13.9699211 15.6183019,13.3383736 L10.9776998,8.78350783 Z M14.4505406,15.1805346 L13.745109,15.3711387 L13.1752617,14.7993264 L13.3639008,14.0958598 L14.0673675,13.9072207 L14.6391797,14.479033 L14.4505406,15.1805346 L14.4505406,15.1805346 Z M8.41373995,9.13401137 L9.32935565,10.0497606 L10.3694012,9.0095634 C10.3130556,8.50237923 10.4773969,7.97641045 10.8671205,7.58663001 C11.2544964,7.19684958 11.7827362,7.03248434 12.2898464,7.08883813 L16.8350567,2.54296512 L14.2877668,0 L9.74490432,4.54587301 C9.8012499,5.05305719 9.63690862,5.57902597 9.24718501,5.9688064 C8.85746141,6.35623876 8.33156931,6.52295208 7.82445908,6.46659828 L6.78441355,7.50679547 L7.70002925,8.42254468 L3.20881685,12.9120639 L3.04447557,12.7476987 L2.18285771,13.4427288 L0.731958986,15.7321019 L1.10290073,16.1030977 L3.39193999,14.6519874 L4.08686883,13.7902439 L3.92252755,13.6258787 L8.41373995,9.13401137 L8.41373995,9.13401137 Z" id="形状"></path>
                </g>
                <g id="编组-2复制" transform="translate(41.721662, 0.000000)">
                    <circle id="椭圆形" fill="url(#linearGradient-6)" cx="8.78350783" cy="8.78350783" r="8.78350783"></circle>
                    <g id="fuwu-3" transform="translate(4.391754, 5.123713)" fill-rule="nonzero">
                        <path d="M9.29766951,1.79091881 C9.14447478,1.43270501 8.91815549,1.11176812 8.62481887,0.836866863 C8.05914452,0.307325099 7.30757661,0.0156993535 6.50855158,0.0156993535 C5.8777559,0.0156993535 5.26692059,0.200069677 4.75591577,0.540137183 C4.24338652,0.190390442 3.62989301,0.000706559037 2.99608659,0.000706559037 C2.19598494,0.000706559037 1.44376916,0.29869399 0.877961426,0.83982896 C0.59135131,1.11401021 0.369795844,1.43429087 0.219440333,1.79177554 C0.0743917147,2.13662798 0.00188646457,2.50034673 0.0038835503,2.87280595 C0.00594523946,3.24058961 0.0806323154,3.59804693 0.225900069,3.93527082 C0.376446122,4.28471679 0.596286616,4.59653952 0.879361987,4.86210789 C1.17618572,5.1459866 3.82988746,7.66497613 3.87960263,7.71216013 C4.10822761,7.93055361 4.41461707,8.05083316 4.74241513,8.05083316 C5.07026082,8.05083316 5.37673604,7.93052626 5.60545628,7.71205075 C5.73135436,7.5924821 8.46000043,5.00087095 8.60251469,4.86503353 C8.89511769,4.6009052 9.1229995,4.29046783 9.27991001,3.94222492 C9.43197096,3.60473672 9.51110744,3.24645912 9.51510905,2.87732657 C9.51916781,2.50331794 9.44600516,2.1378037 9.29766951,1.79091881 Z" id="路径" fill="#FFFFFF"></path>
                        <path d="M2.98481541,1.4157071 C2.61482902,1.4157071 2.26424088,1.55617452 1.99761973,1.81121603 C1.73099858,2.06626666 1.5841683,2.40164949 1.5841683,2.75557051 C1.5841683,2.90598148 1.70274917,3.0194163 1.86000267,3.0194163 C2.01725618,3.0194163 2.13582751,2.90599059 2.13582751,2.75557051 C2.13582751,2.54663753 2.22234791,2.34881471 2.37943944,2.19854045 C2.53653098,2.04828442 2.74330909,1.96552786 2.96171092,1.96552786 C3.10806482,1.96552786 3.2209291,1.86724988 3.2358589,1.73233299 C3.26265059,1.66305627 3.25664818,1.59127315 3.21813751,1.53152983 C3.17139495,1.45900847 3.0841683,1.4157071 2.98481541,1.4157071 Z" id="路径" fill="#FFB08C"></path>
                    </g>
                </g>
                <path d="M2.33518646,188.088109 C2.15264215,187.379626 2.05517241,186.63378 2.05517241,185.863743 C2.05517241,181.222805 5.59561705,177.460582 9.96297684,177.460582 C11.0849705,177.460582 12.1523878,177.708888 13.1192193,178.156608 C14.4164159,175.399432 17.0984451,173.506153 20.1966061,173.506153 C20.9981016,173.506153 21.7717471,173.632862 22.5007707,173.868459 C23.0324169,173.084771 23.6644137,172.383067 24.3767566,171.784607 C24.8639161,171.375329 25.3886531,171.014338 25.9445693,170.708433 C27.2878386,169.969268 28.8131501,169.551724 30.4302354,169.551724 C31.5044107,169.551724 32.5380909,169.735965 33.5048176,170.076332 C37.3932579,171.44538 40.1984785,175.340333 40.1986997,179.931557 C41.8934538,181.284277 42.9896895,183.437971 42.9896895,185.863743 C42.9896895,186.638716 42.877803,187.38592 42.6702591,188.088109 L2.33518646,188.088109 Z" id="形状结合复制" fill="url(#linearGradient-7)"></path>
                <path d="M26.2780172,188.088109 C26.0954729,187.379626 25.9980031,186.63378 25.9980031,185.863743 C25.9980031,181.222805 29.5384478,177.460582 33.9058076,177.460582 C35.0278012,177.460582 36.0952186,177.708888 37.06205,178.156608 C38.3592467,175.399432 41.0412758,173.506153 44.1394368,173.506153 C44.9409323,173.506153 45.7145778,173.632862 46.4436015,173.868459 C46.9752476,173.084771 47.6072444,172.383067 48.3195873,171.784607 C48.8067468,171.375329 49.3314838,171.014338 49.8874,170.708433 C51.2306694,169.969268 52.7559809,169.551724 54.3730661,169.551724 C55.4472414,169.551724 56.4809216,169.735965 57.4476483,170.076332 C61.3360886,171.44538 64.1413092,175.340333 64.1415304,179.931557 C65.8362846,181.284277 66.9325202,183.437971 66.9325202,185.863743 C66.9325202,186.638716 66.8206337,187.38592 66.6130898,188.088109 L26.2780172,188.088109 Z" id="形状结合复制-2" fill="url(#linearGradient-8)"></path>
            </g>
        </g>
    </g>
</svg>