<?xml version="1.0" encoding="UTF-8"?>
<svg width="167px" height="191px" viewBox="0 0 167 191" version="1.1" xmlns="http://www.w3.org/2000/svg" xmlns:xlink="http://www.w3.org/1999/xlink">
    <!-- Generator: Sketch 55.1 (78136) - https://sketchapp.com -->
    <title>编组 26复制</title>
    <desc>Created with Sketch.</desc>
    <defs>
        <linearGradient x1="16.8626769%" y1="0%" x2="93.6183248%" y2="94.2732297%" id="linearGradient-1">
            <stop stop-color="#7BB6FF" offset="0%"></stop>
            <stop stop-color="#2060FD" offset="100%"></stop>
        </linearGradient>
        <linearGradient x1="21.9287398%" y1="21.9045246%" x2="77.3025701%" y2="75.9591735%" id="linearGradient-2">
            <stop stop-color="#FFB08C" offset="0%"></stop>
            <stop stop-color="#FF7B7F" offset="100%"></stop>
        </linearGradient>
        <linearGradient x1="16.8626769%" y1="14.643595%" x2="93.6183248%" y2="81.3068448%" id="linearGradient-3">
            <stop stop-color="#7BB6FF" offset="0%"></stop>
            <stop stop-color="#2060FD" offset="100%"></stop>
        </linearGradient>
        <filter x="-30.0%" y="-4.7%" width="160.0%" height="109.3%" filterUnits="objectBoundingBox" id="filter-4">
            <feGaussianBlur stdDeviation="1.50323033" in="SourceGraphic"></feGaussianBlur>
        </filter>
        <linearGradient x1="41.7156692%" y1="0%" x2="60.9045812%" y2="94.2732297%" id="linearGradient-5">
            <stop stop-color="#7BB6FF" offset="0%"></stop>
            <stop stop-color="#2060FD" offset="100%"></stop>
        </linearGradient>
        <linearGradient x1="50%" y1="2.57601351%" x2="50%" y2="100%" id="linearGradient-6">
            <stop stop-color="#A3D7FA" offset="0%"></stop>
            <stop stop-color="#67B0F9" offset="100%"></stop>
        </linearGradient>
        <linearGradient x1="50%" y1="0%" x2="50%" y2="100%" id="linearGradient-7">
            <stop stop-color="#B0E0FF" offset="0%"></stop>
            <stop stop-color="#9DD7FE" offset="100%"></stop>
        </linearGradient>
    </defs>
    <g id="页面1" stroke="none" stroke-width="1" fill="none" fill-rule="evenodd">
        <g id="app定制" transform="translate(-223.000000, -741.000000)">
            <g id="编组-26复制" transform="translate(223.000000, 741.000000)">
                <text id="¥" transform="translate(42.371185, 23.624463) rotate(-35.000000) translate(-42.371185, -23.624463) " font-family="PingFangSC-Semibold, PingFang SC" font-size="23.3000702" font-weight="500" fill="#DBEAFF">
                    <tspan x="35.3811636" y="32.1244632">¥</tspan>
                </text>
                <g id="编组-17" transform="translate(8.671412, 103.722893)" fill="#538AFF">
                    <ellipse id="椭圆形" cx="5.95582772" cy="1.50323033" rx="1" ry="1.50323033"></ellipse>
                    <g id="编组-12" transform="translate(0.000000, 0.127608)">
                        <ellipse id="椭圆形" transform="translate(8.371472, 2.254846) rotate(40.000000) translate(-8.371472, -2.254846) " cx="8.3714723" cy="2.2548455" rx="1" ry="1.50323033"></ellipse>
                        <ellipse id="椭圆形" transform="translate(9.656810, 4.481116) rotate(80.000000) translate(-9.656810, -4.481116) " cx="9.65680994" cy="4.48111559" rx="1" ry="1.50323033"></ellipse>
                        <ellipse id="椭圆形" transform="translate(9.210417, 7.012737) rotate(120.000000) translate(-9.210417, -7.012737) " cx="9.21041686" cy="7.01273653" rx="1" ry="1.50323033"></ellipse>
                        <ellipse id="椭圆形" transform="translate(7.241165, 8.665135) rotate(160.000000) translate(-7.241165, -8.665135) " cx="7.24116535" cy="8.66513474" rx="1" ry="1.50323033"></ellipse>
                        <ellipse id="椭圆形" transform="translate(4.670490, 8.665135) rotate(200.000000) translate(-4.670490, -8.665135) " cx="4.67049008" cy="8.66513474" rx="1" ry="1.50323033"></ellipse>
                        <ellipse id="椭圆形" transform="translate(2.701239, 7.012737) rotate(240.000000) translate(-2.701239, -7.012737) " cx="2.70123858" cy="7.01273653" rx="1" ry="1.50323033"></ellipse>
                        <ellipse id="椭圆形" transform="translate(2.254846, 4.481116) rotate(280.000000) translate(-2.254846, -4.481116) " cx="2.2548455" cy="4.48111559" rx="1" ry="1.50323033"></ellipse>
                        <ellipse id="椭圆形" transform="translate(3.540183, 2.254846) rotate(320.000000) translate(-3.540183, -2.254846) " cx="3.54018314" cy="2.2548455" rx="1" ry="1.50323033"></ellipse>
                    </g>
                </g>
                <rect id="矩形" fill="#FFFFFF" x="131.532654" y="111.99066" width="9.77099717" height="6.01292133"></rect>
                <path d="M67.645365,91.1920589 L62.3246959,117.728471" id="路径-6" stroke="#2161FD" stroke-width="1.50323033"></path>
                <path d="M93.5751971,91.1920589 L93.9912507,98.5707951 M94.22607,102.735329 L94.6994584,111.1309 M94.8465451,113.739492 L95.0445976,117.251966" id="形状" stroke="#2161FD" stroke-width="1.50323033"></path>
                <path d="M116.826672,91.1920589 L124.854222,117.251966" id="路径-17" stroke="#2161FD" stroke-width="1.50323033"></path>
                <g id="编组-9" transform="translate(7.516152, 135.290730)" fill="#538AFF">
                    <rect id="矩形" transform="translate(4.509691, 4.509691) rotate(90.000000) translate(-4.509691, -4.509691) " x="0" y="3.75807583" width="9.019382" height="1.50323033"></rect>
                    <rect id="矩形" x="0" y="3.75807583" width="9.019382" height="1.50323033"></rect>
                </g>
                <circle id="椭圆形" fill="url(#linearGradient-1)" fill-rule="nonzero" cx="41.3388342" cy="77.4163622" r="21.0452247"></circle>
                <path d="M27.058146,82.7613672 L33.0287793,80.192268 C33.1968046,80.1199685 33.3924808,80.1791507 33.4922734,80.3324516 L36.6305424,85.153447 C36.7437735,85.327392 36.9765757,85.3766105 37.1505208,85.2633794 C37.2630287,85.1901414 37.3279257,85.0624506 37.3207714,84.928396 L36.4877485,69.3197004 C36.4766873,69.1124426 36.6357361,68.9354601 36.842994,68.9243989 C36.9882067,68.916649 37.1248577,68.9933716 37.1938464,69.1213847 L45.7605015,85.0173661 C45.8589672,85.2000754 46.0869045,85.2683684 46.2696137,85.1699028 C46.3912761,85.1043365 46.4671336,84.9772835 46.4671336,84.8390783 L46.4671336,71.289618 C46.4671336,71.0820652 46.6353884,70.9138104 46.8429412,70.9138104 C46.9677673,70.9138104 47.0844471,70.9757903 47.1543317,71.07922 L49.9861899,75.2703911 C50.0817233,75.4117812 50.2605251,75.4710601 50.4216042,75.4147458 L55.664256,73.5818807" id="路径-3" stroke="#FFFFFF" stroke-width="2.2548455" stroke-linecap="round"></path>
                <path d="M133.035885,38.4160724 L139.006518,35.8469731 C139.174543,35.7746736 139.370219,35.8338558 139.470012,35.9871567 L142.608281,40.8081521 C142.721512,40.9820972 142.954314,41.0313156 143.128259,40.9180846 C143.240767,40.8448465 143.305664,40.7171558 143.29851,40.5831011 L142.465487,24.9744056 C142.454426,24.7671478 142.613475,24.5901652 142.820732,24.5791041 C142.965945,24.5713542 143.102596,24.6480767 143.171585,24.7760898 L151.73824,40.6720712 C151.836706,40.8547805 152.064643,40.9230735 152.247352,40.8246079 C152.369015,40.7590417 152.444872,40.6319886 152.444872,40.4937835 L152.444872,26.9443231 C152.444872,26.7367703 152.613127,26.5685155 152.82068,26.5685155 C152.945506,26.5685155 153.062186,26.6304955 153.13207,26.7339252 L155.963928,30.9250963 C156.059462,31.0664864 156.238264,31.1257653 156.399343,31.0694509 L161.641995,29.2365858" id="路径-3复制" stroke="#DBEAFF" stroke-width="2.2548455" stroke-linecap="round"></path>
                <g id="编组-2" transform="translate(81.174438, 27.058146)">
                    <circle id="椭圆形" fill="url(#linearGradient-2)" cx="16.5355337" cy="16.5355337" r="16.5355337"></circle>
                    <g id="fuwu-3" transform="translate(6.012921, 7.516152)" fill-rule="nonzero">
                        <path d="M20.5635254,4.01239095 C20.2247068,3.20984546 19.7241596,2.49081552 19.0753911,1.87492421 C17.824297,0.688533975 16.1620648,0.0351729758 14.3948724,0.0351729758 C12.9997504,0.0351729758 11.6487745,0.448237943 10.5185923,1.21012831 C9.38503854,0.426552496 8.02818353,0.00158298136 6.62640275,0.00158298136 C4.85682914,0.00158298136 3.19316404,0.669196759 1.94177499,1.88156052 C1.30788341,2.4958387 0.817872288,3.21339844 0.48533311,4.01431038 C0.164531113,4.78692096 0.00417226727,5.60179978 0.0085891938,6.43626085 C0.0131490028,7.26024674 0.178333363,8.06109741 0.499620017,8.8166169 C0.832580615,9.59951887 1.31879876,10.2981294 1.94487259,10.8931112 C2.60135348,11.5291157 8.47050846,17.1726829 8.5804628,17.2783944 C9.08610945,17.7676852 9.76374674,18.0371606 10.4887331,18.0371606 C11.2138248,18.0371606 11.8916518,17.7676239 12.3975091,17.2781494 C12.6759562,17.0102667 18.7108644,11.2039972 19.0260612,10.8996658 C19.6732072,10.3079103 20.1772102,9.61240354 20.524247,8.83219692 C20.8605581,8.07608527 21.0355831,7.27339684 21.0444334,6.44638888 C21.0534101,5.60845652 20.8915973,4.78955506 20.5635254,4.01239095 Z" id="路径" fill="#FFFFFF"></path>
                        <path d="M6.60147444,3.1717632 C5.78318071,3.1717632 5.00778983,3.48646769 4.41810758,4.05786504 C3.8284253,4.62928282 3.50368285,5.38067758 3.50368285,6.17360549 C3.50368285,6.5105876 3.76594648,6.76472802 4.11374186,6.76472802 C4.46153724,6.76472802 4.72377979,6.51060801 4.72377979,6.17360549 C4.72377979,5.70551012 4.91513574,5.26230605 5.26257288,4.92563022 C5.61001003,4.58899523 6.06733829,4.40358667 6.55037455,4.40358667 C6.87406343,4.40358667 7.12368378,4.18340378 7.1567038,3.88113474 C7.21595861,3.72592654 7.20268317,3.56510298 7.11750965,3.43125351 C7.0141298,3.26877599 6.82121452,3.1717632 6.60147444,3.1717632 Z" id="路径" fill="#FFB08C"></path>
                    </g>
                </g>
                <g id="编组-2复制" transform="translate(51.861447, -0.000000)">
                    <circle id="椭圆形" fill="url(#linearGradient-2)" cx="9.019382" cy="9.019382" r="9.019382"></circle>
                    <g id="fuwu-3" transform="translate(4.509691, 5.261306)" fill-rule="nonzero">
                        <path d="M9.54735109,1.83901252 C9.39004243,1.47117917 9.15764552,1.14162378 8.85643158,0.859340262 C8.27556648,0.315578072 7.50381581,0.0161209472 6.6833336,0.0161209472 C6.0355984,0.0161209472 5.40835959,0.205442391 4.88363213,0.554642141 C4.35733932,0.195503227 3.72737092,0.000725533123 3.07654413,0.000725533123 C2.25495639,0.000725533123 1.48254045,0.306715181 0.901538387,0.862381904 C0.607231583,1.14392607 0.37972642,1.47280762 0.22533323,1.83989226 C0.0763894455,2.19400544 0.00193712409,2.56749156 0.00398783998,2.94995289 C0.00610489417,3.32761309 0.0827976326,3.69466965 0.231966437,4.04094941 C0.386555285,4.39977948 0.612299423,4.71997596 0.90297656,4.99267596 C1.20777126,5.28417801 3.93273607,7.87081301 3.9837863,7.9192641 C4.21855082,8.14352237 4.53316813,8.26703194 4.86976894,8.26703194 C5.20641867,8.26703194 5.52112404,8.14349429 5.75598639,7.91915179 C5.88526536,7.79637222 8.68718706,5.1351654 8.83352843,4.99568017 C9.13398905,4.72445887 9.36799045,4.40568495 9.52911467,4.04809026 C9.6852591,3.70153908 9.76652072,3.33364022 9.77062979,2.9545949 C9.77479755,2.57054257 9.69967017,2.19521274 9.54735109,1.83901252 Z" id="路径" fill="#FFFFFF"></path>
                        <path d="M3.06497027,1.4537248 C2.68504819,1.4537248 2.32504528,1.59796436 2.05126423,1.85985481 C1.77748318,2.12175463 1.62670989,2.46614389 1.62670989,2.82956918 C1.62670989,2.98401932 1.74847515,3.10050034 1.90995158,3.10050034 C2.071428,3.10050034 2.19318347,2.98402867 2.19318347,2.82956918 C2.19318347,2.61502547 2.28202731,2.41189027 2.44333741,2.25758052 C2.60464752,2.10328948 2.81697849,2.01831056 3.04124533,2.01831056 C3.19152945,2.01831056 3.30742461,1.9173934 3.32275534,1.77885342 C3.3502665,1.70771633 3.3441029,1.63400553 3.30455805,1.57265786 C3.25656026,1.498189 3.16699246,1.4537248 3.06497027,1.4537248 Z" id="路径" fill="#FFB08C"></path>
                    </g>
                </g>
                <g id="编组-14" transform="translate(22.326203, 57.155080)">
                    <path d="M11.4657826,72.0680873 C6.94299206,72.0680873 3.27608683,68.7326428 3.27608683,64.619796 C3.27608683,63.878972 3.3991008,63.1662761 3.62022479,62.4920105 L19.3113405,62.4920105 C19.5323487,63.1663919 19.6553626,63.878972 19.6553626,64.619796 C19.6553626,68.7326428 15.9885732,72.0680873 11.4657826,72.0680873 Z M21.8394977,64.619796 C21.8394977,63.878972 21.9608901,63.1662761 22.1836357,62.4920105 L37.8747514,62.4920105 C38.0958754,63.1663919 38.2188894,63.878972 38.2188894,64.619796 C38.2188894,68.7326428 34.5521,72.0680873 30.0291936,72.0680873 C25.5062871,72.0680873 21.8394977,68.7326428 21.8394977,64.619796 Z M40.4030245,64.619796 C40.4030245,63.878972 40.524301,63.1662761 40.7470466,62.4920105 L56.4381623,62.4920105 C56.6592863,63.1663919 56.7823003,63.878972 56.7823003,64.619796 C56.7823003,68.7326428 53.1155109,72.0680873 48.5926045,72.0680873 C44.0680764,72.0680873 40.4030245,68.7326428 40.4030245,64.619796 Z M60.058503,64.619796 C60.058503,63.878972 60.1816328,63.1662761 60.4009034,62.4920105 L76.0937566,62.4920105 C76.3147648,63.1663919 76.4378946,63.878972 76.4378946,64.619796 C76.4378946,68.7326428 72.7711052,72.0680873 68.2481988,72.0680873 C63.7252924,72.0680873 60.058503,68.7326428 60.058503,64.619796 Z M78.6219139,64.619796 C78.6219139,63.878972 78.7450437,63.1662761 78.9643143,62.4920105 L94.6571675,62.4920105 C94.8781757,63.1663919 95.0013055,63.878972 95.0013055,64.619796 C95.0013055,68.7326428 91.3345161,72.0680873 86.809988,72.0680873 C82.2887033,72.0680873 78.6219139,68.7326428 78.6219139,64.619796 Z M105.373283,72.0680873 C100.852114,72.0680873 97.1853248,68.7326428 97.1853248,64.619796 C97.1853248,63.878972 97.3083388,63.1662761 97.5277253,62.4920105 L113.220578,62.4920105 C113.441587,63.1663919 113.564601,63.878972 113.564601,64.619796 C113.564601,68.7326428 109.897927,72.0680873 105.373283,72.0680873 Z M46.9536923,88.933687 C46.9536923,87.1159171 46.9536923,84.3892623 46.9536923,80.7537225 C46.9536923,80.0926528 47.4423891,79.5561341 48.0473815,79.5561341 L51.3218467,79.5561341 C51.9252175,79.5561341 52.4139142,80.0926528 52.4139142,80.7537225 L52.4139142,121.451702 L99.3694599,121.451702 L99.3694599,80.7537225 C99.3694599,80.0926528 99.8580408,79.5561341 100.45979,79.5561341 L104.82806,79.5561341 C105.431315,79.5561341 105.920128,80.0926528 105.920128,80.7537225 L105.920128,121.451702 L111.380465,121.451702 C113.792327,121.451702 115.748736,123.59604 115.748736,126.240435 C115.748736,128.884945 113.792327,131.027663 111.380465,131.027663 L4.36815438,131.027663 C1.95467119,131.027663 -1.42108547e-14,128.884829 -1.42108547e-14,126.240435 C-1.42108547e-14,123.59604 1.95467119,121.451702 4.36815438,121.451702 L10.9205597,121.451702 L10.9205597,80.7537225 C10.9205597,80.0926528 11.4092565,79.5561341 12.0110056,79.5561341 L17.4713434,79.5561341 C18.0745983,79.5561341 18.5632951,80.0926528 18.5632951,80.7537225 L18.5632951,121.451702 L46.9536923,121.451702 C46.9536923,115.393336 46.9536923,110.789626 46.9536923,107.640573 L46.9536923,88.933687 Z M46.9536923,105.114994 C46.9536923,100.429292 46.9536923,96.912754 46.9536923,94.5653804 L46.9536923,105.114994 Z M38.2188894,96.2106361 L38.2188894,100.495758 C38.2188894,98.5710443 38.2188894,97.1426702 38.2188894,96.2106361 Z M38.2188894,103.061849 C38.2188894,103.667049 38.2188894,104.749518 38.2188894,106.309258 C39.5070611,106.98364 40.4030245,108.412157 40.4030245,110.079937 C40.4030245,112.393623 38.6926438,114.26895 36.5815989,114.26895 C34.470554,114.26895 32.7585516,112.393623 32.7585516,110.079937 C32.7585516,108.412157 33.6561366,106.98364 34.9426867,106.309258 L34.9426867,89.9112337 C33.6561366,89.2368523 32.7585516,87.8082195 32.7585516,86.1405551 C32.7585516,83.8266375 34.4706698,81.9496903 36.5815989,81.9496903 C38.6925279,81.9496903 40.4030245,83.8266375 40.4030245,86.1405551 C40.4030245,87.8082195 39.5070611,89.2368523 38.2188894,89.9112337 C38.2188894,91.8105712 38.2188894,93.2350743 38.2188894,94.184743 L38.2188894,103.061849 Z M58.1136775,96.7466088 L73.5622403,79.8251459 C73.9893142,79.358311 74.6807176,79.358311 75.1062857,79.8251459 C75.5334755,80.2936013 75.5334755,81.0509781 75.1062857,81.517813 L59.6561013,98.4391603 C59.230649,98.9076157 58.5391298,98.9057637 58.1136775,98.4391603 C57.6866036,97.9724411 57.6866036,97.2132122 58.1136775,96.7466088 Z M59.6628196,110.802588 L87.2886074,80.1441632 C87.7141755,79.6740872 88.4056947,79.6691098 88.8345061,80.1342084 C89.2633176,80.599307 89.2665609,81.3567996 88.8427302,81.8268756 L61.2186799,112.485184 C60.7932277,112.955376 60.1017084,112.960238 59.672897,112.495139 C59.2440856,112.029925 59.2407264,111.272548 59.6628196,110.802588 Z M74.8105657,110.481834 L90.8490627,92.6835362 C91.2182204,92.2748097 91.8264562,92.2632343 92.2071972,92.6602697 C92.5878223,93.0555688 92.5960464,93.7100405 92.2271203,94.118767 L76.1885075,111.917065 C75.8195814,112.325791 75.211114,112.337367 74.8321105,111.940331 C74.4497479,111.545032 74.4414079,110.890445 74.8105657,110.481834 Z M13.9107526,33.6934987 L102.278358,34.0693062 L114.655046,60.6057183 L0.381679577,60.6057183 L13.9107526,33.6934987 Z" id="形状结合" fill="url(#linearGradient-3)" fill-rule="nonzero"></path>
                    <rect id="矩形" fill="#1451E5" opacity="0.380208333" filter="url(#filter-4)" x="74.0399659" y="33.8226825" width="15.0323033" height="96.9583565"></rect>
                    <g id="手机" transform="translate(78.549657, 0.000000)">
                        <rect id="矩形" fill="url(#linearGradient-5)" fill-rule="nonzero" x="0" y="0" width="65.3905195" height="130.781039" rx="13.4825813"></rect>
                        <rect id="矩形" fill="#CCEBFF" x="2.69651627" y="2.69651627" width="59.997487" height="125.388006" rx="10.7026677"></rect>
                        <path d="M33.0323243,1.29674049e-13 L46.0654863,1.29674049e-13 C47.1824199,1.28372978e-13 48.0878735,0.905453592 48.0878735,2.0223872 C48.0878735,2.14049185 48.0775278,2.2583695 48.0569551,2.37466855 L48.0261571,2.54877172 C47.5809219,2.71419767 47.3313504,2.84778689 47.2774425,2.94953938 C46.9618744,3.54518217 46.6852561,4.13925787 46.4475876,4.73176649 C46.1389183,5.50133933 45.3917623,6.00451783 44.562601,6.00124834 L33.0323243,5.95578289 L33.0323243,1.29674049e-13 Z" id="形状结合" fill="#79C9FF"></path>
                        <path d="M18.2014848,1.59872116e-14 L31.2346468,1.59872116e-14 C32.3515804,1.46861399e-14 33.257034,0.905453592 33.257034,2.0223872 C33.257034,2.14049185 33.2466883,2.2583695 33.2261156,2.37466855 L33.1953176,2.54877172 C32.7500825,2.71419767 32.500511,2.84778689 32.4466031,2.94953938 C32.1310349,3.54518217 31.8544166,4.13925787 31.6167482,4.73176649 C31.3080788,5.50133933 30.5609228,6.00451783 29.7317615,6.00124834 L18.2014848,5.95578289 L18.2014848,1.59872116e-14 Z" id="形状结合" fill="#79C9FF" transform="translate(25.729259, 3.000632) scale(-1, 1) translate(-25.729259, -3.000632) "></path>
                        <path d="M40.7109296,66.2757319 C40.675602,62.6887297 43.6148588,60.9699578 43.745571,60.884553 C42.0957717,58.4505158 39.523922,58.1160137 38.6054042,58.0768698 C36.4150926,57.8562407 34.3342966,59.3757347 33.2250098,59.3757347 C32.1157229,59.3757347 30.402334,58.1124552 28.586495,58.1444819 C26.2018816,58.1800673 24.0009717,59.5429858 22.771571,61.6958988 C20.291573,66.030193 22.1356741,72.4497882 24.5520824,75.9620612 C25.7320244,77.680833 27.1415959,79.6131169 28.9892298,79.5455048 C30.7697411,79.4743341 31.4409656,78.3854227 33.5924169,78.3854227 C35.7438682,78.3854227 36.3479702,79.5455048 38.2344644,79.5099194 C40.1492207,79.4743341 41.3644903,77.7555622 42.5373668,76.0296733 C43.8939469,74.0333357 44.4521231,72.1010519 44.483918,72.0049714 C44.4415248,71.9836202 40.7462572,70.5602067 40.7109296,66.2757319 L40.7109296,66.2757319 L40.7109296,66.2757319 Z M37.1711034,55.7531472 C38.1532109,54.5539212 38.8138371,52.8920859 38.6336663,51.2338091 C37.2205621,51.2907457 35.5071731,52.1803791 34.4932708,53.3760465 C33.5853513,54.4400481 32.7869474,56.1339103 33.0024458,57.7566017 C34.5780571,57.8811504 36.1889959,56.9488145 37.1711034,55.7531472 L37.1711034,55.7531472 L37.1711034,55.7531472 Z" id="形状" fill="#FFFFFF" fill-rule="nonzero"></path>
                    </g>
                </g>
                <path d="M0.272496892,187.903792 C0.0948531026,187.214328 3.55271368e-15,186.488505 3.55271368e-15,185.73914 C3.55271368e-15,181.222791 3.44539915,177.561567 7.69551438,177.561567 C8.78738737,177.561567 9.82614923,177.803207 10.7670255,178.238908 C12.0293981,175.55575 14.6394264,173.713297 17.6544153,173.713297 C18.4343942,173.713297 19.1872707,173.836605 19.8967232,174.065877 C20.414097,173.303227 21.0291274,172.620362 21.722347,172.037967 C22.1964284,171.639677 22.7070785,171.288377 23.2480708,170.990684 C24.5552792,170.271362 26.0396427,169.865028 27.6133163,169.865028 C28.6586547,169.865028 29.6645851,170.044323 30.6053594,170.375552 C34.389412,171.707847 37.1193247,175.498237 37.1195399,179.966207 C38.7687974,181.282613 39.8356038,183.378489 39.8356038,185.73914 C39.8356038,186.493309 39.726721,187.220454 39.5247488,187.903792 L0.272496892,187.903792 Z" id="形状结合复制" fill="url(#linearGradient-6)"></path>
                <path d="M23.5725671,187.903792 C23.3949233,187.214328 23.3000702,186.488505 23.3000702,185.73914 C23.3000702,181.222791 26.7454693,177.561567 30.9955846,177.561567 C32.0874575,177.561567 33.1262194,177.803207 34.0670957,178.238908 C35.3294682,175.55575 37.9394966,173.713297 40.9544855,173.713297 C41.7344643,173.713297 42.4873408,173.836605 43.1967934,174.065877 C43.7141671,173.303227 44.3291976,172.620362 45.0224172,172.037967 C45.4964985,171.639677 46.0071487,171.288377 46.5481409,170.990684 C47.8553494,170.271362 49.3397129,169.865028 50.9133865,169.865028 C51.9587249,169.865028 52.9646552,170.044323 53.9054296,170.375552 C57.6894822,171.707847 60.4193949,175.498237 60.4196101,179.966207 C62.0688675,181.282613 63.135674,183.378489 63.135674,185.73914 C63.135674,186.493309 63.0267912,187.220454 62.824819,187.903792 L23.5725671,187.903792 Z" id="形状结合复制-2" fill="url(#linearGradient-7)"></path>
            </g>
        </g>
    </g>
</svg>