<?xml version="1.0" encoding="UTF-8"?>
<svg width="28px" height="28px" viewBox="0 0 28 28" version="1.1" xmlns="http://www.w3.org/2000/svg" xmlns:xlink="http://www.w3.org/1999/xlink">
    <!-- Generator: Sketch 55.1 (78136) - https://sketchapp.com -->
    <title>24复制</title>
    <desc>Created with Sketch.</desc>
    <defs>
        <linearGradient x1="26.7737636%" y1="20.3375873%" x2="68.2564992%" y2="78.6604895%" id="linearGradient-1">
            <stop stop-color="#80E8FB" offset="0%"></stop>
            <stop stop-color="#57B0FB" offset="100%"></stop>
        </linearGradient>
        <linearGradient x1="25.2982098%" y1="24.4470481%" x2="69.4163274%" y2="74.6898362%" id="linearGradient-2">
            <stop stop-color="#80E8FB" offset="0%"></stop>
            <stop stop-color="#57B0FB" offset="100%"></stop>
        </linearGradient>
    </defs>
    <g id="页面1" stroke="none" stroke-width="1" fill="none" fill-rule="evenodd">
        <g id="app定制" transform="translate(-145.000000, -1318.000000)">
            <g id="24复制" transform="translate(145.000000, 1318.000000)">
                <g id="23">
                    <ellipse id="椭圆形" fill="url(#linearGradient-1)" opacity="0.146158854" cx="13.575419" cy="14" rx="13.575419" ry="14"></ellipse>
                    <path d="M8.37830892,6.58823529 L18.7725291,6.58823529 C19.5288277,6.58823529 20.1640087,7.15694576 20.2468234,7.9082706 L21.5520337,19.7670941 C21.5982039,20.1859667 21.4638115,20.6046813 21.1824578,20.9185495 C20.9011041,21.2324178 20.4993849,21.4117647 20.0777394,21.4117647 L7.07309863,21.4117647 C6.65145312,21.4117647 6.24973389,21.2324178 5.96838018,20.9185495 C5.68702647,20.6046813 5.55263408,20.1859667 5.59880427,19.7670941 L6.90401457,7.9082706 C6.98682927,7.15694576 7.62201026,6.58823529 8.37830892,6.58823529 Z M9.8674352,11.0352941 C9.8674352,13.0819964 11.5275561,14.7411764 13.575419,14.7411764 C15.6232819,14.7411764 17.2834028,13.0819964 17.2834028,11.0352941 C17.2834028,10.625998 16.9513343,10.2942311 16.541806,10.2942311 C16.1322778,10.2942311 15.800272,10.625998 15.8002093,11.0352941 C15.8002093,12.2633155 14.8041367,13.2588235 13.575419,13.2588235 C12.3467013,13.2588235 11.3506287,12.2633155 11.3506287,11.0352941 C11.3506693,10.7704702 11.2093306,10.5257455 10.9798631,10.3933219 C10.7503956,10.2608983 10.4676683,10.2608983 10.2382008,10.3933219 C10.0087333,10.5257455 9.8674352,10.7704702 9.8674352,11.0352941 Z" id="形状" fill="url(#linearGradient-2)"></path>
                </g>
            </g>
        </g>
    </g>
</svg>