<?xml version="1.0" encoding="UTF-8"?>
<svg width="28px" height="28px" viewBox="0 0 28 28" version="1.1" xmlns="http://www.w3.org/2000/svg" xmlns:xlink="http://www.w3.org/1999/xlink">
    <!-- Generator: Sketch 55.1 (78136) - https://sketchapp.com -->
    <title>jiaoyu 2复制</title>
    <desc>Created with Sketch.</desc>
    <defs>
        <linearGradient x1="25.2982098%" y1="20.3375873%" x2="69.4163274%" y2="78.6604895%" id="linearGradient-1">
            <stop stop-color="#60F1DA" offset="0%"></stop>
            <stop stop-color="#0AC5A2" offset="100%"></stop>
        </linearGradient>
        <linearGradient x1="25.2982098%" y1="34.9892555%" x2="69.4163274%" y2="64.5037186%" id="linearGradient-2">
            <stop stop-color="#60F1DA" offset="0%"></stop>
            <stop stop-color="#0AC5A2" offset="100%"></stop>
        </linearGradient>
    </defs>
    <g id="页面1" stroke="none" stroke-width="1" fill="none" fill-rule="evenodd">
        <g id="app定制" transform="translate(-757.000000, -1319.000000)">
            <g id="jiaoyu-2复制" transform="translate(757.000000, 1319.000000)">
                <g id="jiaoyu">
                    <circle id="椭圆形" fill="url(#linearGradient-1)" opacity="0.145693824" cx="14" cy="14" r="14"></circle>
                    <path d="M23.7260539,11.213705 C24.2277222,10.9108996 25.4377409,10.6625738 23.6377501,9.90746065 C21.5690084,9.08646517 17.4097689,7.58637466 15.5899417,6.86356926 C14.5699682,6.37135206 13.9831955,6.60700817 12.8723586,7.03904438 C10.9962217,7.72194031 7.45638897,8.97497198 5.31534047,9.75669143 C3.6740406,10.3489991 3.7719427,10.7918046 5.28910527,11.4892706 C7.56260954,12.5351529 12.1416122,14.1416688 13.1033564,14.4900851 C14.0651005,14.8385014 14.7638528,14.8410353 15.7332755,14.4204018 C16.7033381,13.9997683 18.1053217,13.4606733 22.4776422,11.7280941 L22.4776422,14.2981394 L21.4474306,15.1989539 L22.9524354,16.6420308 L24.4388836,15.1552434 L23.7260539,14.4691801 L23.7260539,11.213705 Z M15.9444369,15.7089086 C15.0326036,16.1713521 13.7573168,16.0528905 12.7520606,15.7089086 C11.1216387,15.1723475 9.77404517,14.7681846 8.57362468,14.2981394 L8.57362468,19.0961485 C8.57362468,19.0961485 10.6302086,21.152438 14.4368725,21.152438 C17.9715862,21.152438 19.9827384,19.0961485 19.9827384,19.0961485 L19.9827384,13.9560579 C18.4278228,14.5958769 17.0021634,15.2895421 15.9444369,15.7089086 L15.9444369,15.7089086 Z" id="形状" fill="url(#linearGradient-2)"></path>
                </g>
            </g>
        </g>
    </g>
</svg>