<?xml version="1.0" encoding="UTF-8"?>
<svg width="28px" height="28px" viewBox="0 0 28 28" version="1.1" xmlns="http://www.w3.org/2000/svg" xmlns:xlink="http://www.w3.org/1999/xlink">
    <!-- Generator: Sketch 55.1 (78136) - https://sketchapp.com -->
    <title>编组 7复制 2</title>
    <desc>Created with Sketch.</desc>
    <defs>
        <linearGradient x1="25.2982098%" y1="20.3375873%" x2="69.4163274%" y2="78.6604895%" id="linearGradient-1">
            <stop stop-color="#FBD866" offset="0%"></stop>
            <stop stop-color="#F9B13D" offset="100%"></stop>
        </linearGradient>
    </defs>
    <g id="页面1" stroke="none" stroke-width="1" fill="none" fill-rule="evenodd">
        <g id="app定制" transform="translate(-751.000000, -1714.000000)" fill="url(#linearGradient-1)">
            <g id="编组-7复制-2" transform="translate(751.000000, 1714.000000)">
                <circle id="椭圆形复制-5" opacity="0.15" cx="14" cy="14" r="14"></circle>
                <g id="jinrongkeyuan" transform="translate(4.941176, 4.941176)">
                    <path d="M9.06065932,0.0177368121 C4.06638922,0.0177368121 0.0187725342,4.06535348 0.0187725342,9.05962358 C0.0187725342,14.0538937 4.0663892,18.1015104 9.06065932,18.1015104 C14.0549294,18.1015104 18.1025461,14.0538937 18.1025461,9.05962358 C18.1025461,4.06535346 14.0549294,0.0177368121 9.06065932,0.0177368121 Z M9.06065932,14.0766797 C9.06065932,13.1652409 4.955042,9.0596236 4.04360323,9.05962358 C4.955042,9.05962358 9.0606593,4.95400625 9.06065932,4.04256751 C9.06065932,4.95400627 13.1662767,9.05962358 14.0777154,9.05962358 C13.1662766,9.05962358 9.06065932,13.1652409 9.06065932,14.0766797 Z" id="形状"></path>
                </g>
            </g>
        </g>
    </g>
</svg>