<?xml version="1.0" encoding="UTF-8"?>
<svg width="28px" height="28px" viewBox="0 0 28 28" version="1.1" xmlns="http://www.w3.org/2000/svg" xmlns:xlink="http://www.w3.org/1999/xlink">
    <!-- Generator: Sketch 55.1 (78136) - https://sketchapp.com -->
    <title>编组 6复制 2</title>
    <desc>Created with Sketch.</desc>
    <defs>
        <linearGradient x1="25.2982098%" y1="20.3375873%" x2="69.4163274%" y2="78.6604895%" id="linearGradient-1">
            <stop stop-color="#F3BAFF" offset="0%"></stop>
            <stop stop-color="#DB63FF" offset="100%"></stop>
        </linearGradient>
        <linearGradient x1="25.2982098%" y1="20.3635901%" x2="69.4163274%" y2="78.6353651%" id="linearGradient-2">
            <stop stop-color="#F3BAFF" offset="0%"></stop>
            <stop stop-color="#DB63FF" offset="100%"></stop>
        </linearGradient>
    </defs>
    <g id="页面1" stroke="none" stroke-width="1" fill="none" fill-rule="evenodd">
        <g id="app定制" transform="translate(-145.000000, -1712.000000)">
            <g id="编组-6复制-2" transform="translate(145.000000, 1712.000000)">
                <circle id="椭圆形复制-4" fill="url(#linearGradient-1)" opacity="0.15" cx="14" cy="14" r="14"></circle>
                <g id="falv" transform="translate(4.941176, 4.941176)" fill="url(#linearGradient-2)">
                    <path d="M15.9891834,15.9813259 C15.5573212,15.9813259 15.4586099,15.4513539 15.4586099,15.4513539 C15.4586099,15.0857143 15.3413901,14.9213819 14.9280363,14.9213819 L3.74691861,14.9213819 C3.31505642,14.9213819 3.21634506,15.0384687 3.21634506,15.4513539 C3.21634506,15.4513539 3.12791614,15.9813259 2.68577152,15.9813259 C1.66164118,15.9813259 1.0899379,17.0535948 1.0899379,18.1073763 L17.5870735,18.1073763 C17.5829605,16.5112979 15.9891834,15.9813259 15.9891834,15.9813259 Z M3.43844562,11.4457516 C3.51864859,11.5217554 3.61941644,11.5587302 3.72224077,11.5587302 C3.83329105,11.5587302 3.94022835,11.5155929 4.02248781,11.4272642 C4.1787808,11.2629318 4.17261134,10.9979458 4.00809241,10.8438842 L1.55059091,8.51652661 C1.38607198,8.36041083 1.12284169,8.3665733 0.966548708,8.53295985 C0.810255725,8.69729225 0.816425185,8.96227824 0.980944114,9.11633987 L3.43844562,11.4457516 Z M3.89498564,12.8507937 C3.85796889,12.6268908 3.64615076,12.4728291 3.41788075,12.5098039 L0.366054617,13.0110177 C0.141897576,13.0479925 -0.0123389197,13.2616246 0.0246778394,13.4875817 C0.0596381118,13.6888889 0.234439474,13.8326797 0.433918675,13.8326797 C0.456540028,13.8326797 0.479161381,13.8306256 0.501782734,13.8265173 L3.55360887,13.3253035 C3.78187888,13.2903828 3.9320024,13.0746965 3.89498564,12.8507937 L3.89498564,12.8507937 Z M11.5903585,7.10326797 L13.8134206,4.88478058 C14.0170128,5.08814192 14.3501636,5.08814192 14.5537558,4.88478058 L14.5743206,4.86423903 C14.7779128,4.66087768 14.7779128,4.32810458 14.5743206,4.12474323 L10.6135274,0.170494865 C10.4099352,-0.0328664799 10.0767844,-0.0328664799 9.87319223,0.170494865 L9.85262736,0.191036415 C9.64903519,0.394397759 9.64903519,0.727170868 9.85262736,0.930532213 L4.3165654,6.45826331 C4.11297323,6.25490196 3.77982239,6.25490196 3.57623022,6.45826331 L3.55566535,6.47880486 C3.35207318,6.6821662 3.35207318,7.01493931 3.55566535,7.21830065 L7.51645857,11.1766573 C7.72005074,11.3800187 8.05320158,11.3800187 8.25679375,11.1766573 L8.27735862,11.1561158 C8.48095079,10.9527544 8.48095079,10.6199813 8.27735862,10.41662 L10.5004206,8.19813259 L16.2585832,14.3688142 C16.6739935,14.8145658 17.3752554,14.8248366 17.8030046,14.3975724 C18.2307538,13.9703081 18.2204714,13.2677871 17.7742138,12.854902 L11.5903585,7.10326797 L11.5903585,7.10326797 Z M10.3132804,2.47936508 L5.86304333,6.92250233 C5.77872738,7.00672269 5.64094278,7.00672269 5.55662683,6.92250233 L5.54840088,6.91428571 C5.46408493,6.83006536 5.46408493,6.69243697 5.54840088,6.60821662 L9.99658142,2.16302521 C10.0808974,2.07880486 10.218682,2.07880486 10.3029979,2.16302521 L10.3112239,2.17124183 C10.3975963,2.25751634 10.3975963,2.39514472 10.3132804,2.47936508 L10.3132804,2.47936508 Z" id="形状"></path>
                </g>
            </g>
        </g>
    </g>
</svg>