<?xml version="1.0" encoding="UTF-8"?>
<svg width="28px" height="28px" viewBox="0 0 28 28" version="1.1" xmlns="http://www.w3.org/2000/svg" xmlns:xlink="http://www.w3.org/1999/xlink">
    <!-- Generator: Sketch 55.1 (78136) - https://sketchapp.com -->
    <title>编组 4复制 2</title>
    <desc>Created with Sketch.</desc>
    <defs>
        <linearGradient x1="25.2982098%" y1="20.3375873%" x2="69.4163274%" y2="78.6604895%" id="linearGradient-1">
            <stop stop-color="#FFA590" offset="0%"></stop>
            <stop stop-color="#FD7474" offset="100%"></stop>
        </linearGradient>
        <linearGradient x1="25.2992824%" y1="20.3375873%" x2="69.4154844%" y2="78.6604895%" id="linearGradient-2">
            <stop stop-color="#FFA590" offset="0%"></stop>
            <stop stop-color="#FD7474" offset="100%"></stop>
        </linearGradient>
    </defs>
    <g id="页面1" stroke="none" stroke-width="1" fill="none" fill-rule="evenodd">
        <g id="app定制" transform="translate(-145.000000, -1523.000000)">
            <g id="编组-4复制-2" transform="translate(145.000000, 1523.000000)">
                <circle id="椭圆形" fill-opacity="0.15" fill="url(#linearGradient-1)" cx="14" cy="14" r="14"></circle>
                <g id="yiliao_-2" transform="translate(5.764706, 5.764706)" fill="url(#linearGradient-2)">
                    <path d="M15.415635,14.6406271 C16.9335965,12.7429775 16.7852444,10.0082008 15.0709128,8.28589176 L12.0671403,11.2896643 L15.4168691,14.6406271 L15.415635,14.6406271 L15.415635,14.6406271 Z M8.32250307,15.035947 C10.0420757,16.7505681 12.7751933,16.9000272 14.6714794,15.3831373 L11.3250415,12.0329972 L8.32209171,15.035947 L8.32250307,15.035947 Z M10.9420626,10.9120331 L11.3155801,10.5393382 L14.2342005,7.62030646 L15.3457033,6.50839231 C16.3073821,5.5462803 16.6828665,4.14427613 16.3307669,2.83030829 C15.9786673,1.51634045 14.9524527,0.489944936 13.6385469,0.137613773 C12.3245596,-0.214309914 10.9226384,0.16157432 9.96096184,1.12365085 L1.15285762,9.93257779 C0.173597457,10.8910181 -0.215294227,12.3016375 0.134490843,13.6264804 C0.484275914,14.9513233 1.51880914,15.98613 2.84355948,16.3362654 C4.16814829,16.6859239 5.57871197,16.2971859 6.53677636,15.3173193 L6.82226227,15.0351242 L6.82226227,15.0338902 L10.9416512,10.9120331 L10.9420626,10.9120331 Z M1.94144046,10.7219834 C1.30300511,11.3637096 1.0018874,11.8408907 1.0018874,13.0897887 C1.0018874,13.7097127 1.24500293,13.8894783 1.24500293,14.0289304 C1.24500293,14.1687938 2.03934485,14.6249954 1.94144046,14.5258569 C0.892930299,13.4746597 0.892930299,11.7731805 1.94144046,10.7219834 L6.34837211,6.3162858 L10.749956,1.91305641 C11.8015838,0.864355369 13.5033939,0.86398745 14.555475,1.91223369 C15.6043168,2.96441763 15.6043168,4.6668028 14.555475,5.71898674 L10.1518343,10.1234502 L6.34837211,6.31669716 L1.94144046,10.7219834 Z" id="形状"></path>
                </g>
            </g>
        </g>
    </g>
</svg>