<?xml version="1.0" encoding="UTF-8"?>
<svg width="32px" height="35px" viewBox="0 0 32 35" version="1.1" xmlns="http://www.w3.org/2000/svg" xmlns:xlink="http://www.w3.org/1999/xlink">
    <!-- Generator: Sketch 55.1 (78136) - https://sketchapp.com -->
    <title>编组 33</title>
    <desc>Created with Sketch.</desc>
    <g id="页面1" stroke="none" stroke-width="1" fill="none" fill-rule="evenodd">
        <g id="app定制" transform="translate(-1163.000000, -3226.000000)" fill-rule="nonzero">
            <g id="编组-33" transform="translate(1164.000000, 3227.000000)">
                <g id="wendang">
                    <path d="M25.9552239,33 L4.02238806,33 C1.80597015,33 0,31.2134228 0,29.0208054 L0,3.97919463 C0,1.78657718 1.80597015,0 4.02238806,0 L19.108209,0 C19.4328358,0 19.7425373,0.132885906 19.9701493,0.361744966 L29.6455224,10.3281879 C29.858209,10.5496644 29.9776119,10.8412752 29.9776119,11.147651 L29.9776119,29.0208054 C29.9776119,31.2134228 28.1716418,33 25.9552239,33 Z" id="路径" stroke="#454C5C" stroke-width="2"></path>
                    <path d="M28.7947761,12.3288591 L21.9477612,12.3288591 C19.7313433,12.3288591 17.9253731,10.5422819 17.9253731,8.34966443 L17.9253731,1.18120805 C17.9253731,0.527852349 18.4589552,0 19.119403,0 C19.7798507,0 20.3134328,0.527852349 20.3134328,1.18120805 L20.3134328,8.34966443 C20.3134328,9.23926174 21.0447761,9.96644295 21.9477612,9.96644295 L28.7947761,9.96644295 C29.4552239,9.96644295 29.988806,10.4942953 29.988806,11.147651 C29.988806,11.8010067 29.4552239,12.3288591 28.7947761,12.3288591 Z" id="路径" fill="#454C5C"></path>
                </g>
                <g id="ceshi" transform="translate(8.000000, 12.000000)" fill="#454C5C">
                    <path d="M12.1623117,7.89873417 C12.4955257,7.89873417 12.6621327,7.65189873 12.6621327,7.40506329 C12.6621327,6.74683544 12.4955257,6.00632911 12.2456152,5.43037974 C11.9957047,4.85443037 11.5791871,4.27848101 11.1626696,3.78481012 C10.6628486,3.29113924 10.1630276,2.96202531 9.49659952,2.71518988 C8.91347499,2.38607595 8.16374344,2.30379746 7.49731541,2.30379746 C6.83088738,2.30379746 6.08115584,2.46835442 5.4980313,2.71518988 C4.83160326,2.96202532 4.24847873,3.29113925 3.83196121,3.78481012 C3.33214018,4.27848101 2.99892616,4.7721519 2.74901566,5.43037974 C2.41580163,6.00632911 2.24919463,6.74683544 2.24919463,7.40506329 C2.24919463,7.73417722 2.49910514,7.89873417 2.74901566,7.89873417 C3.08222968,7.89873417 3.33214019,7.73417722 3.33214018,7.40506329 C3.33214018,6.33544303 3.7486577,5.26582278 4.58169275,4.52531645 C5.33142429,3.70253165 6.41436986,3.29113924 7.49731541,3.29113924 C8.58026098,3.29113924 9.66320653,3.70253164 10.4129381,4.52531645 C11.2459731,5.26582278 11.6624906,6.33544303 11.6624906,7.40506329 C11.6624906,7.73417722 11.9124012,7.89873417 12.1623117,7.89873417 L12.1623117,7.89873417 Z" id="路径" stroke="#454C5C" stroke-width="0.4"></path>
                    <path d="M7.99713644,10.943038 L7.99713644,6.82911393 C7.99713644,6.58227849 7.74722593,6.33544304 7.49731541,6.33544304 C7.2474049,6.33544304 6.99749438,6.58227849 6.99749438,6.82911393 L6.99749438,11.0253165 C6.66428036,11.1075949 6.41436986,11.5189873 6.41436986,11.9303797 C6.41436986,12.5063291 6.91419089,13 7.49731541,13 C8.08043995,13 8.58026098,12.5063291 8.58026098,11.9303797 C8.58026098,11.5189873 8.33035046,11.1075949 7.99713644,10.943038 Z" id="路径"></path>
                    <path d="M14.4115063,4.52531645 C13.9949888,3.62025317 13.4951678,2.87974683 12.8287397,2.1392405 C12.1623117,1.48101266 11.3292766,0.905063288 10.4129381,0.575949372 C9.49659952,0.164556958 8.49695747,0 7.49731541,0 C6.49767335,0 5.4980313,0.164556958 4.58169275,0.575949372 C3.6653542,0.987341773 2.91562266,1.48101266 2.16589112,2.1392405 C1.49946308,2.87974683 0.999642057,3.62025317 0.583124537,4.52531645 C0.166607005,5.43037974 0,6.41772151 0,7.40506329 C0,8.47468355 0.249910514,9.46202531 0.666428033,10.3670886 C1.08294555,11.2721519 1.66607009,12.0949367 2.41580163,12.7531646 C2.66571215,12.9177215 2.99892617,12.9177215 3.16553317,12.7531646 C3.33214018,12.5063291 3.33214018,12.1772152 3.16553317,12.0126582 C2.49910514,11.4367089 1.99928411,10.6962025 1.66607009,9.95569621 C1.33285607,9.13291139 1.08294555,8.31012659 1.08294557,7.40506329 C1.08294557,6.58227847 1.24955257,5.67721518 1.58276659,4.93670885 C1.91598062,4.19620252 2.33249814,3.53797468 2.99892617,2.87974683 C3.4987472,2.30379746 4.24847874,1.89240506 4.99821027,1.56329115 C5.83124532,1.23417722 6.66428036,1.06962026 7.49731541,1.06962026 C8.33035046,1.06962026 9.24668901,1.23417722 9.99642055,1.56329115 C10.7461521,1.89240507 11.4125801,2.30379748 12.0790082,2.96202532 C12.6621327,3.53797469 13.1619537,4.19620254 13.4951678,5.01898734 C13.8283818,5.84177216 13.9949888,6.66455696 13.9949888,7.48734177 C13.9949888,8.39240506 13.8283818,9.21518988 13.4118642,10.0379747 C13.0786502,10.8607595 12.5788292,11.5189873 11.9124012,12.0949367 C11.6624906,12.2594937 11.6624906,12.5886076 11.9124012,12.835443 C11.9957047,12.9177215 12.1623117,13 12.3289187,13 C12.4955257,13 12.5788292,12.9177215 12.6621327,12.835443 C13.4118642,12.1772152 13.9949888,11.3544304 14.4115063,10.4493671 C14.7447203,9.46202532 14.9946308,8.47468355 14.9946308,7.40506329 C14.9946308,6.41772151 14.8280238,5.43037974 14.4115063,4.52531645 Z" id="路径" stroke="#454C5C" stroke-width="0.4"></path>
                </g>
            </g>
        </g>
    </g>
</svg>