<?xml version="1.0" encoding="UTF-8"?>
<svg width="30px" height="32px" viewBox="0 0 30 32" version="1.1" xmlns="http://www.w3.org/2000/svg" xmlns:xlink="http://www.w3.org/1999/xlink">
    <!-- Generator: Sketch 55.1 (78136) - https://sketchapp.com -->
    <title>形状</title>
    <desc>Created with Sketch.</desc>
    <g id="页面1" stroke="none" stroke-width="1" fill="none" fill-rule="evenodd">
        <g id="app定制" transform="translate(-552.000000, -3083.000000)" fill="#454C5C" fill-rule="nonzero">
            <path d="M564.321402,3099.54637 L554.076707,3093.85764 C553.878185,3093.74695 553.655655,3093.68955 553.429767,3093.69075 C552.691251,3093.69075 552,3094.35521 552,3095.27906 L552,3106.3956 C552,3107.55762 552.576043,3108.5998 553.521343,3109.12164 L563.768992,3114.81038 C563.975777,3114.9287 564.207671,3115 564.415932,3115 C565.154448,3115 565.847176,3114.3128 565.847176,3113.38743 L565.847176,3102.27089 C565.847176,3101.13315 565.269657,3100.0667 564.322879,3099.54637 L564.321402,3099.54637 Z M563.537098,3111.99028 L554.605485,3107.03578 C554.407993,3106.88697 554.29558,3106.64696 554.305647,3106.3956 L554.305647,3096.67773 L563.237261,3101.63072 C563.42189,3101.75056 563.537098,3102.00997 563.537098,3102.27089 L563.537098,3111.99028 Z M580.568756,3093.69076 C580.343367,3093.6898 580.121376,3093.74719 579.923293,3093.85764 L569.675644,3099.56913 C568.730343,3100.09097 568.152824,3101.15742 568.152824,3102.31944 L568.152824,3113.38743 C568.152824,3114.3128 568.845552,3115 569.584068,3115 C569.790852,3115 570.022746,3114.95297 570.229531,3114.83313 L580.47718,3109.12164 C581.400325,3108.5998 582,3107.55762 582,3106.3956 L582,3095.27906 C582,3094.3537 581.307272,3093.69076 580.568756,3093.69076 L580.568756,3093.69076 Z M579.692876,3106.37285 C579.692876,3106.70355 579.530402,3106.94172 579.391561,3107.0115 L570.459948,3111.99028 L570.459948,3102.31944 C570.459948,3101.9857 570.622421,3101.75056 570.761262,3101.67927 L579.691399,3096.67773 L579.691399,3106.37133 L579.692876,3106.37285 Z M578.976515,3091.24841 C579.460982,3090.989 579.692876,3090.53845 579.645611,3090.11066 C579.692876,3089.66163 579.460982,3089.23535 578.976515,3088.97291 L568.545714,3083.37975 C568.069674,3083.12127 567.537654,3082.99079 566.999261,3083.0005 C566.445374,3083.0005 565.913643,3083.11883 565.429176,3083.37975 L554.974743,3088.95016 C554.543171,3089.1626 554.278981,3089.62142 554.305647,3090.11218 C554.282015,3090.53845 554.490276,3090.989 554.974743,3091.24992 L565.407021,3096.81881 C565.867855,3097.07822 566.421742,3097.19806 566.975629,3097.19806 L567.021417,3097.19806 C567.575304,3097.19806 568.107036,3097.07822 568.591502,3096.81881 L578.976515,3091.24841 L578.976515,3091.24841 Z M566.975629,3094.82852 C566.799772,3094.82865 566.626133,3094.78821 566.46753,3094.71019 L557.837231,3090.11218 L566.46753,3085.48989 C566.633659,3085.40929 566.815548,3085.36882 566.999261,3085.37157 C567.183891,3085.37157 567.36852,3085.4186 567.507361,3085.48989 L576.137659,3090.11218 L567.482251,3094.71019 C567.325959,3094.79334 567.151563,3094.83407 566.975629,3094.82852 L566.975629,3094.82852 Z" id="形状"></path>
        </g>
    </g>
</svg>