<?xml version="1.0" encoding="UTF-8"?>
<svg width="32px" height="35px" viewBox="0 0 32 35" version="1.1" xmlns="http://www.w3.org/2000/svg" xmlns:xlink="http://www.w3.org/1999/xlink">
    <!-- Generator: Sketch 55.1 (78136) - https://sketchapp.com -->
    <title>wendang</title>
    <desc>Created with Sketch.</desc>
    <g id="页面1" stroke="none" stroke-width="1" fill="none" fill-rule="evenodd">
        <g id="app定制" transform="translate(-857.000000, -3226.000000)" fill-rule="nonzero">
            <g id="wendang" transform="translate(858.000000, 3227.000000)">
                <path d="M25.9552239,33 L4.02238806,33 C1.80597015,33 0,31.2134228 0,29.0208054 L0,3.97919463 C0,1.78657718 1.80597015,0 4.02238806,0 L19.108209,0 C19.4328358,0 19.7425373,0.132885906 19.9701493,0.361744966 L29.6455224,10.3281879 C29.858209,10.5496644 29.9776119,10.8412752 29.9776119,11.147651 L29.9776119,29.0208054 C29.9776119,31.2134228 28.1716418,33 25.9552239,33 Z" id="路径" stroke="#454C5C" stroke-width="2"></path>
                <path d="M28.7947761,12.3288591 L21.9477612,12.3288591 C19.7313433,12.3288591 17.9253731,10.5422819 17.9253731,8.34966443 L17.9253731,1.18120805 C17.9253731,0.527852349 18.4589552,0 19.119403,0 C19.7798507,0 20.3134328,0.527852349 20.3134328,1.18120805 L20.3134328,8.34966443 C20.3134328,9.23926174 21.0447761,9.96644295 21.9477612,9.96644295 L28.7947761,9.96644295 C29.4552239,9.96644295 29.988806,10.4942953 29.988806,11.147651 C29.988806,11.8010067 29.4552239,12.3288591 28.7947761,12.3288591 Z" id="路径" fill="#454C5C"></path>
                <g id="jiekou" transform="translate(8.000000, 12.000000)" fill="#454C5C">
                    <path d="M3.2394822,1.38232788 L0.701186622,1.38232788 C0.322545849,1.38232788 0,1.68342901 0,2.06664862 C0,2.43618181 0.322545849,2.75096935 0.701186622,2.75096935 L3.22545846,2.75096935 C3.68824163,4.02380593 5.39913699,4.66706742 6.67529666,3.55846784 C6.94174758,3.32579878 7.1240561,3.05207048 7.22222222,2.75096935 L12.2988134,2.75096935 C12.6914779,2.75096935 13,2.43618181 13,2.06664862 C13,1.683429 12.6914779,1.38232788 12.2988134,1.38232788 L7.20819849,1.38232788 C6.92772384,0.615888658 6.22653722,0 5.23085222,0 C4.64185546,0 4.10895363,0.232669054 3.73031284,0.602202248 C3.51995685,0.793812058 3.33764832,1.06754036 3.2394822,1.38232788 L3.2394822,1.38232788 Z M5.72168286,2.54567313 C5.62351673,2.65516446 5.51132687,2.72359652 5.38511326,2.75096935 C5.28694714,2.77834219 5.18878101,2.76465576 5.09061488,2.75096935 C4.61380797,2.64147803 4.26321467,2.02558937 4.72599784,1.57393769 C4.8381877,1.46444637 4.97842502,1.39601431 5.11866235,1.38232788 C5.18878102,1.36864147 5.25889967,1.36864147 5.32901834,1.38232788 C5.46925566,1.39601429 5.60949299,1.46444637 5.72168286,1.57393769 C6.00215751,1.84766599 6.00215751,2.27194484 5.72168286,2.54567313 L5.72168286,2.54567313 Z M8.27400216,7.07587643 C7.81121899,6.62422475 8.1618123,6.00833607 8.63861921,5.89884475 C8.73678533,5.87147192 8.83495147,5.87147192 8.94714131,5.89884475 C9.05933116,5.92621758 9.17152103,5.98096324 9.2837109,6.09045456 C9.74649407,6.54210624 9.39590077,7.15799492 8.90507012,7.26748624 C8.82092772,7.28117265 8.70873786,7.29485907 8.61057174,7.26748624 C8.49838187,7.2401134 8.38619203,7.17168134 8.27400216,7.07587643 Z M6.78748652,5.89884475 L0.701186622,5.89884475 C0.322545849,5.89884475 0,6.19994588 0,6.58316549 C0,6.95269868 0.322545849,7.26748622 0.701186622,7.26748624 L6.78748652,7.26748624 C7.26429343,8.59506847 9.08737865,9.16989789 10.2653722,8.04761187 C10.5037756,7.81494282 10.6720604,7.54121452 10.7702265,7.26748624 L12.2988134,7.26748624 C12.6914779,7.26748624 13,6.9526987 13,6.58316549 C13,6.19994587 12.6914779,5.89884475 12.2988134,5.89884475 L10.7562028,5.89884475 C10.4757282,5.13240553 9.74649407,4.51651687 8.77885653,4.51651687 C7.85329018,4.51651687 7.0819849,5.09134628 6.78748652,5.89884475 L6.78748652,5.89884475 Z M4.37540454,11.4281563 C4.8381877,10.9765046 4.4875944,10.360616 4.01078749,10.2511246 C3.91262137,10.2374382 3.81445523,10.2237518 3.70226537,10.2511246 C3.5900755,10.2784975 3.47788566,10.3469295 3.36569579,10.4427345 C2.90291262,10.8943861 3.25350593,11.5102748 3.74433656,11.6197661 C3.82847896,11.647139 3.94066882,11.647139 4.03883494,11.6197661 C4.15102481,11.5923933 4.26321466,11.5376476 4.37540454,11.4281563 Z M5.86192017,10.2511246 L12.2988134,10.2511246 C12.6914779,10.2511246 13,10.5659122 13,10.9354454 C13,11.318665 12.6914779,11.6197661 12.2988134,11.6197661 L5.86192017,11.6197661 C5.38511326,12.9610348 3.56202805,13.5221778 2.38403452,12.3998918 C2.14563106,12.1672227 1.97734627,11.9071808 1.87918015,11.6197661 L0.701186622,11.6197661 C0.322545849,11.6197661 0,11.318665 0,10.9354454 C0,10.5659122 0.322545849,10.2511246 0.701186622,10.2511246 L1.89320388,10.2511246 C2.17367853,9.48468542 2.90291262,8.88248317 3.87055016,8.88248317 C4.78209276,8.88248317 5.56742178,9.45731259 5.86192017,10.2511246 Z" id="形状"></path>
                </g>
            </g>
        </g>
    </g>
</svg>