<?xml version="1.0" encoding="UTF-8"?>
<svg width="32px" height="35px" viewBox="0 0 32 35" version="1.1" xmlns="http://www.w3.org/2000/svg" xmlns:xlink="http://www.w3.org/1999/xlink">
    <!-- Generator: Sketch 55.1 (78136) - https://sketchapp.com -->
    <title>wendang</title>
    <desc>Created with Sketch.</desc>
    <g id="页面1" stroke="none" stroke-width="1" fill="none" fill-rule="evenodd">
        <g id="app定制" transform="translate(-245.000000, -3226.000000)" fill-rule="nonzero">
            <g id="wendang" transform="translate(246.000000, 3227.000000)">
                <path d="M25.9664179,33 L4.03358209,33 C1.81716418,33 0.0111940299,31.2134228 0.0111940299,29.0208054 L0.0111940299,3.97919463 C0.0111940299,1.78657718 1.81716418,0 4.03358209,0 L19.119403,0 C19.4440299,0 19.7537313,0.132885906 19.9813433,0.361744966 L29.6567164,10.3281879 C29.869403,10.5496644 29.988806,10.8412752 29.988806,11.147651 L29.988806,29.0208054 C29.988806,31.2134228 28.1828358,33 25.9664179,33 Z" id="路径" stroke="#454C5C" stroke-width="2"></path>
                <path d="M28.7947761,12.3288591 L21.9477612,12.3288591 C19.7313433,12.3288591 17.9253731,10.5422819 17.9253731,8.34966443 L17.9253731,1.18120805 C17.9253731,0.527852349 18.4589552,0 19.119403,0 C19.7798507,0 20.3134328,0.527852349 20.3134328,1.18120805 L20.3134328,8.34966443 C20.3134328,9.23926174 21.0447761,9.96644295 21.9477612,9.96644295 L28.7947761,9.96644295 C29.4552239,9.96644295 29.988806,10.4942953 29.988806,11.147651 C29.988806,11.8010067 29.4552239,12.3288591 28.7947761,12.3288591 Z" id="路径" fill="#454C5C"></path>
                <path d="M17.0256857,22.9516885 L21.070847,22.9516885 C21.5029437,23.0757583 21.8008562,23.4727304 21.8008562,23.9244349 C21.8008562,24.3761393 21.5029437,24.7731114 21.070847,24.8971812 L17.0256857,24.8971812 C16.593589,24.7731114 16.2956765,24.3761393 16.2956765,23.9244349 C16.2956765,23.4727304 16.593589,23.0757583 17.0256857,22.9516885 Z M13.3095567,17.8934076 L8.29665342,22.9711435 C7.90114628,23.3686958 7.90114628,24.0132556 8.29665342,24.410808 C8.69216057,24.8083604 9.33340435,24.8083604 9.72891149,24.410808 L15.5353631,18.57433 C15.9238191,18.173868 15.9238191,17.5351275 15.5353631,17.1346655 L9.72891149,11.2981875 C9.47306323,11.0410162 9.10015626,10.9405793 8.75066104,11.0347106 C8.40116581,11.1288418 8.12817897,11.4032403 8.03453201,11.7545429 C7.94088504,12.1058454 8.04080516,12.4806807 8.29665342,12.7378521 L13.3095567,17.8934076 Z" id="形状" fill="#454C5C"></path>
            </g>
        </g>
    </g>
</svg>