<?xml version="1.0" encoding="UTF-8"?>
<svg width="28px" height="27px" viewBox="0 0 28 27" version="1.1" xmlns="http://www.w3.org/2000/svg" xmlns:xlink="http://www.w3.org/1999/xlink">
    <!-- Generator: Sketch 54 (76480) - https://sketchapp.com -->
    <title>yuanxing</title>
    <desc>Created with Sketch.</desc>
    <g id="页面1" stroke="none" stroke-width="1" fill="none" fill-rule="evenodd">
        <g id="app定制" transform="translate(-859.000000, -3085.000000)" fill-rule="nonzero" stroke="#454C5C" stroke-width="1.86666667">
            <g id="编组-37" transform="translate(783.000000, 3085.000000)">
                <g id="yuanxing" transform="translate(76.000000, 0.000000)">
                    <path d="M27.0317792,14.1972198 L27.0317757,14.1946602 L27.0317757,12.5650485 C27.0317757,12.2019974 26.7340162,11.9037217 26.3732087,11.9037217 L12.2728972,11.9037217 C11.9120897,11.9037217 11.6143302,12.2019974 11.6143302,12.5650485 L11.6143302,25.3834951 C11.6143302,25.7465463 11.9120897,26.044822 12.2728972,26.044822 L26.3775701,26.044822 C26.7383776,26.044822 27.0361371,25.7465463 27.0361371,25.3834951 L27.0361406,15.7875111 L27.0317792,14.1972198 Z" id="路径"></path>
                    <path d="M7.19626168,14.2064907 L7.19626168,12.4820388 C7.19626168,12.1189877 6.89850219,11.820712 6.5376947,11.820712 L1.62679128,11.820712 C1.26598379,11.820712 0.968224299,12.1189877 0.968224299,12.4820388 L0.968224299,25.3834951 C0.968224299,25.7465463 1.26598379,26.044822 1.62679128,26.044822 L6.53333333,26.044822 C6.89414082,26.044822 7.19190031,25.7465463 7.19190031,25.3834951 L7.1919038,15.7998745 L7.19626168,14.2064907 Z" id="路径"></path>
                    <path d="M27.0361371,6.5315534 L27.0361371,1.61650485 C27.0361371,1.25345371 26.7383776,0.955177994 26.3775701,0.955177994 L1.62242991,0.955177994 C1.26162242,0.955177994 0.963862928,1.25345371 0.963862928,1.61650485 L0.963862928,6.5315534 C0.963862928,6.89460454 1.26162242,7.19288026 1.62242991,7.19288026 L26.3775701,7.19288026 C26.7383776,7.19288026 27.0361371,6.89460454 27.0361371,6.5315534 Z" id="路径"></path>
                </g>
            </g>
        </g>
    </g>
</svg>