<?xml version="1.0" encoding="UTF-8"?>
<svg width="30px" height="30px" viewBox="0 0 30 30" version="1.1" xmlns="http://www.w3.org/2000/svg" xmlns:xlink="http://www.w3.org/1999/xlink">
    <!-- Generator: Sketch 55.1 (78136) - https://sketchapp.com -->
    <title>编组 23</title>
    <desc>Created with Sketch.</desc>
    <g id="页面1" stroke="none" stroke-width="1" fill="none" fill-rule="evenodd">
        <g id="app定制" transform="translate(-246.000000, -3084.000000)" fill-rule="nonzero">
            <g id="编组-23" transform="translate(246.000000, 3084.000000)">
                <path d="M17.7870968,18.0930818 L21.8322581,18.0930818 C22.2643548,18.2171516 22.5622673,18.6141237 22.5622673,19.0658281 C22.5622673,19.5175325 22.2643548,19.9145046 21.8322581,20.0385744 L17.7870968,20.0385744 C17.3550001,19.9145046 17.0570876,19.5175325 17.0570876,19.0658281 C17.0570876,18.6141237 17.3550001,18.2171516 17.7870968,18.0930818 Z M14.0709677,13.0348008 L9.05806452,18.1125367 C8.66255737,18.5100891 8.66255737,19.1546489 9.05806452,19.5522013 C9.45357166,19.9497537 10.0948154,19.9497537 10.4903226,19.5522013 L16.2967742,13.7157233 C16.6852301,13.3152612 16.6852301,12.6765207 16.2967742,12.2760587 L10.4903226,6.43958071 C10.2344743,6.18240941 9.86156735,6.08197258 9.51207213,6.17610381 C9.16257691,6.27023504 8.88959006,6.54463356 8.7959431,6.8959361 C8.70229613,7.24723863 8.80221625,7.62207398 9.05806452,7.87924528 L14.0709677,13.0348008 Z" id="形状" fill="#454C5C"></path>
                <path d="M28.9612903,24.5832285 L28.9612903,1 L1,1 L1,24.5832285 L28.9612903,24.5832285 Z" id="路径" stroke="#454C5C" stroke-width="2"></path>
                <path d="M28.9935484,29.042348 L0.967741935,29.042348 C0.433272823,29.042348 1.77635684e-14,28.5946328 1.77635684e-14,28.042348 C1.77635684e-14,27.4900633 0.433272823,27.042348 0.967741935,27.042348 L28.9935484,27.042348 C29.5280175,27.042348 29.9612903,27.4900633 29.9612903,28.042348 C29.9612903,28.5946328 29.5280175,29.042348 28.9935484,29.042348 Z" id="路径" fill="#000000"></path>
            </g>
        </g>
    </g>
</svg>