<?xml version="1.0" encoding="UTF-8"?>
<svg width="32px" height="35px" viewBox="0 0 32 35" version="1.1" xmlns="http://www.w3.org/2000/svg" xmlns:xlink="http://www.w3.org/1999/xlink">
    <!-- Generator: Sketch 55.1 (78136) - https://sketchapp.com -->
    <title>wendang</title>
    <desc>Created with Sketch.</desc>
    <g id="页面1" stroke="none" stroke-width="1" fill="none" fill-rule="evenodd">
        <g id="app定制" transform="translate(-551.000000, -3226.000000)">
            <g id="wendang" transform="translate(552.000000, 3227.000000)">
                <path d="M25.9552239,33 L4.02238806,33 C1.80597015,33 0,31.2134228 0,29.0208054 L0,3.97919463 C0,1.78657718 1.80597015,0 4.02238806,0 L19.108209,0 C19.4328358,0 19.7425373,0.132885906 19.9701493,0.361744966 L29.6455224,10.3281879 C29.858209,10.5496644 29.9776119,10.8412752 29.9776119,11.147651 L29.9776119,29.0208054 C29.9776119,31.2134228 28.1716418,33 25.9552239,33 Z" id="路径" stroke="#454C5C" stroke-width="2" fill-rule="nonzero"></path>
                <path d="M28.7947761,12.3288591 L21.9477612,12.3288591 C19.7313433,12.3288591 17.9253731,10.5422819 17.9253731,8.34966443 L17.9253731,1.18120805 C17.9253731,0.527852349 18.4589552,0 19.119403,0 C19.7798507,0 20.3134328,0.527852349 20.3134328,1.18120805 L20.3134328,8.34966443 C20.3134328,9.23926174 21.0447761,9.96644295 21.9477612,9.96644295 L28.7947761,9.96644295 C29.4552239,9.96644295 29.988806,10.4942953 29.988806,11.147651 C29.988806,11.8010067 29.4552239,12.3288591 28.7947761,12.3288591 Z" id="路径" fill="#454C5C" fill-rule="nonzero"></path>
                <g id="编组-24" transform="translate(8.000000, 13.000000)" fill="#454C5C">
                    <rect id="矩形" x="0" y="10" width="14" height="2" rx="1"></rect>
                    <rect id="矩形" x="2" y="3" width="2" height="6" rx="1"></rect>
                    <rect id="矩形" x="6" y="0" width="2" height="9" rx="1"></rect>
                    <rect id="矩形" x="10" y="0" width="2" height="9" rx="1"></rect>
                </g>
            </g>
        </g>
    </g>
</svg>