<?xml version="1.0" encoding="UTF-8"?>
<svg width="28px" height="28px" viewBox="0 0 28 28" version="1.1" xmlns="http://www.w3.org/2000/svg" xmlns:xlink="http://www.w3.org/1999/xlink">
    <!-- Generator: Sketch 55.1 (78136) - https://sketchapp.com -->
    <title>编组 5复制 3</title>
    <desc>Created with Sketch.</desc>
    <defs>
        <linearGradient x1="25.2982098%" y1="20.3375873%" x2="69.4163274%" y2="78.6604895%" id="linearGradient-1">
            <stop stop-color="#B8A3FD" offset="0%"></stop>
            <stop stop-color="#A674FD" offset="100%"></stop>
        </linearGradient>
        <linearGradient x1="25.2982098%" y1="20.3976564%" x2="69.4163274%" y2="78.6024494%" id="linearGradient-2">
            <stop stop-color="#B8A3FD" offset="0%"></stop>
            <stop stop-color="#A674FD" offset="100%"></stop>
        </linearGradient>
    </defs>
    <g id="页面1" stroke="none" stroke-width="1" fill="none" fill-rule="evenodd">
        <g id="app定制" transform="translate(-764.000000, -1515.000000)">
            <g id="编组-5复制-3" transform="translate(764.000000, 1515.000000)">
                <circle id="椭圆形复制-2" fill="url(#linearGradient-1)" opacity="0.15" cx="14" cy="14" r="14"></circle>
                <g id="lvyou" transform="translate(4.941176, 4.941176)" fill="url(#linearGradient-2)">
                    <path d="M9.85747673,12.8870201 L7.13991813,12.3431514 C7.17917176,12.0357735 7.20815905,11.73835 7.22416245,11.4545006 L9.08689789,10.1794405 C9.4081737,11.0916198 9.66090665,12.0185797 9.85747673,12.8870201 Z M7.62636113,7.10234388 L6.70752436,7.73097533 C6.79176868,7.94635098 6.87118178,8.17379249 6.93942269,8.42023775 L8.507454,8.73425182 C8.25653276,8.1855567 7.97632227,7.6588818 7.66108547,7.17383412 C7.65595231,7.16418144 7.64266648,7.13733488 7.62636113,7.10234388 Z M8.99872821,9.932392 C8.8861005,9.62441085 8.76411232,9.31914453 8.63397145,9.01840289 L7.00554995,8.69232296 C7.17252882,9.38671336 7.26643556,10.1966344 7.23835413,11.1371684 L8.99872821,9.932392 Z M4.31124158,5.61371806 C4.28044259,5.69848074 4.26141968,5.78867307 4.26141968,5.88489832 C4.26141968,6.18956135 4.43172002,6.45108893 4.6805276,6.58411507 C4.65425787,6.67460904 4.63583886,6.76842113 4.63583886,6.86675791 C4.63583886,7.42420076 5.07880091,7.87667062 5.62623799,7.87667062 C6.02300156,7.87667062 6.36239443,7.6374649 6.52031477,7.29479439 C6.55081182,7.3590451 6.58161081,7.42269254 6.61090006,7.49056301 L7.52188609,6.86645626 C7.50225928,6.82090764 7.48595393,6.78380511 7.47931101,6.77113594 C7.42103447,6.64927073 7.37242036,6.52740552 7.33105309,6.404937 C7.4442847,6.47069595 7.57412362,6.51202154 7.71422886,6.51202154 C8.14330116,6.51202154 8.49054477,6.15728517 8.49054477,5.72050093 C8.49054477,5.28401834 8.14330118,4.92898033 7.71422886,4.92898033 C7.49833393,4.92898033 7.30297166,5.0194743 7.16226251,5.1645663 C7.24620488,4.00835499 7.99927057,2.9700875 9.17174613,2.38700469 C10.25575,1.84886722 11.4795573,1.947204 12.4406672,2.53662139 C11.4862002,1.17860854 9.683553,0.675763707 8.15930457,1.43410317 C7.26673755,1.87722199 6.6513615,2.66421788 6.38504076,3.56221971 C6.38111539,2.89015117 6.56168206,2.30405188 7.06895967,1.75837322 C7.14867472,1.67361054 7.23261708,1.59065773 7.32229651,1.51283292 C8.23660401,0.71135798 9.44591757,0.490552699 10.5229766,0.812711239 C9.26021774,-0.25511762 7.39174524,-0.274422996 6.10634003,0.85283023 C5.36686214,1.49956048 4.96768297,2.39907054 4.92057862,3.31788598 C4.31335526,2.39122773 3.18707818,1.89743228 2.06170697,2.17193067 C0.768149075,2.48624644 -0.0791253042,3.70580351 0.00662877355,5.01374304 C0.301332907,4.1682277 0.994310347,3.48650647 1.9143549,3.26298635 C3.03006369,2.99150444 4.14577247,3.47323401 4.75601534,4.38420666 C3.8894161,4.03761476 2.88935453,4.0469658 1.98893679,4.50034059 C0.468613727,5.26591958 -0.244594415,7.02542402 0.225845173,8.62686566 C0.356589939,7.49116632 1.02873276,6.44384943 2.11001913,5.89998068 C2.82050972,5.54433936 3.59139052,5.46349807 4.31124158,5.61371806 Z M11.1465054,15.136097 L12.4065467,14.8836188 C12.3878257,14.7406383 12.3745399,14.6030875 12.3669911,14.4715696 L11.5034114,13.8800407 C11.3542476,14.3035524 11.2373926,14.7337004 11.1465054,15.136097 Z M12.6082499,12.7434364 L12.1812913,12.4514425 C12.1734406,12.4677314 12.1680054,12.4797973 12.164684,12.4840203 C12.0188417,12.7099536 11.8880969,12.953684 11.7718458,13.2082737 L12.4989437,13.0622768 C12.5315544,12.9488577 12.5674865,12.8438847 12.6082499,12.7434364 Z M11.7132673,13.3416015 C11.6528771,13.4806606 11.5970162,13.6230378 11.5441748,13.7663199 L12.3603482,14.3243661 C12.3470624,13.8878835 12.3902413,13.5132384 12.4684466,13.1895717 L11.7132673,13.3416015 Z M10.8376095,9.53512347 C11.3367345,9.38550677 11.8983632,9.4880666 12.3226043,9.85909189 C12.3642736,9.89619442 12.4035272,9.93390024 12.4400633,9.97432087 C12.6746791,10.2267991 12.7589235,10.498281 12.7571117,10.8098819 C12.6333119,10.3939112 12.3476663,10.0286173 11.9336915,9.82319594 C11.2268243,9.47087274 10.3907221,9.70464883 9.94655226,10.3344869 C10.3928358,10.0611951 10.9608055,10.0156465 11.4635539,10.2654098 C12.0079714,10.5356851 12.3576306,11.0177164 12.3959784,11.5537423 C12.330757,11.4861735 12.2398697,11.4442446 12.1393201,11.4442446 C11.9403344,11.4442446 11.7790926,11.608642 11.7790926,11.8119518 C11.7790926,12.0143566 11.9403344,12.1790556 12.1393201,12.1790556 C12.2039376,12.1790556 12.2640258,12.1600519 12.3162633,12.1298872 C12.2972404,12.1865968 12.275198,12.243608 12.2477205,12.2997143 C12.2453049,12.3060488 12.23836,12.3232427 12.2274898,12.3440563 L12.650825,12.6330337 C12.6644128,12.6028691 12.6789064,12.5727044 12.6927962,12.5428414 C12.7652644,12.7012059 12.9237887,12.8125134 13.1082807,12.8125134 C13.3619195,12.8125134 13.5672462,12.603774 13.5672462,12.3446596 C13.5672462,12.2997143 13.5590935,12.2547689 13.5470154,12.2131417 C13.6626626,12.1513042 13.7417738,12.0306455 13.7417738,11.8888716 C13.7417738,11.8442279 13.7330172,11.8029024 13.7185236,11.763085 C14.0521794,11.6937063 14.4102932,11.7311105 14.7403256,11.8961111 C15.2409603,12.148891 15.5534795,12.6351452 15.6141717,13.1606136 C15.8330861,12.4179597 15.501242,11.6020057 14.7961865,11.2466661 C14.3779844,11.0358151 13.9138858,11.0318937 13.5119891,11.1926713 C13.7952191,10.7697629 14.3136689,10.5465444 14.830005,10.6711244 C15.2566617,10.7757958 15.5785414,11.0928263 15.7150233,11.4837603 C15.7542769,10.8771491 15.3623445,10.3115617 14.7611602,10.1655648 C14.239087,10.0382699 13.7173157,10.2666164 13.4349916,10.697066 C13.4132511,10.2696328 13.2281552,9.85275729 12.8860447,9.55322225 C12.2902956,9.03016711 11.4236963,9.03831156 10.8376095,9.53512347 Z M12.811161,16.522163 C12.6148928,15.960497 12.4877715,15.4525242 12.4210403,15.0015626 L11.1184239,15.2627885 C11.0888327,15.3979262 11.062261,15.5276342 11.038105,15.6540241 L12.2800292,16.5037625 C12.2087688,16.501651 12.1356967,16.5001427 12.0638324,16.4977296 L11.0148547,15.7792074 C10.9680523,16.0428466 10.933026,16.2775276 10.9070583,16.4763127 C10.7578945,16.4738995 10.6063151,16.4738995 10.4562455,16.4732962 C10.4006865,15.9674349 10.3028544,15.1925049 10.1382911,14.2745944 L6.8316262,16.5387535 C6.66766684,16.545993 6.50823673,16.5544391 6.35001443,16.5622819 L10.0881672,14.004319 C10.0371375,13.7325355 9.98097465,13.4498926 9.91816885,13.159407 L7.10760936,12.5968361 C6.93700707,13.7581754 6.58825372,15.0830072 6.00850788,16.5812857 C3.5850495,16.7227579 1.94938118,16.9870003 1.94938118,17.2898535 C1.94907927,17.74172 5.56916927,18.1082206 10.0338161,18.1082206 C14.4987649,18.1082206 18.1176472,17.74172 18.1176472,17.2898535 C18.118251,16.9363237 15.9055544,16.6361853 12.811161,16.522163 Z" id="形状"></path>
                </g>
            </g>
        </g>
    </g>
</svg>