<?xml version="1.0" encoding="UTF-8"?>
<svg width="48px" height="48px" viewBox="0 0 48 48" version="1.1" xmlns="http://www.w3.org/2000/svg" xmlns:xlink="http://www.w3.org/1999/xlink">
    <!-- Generator: Sketch 59.1 (86144) - https://sketch.com -->
    <title>global-logo-white@3x</title>
    <desc>Created with Sketch.</desc>
    <g id="页面-1" stroke="none" stroke-width="1" fill="none" fill-rule="evenodd">
        <g id="画板" transform="translate(-820.000000, -954.000000)" fill="#FFFFFF">
            <g id="global-logo-white" transform="translate(820.000000, 954.000000)">
                <path d="M48,24 C48,37.2857143 37.2857143,48 24,48 C10.7142857,48 0,37.2857143 0,24 C0,10.7142857 10.7142857,0 24,0 C37.2857143,0 48,10.7142857 48,24 Z M23.7428571,18.2569714 C23.8285714,18.3426857 23.8285714,18.5141143 24,18.5141143 C24.1714286,18.5141143 24.1714286,18.3426857 24.2571429,18.2569714 L30.8571429,4.0284 C28.7142857,3.25697143 26.4,2.8284 24,2.8284 C21.6,2.8284 19.2857143,3.25697143 17.1428571,4.0284 L23.7428571,18.2569714 Z M17.0571429,33.9427714 C16.8857143,33.9427714 16.8857143,33.7713429 16.8,33.6856286 L6,12.9427714 C7.88571429,9.85705714 10.6285714,7.28562857 13.8,5.48562857 L21.4285714,21.9427714 C21.6,22.2856286 21.7714286,22.3713429 22.0285714,22.3713429 L25.9714286,22.3713429 C26.2285714,22.3713429 26.4,22.2856286 26.5714286,21.9427714 L34.1142857,5.48562857 C37.2857143,7.28562857 40.0285714,9.85705714 41.9142857,12.9427714 L31.2,33.6856286 C31.1142857,33.8570571 31.0285714,33.9427714 30.9428571,33.9427714 C30.7714286,33.9427714 30.7714286,33.7713429 30.6857143,33.6856286 L26.5714286,24.5999143 C26.4,24.2570571 26.2285714,24.1713429 25.9714286,24.1713429 L22.0285714,24.1713429 C21.7714286,24.1713429 21.6,24.2570571 21.4285714,24.5999143 L17.3142857,33.6856286 C17.2285714,33.7713429 17.2285714,33.9427714 17.0571429,33.9427714 Z M2.91430286,23.9999143 C2.91430286,35.5713429 12.4285714,45.1713429 24,45.1713429 C35.5714286,45.1713429 45.0857143,35.5713429 45.1714286,23.9999143 C45.1714286,21.5142 44.7428571,19.1999143 43.9714286,17.0570571 L31.6285714,41.0570571 C31.4571429,41.3999143 31.2857143,41.6570571 30.8571429,41.6570571 C30.4285714,41.6570571 30.2571429,41.3999143 30.0857143,41.0570571 L24.2571429,28.2856286 C24.1714286,28.1999143 24.1714286,28.0284857 24,28.0284857 C23.9142857,28.0284857 23.8285714,28.1142 23.7428571,28.2856286 L18,41.0570571 C17.8285714,41.3999143 17.6571429,41.6570571 17.2285714,41.6570571 C16.8,41.6570571 16.6285714,41.3999143 16.4571429,41.0570571 L4.11430286,17.0570571 C3.34287429,19.2856286 2.91430286,21.5999143 2.91430286,23.9999143 Z" id="logo-200"></path>
            </g>
        </g>
    </g>
</svg>