<?xml version="1.0" encoding="UTF-8"?>
<svg width="41px" height="45px" viewBox="0 0 41 45" version="1.1" xmlns="http://www.w3.org/2000/svg" xmlns:xlink="http://www.w3.org/1999/xlink">
    <!-- Generator: Sketch 59.1 (86144) - https://sketch.com -->
    <title>mijia_huaban@3x</title>
    <desc>Created with Sketch.</desc>
    <g id="页面-1" stroke="none" stroke-width="1" fill="none" fill-rule="evenodd">
        <g id="画板" transform="translate(-1231.000000, -958.000000)" fill="#FFFFFF">
            <g id="mijia_huaban" transform="translate(1230.992308, 958.000000)">
                <g id="形状">
                    <path d="M32.7166645,19.2886118 L32.7166645,23.6628606 C32.7166645,30.4642428 27.1858448,35.9743089 20.3588453,35.9743089 C15.2487752,35.9743089 10.8648371,32.8846154 8.98503708,28.4765625 L1.27582097,31.4648438 C4.12605932,39.2127404 11.5977556,44.7430889 20.3588453,44.7430889 C31.5833554,44.7430889 40.6837593,35.6768329 40.6837593,24.4944411 L40.6837593,16.1989183 L32.7166645,19.2886118 Z M8.02138506,24.0211839 C8.01459878,23.8994892 8.00102622,23.7845553 8.00102622,23.6628606 L8.00102622,8.78230168 L20.3588453,13.6162861 L32.7166645,8.78230168 L32.7166645,14.4546274 L40.6837593,11.3716947 L40.6837593,0.0135216346 L31.0743843,0.0135216346 L20.0534627,4.84750601 L9.03254105,0.0135216346 L0.0339314089,0.0135216346 L0.0339314089,24.4876803 C0.0339314089,25.3530649 0.0950079449,26.2049279 0.203588453,27.0432692 L8.02138506,24.0211839 L8.02138506,24.0211839 Z" fill-rule="nonzero"></path>
                </g>
            </g>
        </g>
    </g>
</svg>