<?xml version="1.0" encoding="UTF-8"?>
<svg width="30px" height="30px" viewBox="0 0 30 30" version="1.1" xmlns="http://www.w3.org/2000/svg" xmlns:xlink="http://www.w3.org/1999/xlink">
    <!-- Generator: Sketch 59.1 (86144) - https://sketch.com -->
    <title>H5</title>
    <desc>Created with Sketch.</desc>
    <defs>
        <linearGradient x1="50%" y1="0%" x2="77.5097498%" y2="100%" id="linearGradient-1">
            <stop stop-color="#FC992E" offset="0%"></stop>
            <stop stop-color="#FB8116" offset="100%"></stop>
        </linearGradient>
    </defs>
    <g id="页面-1" stroke="none" stroke-width="1" fill="none" fill-rule="evenodd">
        <g id="2-小程序备份" transform="translate(-917.000000, -365.000000)" fill-rule="nonzero">
            <g id="qianku-54156724377b82db50fbed400bb9a538-+-编组-4-蒙版" transform="translate(120.000000, 100.000000)">
                <g id="编组-4" transform="translate(208.000000, 168.000000)">
                    <g id="编组-6">
                        <g id="Header">
                            <g id="编组-29">
                                <g id="编组-7" transform="translate(589.000000, 97.000000)">
                                    <g id="H5">
                                        <g>
                                            <path d="M0.0179464286,14.9828571 C0.0179464286,23.2576607 6.72600006,29.9657143 15.0008036,29.9657143 C23.2756071,29.9657143 29.9836607,23.2576607 29.9836607,14.9828571 C29.9836607,6.70805363 23.2756071,0 15.0008036,0 C6.72600006,0 0.0179464286,6.70805363 0.0179464286,14.9828571 Z" id="路径" fill="url(#linearGradient-1)"></path>
                                            <path d="M9.60080357,10.5942857 L20.4008036,10.5942857 L20.2122321,12.4971429 L11.9665179,12.4971429 L12.1550893,14.4514286 L20.0065179,14.4514286 L19.4065179,20.28 L14.9836607,21.36 L10.5779464,20.28 L10.269375,17.2971429 L12.429375,17.2971429 L12.5836607,18.8057143 L14.9836607,19.3714286 L17.3836607,18.8057143 L17.6408036,16.3371429 L10.1836607,16.3371429 L9.60080357,10.5942857 L9.60080357,10.5942857 Z M6.39508929,7.42285714 L7.95508929,22.92 L14.9836607,24.6342857 L22.029375,22.9028571 L23.589375,7.42285714 L6.39508929,7.42285714 Z" id="形状" fill="#FFFFFF"></path>
                                        </g>
                                    </g>
                                </g>
                            </g>
                        </g>
                    </g>
                </g>
            </g>
        </g>
    </g>
</svg>