<?xml version="1.0" encoding="UTF-8"?>
<svg width="28px" height="24px" viewBox="0 0 28 24" version="1.1" xmlns="http://www.w3.org/2000/svg" xmlns:xlink="http://www.w3.org/1999/xlink">
    <!-- Generator: Sketch 59.1 (86144) - https://sketch.com -->
    <title>dianhuazixun</title>
    <desc>Created with Sketch.</desc>
    <g id="页面-1" stroke="none" stroke-width="1" fill="none" fill-rule="evenodd">
        <g id="2-4" transform="translate(-1089.000000, -41.000000)" fill="#0069FF" fill-rule="nonzero">
            <g id="dianhuazixun" transform="translate(1089.000000, 41.000000)">
                <g id="形状">
                    <path d="M19.7405227,4.77899854 C16.7782713,3.54406187 14.8438053,3.58424891 13.932838,3.58424891 C13.0218707,3.58424891 11.0970503,3.55275097 8.12622509,4.77899854 C6.37823956,5.50019287 7.36529944,7.22280462 4.64204299,8.36324745 C1.91878655,9.50369028 -0.0317552535,7.87991692 0.000396542905,5.99764317 C0.022902782,4.7355531 0.777398074,3.31271489 2.31746874,2.38949927 C6.26249312,0.0238949927 13.932838,0 13.932838,0 C13.932838,0 21.6042546,0.0238949927 25.5471356,2.38949927 C27.0754172,3.30728422 27.832056,4.71600266 27.8642078,5.97048978 C27.9135072,7.86471102 25.435676,9.24301765 23.223633,8.36324745 C21.0137335,7.48347727 21.4842213,5.50670969 19.7405227,4.77899854 L19.7405227,4.77899854 Z M11.9458575,8.5153065 L11.9458575,9.56451391 L15.9305358,9.56451391 L15.9305358,8.52399557 C15.9305358,7.96612915 16.376776,7.51388906 16.9272412,7.51388906 C17.4777064,7.51388906 17.9239466,7.96612915 17.9239466,8.52399557 L17.9239466,9.56451391 L25.9040204,16.7264949 L25.9040204,21.5054934 C25.9040204,22.8240626 24.5054176,23.8949927 23.223633,23.8949927 L4.64097128,23.8949927 C3.35918665,23.8949927 1.99380739,22.8240626 1.99380739,21.5054934 L1.99380739,16.7264949 L9.96959428,9.56451391 L9.96959428,8.51639263 C9.96959428,7.96332506 10.4119959,7.51497521 10.9577259,7.51497521 C11.5034559,7.51497521 11.9458575,7.96332506 11.9458575,8.51639263 L11.9458575,8.5153065 Z M13.956416,20.8625009 C16.15667,20.8625009 17.9410943,19.026931 17.9410943,16.7634235 C17.9410943,14.499916 16.15667,12.6654323 13.956416,12.6654323 C11.756162,12.6654323 9.97280945,14.5010022 9.97280945,16.7634235 C9.97280945,19.026931 11.7561619,20.8625009 13.956416,20.8625009 Z"></path>
                </g>
            </g>
        </g>
    </g>
</svg>