<?xml version="1.0" encoding="UTF-8"?>
<svg width="30px" height="30px" viewBox="0 0 30 30" version="1.1" xmlns="http://www.w3.org/2000/svg" xmlns:xlink="http://www.w3.org/1999/xlink">
    <!-- Generator: Sketch 59.1 (86144) - https://sketch.com -->
    <title>jinritoutiao</title>
    <desc>Created with Sketch.</desc>
    <defs>
        <linearGradient x1="19.1416054%" y1="0%" x2="67.836959%" y2="91.8756038%" id="linearGradient-1">
            <stop stop-color="#FF7C7C" offset="0%"></stop>
            <stop stop-color="#F52207" offset="100%"></stop>
        </linearGradient>
    </defs>
    <g id="页面-1" stroke="none" stroke-width="1" fill="none" fill-rule="evenodd">
        <g id="2-小程序备份" transform="translate(-581.000000, -365.000000)" fill-rule="nonzero">
            <g id="qianku-54156724377b82db50fbed400bb9a538-+-编组-4-蒙版" transform="translate(120.000000, 100.000000)">
                <g id="编组-4" transform="translate(208.000000, 168.000000)">
                    <g id="编组-6">
                        <g id="Header">
                            <g id="编组-29">
                                <g id="编组-14" transform="translate(253.000000, 97.000000)">
                                    <g id="jinritoutiao">
                                        <g>
                                            <path d="M15,0 C6.71484375,0 0,6.71484375 0,15 C0,23.2851562 6.71484375,30 15,30 C23.2851562,30 30,23.2851562 30,15 C30,6.71484375 23.2851562,0 15,0 Z" id="形状" fill="url(#linearGradient-1)"></path>
                                            <polygon id="路径" fill="#FEFEFE" points="7.11035156 10.4619141 8.73339844 12.5068359 6.51855469 12.6357422 4.89257812 10.5878906 7.11035156 10.4619141"></polygon>
                                            <polygon id="路径" fill="#FEFEFE" points="7.11035156 13.0224609 8.73339844 15.0703125 6.51855469 15.1962891 4.89257812 13.1484375 7.11035156 13.0224609"></polygon>
                                            <polygon id="路径" fill="#FEFEFE" points="7.79589844 20.7421875 7.79589844 20.7509766 4.06933594 20.9677734 4.06933594 19.6494141 6.29003906 19.5234375 8.10058594 17.1416016 4.01660156 17.3671875 4.01660156 16.0546875 9.890625 15.7177734 9.890625 9.9140625 11.8974609 9.80566406 11.8974609 15.6005859 14.3671875 15.4599609 14.3671875 16.78125 10.6494141 16.9921875"></polygon>
                                            <polygon id="路径" fill="#FEFEFE" points="12.421875 20.4785156 10.828125 17.3525391 13.0546875 17.2441406 14.6484375 20.3613281"></polygon>
                                            <polygon id="路径" fill="#FEFEFE" points="17.5429688 8.64257812 19.1455078 9.40722656 23.7714844 9.140625 25.7783203 9.0234375 25.7783203 11.3056641 22.4736328 12.9316406 24.9667969 13.8544922 25.9365234 13.7988281 25.9365234 15.1201172 24.4921875 15.2050781 24.4921875 15.1962891 20.71875 13.8046875 17.0244141 15.6240234 15.5947266 15.703125 15.5947266 14.3818359 16.546875 14.3583984 18.9521484 13.171875 17.5371094 12.6474609 18.3427734 11.4199219 20.71875 12.2958984 23.7802734 10.7871094 23.7802734 10.4677734 18.2900391 10.7841797 17.1972656 12.5185547 15.4951172 11.9003906"></polygon>
                                            <polygon id="路径" fill="#FEFEFE" points="17.6074219 20.203125 15.6005859 20.3115234 16.9365234 17.7275391 18.9433594 17.6103516"></polygon>
                                            <polygon id="路径" fill="#FEFEFE" points="21.7822266 19.9541016 19.7666016 20.0712891 19.7666016 17.1650391 15.5947266 17.3994141 15.5947266 16.0869141 19.7666016 15.84375 19.7666016 15.1787109 21.7822266 15.0703125 21.7822266 15.7265625 25.9453125 15.4921875 25.9453125 16.8134766 21.7822266 17.0537109"></polygon>
                                            <polygon id="路径" fill="#FEFEFE" points="24.3193359 19.8105469 22.8515625 17.3730469 24.8583984 17.2646484 26.3261719 19.7021484"></polygon>
                                        </g>
                                    </g>
                                </g>
                            </g>
                        </g>
                    </g>
                </g>
            </g>
        </g>
    </g>
</svg>