<?xml version="1.0" encoding="UTF-8"?>
<svg width="30px" height="30px" viewBox="0 0 30 30" version="1.1" xmlns="http://www.w3.org/2000/svg" xmlns:xlink="http://www.w3.org/1999/xlink">
    <!-- Generator: Sketch 59.1 (86144) - https://sketch.com -->
    <title>wechat</title>
    <desc>Created with Sketch.</desc>
    <defs>
        <linearGradient x1="29.4628563%" y1="0%" x2="72.5386328%" y2="100%" id="linearGradient-1">
            <stop stop-color="#8DDF66" offset="0%"></stop>
            <stop stop-color="#46BB36" offset="100%"></stop>
        </linearGradient>
    </defs>
    <g id="页面-1" stroke="none" stroke-width="1" fill="none" fill-rule="evenodd">
        <g id="2-小程序备份" transform="translate(-421.000000, -365.000000)" fill-rule="nonzero">
            <g id="qianku-54156724377b82db50fbed400bb9a538-+-编组-4-蒙版" transform="translate(120.000000, 100.000000)">
                <g id="编组-4" transform="translate(208.000000, 168.000000)">
                    <g id="编组-6">
                        <g id="Header">
                            <g id="编组-29">
                                <g id="编组-25" transform="translate(93.000000, 97.000000)">
                                    <g id="wechat">
                                        <g>
                                            <path d="M15.0012,0 C6.7203,0 0,6.7167 0,15 C0,23.2833 6.7203,30 15.0012,30 C23.2827,30 30,23.2833 30,15 C30,6.7167 23.2827,0 15.0012,0 Z" id="形状" fill="url(#linearGradient-1)"></path>
                                            <path d="M12.3519,18.5337 C11.5506,18.5337 10.9065,18.3705 10.104,18.2121 L7.8603,19.3374 L8.5017,17.4063 C6.8958,16.284 5.9337,14.8359 5.9337,13.0743 C5.9337,10.0206 8.8236,7.6164 12.3516,7.6164 C15.5067,7.6164 18.2706,9.5364 18.8268,12.1224 C18.6216579,12.0984149 18.4153372,12.0858954 18.2088,12.0849 C15.1599,12.0849 12.7527,14.3598 12.7527,17.1639 C12.7527,17.6295 12.8253,18.0792 12.9507,18.5088 C12.7515,18.525 12.5517,18.5334 12.3516,18.534 L12.3516,18.5337 L12.3519,18.5337 Z" id="路径" fill="#FFFFFF"></path>
                                            <path d="M21.8178,20.7819 L22.3008,22.3863 L20.5413,21.4218 C19.899,21.5829 19.2543,21.744 18.6153,21.744 C15.5613,21.744 13.1571,19.6572 13.1571,17.0871 C13.1571,14.5209 15.5616,12.4299 18.615,12.4299 C21.4977,12.4299 24.066,14.5209 24.066,17.0871 C24.066,18.5343 23.1066,19.8165 21.8178,20.7819 Z" id="路径" fill="#FFFFFF"></path>
                                            <path d="M9.2934,11.2179 C9.2934,11.7093 9.6984,12.1077 10.1985,12.1077 C10.698,12.1077 11.1033,11.7093 11.1033,11.2179 C11.1033,10.7262 10.6983,10.3278 10.1985,10.3278 C9.6987,10.3278 9.2934,10.7262 9.2934,11.2179 Z M16.2309,15.8157 C16.2309,16.0806 16.3749,16.3257 16.608,16.458 C16.841932,16.5905361 17.128268,16.5905361 17.3622,16.458 C17.5944146,16.3274513 17.7384659,16.0820943 17.7393,15.8157 C17.7393,15.4059 17.4015,15.0741 16.9851,15.0741 C16.5684,15.0741 16.2309,15.4062 16.2309,15.8157 L16.2309,15.8157 Z M13.8179993,11.2179 C13.8174,11.7093 14.2221,12.108 14.7219,12.1089 C15.2217,12.1089 15.627,11.7111 15.6279,11.2197 L15.6279,11.2179 C15.6279,10.9818 15.5322,10.7556 15.3627,10.5888 C15.1918622,10.4212788 14.9620673,10.3275509 14.7228,10.3277995 C14.4828,10.3277995 14.2527,10.4217 14.0829,10.5888 C13.9137445,10.7544473 13.8182868,10.9811458 13.8179993,11.2179 L13.8179993,11.2179 Z M19.8504,15.8157 C19.8504,16.0806 19.9944,16.3257 20.2275,16.458 C20.461432,16.5905361 20.747768,16.5905361 20.9817,16.458 C21.2139146,16.3274513 21.3579659,16.0820943 21.3588,15.8157 C21.3588,15.4059 21.021,15.0741 20.6046,15.0741 C20.1879,15.0741 19.8504,15.4062 19.8504,15.8157 L19.8504,15.8157 Z" id="形状" fill="#46BB36"></path>
                                        </g>
                                    </g>
                                </g>
                            </g>
                        </g>
                    </g>
                </g>
            </g>
        </g>
    </g>
</svg>