<?xml version="1.0" encoding="UTF-8"?>
<svg width="30px" height="30px" viewBox="0 0 30 30" version="1.1" xmlns="http://www.w3.org/2000/svg" xmlns:xlink="http://www.w3.org/1999/xlink">
    <!-- Generator: Sketch 59.1 (86144) - https://sketch.com -->
    <title>zhifubao</title>
    <desc>Created with Sketch.</desc>
    <defs>
        <linearGradient x1="7.34661341%" y1="-8.13924886%" x2="68.2918453%" y2="88.8133496%" id="linearGradient-1">
            <stop stop-color="#5DA5FF" offset="0%"></stop>
            <stop stop-color="#0069FF" offset="100%"></stop>
        </linearGradient>
    </defs>
    <g id="页面-1" stroke="none" stroke-width="1" fill="none" fill-rule="evenodd">
        <g id="2-小程序备份" transform="translate(-741.000000, -365.000000)">
            <g id="qianku-54156724377b82db50fbed400bb9a538-+-编组-4-蒙版" transform="translate(120.000000, 100.000000)">
                <g id="编组-4" transform="translate(208.000000, 168.000000)">
                    <g id="编组-6">
                        <g id="Header">
                            <g id="编组-29">
                                <g id="编组-12" transform="translate(413.000000, 97.000000)">
                                    <g id="zhifubao">
                                        <g>
                                            <circle id="椭圆形" fill="#FFFFFF" cx="15" cy="15" r="15"></circle>
                                            <path d="M17.2027351,19.7084013 C17.2027351,19.7084013 14.9681102,21.4931016 14.2032386,21.9580236 C13.5765066,22.3182356 12.9127868,22.6098701 12.223571,22.8278776 C11.7359205,22.9941818 11.233834,23.1146825 10.7238228,23.1878171 L9.61400909,23.277802 L9.05910226,23.277802 C8.325525,23.2835214 7.59438012,23.1927586 6.88446736,23.0078473 C6.2460161,22.8465266 5.64158806,22.5722483 5.09976699,22.1979833 C4.60082979,21.8469012 4.19013317,21.3848675 3.89996841,20.8482099 C3.59757244,20.2652128 3.44793426,19.6150607 3.46504141,18.9585272 C3.47561508,18.3621145 3.65219187,17.7804498 3.9749558,17.2788092 C4.30356107,16.7682858 4.73209305,16.3295507 5.23474431,15.9890257 C5.75918865,15.6356076 6.33621821,15.3673395 6.94445727,15.1941591 C7.55129943,15.0386495 8.1794043,14.9829305 8.80414506,15.0291868 C9.40406422,15.0567901 10.000842,15.1320142 10.5888454,15.2541491 C11.1459928,15.3701235 11.6966599,15.5152994 12.2385685,15.6890761 C12.7684795,15.8590475 13.2683956,16.0440165 13.7383167,16.2439829 L15.0730926,16.8138872 L15.5980045,17.023852 L16.1679088,17.2338167 C16.5498642,16.7604778 16.8957767,16.2591554 17.2027351,15.7340685 C17.4826881,15.2341524 17.7126495,14.7792288 17.8926192,14.3692976 C18.072589,13.9593665 18.2125655,13.6144244 18.3125487,13.3344714 C18.412532,13.0545184 18.4775211,12.8595511 18.507516,12.7495696 L9.37404939,12.7495696 L9.37404939,11.6547533 L13.6783268,11.6547533 L13.6783268,9.31514614 L7.6793339,9.31514614 L7.6793339,8.29531736 L13.6783268,8.29531736 L13.6783268,6.4056346 C13.6524094,6.24700068 13.7394946,6.09149145 13.8882915,6.03069754 C14.0377318,5.94884379 14.2000279,5.8930545 14.3682109,5.86572525 C14.6075826,5.84196744 14.8487184,5.84196744 15.0880901,5.86572525 L16.7078181,5.86572525 L16.7078181,8.29531736 L22.8717833,8.29531736 L22.8717833,9.30014867 L16.7078181,9.30014867 L16.7078181,11.6547533 L21.6119948,11.6547533 C21.50354,12.3274998 21.337969,12.9897837 21.1170779,13.634421 C20.877727,14.3396429 20.5869965,15.0263684 20.2472239,15.6890761 C19.8259566,16.5307735 19.3236666,17.3294145 18.7474757,18.0736757 C21.913194,19.525254 25.2487663,20.5732888 28.6758089,21.193152 C31.9895703,13.8845764 28.9631183,5.26249759 21.8083801,1.62848957 C14.653642,-2.00551845 5.90605562,0.63633448 1.958924,7.62321104 C-1.98820762,14.6100876 0.263867898,23.4660353 7.06918782,27.7185537 C13.8745077,31.9710721 22.8214582,30.1131883 27.371028,23.5027642 C23.8754527,22.5731606 20.4796992,21.3022647 17.23273,19.7084013 L17.2027351,19.7084013 Z M5.41471411,19.0335146 C5.41471411,21.6130815 8.26423573,21.7930513 8.71416017,21.808094 C9.99696591,21.8128044 11.2532188,21.442705 12.3285534,20.7432275 C13.2151631,20.1294796 14.0525614,19.4475265 14.8331329,18.7035699 L14.9981052,18.5385977 L13.7983066,17.9237009 C12.5052782,17.1990773 11.1017245,16.6923792 9.64400406,16.4239527 C6.28456806,16.0790106 5.42971158,18.1936556 5.39971661,18.9735246 L5.41471411,19.0335146 Z" id="形状" fill="url(#linearGradient-1)" fill-rule="nonzero"></path>
                                        </g>
                                    </g>
                                </g>
                            </g>
                        </g>
                    </g>
                </g>
            </g>
        </g>
    </g>
</svg>