<?xml version="1.0" encoding="UTF-8"?>
<svg width="20px" height="17px" viewBox="0 0 20 17" version="1.1" xmlns="http://www.w3.org/2000/svg" xmlns:xlink="http://www.w3.org/1999/xlink">
    <!-- Generator: Sketch 59.1 (86144) - https://sketch.com -->
    <title>音频</title>
    <desc>Created with Sketch.</desc>
    <g id="页面-1" stroke="none" stroke-width="1" fill="none" fill-rule="evenodd">
        <g id="1" transform="translate(-1380.000000, -3057.000000)" fill-rule="nonzero">
            <g id="音频" transform="translate(1379.000000, 3055.000000)">
                <rect id="矩形" fill="#000000" opacity="0" x="0" y="0" width="22" height="22"></rect>
                <path d="M18.7916667,11 L17.875,11 L17.875,8.84583333 C17.875,5.231875 14.790875,2.29166667 11,2.29166667 C7.209125,2.29166667 4.125,5.231875 4.125,8.84583333 L4.125,11 L3.20833333,11 C2.4489418,11 1.83333333,11.6156085 1.83333333,12.375 L1.83333333,16.9583333 C1.83333333,17.7177249 2.4489418,18.3333333 3.20833333,18.3333333 L4.125,18.3333333 C4.88439153,18.3333333 5.5,17.7177249 5.5,16.9583333 L5.5,8.84583333 C5.5,5.98995833 7.96720833,3.66666667 11,3.66666667 C14.0327917,3.66666667 16.5,5.98995835 16.5,8.84583333 L16.5,16.9583333 C16.5,17.7177249 17.1156085,18.3333333 17.875,18.3333333 L18.7916667,18.3333333 C19.5510582,18.3333333 20.1666667,17.7177249 20.1666667,16.9583333 L20.1666667,12.375 C20.1666667,11.6156085 19.5510582,11 18.7916667,11 Z" id="路径" fill="#FFFFFF"></path>
                <path d="M11.9702917,15.1822917 L11.9551667,15.1822917 C11.6835501,15.1760978 11.4409811,15.0107343 11.3359583,14.7601667 L10.2785833,12.2315417 L10.0255833,12.9034583 C9.92478985,13.1714773 9.66842843,13.3489583 9.38208333,13.3489583 L7.33333333,13.3489583 C6.95363756,13.3489583 6.64583333,13.0411541 6.64583333,12.6614583 C6.64583333,12.2817626 6.95363756,11.9739583 7.33333333,11.9739583 L8.90679167,11.9739583 L9.60208333,10.1277917 C9.70154165,9.86425 9.95133333,9.68779167 10.2332083,9.68229167 C10.500875,9.670375 10.7712917,9.84454167 10.8799167,10.1044167 L12.007875,12.8017083 L12.211375,12.3690417 C12.3248818,12.1282442 12.5671244,11.9745442 12.8333333,11.9744167 L14.6666667,11.9744167 C15.0463624,11.9744167 15.3541667,12.2822209 15.3541667,12.6619167 C15.3541667,13.0416124 15.0463624,13.3494167 14.6666667,13.3494167 L13.2696667,13.3494167 L12.59225,14.788125 C12.4786984,15.0288213 12.2364282,15.1823603 11.9702917,15.1822917 Z" id="路径" fill="#FFFFFF"></path>
            </g>
        </g>
    </g>
</svg>