<?xml version="1.0" encoding="UTF-8"?>
<svg width="20px" height="20px" viewBox="0 0 20 20" version="1.1" xmlns="http://www.w3.org/2000/svg" xmlns:xlink="http://www.w3.org/1999/xlink">
    <!-- Generator: Sketch 59.1 (86144) - https://sketch.com -->
    <title>聊天</title>
    <desc>Created with Sketch.</desc>
    <g id="页面-1" stroke="none" stroke-width="1" fill="none" fill-rule="evenodd">
        <g id="1" transform="translate(-1380.000000, -2992.000000)" fill-rule="nonzero">
            <g id="聊天" transform="translate(1379.000000, 2991.000000)">
                <rect id="矩形" fill="#000000" opacity="0" x="0" y="0" width="22" height="22"></rect>
                <path d="M20.625,13.6858333 L20.625,18.49375 C20.625,20.0658333 19.7954167,20.625 19.0254167,20.625 L13.6858333,20.625 C10.78,20.625 8.22708333,18.9520833 7.07208333,16.5 L8.29125,16.5 C12.4208333,16.5 15.9179167,13.5070833 16.43125,9.53791667 C16.54125,8.68083335 16.5183333,7.82833335 16.3625,7.00791667 C18.8879167,8.13083335 20.625,10.725 20.625,13.6858333 L20.625,13.6858333 Z" id="路径" fill="#FFFFFF"></path>
                <path d="M15.345,6.65041667 C15.1845833,6.03625 14.9370833,5.445 14.61625,4.895 L14.6116667,4.895 C14.3051113,4.36975126 13.932337,3.88606884 13.5025,3.45583333 C11.935,1.88833333 9.7625,1.15041665 7.53958333,1.43458333 C4.02416667,1.88833333 1.375,4.98666667 1.375,8.64416667 L1.375,13.4520833 C1.375,15.0241667 2.20458333,15.5833333 2.97458333,15.5833333 L8.31416667,15.5833333 C11.9716667,15.5833333 15.07,12.9341667 15.52375,9.41875 C15.6475,8.47 15.57875,7.535 15.345,6.65041667 L15.345,6.65041667 Z M10.7767917,9.31058333 L9.12816667,10.9592083 C8.94085531,11.1471411 8.68629592,11.2525613 8.42095833,11.2520849 C8.15562074,11.2525613 7.90106136,11.1471411 7.71375,10.9592083 L6.065125,9.31058333 C5.773625,9.01908333 5.61275,8.63179165 5.61275,8.21883333 C5.61275,7.805875 5.77316667,7.41858333 6.06466667,7.126625 L6.11783333,7.07391667 C6.699,6.49183335 7.717875,6.491375 8.300875,7.07483333 L8.4205,7.19445833 L8.54058333,7.074375 C9.123125,6.49183333 10.1410833,6.491375 10.7245417,7.07483333 L10.7767917,7.126625 C11.0682917,7.41858333 11.2287083,7.805875 11.2287083,8.21883333 C11.2287083,8.63179165 11.0682917,9.01954165 10.7767917,9.31058333 L10.7767917,9.31058333 Z" id="形状" fill="#FFFFFF"></path>
            </g>
        </g>
    </g>
</svg>