<?xml version="1.0" encoding="UTF-8"?>
<svg width="20px" height="18px" viewBox="0 0 20 18" version="1.1" xmlns="http://www.w3.org/2000/svg" xmlns:xlink="http://www.w3.org/1999/xlink">
    <!-- Generator: Sketch 59.1 (86144) - https://sketch.com -->
    <title>纸</title>
    <desc>Created with Sketch.</desc>
    <g id="页面-1" stroke="none" stroke-width="1" fill="none" fill-rule="evenodd">
        <g id="1" transform="translate(-1380.000000, -2929.000000)" fill-rule="nonzero">
            <g id="纸" transform="translate(1379.000000, 2927.000000)">
                <rect id="矩形" fill="#000000" opacity="0" x="0" y="0" width="22" height="22"></rect>
                <path d="M15.3541667,19.0208333 L4.8125,19.0208333 C2.91683333,19.0208333 1.375,17.479 1.375,15.5833333 L1.375,8.70833333 C1.375,7.57120833 2.300375,6.64583333 3.4375,6.64583333 L16.5165,6.64583333 C17.7724117,6.6473486 18.7901514,7.66508833 18.7916667,8.921 L18.7916667,15.5833333 C18.7916667,17.479 17.2498333,19.0208333 15.3541667,19.0208333 L15.3541667,19.0208333 Z M3.4375,8.02083333 C3.05845833,8.02083333 2.75,8.32929165 2.75,8.70833333 L2.75,15.5833333 C2.75,16.7204583 3.675375,17.6458333 4.8125,17.6458333 L15.3541667,17.6458333 C16.4912917,17.6458333 17.4166667,16.7204583 17.4166667,15.5833333 L17.4166667,8.921 C17.4161614,8.42406111 17.0134389,8.02133859 16.5165,8.02083333 L3.4375,8.02083333 Z" id="形状" fill="#FFFFFF"></path>
                <path d="M17.875,2.97916667 L7.33333333,2.97916667 C5.81455026,2.97916667 4.58333333,4.21038361 4.58333333,5.72916667 L4.58333333,19.0208333 L17.875,19.0208333 C19.3937831,19.0208333 20.625,17.7896164 20.625,16.2708333 L20.625,5.72916667 C20.625,4.21038361 19.3937831,2.97916667 17.875,2.97916667 Z M8.9375,8.02083333 L10.7708333,8.02083333 C11.1505291,8.02083333 11.4583333,8.32863756 11.4583333,8.70833333 C11.4583333,9.08802909 11.1505291,9.39583333 10.7708333,9.39583333 L8.9375,9.39583333 C8.55780423,9.39583333 8.25,9.08802909 8.25,8.70833333 C8.25,8.32863756 8.55780423,8.02083333 8.9375,8.02083333 Z M16.2708333,13.9791667 L8.9375,13.9791667 C8.55780423,13.9791667 8.25,13.6713624 8.25,13.2916667 C8.25,12.9119709 8.55780423,12.6041667 8.9375,12.6041667 L16.2708333,12.6041667 C16.6505291,12.6041667 16.9583333,12.9119709 16.9583333,13.2916667 C16.9583333,13.6713624 16.6505291,13.9791667 16.2708333,13.9791667 Z M16.2708333,11.6875 L8.9375,11.6875 C8.55780423,11.6875 8.25,11.3796958 8.25,11 C8.25,10.6203042 8.55780423,10.3125 8.9375,10.3125 L16.2708333,10.3125 C16.6505291,10.3125 16.9583333,10.6203042 16.9583333,11 C16.9583333,11.3796958 16.6505291,11.6875 16.2708333,11.6875 Z M16.2708333,9.39583333 L13.0625,9.39583333 C12.6828042,9.39583333 12.375,9.08802909 12.375,8.70833333 C12.375,8.32863756 12.6828042,8.02083333 13.0625,8.02083333 L16.2708333,8.02083333 C16.6505291,8.02083333 16.9583333,8.32863756 16.9583333,8.70833333 C16.9583333,9.08802909 16.6505291,9.39583333 16.2708333,9.39583333 Z" id="形状" fill="#FFFFFF"></path>
            </g>
        </g>
    </g>
</svg>