<?xml version="1.0" encoding="UTF-8"?>
<svg width="20px" height="16px" viewBox="0 0 20 16" version="1.1" xmlns="http://www.w3.org/2000/svg" xmlns:xlink="http://www.w3.org/1999/xlink">
    <!-- Generator: Sketch 59.1 (86144) - https://sketch.com -->
    <title>微信</title>
    <desc>Created with Sketch.</desc>
    <g id="页面-1" stroke="none" stroke-width="1" fill="none" fill-rule="evenodd">
        <g id="1" transform="translate(-1380.000000, -3122.000000)" fill-rule="nonzero">
            <g id="微信" transform="translate(1379.000000, 3119.000000)">
                <rect id="矩形" fill="#000000" opacity="0" x="0" y="0" width="22" height="22"></rect>
                <path d="M14.4074219,7.90410156 C14.6287109,7.90410156 14.8457031,7.92128906 15.0626953,7.94492187 C14.4740234,5.19921875 11.5392578,3.16035156 8.18769531,3.16035156 C4.44296875,3.16035156 1.375,5.71269531 1.375,8.9546875 C1.375,10.8259766 2.39550781,12.3621094 4.10136719,13.5544922 L3.4203125,15.6041016 L5.80078125,14.4095703 C6.65371094,14.5792969 7.33691406,14.7511719 8.18769531,14.7511719 C8.40039062,14.7511719 8.61308594,14.7404297 8.82363281,14.7232422 C8.69042969,14.2677734 8.61308594,13.7908203 8.61308594,13.2966797 C8.61523438,10.3189453 11.1697266,7.90410156 14.4074219,7.90410156 L14.4074219,7.90410156 Z M10.7443359,6.05644531 C11.2578125,6.05644531 11.5972656,6.39375 11.5972656,6.90722656 C11.5972656,7.41855469 11.2578125,7.76015625 10.7443359,7.76015625 C10.2330078,7.76015625 9.72167297,7.41855469 9.72167297,6.90722656 C9.71953125,6.39375 10.2330078,6.05644531 10.7443359,6.05644531 L10.7443359,6.05644531 Z M5.97480469,7.76015625 C5.46347656,7.76015625 4.94785156,7.41855469 4.94785156,6.90722656 C4.94785156,6.39375 5.46347656,6.05644531 5.97480469,6.05644531 C6.48613281,6.05644531 6.82558594,6.39375 6.82558594,6.90722656 C6.82558594,7.41855469 6.48613281,7.76015625 5.97480469,7.76015625 Z" id="形状" fill="#FFFFFF"></path>
                <path d="M20.625,13.2150391 C20.625,10.4908203 17.8986328,8.27148438 14.8371094,8.27148438 C11.5951172,8.27148438 9.04277344,10.4908203 9.04277344,13.2150391 C9.04277344,15.9435547 11.5951172,18.1585937 14.8371094,18.1585937 C15.5160156,18.1585937 16.2013672,17.9867187 16.8824219,17.8169922 L18.7515625,18.8396484 L18.2402344,17.1380859 C19.6066406,16.1111328 20.625,14.7511719 20.625,13.2150391 L20.625,13.2150391 Z M12.959375,12.3621094 C12.6199219,12.3621094 12.2783203,12.0248047 12.2783203,11.6810547 C12.2783203,11.3416016 12.6199219,11 12.959375,11 C13.475,11 13.8123047,11.3416016 13.8123047,11.6810547 C13.8123047,12.0248047 13.475,12.3621094 12.959375,12.3621094 Z M16.70625,12.3621094 C16.3689453,12.3621094 16.0294922,12.0248047 16.0294922,11.6810547 C16.0294922,11.3416016 16.3689453,11 16.70625,11 C17.2175781,11 17.5591797,11.3416016 17.5591797,11.6810547 C17.5591797,12.0248047 17.2175781,12.3621094 16.70625,12.3621094 Z" id="形状" fill="#FFFFFF"></path>
            </g>
        </g>
    </g>
</svg>