<?xml version="1.0" encoding="UTF-8"?>
<svg width="150px" height="120px" viewBox="0 0 150 120" version="1.1" xmlns="http://www.w3.org/2000/svg" xmlns:xlink="http://www.w3.org/1999/xlink">
    <!-- Generator: Sketch 52.5 (67469) - http://www.bohemiancoding.com/sketch -->
    <title>icon-OMS</title>
    <desc>Created with Sketch.</desc>
    <defs>
        <linearGradient x1="64.1164273%" y1="100%" x2="64.1164273%" y2="0%" id="linearGradient-1">
            <stop stop-color="#FFFFFF" offset="0%"></stop>
            <stop stop-color="#B2D2FF" offset="100%"></stop>
        </linearGradient>
    </defs>
    <g id="Page-1" stroke="none" stroke-width="1" fill="none" fill-rule="evenodd">
        <g id="制造业" transform="translate(-850.000000, -1642.000000)">
            <g id="Content-01" transform="translate(0.000000, 680.000000)">
                <g id="02" transform="translate(0.000000, 862.000000)">
                    <g id="解决方案" transform="translate(850.000000, 100.000000)">
                        <g id="icon-OMS">
                            <rect id="Rectangle" fill="#F7D2D2" fill-rule="nonzero" opacity="0.0338541667" x="0" y="0" width="150" height="120"></rect>
                            <rect id="Rectangle-12-Copy-2" fill="url(#linearGradient-1)" x="12" y="14" width="112" height="75" rx="2"></rect>
                            <path d="M13,14 L121,14 C122.104569,14 123,14.8954305 123,16 L123,89 L11,89 L11,16 C11,14.8954305 11.8954305,14 13,14 Z" id="Rectangle-12" stroke="#05101F" stroke-width="2"></path>
                            <path d="M2,89 L132,89 L132,95 C132,96.1045695 131.104569,97 130,97 L4,97 C2.8954305,97 2,96.1045695 2,95 L2,89 Z" id="Rectangle-12-Copy" stroke="#05101F" stroke-width="2"></path>
                            <path d="M56,89 L79,89 L79,89 C79,90.6568542 77.6568542,92 76,92 L59,92 C57.3431458,92 56,90.6568542 56,89 Z" id="Rectangle" stroke="#05101F" stroke-width="2" fill="#FFFFFF" fill-rule="nonzero"></path>
                            <rect id="Rectangle" stroke="#9AC3FF" stroke-width="2" fill="#FFFFFF" fill-rule="nonzero" x="18" y="21" width="98" height="61"></rect>
                            <g id="Group-17" transform="translate(32.000000, 29.000000)" fill-rule="nonzero" stroke="#0069FF" stroke-width="2">
                                <path d="M12,40 C5.372583,40 2.20268248e-13,34.627417 2.20268248e-13,28 C2.20268248e-13,21.372583 5.372583,16 12,16 C12.047363,16 12.0946619,16.0002744 12.1418953,16.0008217 C12.0483845,15.347354 12,14.6793274 12,14 C12,6.2680135 18.2680135,0 26,0 C28.5833576,0 31.0032896,0.699707941 33.0806172,1.91994488" id="Path" stroke-linecap="round" stroke-linejoin="round"></path>
                                <polyline id="Path-3" points="27 13 39.5 13 43 16.5 53.5 16.5"></polyline>
                                <circle id="Oval" fill="#FFFFFF" cx="26" cy="13" r="2"></circle>
                                <circle id="Oval-Copy" fill="#FFFFFF" cx="54" cy="16" r="2"></circle>
                                <path d="M26,23 L39,23" id="Path-12"></path>
                                <circle id="Oval-Copy-2" fill="#FFFFFF" cx="26" cy="23" r="2"></circle>
                                <polyline id="Path-19" points="26 33 45.5 33 49 27 60 27"></polyline>
                                <circle id="Oval-Copy-3" fill="#FFFFFF" cx="40" cy="23" r="2"></circle>
                                <circle id="Oval-Copy-4" fill="#FFFFFF" cx="26" cy="33" r="2"></circle>
                                <circle id="Oval-Copy-5" fill="#FFFFFF" cx="60" cy="27" r="2"></circle>
                                <circle id="Oval-Copy-6" fill="#FFFFFF" cx="54" cy="34" r="2"></circle>
                            </g>
                            <g id="Group-15" transform="translate(85.000000, 69.000000)">
                                <rect id="Rectangle-20" fill="#9AC3FF" x="0" y="0" width="52" height="32" rx="2"></rect>
                                <rect id="Rectangle-20-Copy" fill="#0069FF" x="4" y="4" width="52" height="32" rx="2"></rect>
                                <path d="M16.552,14 C18.296,14 19.672,14.56 20.68,15.696 C21.64,16.768 22.12,18.192 22.12,19.952 C22.12,21.712 21.64,23.12 20.68,24.192 C19.672,25.312 18.296,25.872 16.552,25.872 C14.792,25.872 13.416,25.296 12.424,24.176 C11.464,23.088 11,21.68 11,19.952 C11,18.208 11.464,16.8 12.424,15.712 C13.416,14.56 14.792,14 16.552,14 Z M16.552,15.648 C15.368,15.648 14.456,16.048 13.8,16.848 C13.176,17.616 12.872,18.64 12.872,19.952 C12.872,21.248 13.176,22.272 13.8,23.04 C14.44,23.824 15.368,24.224 16.552,24.224 C17.736,24.224 18.648,23.84 19.288,23.088 C19.912,22.336 20.232,21.296 20.232,19.952 C20.232,18.608 19.912,17.552 19.288,16.784 C18.648,16.016 17.736,15.648 16.552,15.648 Z M24.88,14.224 L27.072,14.224 L30.96,23.184 L31.024,23.184 L34.896,14.224 L37.088,14.224 L37.088,25.648 L35.216,25.648 L35.216,17.776 L35.152,17.776 L31.792,25.648 L30.176,25.648 L26.816,17.776 L26.752,17.776 L26.752,25.648 L24.88,25.648 L24.88,14.224 Z M44.36,14 C45.704,14 46.76,14.272 47.512,14.832 C48.312,15.424 48.776,16.352 48.888,17.6 L47.032,17.6 C46.872,16.896 46.568,16.384 46.152,16.08 C45.736,15.76 45.096,15.616 44.264,15.616 C43.544,15.616 43,15.712 42.616,15.92 C42.136,16.16 41.912,16.56 41.912,17.104 C41.912,17.584 42.168,17.984 42.712,18.272 C42.952,18.4 43.608,18.64 44.664,18.976 C46.216,19.456 47.208,19.84 47.656,20.096 C48.648,20.688 49.144,21.504 49.144,22.56 C49.144,23.584 48.744,24.4 47.944,24.992 C47.144,25.568 46.008,25.872 44.552,25.872 C43.144,25.872 42.04,25.6 41.256,25.056 C40.296,24.384 39.768,23.328 39.688,21.872 L41.544,21.872 C41.672,22.736 41.976,23.36 42.472,23.728 C42.92,24.048 43.608,24.224 44.552,24.224 C45.384,24.224 46.056,24.08 46.536,23.808 C47.016,23.52 47.272,23.152 47.272,22.672 C47.272,22.064 46.904,21.584 46.2,21.232 C45.976,21.12 45.24,20.864 43.976,20.48 C42.568,20.032 41.688,19.712 41.352,19.52 C40.472,18.992 40.04,18.224 40.04,17.216 C40.04,16.208 40.456,15.408 41.32,14.832 C42.12,14.272 43.128,14 44.36,14 Z" id="OMS" fill="#FFFFFF"></path>
                            </g>
                        </g>
                    </g>
                </g>
            </g>
        </g>
    </g>
</svg>