<?xml version="1.0" encoding="UTF-8"?>
<svg width="150px" height="120px" viewBox="0 0 150 120" version="1.1" xmlns="http://www.w3.org/2000/svg" xmlns:xlink="http://www.w3.org/1999/xlink">
    <!-- Generator: Sketch 52.3 (67297) - http://www.bohemiancoding.com/sketch -->
    <title>icon-ywxt</title>
    <desc>Created with Sketch.</desc>
    <defs>
        <linearGradient x1="64.1164273%" y1="100%" x2="64.1164273%" y2="0%" id="linearGradient-1">
            <stop stop-color="#FFFFFF" offset="0%"></stop>
            <stop stop-color="#B2D2FF" offset="100%"></stop>
        </linearGradient>
    </defs>
    <g id="制造业" stroke="none" stroke-width="1" fill="none" fill-rule="evenodd">
        <g transform="translate(-851.000000, -2582.000000)" id="Content-01">
            <g transform="translate(0.000000, 680.000000)">
                <g id="04" transform="translate(0.000000, 1802.000000)">
                    <g id="解决方案" transform="translate(850.000000, 100.000000)">
                        <g id="icon-ywxt" transform="translate(1.000000, 0.000000)">
                            <rect id="Rectangle" fill="#F7D2D2" fill-rule="nonzero" opacity="0.0554547991" x="0" y="0" width="150" height="120"></rect>
                            <rect id="Rectangle-12-Copy-2" fill="url(#linearGradient-1)" x="2" y="13" width="130" height="75" rx="2"></rect>
                            <path d="M4,13 L130,13 C131.104569,13 132,13.8954305 132,15 L132,88 L2,88 L2,15 C2,13.8954305 2.8954305,13 4,13 Z" id="Rectangle-12" stroke="#05101F" stroke-width="2"></path>
                            <path d="M2,88 L132,88 L132,94 C132,95.1045695 131.104569,96 130,96 L4,96 C2.8954305,96 2,95.1045695 2,94 L2,88 Z" id="Rectangle-12-Copy" stroke="#05101F" stroke-width="2" fill="#FFFFFF"></path>
                            <rect id="Rectangle" stroke="#05101F" stroke-width="2" fill-rule="nonzero" x="37" y="105" width="60" height="4"></rect>
                            <rect id="Rectangle-Copy-5" stroke="#05101F" stroke-width="2" fill-rule="nonzero" x="56" y="96" width="22" height="9"></rect>
                            <path d="M63,91 L75,91 L75,93 L63,93 L63,91 Z M59,91 L61,91 L61,93 L59,93 L59,91 Z" id="Combined-Shape" fill="#0069FF" fill-rule="nonzero"></path>
                            <path d="M38,51 L42,51 C43.1045695,51 44,51.8954305 44,53 L44,76 C44,77.1045695 43.1045695,78 42,78 L38,78 C36.8954305,78 36,77.1045695 36,76 L36,53 C36,51.8954305 36.8954305,51 38,51 Z M114,51 L118,51 C119.104569,51 120,51.8954305 120,53 L120,76 C120,77.1045695 119.104569,78 118,78 L114,78 C112.895431,78 112,77.1045695 112,76 L112,53 C112,51.8954305 112.895431,51 114,51 Z M57,38 L61,38 C62.1045695,38 63,38.8954305 63,40 L63,76 C63,77.1045695 62.1045695,78 61,78 L57,78 C55.8954305,78 55,77.1045695 55,76 L55,40 C55,38.8954305 55.8954305,38 57,38 Z M76,24 L80,24 C81.1045695,24 82,24.8954305 82,26 L82,76 C82,77.1045695 81.1045695,78 80,78 L76,78 C74.8954305,78 74,77.1045695 74,76 L74,26 C74,24.8954305 74.8954305,24 76,24 Z M95,29 L99,29 C100.104569,29 101,29.8954305 101,31 L101,76 C101,77.1045695 100.104569,78 99,78 L95,78 C93.8954305,78 93,77.1045695 93,76 L93,31 C93,29.8954305 93.8954305,29 95,29 Z" id="Combined-Shape" fill="#0069FF" fill-rule="nonzero"></path>
                            <path d="M15,70 L23,70 C24.1045695,70 25,70.8954305 25,72 L25,76 C25,77.1045695 24.1045695,78 23,78 L15,78 C13.8954305,78 13,77.1045695 13,76 L13,72 C13,70.8954305 13.8954305,70 15,70 Z M15,54 L23,54 C24.1045695,54 25,54.8954305 25,56 L25,60 C25,61.1045695 24.1045695,62 23,62 L15,62 C13.8954305,62 13,61.1045695 13,60 L13,56 C13,54.8954305 13.8954305,54 15,54 Z M15,38 L23,38 C24.1045695,38 25,38.8954305 25,40 L25,44 C25,45.1045695 24.1045695,46 23,46 L15,46 C13.8954305,46 13,45.1045695 13,44 L13,40 C13,38.8954305 13.8954305,38 15,38 Z M15,22 L23,22 C24.1045695,22 25,22.8954305 25,24 L25,28 C25,29.1045695 24.1045695,30 23,30 L15,30 C13.8954305,30 13,29.1045695 13,28 L13,24 C13,22.8954305 13.8954305,22 15,22 Z" id="Combined-Shape" fill="#9AC3FF" fill-rule="nonzero"></path>
                        </g>
                    </g>
                </g>
            </g>
        </g>
    </g>
</svg>