<?xml version="1.0" encoding="UTF-8"?>
<svg width="150px" height="120px" viewBox="0 0 150 120" version="1.1" xmlns="http://www.w3.org/2000/svg" xmlns:xlink="http://www.w3.org/1999/xlink">
    <!-- Generator: Sketch 52.5 (67469) - http://www.bohemiancoding.com/sketch -->
    <title>icon-CRM</title>
    <desc>Created with Sketch.</desc>
    <defs>
        <linearGradient x1="64.1164273%" y1="100%" x2="64.1164273%" y2="0%" id="linearGradient-1">
            <stop stop-color="#F4F9FF" offset="0%"></stop>
            <stop stop-color="#B2D2FF" offset="100%"></stop>
        </linearGradient>
    </defs>
    <g id="Page-1" stroke="none" stroke-width="1" fill="none" fill-rule="evenodd">
        <g id="制造业" transform="translate(-850.000000, -1182.000000)">
            <g id="Content-01" transform="translate(0.000000, 680.000000)">
                <g id="01" transform="translate(0.000000, 402.000000)">
                    <g id="解决方案" transform="translate(850.000000, 100.000000)">
                        <g id="icon-CRM">
                            <rect id="Rectangle" fill="#FFFFFF" fill-rule="nonzero" opacity="0.0405273438" x="0" y="0" width="150" height="120"></rect>
                            <rect id="Rectangle-12-Copy-2" fill="url(#linearGradient-1)" x="4" y="25" width="112" height="75" rx="2"></rect>
                            <path d="M4,25 L116,25 L116,98 C116,99.1045695 115.104569,100 114,100 L6,100 C4.8954305,100 4,99.1045695 4,98 L4,25 Z" id="Rectangle-12" stroke="#05101F" stroke-width="2"></path>
                            <path d="M28,36 L66,36 C66.5522847,36 67,36.4477153 67,37 L67,43 C67,43.5522847 66.5522847,44 66,44 L28,44 C27.4477153,44 27,43.5522847 27,43 L27,37 C27,36.4477153 27.4477153,36 28,36 Z M28,50 L90,50 C90.5522847,50 91,50.4477153 91,51 L91,57 C91,57.5522847 90.5522847,58 90,58 L28,58 C27.4477153,58 27,57.5522847 27,57 L27,51 C27,50.4477153 27.4477153,50 28,50 Z M28,78 L79,78 C79.5522847,78 80,78.4477153 80,79 L80,85 C80,85.5522847 79.5522847,86 79,86 L28,86 C27.4477153,86 27,85.5522847 27,85 L27,79 C27,78.4477153 27.4477153,78 28,78 Z M28,64 L50,64 C50.5522847,64 51,64.4477153 51,65 L51,71 C51,71.5522847 50.5522847,72 50,72 L28,72 C27.4477153,72 27,71.5522847 27,71 L27,65 C27,64.4477153 27.4477153,64 28,64 Z" id="Combined-Shape" fill="#0069FF"></path>
                            <path d="M16,36 L22,36 C22.5522847,36 23,36.4477153 23,37 L23,43 C23,43.5522847 22.5522847,44 22,44 L16,44 C15.4477153,44 15,43.5522847 15,43 L15,37 C15,36.4477153 15.4477153,36 16,36 Z M16,50 L22,50 C22.5522847,50 23,50.4477153 23,51 L23,57 C23,57.5522847 22.5522847,58 22,58 L16,58 C15.4477153,58 15,57.5522847 15,57 L15,51 C15,50.4477153 15.4477153,50 16,50 Z M16,78 L22,78 C22.5522847,78 23,78.4477153 23,79 L23,85 C23,85.5522847 22.5522847,86 22,86 L16,86 C15.4477153,86 15,85.5522847 15,85 L15,79 C15,78.4477153 15.4477153,78 16,78 Z M16,64 L22,64 C22.5522847,64 23,64.4477153 23,65 L23,71 C23,71.5522847 22.5522847,72 22,72 L16,72 C15.4477153,72 15,71.5522847 15,71 L15,65 C15,64.4477153 15.4477153,64 16,64 Z" id="Combined-Shape" fill="#9AC3FF"></path>
                            <path d="M6,16 L114,16 C115.104569,16 116,16.8954305 116,18 L116,25 L4,25 L4,18 C4,16.8954305 4.8954305,16 6,16 Z" id="Rectangle-12-Copy" stroke="#05101F" stroke-width="2"></path>
                            <path d="M9.5,22 C8.67157288,22 8,21.3284271 8,20.5 C8,19.6715729 8.67157288,19 9.5,19 C10.3284271,19 11,19.6715729 11,20.5 C11,21.3284271 10.3284271,22 9.5,22 Z M14.5,22 C13.6715729,22 13,21.3284271 13,20.5 C13,19.6715729 13.6715729,19 14.5,19 C15.3284271,19 16,19.6715729 16,20.5 C16,21.3284271 15.3284271,22 14.5,22 Z M19.5,22 C18.6715729,22 18,21.3284271 18,20.5 C18,19.6715729 18.6715729,19 19.5,19 C20.3284271,19 21,19.6715729 21,20.5 C21,21.3284271 20.3284271,22 19.5,22 Z" id="Combined-Shape" fill="#0069FF"></path>
                            <rect id="Rectangle-20" fill="#9AC3FF" x="77" y="69" width="52" height="32" rx="2"></rect>
                            <rect id="Rectangle-20-Copy" fill="#0069FF" x="81" y="73" width="52" height="32" rx="2"></rect>
                            <path d="M93.44,83 C94.768,83 95.872,83.336 96.736,84.04 C97.568,84.712 98.08,85.64 98.256,86.792 L96.56,86.792 C96.368,86.024 96,85.448 95.456,85.08 C94.912,84.712 94.24,84.536 93.408,84.536 C92.176,84.536 91.248,84.952 90.624,85.8 C90.032,86.568 89.744,87.624 89.744,88.952 C89.744,90.328 90.032,91.384 90.608,92.136 C91.216,92.936 92.16,93.336 93.44,93.336 C94.272,93.336 94.976,93.128 95.52,92.712 C96.096,92.264 96.496,91.592 96.72,90.696 L98.416,90.696 C98.16,92.024 97.568,93.064 96.624,93.816 C95.744,94.52 94.688,94.872 93.456,94.872 C91.584,94.872 90.176,94.264 89.232,93.08 C88.4,92.056 88,90.68 88,88.952 C88,87.256 88.416,85.88 89.28,84.808 C90.24,83.592 91.616,83 93.44,83 Z M101.176,83.224 L106.232,83.224 C107.384,83.224 108.312,83.48 108.984,84.008 C109.688,84.584 110.04,85.4 110.04,86.488 C110.04,87.096 109.88,87.624 109.56,88.088 C109.192,88.6 108.696,88.936 108.072,89.096 L108.072,89.128 C109.096,89.352 109.656,90.024 109.784,91.144 L109.976,92.968 C110.04,93.672 110.264,94.232 110.648,94.648 L108.76,94.648 C108.488,94.296 108.328,93.784 108.264,93.144 L108.12,91.72 C108.056,91.08 107.848,90.632 107.512,90.344 C107.16,90.056 106.664,89.928 106.008,89.928 L102.92,89.928 L102.92,94.648 L101.176,94.648 L101.176,83.224 Z M102.92,84.712 L102.92,88.44 L106.008,88.44 C106.776,88.44 107.352,88.264 107.736,87.944 C108.104,87.624 108.296,87.16 108.296,86.552 C108.296,85.912 108.104,85.448 107.752,85.16 C107.368,84.856 106.792,84.712 105.992,84.712 L102.92,84.712 Z M113.248,83.224 L115.312,83.224 L119.296,92.376 L119.344,92.376 L123.312,83.224 L125.376,83.224 L125.376,94.648 L123.632,94.648 L123.632,86.488 L123.568,86.488 L120.064,94.648 L118.56,94.648 L115.056,86.488 L114.992,86.488 L114.992,94.648 L113.248,94.648 L113.248,83.224 Z" id="CRM" fill="#FFFFFF"></path>
                        </g>
                    </g>
                </g>
            </g>
        </g>
    </g>
</svg>